<?xml version="1.0" standalone="no"?><!DOCTYPE svg PUBLIC "-//W3C//DTD SVG 1.1//EN" "http://www.w3.org/Graphics/SVG/1.1/DTD/svg11.dtd"><svg t="1567130090832" class="icon" viewBox="0 0 1129 1024" version="1.1" xmlns="http://www.w3.org/2000/svg" p-id="2000" xmlns:xlink="http://www.w3.org/1999/xlink" width="17.640625" height="16"><defs><style type="text/css"></style></defs><path d="M1006.344828 195.972414H123.586207c-10.593103 0-17.655172-7.062069-17.655173-17.655173s7.062069-17.655172 17.655173-17.655172h882.758621c10.593103 0 17.655172 7.062069 17.655172 17.655172s-7.062069 17.655172-17.655172 17.655173z" fill="#409EFF" p-id="2001"></path><path d="M579.089655 919.834483c-3.531034 0-7.062069-1.765517-8.827586-3.531035L247.172414 706.206897c-5.296552-3.531034-8.827586-8.827586-8.827586-14.124138v-512c0-10.593103 7.062069-17.655172 17.655172-17.655173s17.655172 7.062069 17.655172 17.655173v503.172413L577.324138 882.758621l284.248276-199.503449V178.317241c0-10.593103 7.062069-17.655172 17.655172-17.655172s17.655172 7.062069 17.655173 17.655172v512c0 5.296552-3.531034 10.593103-7.062069 14.124138l-300.137931 211.862069c-3.531034 1.765517-7.062069 3.531034-10.593104 3.531035z" fill="#409EFF" p-id="2002"></path><path d="M391.944828 540.248276h-31.779311V388.413793h31.779311v60.027586h58.262069V388.413793h33.544827v153.6h-31.77931v-67.089655h-58.262069v65.324138zM579.089655 542.013793c-47.668966-1.765517-72.386207-26.482759-74.151724-77.682759 1.765517-52.965517 26.482759-79.448276 74.151724-79.448275 47.668966 1.765517 70.62069 28.248276 72.386207 79.448275 0 51.2-24.717241 77.682759-72.386207 77.682759z m0-134.17931c-26.482759 0-38.841379 19.42069-38.841379 56.496551s12.358621 54.731034 38.841379 54.731035c24.717241 0 38.841379-17.655172 38.841379-54.731035s-12.358621-56.496552-38.841379-56.496551zM663.834483 413.131034V388.413793h123.586207v26.482759H741.517241v127.117241h-33.544827v-127.117241h-44.137931z" fill="#409EFF" p-id="2003"></path><path d="M787.42069 642.648276H360.165517c-10.593103 0-17.655172-7.062069-17.655172-17.655173s7.062069-17.655172 17.655172-17.655172h427.255173c10.593103 0 17.655172 7.062069 17.655172 17.655172s-7.062069 17.655172-17.655172 17.655173z" fill="#409EFF" p-id="2004"></path></svg>