<?xml version="1.0" standalone="no"?><!DOCTYPE svg PUBLIC "-//W3C//DTD SVG 1.1//EN" "http://www.w3.org/Graphics/SVG/1.1/DTD/svg11.dtd"><svg t="1569743136253" class="icon" viewBox="0 0 1024 1024" version="1.1" xmlns="http://www.w3.org/2000/svg" p-id="3543" width="20" height="20" xmlns:xlink="http://www.w3.org/1999/xlink"><defs><style type="text/css"></style></defs><path d="M630.8 697.1l-219-267.7-309.4 256-29.5-35.6 345.3-285.6L635.6 630l287.1-265.8 31.2 34.1z" fill="#333333" p-id="3544"></path><path d="M699.9 456.3c-56.2 0-101.9-45.7-101.9-101.9s45.7-101.9 101.9-101.9 101.9 45.7 101.9 101.9-45.7 101.9-101.9 101.9z m0-157.6c-30.7 0-55.7 25-55.7 55.7 0 30.7 25 55.7 55.7 55.7 30.7 0 55.7-25 55.7-55.7 0-30.7-25-55.7-55.7-55.7z" fill="#333333" p-id="3545"></path><path d="M797.7 119.1H226.3c-89.2 0-161.8 72.6-161.8 161.8v462.2c0 89.2 72.6 161.8 161.8 161.8h571.3c89.2 0 161.8-72.6 161.8-161.8V280.9c0.1-89.2-72.5-161.8-161.7-161.8z m115.5 624c0 63.7-51.8 115.6-115.6 115.6H226.3c-63.7 0-115.6-51.8-115.6-115.6V280.9c0-63.7 51.8-115.6 115.6-115.6h571.3c63.7 0 115.6 51.8 115.6 115.6v462.2z" fill="#333333" p-id="3546"></path></svg>