<?xml version="1.0" standalone="no"?><!DOCTYPE svg PUBLIC "-//W3C//DTD SVG 1.1//EN" "http://www.w3.org/Graphics/SVG/1.1/DTD/svg11.dtd"><svg t="1566801300906" class="icon" viewBox="0 0 1024 1024" version="1.1" xmlns="http://www.w3.org/2000/svg" p-id="3353" xmlns:xlink="http://www.w3.org/1999/xlink" width="16" height="16"><defs><style type="text/css"></style></defs><path d="M795.5 659H654.7v-42h98.8V407h-483v210h98.8v42H228.5V365h567z" fill="#409EFF" p-id="3354"></path><path d="M688.2 764H335.8V554h352.3v210z m-310.4-42h268.3V596H377.8v126zM688.2 407H335.8V260h352.3v147z m-310.4-42h268.3v-63H377.8v63z" fill="#409EFF" p-id="3355"></path><path d="M648.5 512c-23.2 0-42-18.8-42-42s18.8-42 42-42 42 18.8 42 42-18.8 42-42 42z m0-42h21-21z" fill="#409EFF" p-id="3356"></path></svg>