<?xml version="1.0" standalone="no"?><!DOCTYPE svg PUBLIC "-//W3C//DTD SVG 1.1//EN" "http://www.w3.org/Graphics/SVG/1.1/DTD/svg11.dtd"><svg t="1576929171787" class="icon" viewBox="0 0 1024 1024" version="1.1" xmlns="http://www.w3.org/2000/svg" p-id="7618" width="64" height="64" xmlns:xlink="http://www.w3.org/1999/xlink"><defs><style type="text/css"></style></defs><path d="M919.466667 533.333333H104.533333c-10.666667 0-19.2-8.533333-19.2-19.2V512c0-12.8 8.533333-21.333333 19.2-21.333333H917.333333c10.666667 0 19.2 8.533333 19.2 19.2v2.133333c2.133333 12.8-6.4 21.333333-17.066666 21.333333z" p-id="7619"></path><path d="M902.4 526.933333L629.333333 253.866667c-8.533333-8.533333-8.533333-21.333333 0-27.733334l2.133334-2.133333c8.533333-8.533333 21.333333-8.533333 27.733333 0l273.066667 273.066667c8.533333 8.533333 8.533333 21.333333 0 27.733333l-2.133334 2.133333c-6.4 8.533333-19.2 8.533333-27.733333 0z" p-id="7620"></path><path d="M902.4 497.066667L629.333333 770.133333c-8.533333 8.533333-8.533333 21.333333 0 27.733334l2.133334 2.133333c8.533333 8.533333 21.333333 8.533333 27.733333 0l273.066667-273.066667c8.533333-8.533333 8.533333-21.333333 0-27.733333l-2.133334-2.133333c-6.4-8.533333-19.2-8.533333-27.733333 0z" p-id="7621"></path></svg>