<?xml version="1.0" standalone="no"?><!DOCTYPE svg PUBLIC "-//W3C//DTD SVG 1.1//EN" "http://www.w3.org/Graphics/SVG/1.1/DTD/svg11.dtd"><svg t="1564729790391" class="icon" viewBox="0 0 1024 1024" version="1.1" xmlns="http://www.w3.org/2000/svg" p-id="2596" width="32" height="32" xmlns:xlink="http://www.w3.org/1999/xlink"><defs><style type="text/css"></style></defs><path d="M512.32 1010.144c-263.168 0-477.312-212.608-477.312-473.92 0-39.456 4.896-78.688 14.56-116.544 6.24-24.512 14.528-48.672 24.64-71.84 3.52-8.064 9.824-13.792 17.28-17.12 18.752-30.112 49.632-94.144 49.536-191.264-6.336-8.224-14.88-16.096-26.752-23.008-13.6-7.936-31.84-30.4-29.632-55.68 1.6-18.496 13.696-33.632 32.352-40.544 25.728-9.504 61.728-7.744 113.408 5.6l5.248 1.792c29.92 12.96 117.472 47.2 162.752 50.08 15.264 0.864 32.416-2.752 50.592-6.656 18.944-4.096 40.448-8.736 63.328-8.736 263.168 0 477.28 212.608 477.28 473.92s-214.112 473.92-477.28 473.92zM573.6 333.312c-32.352 0-58.816 55.36-61.312 125.696 21.312 0.064 51.392-1.888 71.872-12 0 0-27.744 58.496-63.904 90.688 10.624 40.96 30.528 68.64 53.376 68.64 33.984 0 61.568-61.12 61.568-136.512s-27.552-136.544-61.568-136.544zM772.64 298.144c-32.352 0-58.816 55.36-61.312 125.696 21.312 0.064 51.36-1.888 71.872-11.968 0 0-27.744 58.496-63.904 90.688 10.624 40.992 30.496 68.64 53.376 68.64 33.984 0 61.568-61.12 61.568-136.512s-27.552-136.544-61.568-136.544z" p-id="2597" fill="#f4ea2a"></path></svg>