<?xml version="1.0" standalone="no"?><!DOCTYPE svg PUBLIC "-//W3C//DTD SVG 1.1//EN" "http://www.w3.org/Graphics/SVG/1.1/DTD/svg11.dtd"><svg t="1569403526345" class="icon" viewBox="0 0 1024 1024" version="1.1" xmlns="http://www.w3.org/2000/svg" p-id="2728" width="16" height="16" xmlns:xlink="http://www.w3.org/1999/xlink"><defs><style type="text/css"></style></defs><path d="M457.21 246.983c0-11.597 9.392-20.981 20.981-20.981h27.976c11.591 0 20.982 9.384 20.982 20.981 0 11.584-9.392 20.982-20.982 20.982h-27.976c-11.589 0-20.981-9.398-20.981-20.982z" fill="#707070" p-id="2729"></path><path d="M687.046 253.963c23.14 0 41.964 18.823 41.964 41.963v251.78c0 23.14-18.824 41.963-41.964 41.963s-41.964-18.823-41.964-41.963v-251.78c0-23.139 18.824-41.963 41.964-41.963m0-41.963c-46.349 0-83.927 37.579-83.927 83.927v251.78c0 46.349 37.578 83.927 83.927 83.927s83.927-37.578 83.927-83.927v-251.78c0-46.348-37.578-83.927-83.927-83.927z" fill="#707070" p-id="2730"></path><path d="M253.075 475.377c-0.266 71.032 77.801 71.1 78.095 71.1l31.391 1.161c-34.431 39.409-59.183 118.268-36.179 187.742 18.673 56.39 52.721 76.62 85.054 76.62 38.494 0 74.563-28.699 79.344-59.216 22.43-143.266 133.246-149.167 151.332-149.167 1.626 0 2.5 0.055 2.5 0.055V264.468s-11.652-38.466-67.604-38.466h-0.321v41.963h0.321c15.04 0 22.286 4.18 25.64 7.417v290.575c-66.313 14.479-135.589 67.002-153.326 180.339-1.271 8.127-18.147 23.74-37.886 23.74-24.273 0-37.988-26.021-45.215-47.851-19.042-57.494 4.877-120.535 27.941-146.94l59.722-68.354-90.764-1.201-31.548-1.175c-16.713-0.355-36.622-5.683-36.533-28.973 0.308-83.148-0.048-192.646-0.048-193.767 0-0.027 1.271-3.934 3.729-6.406 4.691-4.699 15.244-7.404 28.952-7.404H410v-41.963h-82.328c-74.863 0-74.646 55.938-74.646 55.938s0.364 109.483 0.049 193.437z" fill="#707070" p-id="2731"></path><path d="M555.849 246.983c0-11.597 9.392-20.981 20.981-20.981 11.591 0 20.982 9.384 20.982 20.981 0 11.584-9.392 20.982-20.982 20.982s-20.981-9.398-20.981-20.982zM389.088 246.983c0-11.597 9.392-20.981 20.981-20.981 11.591 0 20.981 9.384 20.981 20.981 0 11.584-9.391 20.982-20.981 20.982-11.59 0-20.981-9.398-20.981-20.982z" fill="#707070" p-id="2732"></path></svg>