<?xml version="1.0" standalone="no"?><!DOCTYPE svg PUBLIC "-//W3C//DTD SVG 1.1//EN" "http://www.w3.org/Graphics/SVG/1.1/DTD/svg11.dtd"><svg t="1576309067582" class="icon" viewBox="0 0 1024 1024" version="1.1" xmlns="http://www.w3.org/2000/svg" p-id="2007" width="16" height="16" xmlns:xlink="http://www.w3.org/1999/xlink"><defs><style type="text/css"></style></defs><path d="M934.317445 210.812333 88.829118 210.812333c-13.728676 0-24.867364 11.138688-24.867364 24.867364l0 547.07996c0 13.728676 11.138688 24.867364 24.867364 24.867364l845.487304 0c13.728676 0 24.867364-11.138688 24.867364-24.867364l0-547.07996C959.183785 221.951021 948.046121 210.812333 934.317445 210.812333zM501.033227 596.61105c3.059686 2.52552 6.79987 3.78828 10.539031 3.78828 3.740184 0 7.479345-1.26276 10.539031-3.78828l84.927251-69.938885 218.377636 231.220129L197.72834 757.892293l218.377636-231.220129L501.033227 596.61105zM511.573281 562.337455 145.096632 260.547061l732.953298 0L511.573281 562.337455zM113.696482 277.627065l276.766464 227.926106L152.143119 757.892293l-38.446637 0L113.696482 277.627065zM871.003444 757.892293 632.683617 505.552148l276.766464-227.926106 0 480.265228L871.003444 757.89127z" p-id="2008"></path></svg>