<?xml version="1.0" standalone="no"?><!DOCTYPE svg PUBLIC "-//W3C//DTD SVG 1.1//EN" "http://www.w3.org/Graphics/SVG/1.1/DTD/svg11.dtd"><svg t="1582537674316" class="icon" viewBox="0 0 1034 1024" version="1.1" xmlns="http://www.w3.org/2000/svg" p-id="6244" width="45.439453125" height="45" xmlns:xlink="http://www.w3.org/1999/xlink"><defs><style type="text/css"></style></defs><path d="M897.701495-0.005172C920.219152 0.046545 1034.343434 2.715152 1034.343434 136.083394v748.497454s-0.227556 49.638141-30.647596 88.922506c-0.99297 1.344646-1.882505 2.694465-2.958222 3.971878a113.281293 113.281293 0 0 1-12.562101 12.660364c-1.215354 1.018828-2.513455 1.965253-3.806384 2.916848-20.143838 16.161616-48.15903 27.61697-87.929535 27.61697H137.862465C135.162828 1020.643556 0 1019.298909 0 884.570505V136.083394C0 2.715152 114.165657 0.046545 136.647111-0.005172zM264.647111 674.48501c-8.243717-0.837818-15.742707 6.345697-21.178182 11.667394-42.061576 41.549576-139.015758 128.103434-170.025373 155.710061v32.519757c-0.036202 1.35499-1.541172 69.099313 72.445414 69.026909 61.615838 0 525.601616 0.217212 686.457535 0.294788-61.465859-63.539717-153.755152-158.735515-180.446384-185.106101-10.276202-10.105535-17.149414-11.496727-24.503596-4.63903L556.011313 815.269495c-0.186182 0.439596-25.393131 25.532768-63.425939 26.013737-17.185616-1.137778-44.75604-5.078626-71.664485-31.666424-44.135434-43.587232-135.876525-124.157414-136.797091-124.95903l-2.77204-2.663435c-0.077576 0-8.016162-7.478303-16.709819-7.514505zM889.721535 73.784889h-750.933333c-20.216242 0.103434-65.344646 2.725495-65.380848 66.92202V743.382626c40.437657-36.362343 91.260121-82.61301 117.76-108.761212 28.465131-28.087596 56.775111-33.926465 75.47604-33.016242 35.736566 0.84299 60.509091 22.548687 67.527111 29.478788 10.612364 9.298747 95.288889 83.849051 138.974384 127.001858 5.807838 5.761293 17.857939 17.62004 32.343919 4.049455l71.483475-61.465859c1.592889-1.861818 24.064-23.376162 58.812768-23.851959 16.115071-0.84299 42.651152 4.882101 68.33907 30.23903 34.526384 34.066101 171.132121 175.40396 220.884041 226.945293 29.902869-18.530263 30.089051-57.157818 30.08905-57.157818V140.712081c0-64.201697-45.123232-66.818586-65.375677-66.927192z m-200.197171 133.637172c96.545616 0 175.088485 77.627475 175.088484 173.004282s-78.542869 172.999111-175.088484 172.999112c-96.504242 0-175.088485-77.617131-175.088485-172.999112s78.542869-172.999111 175.088485-172.999111z m0 72.952242c-55.771798 0-101.158788 44.859475-101.158788 100.046869s45.38699 100.05204 101.158788 100.05204c55.77697 0 101.169131-44.864646 101.169131-100.05204s-45.392162-100.046869-101.169131-100.046869z" p-id="6245" fill="#BCBCBC"></path></svg>