<?xml version="1.0" standalone="no"?><!DOCTYPE svg PUBLIC "-//W3C//DTD SVG 1.1//EN" "http://www.w3.org/Graphics/SVG/1.1/DTD/svg11.dtd"><svg t="1567144093835" class="icon" viewBox="0 0 1024 1024" version="1.1" xmlns="http://www.w3.org/2000/svg" p-id="2005" width="16" height="16" xmlns:xlink="http://www.w3.org/1999/xlink"><defs><style type="text/css"></style></defs><path d="M768 439.466667l-89.6-89.6c-12.8-12.8-29.866667-12.8-38.4 0-12.8 12.8-12.8 29.866667 0 38.4l89.6 89.6c4.266667 4.266667 4.266667 8.533333 8.533333 12.8h-302.933333c-17.066667 0-25.6 12.8-25.6 25.6s12.8 25.6 25.6 25.6h302.933333c-4.266667 8.533333-8.533333 12.8-12.8 12.8l-89.6 89.6c-12.8 12.8-12.8 29.866667 0 38.4 4.266667 4.266667 12.8 8.533333 21.333334 8.533333s12.8-4.266667 21.333333-8.533333l89.6-85.333334c42.666667-46.933333 42.666667-115.2 0-157.866666z" fill="#bfbfbf" p-id="2006"></path><path d="M558.933333 823.466667H358.4c-42.666667 0-76.8-34.133333-76.8-76.8V290.133333c0-42.666667 34.133333-76.8 76.8-76.8h200.533333c17.066667 0 29.866667-12.8 29.866667-25.6s-12.8-25.6-29.866667-25.6H358.4c-34.133333-4.266667-68.266667 8.533333-93.866667 34.133334-25.6 25.6-38.4 55.466667-38.4 93.866666v456.533334c0 72.533333 59.733333 132.266667 132.266667 132.266666h200.533333c17.066667 0 29.866667-12.8 29.866667-29.866666s-17.066667-25.6-29.866667-25.6z" fill="#bfbfbf" p-id="2007"></path></svg>