<?xml version="1.0" standalone="no"?><!DOCTYPE svg PUBLIC "-//W3C//DTD SVG 1.1//EN" "http://www.w3.org/Graphics/SVG/1.1/DTD/svg11.dtd"><svg t="1581583702161" class="icon" viewBox="0 0 1024 1024" version="1.1" xmlns="http://www.w3.org/2000/svg" p-id="2433" width="24" height="24" xmlns:xlink="http://www.w3.org/1999/xlink"><defs><style type="text/css"></style></defs><path d="M413.744 565.043c-11.942 13.028-11.062 33.27 1.966 45.213 13.028 11.942 33.27 11.062 45.212-1.966l105.086-114.64c17.545-19.14 18.757-48.133 2.87-68.67-23.11-29.877-43.588-59.693-61.438-89.444-17.074-28.456 0.831-73.219 37.854-110.242 10.894-10.893 17.044-16.565 25.804-23.216 26.38-20.032 56.99-31.411 96.691-31.411 126.016 0 206.878 102.144 206.878 249.544 0 112.405-113.52 251.906-344.301 413.648a32 32 0 0 1-36.732 0c-230.78-161.742-344.3-301.243-344.3-413.648 0-147.4 80.86-249.544 206.877-249.544 13.782 0 26.599 2.017 38.93 5.933 16.843 5.349 34.835-3.97 40.184-20.814 5.349-16.844-3.97-34.835-20.814-40.184-18.547-5.89-37.893-8.935-58.3-8.935-165.076 0-270.878 133.648-270.878 313.544 0 139.588 125.103 293.323 371.57 466.058 33.074 23.18 77.12 23.18 110.194 0 246.467-172.736 371.57-326.47 371.57-466.058 0-179.896-105.802-313.544-270.878-313.544-54.44 0-98.385 16.336-135.396 44.44-11.672 8.864-19.544 16.122-32.354 28.932-55.421 55.422-84.165 127.281-47.479 188.425 17.74 29.567 37.817 59.079 60.222 88.538l-99.038 108.041z" p-id="2434" fill="#417BF1"></path></svg>