<?xml version="1.0" standalone="no"?><!DOCTYPE svg PUBLIC "-//W3C//DTD SVG 1.1//EN" "http://www.w3.org/Graphics/SVG/1.1/DTD/svg11.dtd"><svg t="1581435591872" class="icon" viewBox="0 0 1024 1024" version="1.1" xmlns="http://www.w3.org/2000/svg" p-id="2014" width="20" height="20" xmlns:xlink="http://www.w3.org/1999/xlink"><defs><style type="text/css"></style></defs><path d="M783.397177 815.037804 99.259678 815.037804c-32.612769 0-59.144028-26.53433-59.144028-59.149145 0-0.13917 0.001023-0.277316 0.004093-0.416486l0.533143-23.604604c0.227174-10.028401 8.42795-18.004049 18.407232-18.004049 0.141216 0 0.282433 0.001023 0.424672 0.005117 10.17064 0.230244 18.228153 8.661264 17.998933 18.830881l-0.529049 23.370267c0.097214 12.218276 10.06524 22.128997 22.305005 22.128997l684.137499 0c12.301164 0 22.309098-10.007935 22.309098-22.310122l0-77.920674c0-5.936199 2.860141-11.508102 7.684006-14.9679 4.822842-3.459798 11.021008-4.38282 16.641005-2.479471l124.534318 42.147936c11.083429-1.287319 19.715017-10.732435 19.715017-22.155603L974.280622 378.76758c0-11.423167-8.631588-20.868283-19.715017-22.155603l-124.534318 42.148959c-5.623068 1.902326-11.81714 0.980327-16.641005-2.479471-4.823865-3.459798-7.684006-9.031701-7.684006-14.966876L805.706275 268.925892c0-12.299117-10.007935-22.305005-22.309098-22.305005L99.793844 246.620887c-12.300141 0-22.306029 10.005888-22.306029 22.305005L77.487815 587.012438c0.071631 4.729721 0.096191 57.173141-32.541137 96.333022-6.513344 7.812943-18.127869 8.868995-25.942859 2.356674-7.814989-6.513344-8.868995-18.127869-2.356674-25.942859 24.326035-29.186739 24.015973-71.721485 24.006763-72.143087-0.004093-0.145309-0.005117-0.290619-0.005117-0.436952L40.648792 268.925892c0-32.612769 26.532283-59.144028 59.145052-59.144028l683.603333 0c32.613792 0 59.148122 26.532283 59.148122 59.144028l0 86.707804 103.523795-35.038004c1.901303-0.64366 3.897773-0.972141 5.9055-0.972141 32.612769 0 59.145052 26.532283 59.145052 59.144028l0 301.745369c0 32.612769-26.532283 59.145052-59.145052 59.145052-2.007727 0-4.003174-0.328481-5.9055-0.972141l-103.523795-35.038004 0 52.241828C842.544275 788.503475 816.010969 815.037804 783.397177 815.037804z" p-id="2015" fill="#417BF1"></path><path d="M404.872121 647.215588c-2.798742 0-5.610788-0.63752-8.211009-1.933025-6.253424-3.115967-10.205433-9.500375-10.205433-16.486486L386.455679 404.165016c0-6.886851 3.842515-13.199627 9.960863-16.362666 6.118348-3.164063 13.489222-2.64934 19.10922 1.334391L569.047274 497.943866c4.79419 3.397377 7.67889 8.878205 7.766894 14.753005s-2.632967 11.43954-7.323802 14.978133L415.968853 643.499963C412.710646 645.956921 408.804686 647.215588 404.872121 647.215588zM423.294702 439.796538l0 152.029532 103.903441-78.389348L423.294702 439.796538z" p-id="2016" fill="#417BF1"></path><path d="M65.636906 731.924875" p-id="2017" fill="#417BF1"></path></svg>