<?xml version="1.0" standalone="no"?><!DOCTYPE svg PUBLIC "-//W3C//DTD SVG 1.1//EN" "http://www.w3.org/Graphics/SVG/1.1/DTD/svg11.dtd"><svg t="1575968893258" class="icon" viewBox="0 0 1024 1024" version="1.1" xmlns="http://www.w3.org/2000/svg" p-id="1174" width="20" height="20" xmlns:xlink="http://www.w3.org/1999/xlink"><defs><style type="text/css"></style></defs><path d="M770.097349 280.427952a55.518072 55.518072 0 1 0 55.518073 55.518072 55.518072 55.518072 0 0 0-55.518073-55.518072z m0 86.361446a30.843373 30.843373 0 1 1 30.843374-30.843374 30.843373 30.843373 0 0 1-30.843374 30.843374z" fill="#417BF1" p-id="1175"></path><path d="M770.097349 243.415904a92.53012 92.53012 0 1 0 92.530121 92.53012 92.53012 92.53012 0 0 0-92.530121-92.53012z m0 160.385542a67.855422 67.855422 0 1 1 67.855422-67.855422 67.978795 67.978795 0 0 1-67.855422 67.855422z" fill="#417BF1" p-id="1176"></path><path d="M100.919518 875.951807h822.160964a37.012048 37.012048 0 0 0 37.012048-37.012048V182.962892a37.012048 37.012048 0 0 0-37.012048-37.012049H100.919518a37.012048 37.012048 0 0 0-37.012048 37.012049V838.939759a37.012048 37.012048 0 0 0 37.012048 37.012048z m24.674699-692.372048h772.811566a24.674699 24.674699 0 0 1 24.674699 24.674699V814.26506a24.674699 24.674699 0 0 1-24.674699 24.674699H125.594217a24.674699 24.674699 0 0 1-24.674699-24.674699V207.63759a24.674699 24.674699 0 0 1 24.674699-24.674698z" fill="#417BF1" p-id="1177"></path><path d="M947.755181 84.264096H76.244819a74.024096 74.024096 0 0 0-74.024096 74.024097V863.614458a74.024096 74.024096 0 0 0 74.024096 74.024096h871.510362a74.024096 74.024096 0 0 0 74.024096-74.024096V158.288193a74.024096 74.024096 0 0 0-74.024096-74.024097z m37.012048 778.733494a37.012048 37.012048 0 0 1-37.012048 37.012049H76.244819a37.012048 37.012048 0 0 1-37.012048-37.012049V158.288193a37.012048 37.012048 0 0 1 37.012048-37.012048h871.510362a37.012048 37.012048 0 0 1 37.012048 37.012048z" fill="#417BF1" p-id="1178"></path><path d="M424.281446 456.481928a14.064578 14.064578 0 0 0-24.674699 0l-119.919036 207.63759a14.064578 14.064578 0 0 0 12.337349 21.220241h240.208193a14.064578 14.064578 0 0 0 12.337349-21.220241z m34.544578 187.034217h-93.517108a14.064578 14.064578 0 0 1-12.33735-21.220241l46.758554-81.056386a14.064578 14.064578 0 0 1 24.674699 0l46.758554 81.056386a14.064578 14.064578 0 0 1-12.337349 20.726747z" fill="#417BF1" p-id="1179"></path><path d="M448.709398 357.166265a42.317108 42.317108 0 0 0-73.407229 0L181.85253 692.372048a42.317108 42.317108 0 0 0 37.012048 63.53735h386.775904a42.317108 42.317108 0 0 0 37.012048-63.53735z m107.828433 356.302651H267.473735a28.25253 28.25253 0 0 1-24.674699-42.317109l144.840482-250.448193a28.25253 28.25253 0 0 1 49.349398 0L581.089157 671.028434a28.25253 28.25253 0 0 1-24.427952 42.440482zM789.590361 708.287229L644.009639 457.222169a31.706988 31.706988 0 0 0-54.901205 0l-27.388916 47.375421L579.855422 536.304578l18.135903-31.460241a21.096867 21.096867 0 0 1 37.012048 0l108.321928 187.527711a21.096867 21.096867 0 0 1-18.259277 31.706988h-36.518554l18.38265 31.830362h54.654458A31.706988 31.706988 0 0 0 789.590361 708.287229z" fill="#417BF1" p-id="1180"></path><path d="M715.566265 687.190361l-90.062651-155.944096a10.61012 10.61012 0 0 0-18.259277 0L592.192771 557.401446l19.246265 33.310843a10.61012 10.61012 0 0 1 14.187952 3.947952l35.038072 60.699759a10.61012 10.61012 0 0 1-3.701205 14.311325L676.333494 703.228916h30.226506a10.61012 10.61012 0 0 0 9.006265-16.038555z" fill="#417BF1" p-id="1181"></path></svg>