<?xml version="1.0" standalone="no"?><!DOCTYPE svg PUBLIC "-//W3C//DTD SVG 1.1//EN" "http://www.w3.org/Graphics/SVG/1.1/DTD/svg11.dtd"><svg t="1569403503661" class="icon" viewBox="0 0 1024 1024" version="1.1" xmlns="http://www.w3.org/2000/svg" p-id="2499" width="16" height="16" xmlns:xlink="http://www.w3.org/1999/xlink"><defs><style type="text/css"></style></defs><path d="M346.313 508.885c1.836 0 3.319 1.484 3.319 3.319v319.434c0 1.835-1.483 3.318-3.319 3.318h-164.778c-1.836 0-3.319-1.483-3.319-3.318v-319.434c0-1.836 1.483-3.318 3.319-3.318h164.778M346.313 475.514h-164.778c-20.228 0-36.689 16.462-36.689 36.69v319.434c0 20.228 16.462 36.689 36.689 36.689h164.778c20.227 0 36.69-16.463 36.69-36.689v-319.434c0-20.227-16.462-36.69-36.69-36.69v0z" p-id="2500"></path><path d="M662.874 188.505c3.078 0 5.784 0.556 7.49 1.001 9.196 8.325 47.387 46.664 30.794 95.849-21.080 62.572-52.856 101.633-53.839 102.876-7.916 11.087-17.317 35.818-2.392 58.213 5.933 8.918 15.684 12.014 23.843 12.014 1.149 0 2.28-0.056 3.355-0.186l105.489-0.037c2.818 0.222 69.245 6.173 68.133 60.364-0.519 25.399-15.369 36.911-15.814 37.264l-15.388 11.346 14.109 13.015c0.519 0.463 12.384 11.717 10.846 37.005-1.779 28.865-21.377 41.213-21.562 41.306l-22.507 9.381 18.057 16.038c1.521 1.706 8.899 10.66 7.472 25.547-1.223 12.699-5.876 38.599-19.412 48.945l-17.668 6.748 12.347 10.53c3.152 9.418 3.69 31.777-6.748 46.46-6.082 8.547-16.5 12.811-31.851 12.996-17.594 0.242-58.882 0.316-106.138 0.316-85.541 0-190.659-0.26-210.534-0.316-9.771-4.133-19.634-9.233-22.859-11.828-2.651-4.747-9.788-22.025-36.115-22.025-0.649 0-1.298 0.019-1.984 0.037v-262.056c16.426-0.112 42.807-0.685 42.807-0.685l5.339-0.112 4.134-3.355c1.799-1.464 44.087-42.364 59.381-73.731 14.647-30.034 29.72-64.072 42.158-74.825 1.631-1.409 4.059-3.3 7.082-5.674 25.547-20.022 88.489-80.812 97.444-157.288 1.965-16.797 6.934-28.069 14.387-32.556 3.3-1.965 6.915-2.578 10.142-2.578M662.874 155.134c-9.881 0-19.337 2.54-27.309 7.342-16.87 10.197-27.049 29.459-30.312 57.268-6.953 59.438-56.619 112.757-84.874 134.911l-0.964 0.76c-3.097 2.428-5.618 4.431-7.361 5.951-14.758 12.755-26.401 35.689-43.809 71.933l-6.526 13.515c-9.195 18.855-34.354 46.312-46.626 58.621-8.88 0.166-24.323 0.464-35.281 0.537l-33.149 0.222v329.649l34.428-1.093c0.055 0 0.093 0 0.148 0 4.172 0 5.358 0.612 5.358 0.612 0.242 0.26 0.89 1.502 1.372 2.428l1.038 1.909 3.172 5.655 5.061 4.059c8.584 6.897 25.696 14.387 30.738 16.519l6.192 2.633 6.729 0.019c19.875 0.055 125.048 0.315 210.607 0.315 55.006 0 90.863-0.112 106.583-0.315 32.871-0.428 50.019-14.943 58.621-27.050 14.72-20.708 16.574-46.756 13.868-64.778 16.815-19.151 22.006-47.481 23.602-64.035 1.446-15.166-1.909-27.346-6.138-36.226 11.068-11.402 23.119-30.312 24.769-57.195 1.372-22.525-4.487-38.841-10.567-49.408 7.898-10.4 16.407-27.011 16.89-50.593 1.205-59.214-50.371-90.398-98.797-94.31l-1.353-0.112-107.769 0.037c-2.54-7.324 1.947-15.146 3.040-16.908 7.508-9.566 37.839-50.52 58.529-111.978 18.094-53.691-8.825-103.005-40.045-131.241l-6.044-5.468-7.88-2.058c-5.266-1.428-10.642-2.132-15.944-2.132v0z" p-id="2501"></path></svg>