<?xml version="1.0" standalone="no"?><!DOCTYPE svg PUBLIC "-//W3C//DTD SVG 1.1//EN" "http://www.w3.org/Graphics/SVG/1.1/DTD/svg11.dtd"><svg t="1577513050176" class="icon" viewBox="0 0 1024 1024" version="1.1" xmlns="http://www.w3.org/2000/svg" p-id="3328" width="48" height="48" xmlns:xlink="http://www.w3.org/1999/xlink"><defs><style type="text/css"></style></defs><path d="M935 448h-15.7c-4.1-40.5-14.2-79.9-30.1-117.6-20.6-48.8-50.2-92.6-87.8-130.2S720 133 671.3 112.4C620.8 91 567.1 80.2 511.9 80.2c-55.3 0-108.9 10.8-159.4 32.2-48.8 20.6-92.6 50.2-130.2 87.8-30.2 30.2-55.2 64.4-74.5 101.9l-24-23.6-39 53.6 41.3 20c-3.8 10.6-7.1 21.3-10 32.1H77.4l9.4 63.2 18.4-6.3c-0.3 2.3-0.5 4.6-0.8 6.9H89c-13.8 0-25 11.2-25 25v78c0 13.8 11.2 25 25 25h30c13.7 0 25-11.2 25-25v-78c0-7.3-3.2-13.9-8.2-18.4 0.8-8.4 1.8-16.8 3.2-25.1l31-10.6c-4.8 22.9-7.3 46.7-7.3 71 0 15.6 1 30.9 3 45.9l3.7 5.9c34.3 55.1 82.6 100.8 139.5 132.1 44.6 24.5 93.9 39.6 144.5 44.6 5.7-8.6 15.6-14.4 26.6-14.4h64.1c17.6 0 32 14.4 32 32v0.1c0 17.6-14.4 32-32 32H480c-12.4 0-23.3-7.2-28.5-17.6-55.4-5.3-109.2-21.7-158-48.5-39.9-21.9-75.9-50.4-106.4-83.9 49.2 123.8 167.5 212.6 307.4 218.7L469.7 894s190.8-91.2 194.2-92.9c114.3-56.8 193-174.7 193-311 0-191.7-155.4-347.1-347.1-347.1-140.8 0-262 83.9-316.4 204.5L171.6 326c18.4-38.1 43-72.7 73.2-102.9 34.7-34.7 75.1-61.9 120-80.9 46.5-19.7 96-29.7 147-29.7s100.4 10 147 29.7c45 19 85.3 46.2 120 80.9s61.9 75.1 80.9 120c15.2 35.8 24.6 73.4 28.1 112-4.8 4.6-7.8 11-7.8 18.1v78c0 13.8 11.2 25 25 25h30c13.7 0 25-11.2 25-25v-78c0-14-11.2-25.2-25-25.2zM509.8 332.4c172 0 311.5 61.3 311.5 137s-139.5 137-311.5 137-311.5-61.3-311.5-137 139.5-137 311.5-137z m-330.6 51.7h-30c1.8-6 3.7-12 5.7-18l26.1 12.6-1.8 5.4z" fill="" p-id="3329"></path><path d="M314.5 507.1l98.6-18.9c13.7-2.6 16.1-21.3 3.5-27.2-32.3-15.2-76.2-32.7-93.1-24.9-17.9 8.3-24 36.2-26.1 55.4-1.1 9.6 7.6 17.4 17.1 15.6zM617.9 488.2l98.6 18.9c9.5 1.8 18.2-6 17.1-15.7-2.1-19.2-8.3-47.1-26.1-55.4-16.9-7.9-60.7 9.7-93.1 24.9-12.6 6-10.2 24.6 3.5 27.3z" fill="" p-id="3330"></path></svg>