<?xml version="1.0" standalone="no"?><!DOCTYPE svg PUBLIC "-//W3C//DTD SVG 1.1//EN" "http://www.w3.org/Graphics/SVG/1.1/DTD/svg11.dtd"><svg t="1574060656350" class="icon" viewBox="0 0 1024 1024" version="1.1" xmlns="http://www.w3.org/2000/svg" p-id="2488" width="20" height="20" xmlns:xlink="http://www.w3.org/1999/xlink"><defs><style type="text/css"></style></defs><path d="M512 155.2c-119.584 0-216.8 97.808-216.8 218.8S392.416 592.8 512 592.8c119.584 0 216.8-97.808 216.8-218.8S631.584 155.2 512 155.2zM256.8 374C256.8 232.112 370.912 116.8 512 116.8c141.104 0 255.2 115.312 255.2 257.2 0 141.888-114.112 257.2-255.2 257.2s-255.2-115.312-255.2-257.2z" p-id="2489" fill="#417BF1"></path><path d="M605.68 431.408a19.2 19.2 0 0 1 6.896 26.272 115.68 115.68 0 0 1-42.56 42.128 116.96 116.96 0 0 1-116.032 0 115.68 115.68 0 0 1-42.56-42.128 19.2 19.2 0 1 1 33.168-19.36 77.328 77.328 0 0 0 28.432 28.16 78.56 78.56 0 0 0 77.952 0 77.328 77.328 0 0 0 28.448-28.16 19.2 19.2 0 0 1 26.24-6.896zM622.512 613.184a19.2 19.2 0 0 1 14.704-35.472A327.168 327.168 0 0 1 832.16 812.48c10.4 49.28-31.6 86.704-76.16 86.704h-488c-44.56 0-86.56-37.424-76.16-86.704a327.328 327.328 0 0 1 109.92-183.2 327.152 327.152 0 0 1 85.024-51.584 19.2 19.2 0 1 1 14.704 35.472 288.8 288.8 0 0 0-172.08 207.232c-4.192 19.888 12.448 40.384 38.592 40.384h488c26.144 0 42.784-20.48 38.592-40.384a288.688 288.688 0 0 0-97.024-161.712 288.8 288.8 0 0 0-75.04-45.52z" p-id="2490" fill="#417BF1"></path></svg>