<?xml version="1.0" standalone="no"?><!DOCTYPE svg PUBLIC "-//W3C//DTD SVG 1.1//EN" "http://www.w3.org/Graphics/SVG/1.1/DTD/svg11.dtd"><svg t="1581583361045" class="icon" viewBox="0 0 1024 1024" version="1.1" xmlns="http://www.w3.org/2000/svg" p-id="1140" width="24" height="24" xmlns:xlink="http://www.w3.org/1999/xlink"><defs><style type="text/css"></style></defs><path d="M512 665.6a140.8 140.8 0 1 1 140.8-140.8 140.8 140.8 0 0 1-140.8 140.8z m0-243.2a102.4 102.4 0 1 0 102.4 102.4 102.4 102.4 0 0 0-102.4-102.4z" fill="#417BF1" p-id="1141"></path><path d="M512 910.464a73.728 73.728 0 0 1-73.6-73.6v-38.4A280.192 280.192 0 0 1 371.2 770.176l-27.392 27.392a73.6 73.6 0 0 1-104.064-104.064L266.752 665.6a279.808 279.808 0 0 1-28.16-67.584h-38.4a73.6 73.6 0 0 1 0-147.2h38.4a279.808 279.808 0 0 1 28.16-66.816l-27.392-27.776a73.6 73.6 0 1 1 104.064-104.064L371.2 279.552a280.192 280.192 0 0 1 67.584-28.16v-38.4a73.6 73.6 0 1 1 147.2 0v38.4a280.192 280.192 0 0 1 66.816 28.16l27.392-27.392a73.6 73.6 0 1 1 104.064 104.064L757.248 384a280.064 280.064 0 0 1 28.16 67.584h38.4a73.6 73.6 0 0 1 0 147.2h-38.4a280.064 280.064 0 0 1-28.16 66.816l27.392 27.392a73.6 73.6 0 0 1-104.064 104.064L652.8 770.176a280.192 280.192 0 0 1-67.584 28.16v38.4A73.728 73.728 0 0 1 512 910.464zM365.44 721.28l12.8 8.576a242.304 242.304 0 0 0 83.072 34.56l15.232 3.2v69.376a35.2 35.2 0 0 0 70.4 0V768l15.232-3.2A242.432 242.432 0 0 0 645.504 729.6l12.8-8.576 49.152 49.152a35.2 35.2 0 0 0 49.792-49.792l-49.152-49.152 8.576-12.8a242.304 242.304 0 0 0 34.56-83.072l3.968-15.36h69.376a35.2 35.2 0 0 0 0-70.4H755.2l-3.2-15.232A242.304 242.304 0 0 0 716.8 391.296l-8.576-12.8 49.152-49.152a35.2 35.2 0 0 0-49.792-49.792l-49.152 49.152-12.8-8.576a242.432 242.432 0 0 0-83.072-34.56l-15.36-3.968v-68.736a35.2 35.2 0 1 0-70.4 0V281.6l-15.232 3.2A242.304 242.304 0 0 0 378.496 320l-12.8 8.576-49.152-49.152a35.2 35.2 0 1 0-49.792 49.792l49.152 49.152-8.576 12.8a242.304 242.304 0 0 0-34.56 83.072l-3.968 15.36h-68.736a35.2 35.2 0 0 0 0 70.4H268.8l3.2 15.232a242.304 242.304 0 0 0 35.2 83.2l8.576 12.8-49.28 49.408a35.2 35.2 0 0 0 49.792 49.792z" fill="#417BF1" p-id="1142"></path></svg>