<?xml version="1.0" standalone="no"?><!DOCTYPE svg PUBLIC "-//W3C//DTD SVG 1.1//EN" "http://www.w3.org/Graphics/SVG/1.1/DTD/svg11.dtd"><svg t="1574061280533" class="icon" viewBox="0 0 1030 1024" version="1.1" xmlns="http://www.w3.org/2000/svg" p-id="2754" width="20.1171875" height="20" xmlns:xlink="http://www.w3.org/1999/xlink"><defs><style type="text/css"></style></defs><path d="M861.484203 966.818516H176.05878C82.762675 966.818516 6.771492 908.132256 6.771492 836.6554V206.154298c0-72.229243 75.991183-130.163115 169.287288-130.163115h685.425423c93.296106 0 169.287289 58.68626 169.287289 130.163115v629.748714c0 72.229243-75.991183 130.915503-169.287289 130.915504zM176.05878 140.696547c-46.648053 0-85.019838 29.34313-85.019838 65.457751v629.748714c0 36.114622 38.371785 65.457752 85.019838 65.457752h685.425423c46.648053 0 85.019838-29.34313 85.019838-65.457752V206.154298c0-36.114622-38.371785-65.457752-85.019838-65.457751H176.05878z" fill="#417BF1" p-id="2755"></path><path d="M342.336517 519.900073c-63.200588 0-114.362968-51.162381-114.362968-114.362968s51.162381-114.362968 114.362968-114.362968c63.200588 0 114.362968 51.162381 114.362969 114.362968s-51.162381 114.362968-114.362969 114.362968z m0-168.5349c-30.095518 0-54.171932 24.076414-54.171932 54.171932s24.076414 54.171932 54.171932 54.171932 54.171932-24.076414 54.171933-54.171932-24.076414-54.171932-54.171933-54.171932z" fill="#417BF1" p-id="2756"></path><path d="M486.042616 717.025716c-16.552535 0-30.095518-13.542983-30.095518-30.095518 0-62.4482-51.162381-113.61058-113.610581-113.61058S228.725937 624.481999 228.725937 686.930198c0 16.552535-13.542983 30.095518-30.095518 30.095518s-30.095518-13.542983-30.095518-30.095518c0-95.55327 78.248347-173.801616 173.801616-173.801616 95.55327 0 173.801616 78.248347 173.801617 173.801616 0 17.304923-13.542983 30.095518-30.095518 30.095518zM853.207935 414.56576H592.881705c-16.552535 0-30.095518-13.542983-30.095518-30.095518s13.542983-30.095518 30.095518-30.095518h260.32623c16.552535 0 30.095518 13.542983 30.095518 30.095518s-13.542983 30.095518-30.095518 30.095518zM856.217487 538.709772H589.119765c-16.552535 0-30.095518-13.542983-30.095518-30.095518s13.542983-30.095518 30.095518-30.095518h266.345334c16.552535 0 30.095518 13.542983 30.095518 30.095518s-12.790595 30.095518-29.34313 30.095518z" fill="#417BF1" p-id="2757"></path><path d="M859.979427 662.853784H585.357825c-16.552535 0-30.095518-13.542983-30.095518-30.095518s13.542983-30.095518 30.095518-30.095518h274.621602c16.552535 0 30.095518 13.542983 30.095518 30.095518s-13.542983 30.095518-30.095518 30.095518z" fill="#417BF1" p-id="2758"></path></svg>