<?xml version="1.0" standalone="no"?><!DOCTYPE svg PUBLIC "-//W3C//DTD SVG 1.1//EN" "http://www.w3.org/Graphics/SVG/1.1/DTD/svg11.dtd"><svg t="1581327366005" class="icon" viewBox="0 0 1024 1024" version="1.1" xmlns="http://www.w3.org/2000/svg" p-id="1683" width="16" height="16" xmlns:xlink="http://www.w3.org/1999/xlink"><defs><style type="text/css"></style></defs><path d="M805.641481 852.764444H214.565926c-11.757037 0-21.333333-9.576296-21.333333-21.333333V537.884444c0-3.602963 0.948148-7.205926 2.749629-10.429629 0.948148-1.706667 24.082963-42.477037 74.334815-82.962963 29.392593-23.703704 62.198519-42.571852 97.46963-56.130371 43.994074-16.877037 91.780741-25.41037 142.317037-25.41037s98.322963 8.533333 142.317037 25.41037c35.271111 13.558519 68.077037 32.426667 97.469629 56.130371 50.346667 40.485926 73.386667 81.256296 74.334815 82.962963 1.801481 3.223704 2.74963 6.731852 2.74963 10.429629v293.546667c0 11.757037-9.576296 21.333333-21.333334 21.333333z m-569.742222-42.666666h548.314074V543.952593c-6.921481-10.619259-27.211852-39.253333-62.577777-67.318519-59.06963-47.122963-130.275556-70.921481-211.531852-70.921481-82.014815 0-153.6 24.272593-213.048889 72.059259-34.797037 27.97037-54.423704 55.656296-61.155556 66.180741v266.145185z" p-id="1684" fill="#ffffff"></path><path d="M658.014815 690.251852H362.192593c-41.244444 0-74.903704-33.564444-74.903704-74.903704v-0.568889c0-41.244444 33.564444-74.903704 74.903704-74.903703h295.822222c41.244444 0 74.903704 33.564444 74.903704 74.903703v0.568889c0 41.339259-33.564444 74.903704-74.903704 74.903704zM362.192593 582.637037c-17.73037 0-32.237037 14.411852-32.237037 32.237037v0.568889c0 17.73037 14.411852 32.237037 32.237037 32.237037h295.822222c17.73037 0 32.237037-14.411852 32.237037-32.237037v-0.568889c0-17.73037-14.411852-32.237037-32.237037-32.237037H362.192593zM836.93037 761.078519h-22.376296c-11.757037 0-21.333333-9.576296-21.333333-21.333334s9.576296-21.333333 21.333333-21.333333h22.376296c7.86963 0 14.506667-6.731852 14.506667-14.601482v-35.745185c0-7.86963-6.637037-14.601481-14.506667-14.601481h-22.376296c-11.757037 0-21.333333-9.576296-21.333333-21.333334s9.576296-21.333333 21.333333-21.333333h22.376296c31.478519 0 57.173333 25.694815 57.173334 57.268148v35.745185c0 31.573333-25.6 57.268148-57.173334 57.268149zM205.653333 761.078519h-22.376296c-31.478519 0-57.173333-25.694815-57.173333-57.268149v-35.745185c0-31.573333 25.6-57.268148 57.173333-57.268148h22.376296c11.757037 0 21.333333 9.576296 21.333334 21.333333s-9.576296 21.333333-21.333334 21.333334h-22.376296c-7.86963 0-14.506667 6.731852-14.506667 14.601481v35.745185c0 7.86963 6.637037 14.601481 14.506667 14.601482h22.376296c11.757037 0 21.333333 9.576296 21.333334 21.333333s-9.576296 21.333333-21.333334 21.333334z" p-id="1685" fill="#ffffff"></path><path d="M224.237037 233.908148a44.942222 44.752593 90 1 0 89.505185 0 44.942222 44.752593 90 1 0-89.505185 0Z" p-id="1686" fill="#ffffff"></path><path d="M706.465185 233.908148a44.942222 44.752593 90 1 0 89.505185 0 44.942222 44.752593 90 1 0-89.505185 0Z" p-id="1687" fill="#ffffff"></path><path d="M348.918519 420.977778c-7.964444 0-15.54963-4.456296-19.247408-12.041482l-79.928889-165.641481c-5.12-10.619259-0.663704-23.324444 9.955556-28.444445 10.619259-5.12 23.324444-0.663704 28.444444 9.955556l79.928889 165.641481c5.12 10.619259 0.663704 23.324444-9.955555 28.444445-2.939259 1.422222-6.068148 2.085926-9.197037 2.085926zM671.288889 420.977778c-3.128889 0-6.257778-0.663704-9.291852-2.085926-10.619259-5.12-15.075556-17.825185-9.955556-28.444445L731.97037 224.711111c5.12-10.619259 17.825185-15.075556 28.444445-9.955555s15.075556 17.825185 9.955555 28.444444l-79.928889 165.641481c-3.602963 7.68-11.188148 12.136296-19.152592 12.136297z" p-id="1688" fill="#ffffff"></path></svg>
