<?xml version="1.0" standalone="no"?><!DOCTYPE svg PUBLIC "-//W3C//DTD SVG 1.1//EN" "http://www.w3.org/Graphics/SVG/1.1/DTD/svg11.dtd"><svg t="1564538912241" class="icon" viewBox="0 0 1024 1024" version="1.1" xmlns="http://www.w3.org/2000/svg" p-id="2230" xmlns:xlink="http://www.w3.org/1999/xlink" width="32" height="32"><defs><style type="text/css"></style></defs><path d="M220.96 651.84C252.768 610.464 292.56 560 368 560c39.952 0 72.912 8.848 99.472 21.152C480.272 564.544 496 544 496 544c18.336-24 32.336-22 48 0l33.888 42.688C606.144 571.648 642.4 560 688 560c69.088 0 108.256 42.32 138.8 81.232C870.32 579.872 896 504.96 896 424 896 216.336 727.664 48 520 48S144 216.336 144 424C144 509.68 172.704 588.608 220.96 651.84zM688 352c35.344 0 64 28.656 64 64 0 35.344-28.656 64-64 64s-64-28.656-64-64C624 380.656 652.656 352 688 352zM352 352c35.344 0 64 28.656 64 64 0 35.344-28.656 64-64 64s-64-28.656-64-64C288 380.656 316.656 352 352 352zM448 842.416c-15.6 8.384-31.744 15.152-48 20.672L400 960l48 0L448 842.416zM544 799.152l0-4.224c-5.472-5.456-11.024-10.8-16-16.816-6.384 7.712-13.344 14.768-20.528 21.568-3.696 3.504-7.6 6.672-11.472 9.92L496 960l48 0L544 799.152zM640 857.248c-16.496-6.592-32.544-14.848-48-24.464L592 960l48 0L640 857.248zM352 875.376C335.472 878.256 319.232 880 304 880l0 80 48 0L352 875.376zM736 960l0-80.864c-15.504-0.944-31.568-3.168-48-6.912L688 960 736 960zM752 848c208 0 240-144 240-144-16 16-48 32-96 32-38.768 0-62.528-33.824-89.44-68.688C777.92 630.24 745.728 592 688 592c-40.256 0-72.112 10.384-96.576 23.632-4.816 2.608-9.392 5.28-13.632 8.064C543.664 646.032 528 672 528 672s-15.488-25.728-49.28-48c-8.64-5.696-18.576-11.072-29.664-15.824C427.04 598.736 400.256 592 368 592c-62.816 0-95.424 45.296-126.08 85.072C217.92 708.224 195.136 736 160 736c-48 0-80-16-96-32 0 0 32 144 240 144 38.72 0 94.944-11.84 144-42.352 5.024-3.12 9.952-6.448 14.8-9.984 5.04-3.664 9.952-7.552 14.752-11.68 19.968-17.168 37.552-38.208 50.448-64 12.896 25.792 30.496 46.832 50.448 64 3.776 3.248 7.584 6.432 11.536 9.392 0.656 0.496 1.344 0.944 2.016 1.424 46.256 34.096 101.952 49.392 144 52.496C741.568 847.728 746.976 848 752 848z" p-id="2231" fill="#1296db"></path></svg>