<?xml version="1.0" standalone="no"?><!DOCTYPE svg PUBLIC "-//W3C//DTD SVG 1.1//EN" "http://www.w3.org/Graphics/SVG/1.1/DTD/svg11.dtd"><svg t="1563449430308" class="icon" viewBox="0 0 1024 1024" version="1.1" xmlns="http://www.w3.org/2000/svg" p-id="6298" xmlns:xlink="http://www.w3.org/1999/xlink" width="32" height="32"><defs><style type="text/css"></style></defs><path d="M328.2944 562.2784a22.4256 22.4256 0 0 1 22.4256-22.4256H654.336a22.4256 22.4256 0 0 1 0 44.7488H436.3264a231.5264 231.5264 0 0 1 100.4544 92.8768h31.744a22.4256 22.4256 0 0 1 0 44.7488h-11.8784a230.7072 230.7072 0 0 1-9.3184 165.2736h109.7728A121.5488 121.5488 0 0 0 778.24 766.1568V545.8944l-1.2288-127.1808a72.9088 72.9088 0 0 0-20.48-50.176l-2.56-2.6624-45.568-45.568a15.0528 15.0528 0 0 0-19.2512-1.536 286.72 286.72 0 0 1-100.1472 42.496 15.5648 15.5648 0 0 0-10.24 8.6016A74.5472 74.5472 0 1 1 563.2 283.4432a14.2336 14.2336 0 0 0 13.1072 4.096 219.9552 219.9552 0 0 0 52.8384-19.456 14.9504 14.9504 0 0 0 3.3792-23.7568l-37.5808-37.6832a121.5488 121.5488 0 0 0-171.8272 0L262.144 366.8992l-2.7648 3.7888A72.9088 72.9088 0 0 0 245.76 413.4912v167.7312a229.4784 229.4784 0 0 1 82.8416-18.7392z" fill="#FFBA00" p-id="6299"></path><path d="M526.9504 305.7664A22.016 22.016 0 0 0 503.7056 327.68a22.4256 22.4256 0 0 0 21.4016 23.3472h4.608c21.6064 0 112.64-4.096 182.4768-70.2464l1.1264-1.1264a147.0464 147.0464 0 0 0 32.5632-123.5968 22.4256 22.4256 0 1 0-43.7248 9.5232 101.1712 101.1712 0 0 1-21.4016 83.3536c-64.2048 59.4944-152.7808 56.832-153.8048 56.832z" fill="#FFBA00" p-id="6300"></path><path d="M676.7616 562.2784a22.4256 22.4256 0 0 0-22.4256-22.4256H350.6176a22.4256 22.4256 0 0 0-22.4256 22.4256h8.8064a229.6832 229.6832 0 0 1 99.2256 22.4256h218.112a22.4256 22.4256 0 0 0 22.4256-22.4256zM590.9504 700.0064a22.4256 22.4256 0 0 0-22.4256-22.4256h-31.744a229.376 229.376 0 0 1 19.8656 44.7488h11.8784a22.4256 22.4256 0 0 0 22.4256-22.3232z" fill="#FFFFFF" p-id="6301"></path><path d="M367.0016 887.6032h180.224a230.7072 230.7072 0 0 0 9.3184-165.2736H359.424a22.4256 22.4256 0 1 1 0-44.7488h177.3568a231.5264 231.5264 0 0 0-100.4544-92.8768h-85.7088a22.4256 22.4256 0 0 1-22.3232-22.2208A229.4784 229.4784 0 0 0 245.76 581.2224v184.9344a121.5488 121.5488 0 0 0 121.2416 121.4464z" fill="#FFBA00" p-id="6302"></path><path d="M367.0016 887.6032h180.224a230.7072 230.7072 0 0 0 9.3184-165.2736H359.424a22.4256 22.4256 0 1 1 0-44.7488h177.3568a231.5264 231.5264 0 0 0-100.4544-92.8768h-85.7088a22.4256 22.4256 0 0 1-22.3232-22.2208A229.4784 229.4784 0 0 0 245.76 581.2224v184.9344a121.5488 121.5488 0 0 0 121.2416 121.4464z" fill="#FEC744" p-id="6303"></path><path d="M328.2944 562.4832a22.4256 22.4256 0 0 0 22.3232 22.2208h85.6064a229.6832 229.6832 0 0 0-99.2256-22.4256z" fill="#FFFFFF" p-id="6304"></path><path d="M328.2944 562.4832a22.4256 22.4256 0 0 0 22.3232 22.2208h85.6064a229.6832 229.6832 0 0 0-99.2256-22.4256z" fill="#FFFFFF" p-id="6305"></path><path d="M359.424 677.5808a22.4256 22.4256 0 1 0 0 44.7488h197.2224a229.376 229.376 0 0 0-19.8656-44.7488z" fill="#FFFFFF" p-id="6306"></path><path d="M359.424 677.5808a22.4256 22.4256 0 1 0 0 44.7488h197.2224a229.376 229.376 0 0 0-19.8656-44.7488z" fill="#FFFFFF" p-id="6307"></path></svg>