<?xml version="1.0" standalone="no"?><!DOCTYPE svg PUBLIC "-//W3C//DTD SVG 1.1//EN" "http://www.w3.org/Graphics/SVG/1.1/DTD/svg11.dtd"><svg t="1563438425131" class="icon" viewBox="0 0 1024 1024" version="1.1" xmlns="http://www.w3.org/2000/svg" p-id="3790" width="32" height="32" xmlns:xlink="http://www.w3.org/1999/xlink"><defs><style type="text/css"></style></defs><path d="M1024 505.679012c0-10.835979-4.815991-21.069959-12.039976-27.691946l-403.941211-361.199295c-6.621987-5.417989-14.447972-9.029982-23.477954-9.029982-20.46796 0-36.721928 16.855967-36.721928 37.925926l0 159.529688C238.993533 356.985303 21.069959 591.764844 0 893.366255c1.203998 12.641975 11.437978 22.875955 23.477954 22.875955 4.815991 0 9.631981-1.805996 13.243974-4.213992 0 0 0 0 0 0 53.577895-39.129924 99.329806-68.627866 135.449735-87.891828 87.28983-49.965902 222.739565-89.697825 375.045267-105.951793l0 148.091711c0 21.069959 16.253968 37.925926 36.721928 37.925926 8.427984 0 16.253968-3.611993 22.875955-8.427984l403.941211-361.199295c0 0 0 0 0 0C1019.184009 527.35097 1024 517.11699 1024 505.679012z" p-id="3791" fill="#1296db"></path><path d="M467.151088 380.463257c-33.711934 6.019988-96.921811 24.681952-139.061728 80.667842-7.223986 9.029982-5.417989 22.875955 3.611993 30.099941 0 0 0 0 0.601999 0 9.029982 7.223986 21.671958 5.417989 28.895944-3.009994 23.477954-28.895944 51.771899-57.189888 111.971781-65.015873 9.631981-1.203998 17.457966-9.631981 17.457966-19.865961l0-3.009994C490.027043 387.687243 478.589065 378.65726 467.151088 380.463257z" p-id="3792" fill="#1296db"></path><path d="M323.273369 518.320988C322.67137 518.320988 322.67137 518.320988 323.273369 518.320988c-12.039976-6.019988-25.885949 0.601999-28.895944 12.641975-2.407995 9.631981-4.815991 19.865961-6.019988 30.70194-1.805996 12.039976 7.223986 22.875955 19.263962 22.875955l3.611993 0c10.23398 0 18.661964-7.825985 19.263962-17.457966 0.601999-7.825985 1.805996-13.243974 4.213992-24.681952C337.119342 532.768959 331.701352 522.534979 323.273369 518.320988z" p-id="3793" fill="#1296db"></path></svg>