<?xml version="1.0" standalone="no"?><!DOCTYPE svg PUBLIC "-//W3C//DTD SVG 1.1//EN" "http://www.w3.org/Graphics/SVG/1.1/DTD/svg11.dtd"><svg t="1579073085125" class="icon" viewBox="0 0 1419 1024" version="1.1" xmlns="http://www.w3.org/2000/svg" p-id="85409" width="44.34375" height="32" xmlns:xlink="http://www.w3.org/1999/xlink"><defs><style type="text/css"></style></defs><path d="M1204.538119 442.687654C1198.820324 197.760692 998.640778 0.903611 752.345254 0.903611c-196.317405 0-363.373319 125.049773-426.018595 299.829967-2.345514 4.314638-4.846011 8.515805-7.028237 12.914854C136.002422 337.21427 0.027676 485.05773 0.027676 668.381405c0 195.077535 159.647135 354.716368 354.738508 354.716368H1123.300324c165.583568 0 295.655092-130.101968 295.655092-295.706292 0-133.189189-93.294703-248.605059-214.418681-284.702443zM284.104649 474.424735h71.984432l101.41613 293.2736h-73.566097l-16.812973-52.810724h-94.587157l-17.338811 52.810724H182.687135l101.41613-293.2736h0.002767z m4.430875 184.299243h61.481514l-29.953384-102.815135h-0.52307l-31.002292 102.815135h-0.002768z m213.519222 31.442336s8.405103 21.910832 25.748065 21.910832c16.289903 0 25.222227-14.046789 25.222227-42.136216V474.424735h70.412454v200.568389c0 65.735265-31.002292 98.320605-95.10746 98.88519-39.937384 0-62.527654-26.967178-67.260194-40.453536l40.984908-43.264v0.005536zM724.438486 474.424735h71.984433l101.414746 293.2736h-73.564714l-16.812973-52.810724h-94.587156l-17.338811 52.810724h-72.514422l101.41613-293.2736h0.002767z m4.430876 184.299243h61.48013l-29.952-102.815135h-0.52307l-31.002292 102.815135h-0.002768z m278.749406-44.971589L918.818595 474.424735h83.020108l45.716065 91.578811 48.341102-91.578811h80.397838l-87.751265 139.327654 96.159135 153.943179h-86.177902l-50.971676-97.754638-55.174227 97.754638h-81.44813l96.689125-153.943179z" fill="#000000" p-id="85410"></path></svg>