<?xml version="1.0" standalone="no"?><!DOCTYPE svg PUBLIC "-//W3C//DTD SVG 1.1//EN" "http://www.w3.org/Graphics/SVG/1.1/DTD/svg11.dtd"><svg t="1579071844343" class="icon" viewBox="0 0 4490 1024" version="1.1" xmlns="http://www.w3.org/2000/svg" p-id="51740" width="140.3125" height="32" xmlns:xlink="http://www.w3.org/1999/xlink"><defs><style type="text/css"></style></defs><path d="M2375.540185 146.235077h101.376v255.369846c0 20.007385-10.436923 37.691077-25.206154 54.114462-7.916308 7.876923-15.872 14.572308-25.166769 21.307077-16.541538 11.500308-34.461538 17.053538-51.003077 18.904615h-101.848616v-349.735385h101.848616z m-21.543385 67.387077v217.009231h42.929231v-217.009231h-42.929231zM2240.569108 32.571077v165.297231c0 23.788308-28.16 43.165538-39.936 52.814769 11.579077 9.688615 39.896615 28.553846 39.896615 51.672615v127.133539c0 22.449231-37.415385 66.914462-69.395692 68.686769h-47.852308v29.223385c0 39.502769-44.898462 76.563692-85.976615 76.563692V32.571077h203.224615zM2140.295877 102.4H2123.124185v327.049846h33.083077V264.152615h-26.978462c1.181538 0 1.851077 0 2.481231-0.669538 0.669538 0 0.669538 0 0.669538-0.630154l6.813539-6.734769 1.181538-1.181539c9.255385-9.649231 15.872-24.260923 15.872-33.437538V102.439385h-15.911384zM2614.880492 32.571077c0 18.195692-13.587692 69.868308-32.452923 69.868308v420.667077c0 55.296-58.289231 80.856615-85.307077 80.856615V102.596923h-244.302769V32.689231l362.062769-0.157539z m623.773539 504.989538c-16.580923 24.260923-36.273231 66.244923-57.659077 66.244923H2665.214031V537.6h228.430769v-54.114462h-221.617231V420.233846h221.617231V373.523692h-221.617231V32.571077h550.557539v265.688615c-1.851077 26.742154-60.809846 75.460923-97.555693 75.460923h-128.393846v46.749539h229.612308c-11.618462 22.449231-34.500923 63.133538-60.140308 63.133538h-169.472v54.114462h242.018462v-0.157539z m-241.821539-227.328h124.061539V97.516308h-124.061539V170.929231h114.76677c-4.962462 4.923077-43.559385 54.153846-51.003077 58.407384h-1.181539c-6.774154 4.253538-11.579077 6.695385-18.392615 6.695385h-44.189539v74.161231z m-103.187692-74.121846h-121.580308v74.121846h121.580308V236.110769z m0-138.633846h-121.580308v73.491692h121.580308V97.516308z m966.104615 432.206769c-6.144 23.788308-44.898462 74.121846-76.20923 74.121846H3366.890338c-44.228923 0-68.096-40.172308-68.096-80.856615V32.571077h546.264616v257.654154c-1.851077 26.742154-58.958769 78.375385-90.978462 78.375384h-351.113846v161.083077h456.822154z m-233.865846-234.062769H3741.831877v-190.227692h-115.948308v190.227692z m-222.759384 0h122.722461v-190.227692H3403.124185v190.227692zM4490.139569 529.723077c-6.144 23.788308-44.898462 74.121846-76.209231 74.121846h-416.68923c-45.410462 0-68.096-40.172308-68.096-80.856615V32.571077h546.422154v257.654154c-1.811692 26.742154-58.958769 78.375385-90.939077 78.375384h-352.295385v161.083077H4490.139569z m-233.865846-234.062769h116.578462v-190.227693h-116.578462v190.227693z m-222.759385 0h121.540924v-190.227693h-121.540924v190.227693z m-2018.855384 388.568615c-234.732308 128.905846-472.615385 246.980923-735.428923 301.134769-59.116308 12.130462-123.549538 11.618462-183.689846 3.584-57.304615-7.68-85.149538-58.052923-64.945231-111.694769 18.904615-50.333538 44.898462-100.509538 78.375384-142.690461 71.522462-90.505846 152.182154-173.843692 224.571077-263.719385a1355.067077 1355.067077 0 0 0 119.414154-175.812923c25.363692-43.953231 13.942154-96.452923-30.798769-118.587077-75.342769-37.218462-156.356923-63.330462-235.835077-92.002462-9.137231-3.308308-23.236923 6.695385-40.96 12.445539 22.724923 20.676923 39.936 36.430769 62.818462 57.107692-236.544 40.487385-460.957538 98.855385-678.596923 178.766769-0.984615 4.726154-2.835692 8.034462-1.811693 9.649231 31.940923 50.018462 17.053538 88.103385-29.499077 119.414154a184.713846 184.713846 0 0 0-47.379692 44.780308c143.281231 42.811077 271.320615 18.353231 393.058462-63.133539-7.640615-11.185231-14.414769-21.188923-21.858462-32.019692 46.355692 7.876923 73.846154 33.634462 77.508923 73.806769 0.787692 8.861538-4.962462 18.235077-7.640615 27.411692-6.774154-7.404308-14.217846-14.257231-20.007385-22.44923-3.662769-5.12-4.489846-12.012308-7.640615-20.873846-145.092923 98.461538-301.095385 123.195077-473.403077 72.034461 0 34.264615-1.614769 63.291077 0.551384 92.16 1.811692 24.930462-8.664615 35.446154-30.011077 48.561231-50.018462 30.641231-101.218462 62.621538-142.099692 103.660308-49.860923 50.176-31.310769 110.670769 35.603692 136.270769 76.209231 29.223385 156.199385 29.696 235.716924 20.007384 94.247385-11.460923 187.825231-27.057231 289.988923-42.141538-120.713846 57.107692-238.473846 97.437538-363.716923 113.979077-87.118769 11.500308-174.237538 17.880615-260.844308-6.892308-123.904-35.446154-179.2-128.551385-146.589539-252.416 30.641231-116.263385 103.345231-208.935385 182.508308-294.557538C455.579569 175.104 788.615877 30.326154 1174.388185 1.732923c89.915077-6.577231 181.011692 5.080615 265.334153 43.795692 118.744615 54.587077 167.778462 169.905231 110.473847 286.523077-37.927385 77.233231-90.427077 148.440615-142.099693 218.151385-51.042462 68.883692-109.646769 132.332308-163.84 199.089231a385.457231 385.457231 0 0 0-42.220307 63.488c-22.528 42.456615-7.089231 71.325538 41.39323 66.56 101.888-10.003692 205.390769-18.038154 303.616-43.59877 144.265846-37.730462 284.750769-90.190769 426.850462-136.467692 13.745231-4.411077 27.175385-10.003692 40.723692-15.084308z m515.938461 297.038769v-179.790769h69.868308v179.790769h-69.907692z m-1.378461-205.981538V725.464615h72.546461v49.703385h-72.546461z m-113.112616 205.981538v-255.881846h68.411077v255.881846h-68.411077z m1811.180308 0v-179.790769h26.505846v27.726769c9.767385-9.649231 13.902769-16.541538 23.670154-22.134154 9.767385-6.892308 19.534769-8.349538 32.137846-8.349538 12.603077 0 25.206154 1.299692 34.934154 8.349538 5.632 5.592615 11.106462 12.484923 15.399385 22.134154 15.399385-20.676923 33.476923-30.326154 57.304615-30.326154 16.738462 0 32.137846 2.756923 43.244308 15.241847 8.467692 9.688615 12.603077 24.930462 12.603077 44.268307v123.037539h-30.641231v-112.049231c0-13.784615 0-22.134154-1.339077-26.230154-1.339077-5.553231-6.971077-9.688615-11.106461-13.784615a46.828308 46.828308 0 0 0-20.873847-4.096c-13.902769 0-25.166769 4.096-32.098461 11.027692-6.971077 8.349538-11.106462 22.094769-11.106462 42.771692v102.360616h-29.341538v-116.145231a51.593846 51.593846 0 0 0-8.428308-30.326154c-5.632-6.892308-13.902769-9.688615-25.206154-9.688615-11.224615 0-19.534769 2.796308-23.630769 6.892307-8.467692 2.796308-13.942154 9.688615-16.738461 20.676924-2.835692 5.553231-4.174769 18.038154-4.17477 37.415384v91.175385l-31.113846-0.157539z m-263.876923-21.976615c-9.767385 6.852923-29.302154 27.687385-67.072 27.687385-50.333538 0-99.209846-38.675692-99.209846-95.428924 0-59.549538 47.537231-99.564308 99.249231-99.564307 37.730462 0 57.265231 20.676923 67.072 30.326154-4.174769 6.892308-9.806769 23.473231-13.942154 29.026461a68.844308 68.844308 0 0 0-52.972308-27.687384c-37.809231 0-68.411077 30.326154-68.411077 67.741538 0 37.376 30.641231 66.402462 68.411077 66.402462 20.873846 0 40.408615-9.688615 52.972308-30.326154 5.474462 15.084308 12.445538 24.772923 13.942154 31.822769z m-230.518154-4.292923h25.166769v26.269538h-25.206153v-26.269538z m-1456.443077-229.454769h-87.906461l-133.986462 255.881846h78.178462l23.670154-51.2h142.454153l22.331077 51.2h83.810462l-128.512-255.881846z m-96.374154 154.860307l48.836924-99.564307 44.740923 99.564307h-93.577847z m682.929231-56.75323c-18.235077-18.038154-39.108923-26.269538-65.614769-26.269539-11.106462 0-22.370462 1.339077-32.137846 2.796308-16.738462 5.592615-36.233846 18.038154-48.836923 29.026461v-103.660307h-69.907693v235.047384c0 5.592615 0 13.784615-1.339076 20.676923h69.907692c0-4.096 1.339077-6.892308 1.339077-12.484923v-19.337846c9.767385 10.988308 19.534769 20.637538 37.730461 30.326154 11.106462 5.592615 32.137846 6.892308 39.108923 6.892308 29.302154 0 51.672615-8.349538 69.907693-26.230154 15.36-18.038154 22.331077-40.014769 22.331077-69.238154-0.157538-30.168615-7.089231-52.302769-22.528-67.544615z m-61.44 106.574769c-6.971077 8.388923-19.574154 12.484923-36.312615 12.484923-15.36 0-27.963077-4.096-36.233846-12.484923-9.806769-9.649231-13.942154-22.134154-13.942154-38.675693 0-18.038154 4.135385-33.161846 13.902769-44.307692 9.767385-9.649231 20.873846-13.784615 36.273231-13.784615s27.963077 4.135385 36.273231 13.784615c9.767385 9.688615 13.902769 23.473231 13.902769 41.511385 0 18.038154-4.135385 31.665231-13.902769 41.472z m593.408-106.574769a86.724923 86.724923 0 0 0-64.236307-26.269539c-12.603077 0-22.370462 1.339077-32.137847 2.796308a131.150769 131.150769 0 0 0-48.836923 29.026461v-103.660307H3179.813415v235.047384c0 5.592615 0 13.784615-1.299692 20.676923h69.907692c0-4.096 1.299692-6.892308 1.299693-12.484923v-19.337846c9.767385 10.988308 19.534769 20.637538 37.769846 30.326154 11.106462 5.592615 29.302154 6.892308 39.069538 6.892308 29.341538 0 53.011692-8.349538 68.411077-26.230154 15.399385-16.541538 23.709538-40.014769 23.709539-69.238154 0.157538-30.168615-8.270769-52.302769-23.709539-67.544615z m-59.943384 106.574769c-6.971077 8.388923-19.534769 12.484923-36.273231 12.484923-16.738462 0-29.302154-4.096-37.769846-12.484923-8.428308-8.349538-12.603077-20.637538-12.603077-38.675693 0-19.377231 4.174769-34.619077 12.603077-44.307692 9.767385-9.649231 22.370462-13.784615 37.769846-13.784615s27.963077 4.135385 36.273231 13.784615c8.428308 9.688615 12.603077 23.473231 12.603077 41.511385 0 18.038154-4.332308 31.665231-12.603077 41.472z m-201.058462 41.353846v-105.156923c0-22.134154-8.467692-38.675692-26.505846-51.160616-13.942154-10.988308-39.108923-16.541538-75.382154-16.541538h-6.931692c-32.137846 0-55.847385 4.096-72.546462 13.784615-16.738462 9.649231-26.505846 23.433846-30.641231 42.771693h69.868308a35.603692 35.603692 0 0 1 33.476923-20.637539h6.931693c12.603077 0 18.235077 2.756923 25.206153 8.349539 5.632 4.096 8.428308 10.988308 8.428308 22.134154v4.096h-40.408615c-26.505846 0-44.740923 1.339077-54.508308 2.796307-13.902769 1.299692-23.670154 4.096-30.641231 9.688616-9.767385 6.892308-18.195692 13.784615-22.331077 20.676923-4.174769 10.988308-6.971077 20.637538-6.971077 30.326154 0 16.541538 6.971077 29.026462 19.53477 38.715076 12.603077 9.649231 30.641231 15.241846 53.011692 15.241847 15.399385 0 29.302154-1.299692 41.905231-5.592616 15.399385-4.096 34.934154-15.241846 41.90523-26.230154v4.096c0 12.484923 1.339077 19.377231 4.135385 22.134154h65.575385c-1.811692-1.142154-3.150769-5.238154-3.15077-9.491692z m-68.608-66.244923c0 15.241846-5.632 24.891077-11.067077 31.783384-9.767385 4.135385-15.399385 9.688615-26.505846 11.027693h-13.902769c-9.806769 0-18.235077-1.339077-22.370462-5.592616-5.632-4.096-8.467692-8.388923-8.467692-15.241846 0-9.688615 5.632-16.580923 16.738461-19.377231 4.135385-1.299692 12.603077-4.096 25.206154-5.55323h40.566154l-0.196923 2.953846z m601.915077 66.244923v-105.156923c0-22.134154-8.428308-38.675692-25.206154-51.160616-15.36-10.988308-41.865846-16.541538-76.8-16.541538h-6.971077c-32.137846 0-54.508308 2.756923-72.546461 13.784615a58.683077 58.683077 0 0 0-29.302154 42.771693h69.868308c1.339077-9.649231 11.106462-20.637538 32.137846-20.637539h6.971077c11.067077 0 19.534769 2.756923 25.166769 8.349539 5.632 2.756923 8.428308 9.688615 8.428308 22.134154v4.096h-40.408616c-26.505846 0-43.204923 1.339077-54.468923 2.796307-13.942154 1.299692-25.206154 4.096-32.137846 9.688616a73.294769 73.294769 0 0 0-20.873846 20.676923c-4.135385 8.349538-5.632 18.038154-5.632 30.326154 0 18.038154 5.632 30.326154 16.738461 38.715076 15.36 9.649231 33.476923 15.241846 54.468923 15.241847 15.399385 0 29.341538-1.299692 41.905231-5.592616 15.399385-4.096 36.273231-15.241846 41.905231-26.230154v4.096c0 12.484923 1.339077 20.676923 5.632 22.134154h64.275692c-1.654154-1.142154-3.150769-5.238154-3.150769-9.491692z m-68.411077-66.244923c0 15.241846-4.135385 24.891077-12.603077 31.783384-6.931692 4.135385-13.902769 9.688615-25.166769 11.027693h-12.603077c-9.728 0-16.699077-1.339077-23.630769-5.592616-5.671385-2.796308-8.467692-8.388923-8.467693-15.241846 0-9.688615 5.632-16.580923 16.738462-19.377231 4.135385-1.299692 11.067077-4.096 23.670154-5.55323h41.905231v2.953846h0.157538z m487.305846-113.506462c-54.508308 0-96.413538 44.268308-96.413538 99.564308a96.098462 96.098462 0 0 0 96.413538 95.428923c54.468923 0 97.673846-44.268308 97.673846-95.428923 0.196923-55.296-43.204923-99.564308-97.673846-99.564308z m0 165.96677c-37.809231 0-65.614769-29.026462-65.614769-66.402462 0-37.415385 28.002462-67.741538 65.614769-67.741538 37.572923 0 67.072 30.326154 67.072 67.741538 0 37.376-29.302154 66.402462-67.072 66.402462z" fill="#FF6003" p-id="51741"></path></svg>