<?xml version="1.0" standalone="no"?><!DOCTYPE svg PUBLIC "-//W3C//DTD SVG 1.1//EN" "http://www.w3.org/Graphics/SVG/1.1/DTD/svg11.dtd"><svg t="1579071902816" class="icon" viewBox="0 0 1024 1024" version="1.1" xmlns="http://www.w3.org/2000/svg" p-id="55698" width="32" height="32" xmlns:xlink="http://www.w3.org/1999/xlink"><defs><style type="text/css"></style></defs><path d="M520.606476 1023.609905h-16.896c-6.192762-0.877714-12.434286-1.584762-18.602666-2.608762-33.475048-5.436952-64.658286-17.554286-94.69562-32.914286-58.806857-29.988571-110.689524-69.656381-157.330285-116.272762-44.324571-44.27581-82.285714-93.379048-110.08-149.918476C100.425143 676.010667 86.308571 627.98019 86.381714 576.219429 86.552381 435.833905 86.454857 295.448381 86.454857 155.062857v-5.12c0.804571-0.414476 1.072762-0.658286 1.365333-0.682667 1.462857-0.146286 2.950095-0.316952 4.437334-0.341333 38.765714-0.609524 77.287619-3.169524 115.516952-10.386286 36.59581-6.92419 72.655238-15.847619 107.398095-29.379047 47.591619-18.480762 93.062095-41.398857 136.972191-67.486476A458.264381 458.264381 0 0 0 511.658667 0.390095h0.975238c1.536 1.26781 2.998857 2.584381 4.534857 3.803429 33.353143 26.282667 69.827048 47.469714 107.422476 66.755047 49.249524 25.283048 99.815619 47.201524 153.868191 60.099048 28.038095 6.680381 56.246857 12.141714 84.967619 14.384762 19.772952 1.536 39.619048 2.096762 59.440762 3.072l15.018666 0.731429v6.046476c0 140.190476 0 280.380952-0.073143 420.571428 0 10.654476-0.365714 21.333333-1.536 31.914667-3.974095 36.181333-14.701714 70.485333-29.842285 103.448381-21.699048 47.201524-50.712381 89.526857-84.992 128.26819-57.904762 65.511619-124.708571 119.369143-204.092953 156.550096-23.28381 10.898286-47.420952 19.431619-72.777143 23.990857-7.94819 1.462857-15.969524 2.389333-23.966476 3.584M157.013333 220.745143v3.608381c0 119.417905-0.146286 238.83581 0.195048 358.229333 0.048762 13.702095 1.852952 27.599238 4.534857 41.057524 7.875048 39.399619 25.35619 74.776381 47.250286 108.007619 43.934476 66.681905 100.303238 120.978286 165.473524 166.229333 30.159238 20.967619 61.854476 39.107048 96.889904 50.712381 18.748952 6.217143 37.790476 9.386667 57.58781 5.583238 26.624-5.12 51.053714-15.896381 74.630095-28.769523 50.809905-27.818667 95.914667-63.317333 136.777143-104.350477 38.180571-38.278095 71.460571-80.359619 95.695238-129.121523 17.481143-35.230476 28.696381-72.094476 28.647619-111.981715-0.146286-118.076952-0.048762-236.153905-0.048762-354.230857v-5.193143c-16.725333-2.535619-32.768-4.681143-48.737524-7.43619-44.739048-7.655619-88.478476-19.236571-130.657523-36.205714a1041.871238 1041.871238 0 0 1-169.813334-87.113143c-2.486857-1.560381-4.242286-1.511619-6.680381 0.024381-40.057905 25.429333-82.041905 47.201524-125.049904 67.047619a719.481905 719.481905 0 0 1-169.496381 54.491428c-18.822095 3.535238-37.790476 6.241524-57.197715 9.411048" fill="#128FDC" p-id="55699"></path><path d="M702.659048 361.910857l62.73219 58.148572-276.821333 320.926476-181.223619-154.819048 55.832381-66.169905 116.711619 98.645334 220.964571-254.780953 1.77981-1.950476z" fill="#128FDC" p-id="55700"></path></svg>