<?xml version="1.0" standalone="no"?><!DOCTYPE svg PUBLIC "-//W3C//DTD SVG 1.1//EN" "http://www.w3.org/Graphics/SVG/1.1/DTD/svg11.dtd"><svg t="1579070976895" class="icon" viewBox="0 0 1024 1024" version="1.1" xmlns="http://www.w3.org/2000/svg" p-id="47214" width="32" height="32" xmlns:xlink="http://www.w3.org/1999/xlink"><defs><style type="text/css"></style></defs><path d="M467.136 154.666667l-1.856 1.834666c-162.624 20.693333-291.712 149.12-313.173333 311.616l-1.813334 1.834667-42.197333 6.186667v79.210666l41.941333 5.226667 1.856 1.834667c20.949333 164.202667 151.722667 293.973333 316.16 313.557333l1.877334 1.813333 6.229333 42.389334h79.189333l5.397334-43.349334 1.813333-1.856c161.536-22.826667 288.597333-152 308.586667-314.069333l1.813333-1.856 47.210667-6.933333v-79.189334l-47.978667-5.973333-1.856-1.813333C847.850667 305.152 720.938667 178.773333 560.853333 156.949333l-1.834666-1.813333-6.912-47.04h-79.189334l-5.781333 46.570667zM113.856 430.72A407.04 407.04 0 0 1 427.221333 118.250667l2.176-17.472A41.962667 41.962667 0 0 1 471.018667 64h82.944c20.821333 0 38.485333 15.253333 41.514666 35.84l2.773334 18.986667a407.04 407.04 0 0 1 309.930666 308.16l19.306667 2.410666c21.013333 2.602667 36.778667 20.458667 36.778667 41.621334v82.944c0 20.821333-15.253333 38.485333-35.84 41.514666l-18.752 2.752a407.04 407.04 0 0 1-308.970667 314.56l-1.834667 14.698667a41.962667 41.962667 0 0 1-41.621333 36.778667h-82.944a41.962667 41.962667 0 0 1-41.514667-35.84l-2.026666-13.802667c-158.506667-31.914667-283.712-155.968-317.12-314.154667l-12.864-1.6A41.962667 41.962667 0 0 1 64 557.248v-82.944c0-20.821333 15.253333-38.485333 35.84-41.514667l14.016-2.048z" fill="#1296db" p-id="47215"></path><path d="M512 810.666667c-92.16 0-178.261333-42.112-234.965333-114.261334A297.429333 297.429333 0 0 1 213.333333 512c0-55.978667 15.466667-110.122667 44.714667-157.269333A298.453333 298.453333 0 0 1 512 213.333333c103.530667 0 198.890667 53.248 253.504 140.672A297.344 297.344 0 0 1 810.666667 512c0 67.498667-22.506667 132.138667-64 184.768A298.112 298.112 0 0 1 512 810.666667z m0-42.666667c78.890667 0 152.533333-35.946667 201.173333-97.642667A254.762667 254.762667 0 0 0 768 512c0-48.277333-13.376-94.848-38.698667-135.402667A255.786667 255.786667 0 0 0 512 256a255.786667 255.786667 0 0 0-217.706667 121.237333A254.677333 254.677333 0 0 0 256 512c0 57.749333 19.178667 112.96 54.592 158.037333A255.466667 255.466667 0 0 0 512 768z" fill="#1296db" p-id="47216"></path><path d="M454.677333 598.08h-14.784a10.666667 10.666667 0 0 1-10.026666-7.061333l-9.536-26.496H361.813333l-9.344 26.453333a10.666667 10.666667 0 0 1-10.048 7.104h-14.421333a10.666667 10.666667 0 0 1-10.026667-14.336l51.157334-139.733333a10.666667 10.666667 0 0 1 10.026666-7.018667h25.386667a10.666667 10.666667 0 0 1 10.026667 7.061333l50.154666 139.733334a10.666667 10.666667 0 0 1-10.026666 14.293333z m-42.453333-63.445333l-19.114667-58.944c-1.173333-3.541333-2.624-4.373333-4.053333 0l-19.776 58.944h42.944z m112.298667 7.296v45.482666a10.666667 10.666667 0 0 1-10.666667 10.666667h-12.970667a10.666667 10.666667 0 0 1-10.666666-10.666667v-139.733333a10.666667 10.666667 0 0 1 10.666666-10.666667h44.757334c40.064 0 57.258667 21.674667 57.258666 50.944 0 14.336-3.2 29.717333-15.317333 39.68-12.096 9.941333-27.221333 14.698667-45.376 14.293334h-17.685333z m0-75.306667v45.589333h14.869333c20.181333 0 33.365333-5.376 33.365333-22.912 0-17.130667-13.077333-22.698667-33.066666-22.698666h-15.146667z m153.6-2.901333h-3.157334v107.626666h3.157334a10.666667 10.666667 0 0 1 10.666666 10.666667v5.397333a10.666667 10.666667 0 0 1-10.666666 10.666667h-40.426667a10.666667 10.666667 0 0 1-10.666667-10.666667v-5.397333a10.666667 10.666667 0 0 1 10.666667-10.666667h2.944v-107.626666h-2.944a10.666667 10.666667 0 0 1-10.666667-10.666667v-5.397333a10.666667 10.666667 0 0 1 10.666667-10.666667h40.426667a10.666667 10.666667 0 0 1 10.666666 10.666667v5.397333a10.666667 10.666667 0 0 1-10.666666 10.666667z" fill="#1296db" p-id="47217"></path></svg>