<?xml version="1.0" standalone="no"?><!DOCTYPE svg PUBLIC "-//W3C//DTD SVG 1.1//EN" "http://www.w3.org/Graphics/SVG/1.1/DTD/svg11.dtd"><svg t="1579073783549" class="icon" viewBox="0 0 1820 1024" version="1.1" xmlns="http://www.w3.org/2000/svg" p-id="111785" width="56.875" height="32" xmlns:xlink="http://www.w3.org/1999/xlink"><defs><style type="text/css"></style></defs><path d="M560.35572961 9.98764692c-43.94142391 0-80.15013835 36.08597408-80.15013835 80.15013835v845.19732534c0 43.94142391 36.08597408 80.15013835 80.15013835 80.15013835h719.51012557c43.94142391 0 80.15013835-36.08597408 80.15013835-80.15013835V328.86982113L1063.10453128 9.98764692H560.35572961z" fill="#8199AF" p-id="111786"></path><path d="M1360.01599353 330.46545994v15.71089965H1158.96556926s-98.92957396-20.37507314-97.4566768-105.31212663c0 0 3.19127633 89.60122698 94.26540047 89.60122698h204.2417006z" fill="#617F9B" p-id="111787"></path><path d="M1063.10453128 9.98764692v229.40368888c0 25.16198829 17.30653846 91.07412415 95.86103798 91.07412414h201.05042427L1063.10453128 9.98764692zM926.7388277 779.33078377h-53.39251125v66.03487622c0 6.25981231-4.66417349 11.04672615-11.04672615 11.04672614-6.25981231 0-11.04672615-4.66417349-11.04672746-11.04672614V683.59248612c0-9.45108863 6.25981231-17.30653846 15.71090095-17.30653844h59.65232357c37.68161161 0 58.17942638 25.16198829 58.17942637 56.58378887 0.12274164 31.4218006-20.37507314 56.46104723-58.05668603 56.46104722z m-3.19127632-92.66976295h-48.72833776v72.29468851h48.72833776c21.97071195 0 37.68161161-15.71089965 37.6816116-36.08597278 0.12274164-22.0934536-15.58815799-36.20871443-37.6816116-36.20871573z m132.92894394 0v158.58189753c0 6.25981231-4.66417349 11.04672615-11.04672744 11.04672743-6.25981231 0-12.51962332-4.66417349-12.51962332-11.04672743V686.66102082l-0.61370694-14.60622613c0-2.20934575 5.76884572-6.38255265 12.15139968-6.38255395 6.62803595 0 11.78317473 2.5775694 11.78317473 5.64610536" fill="#FFFFFF" p-id="111788"></path><path d="M1055.86278839 773.43919639v-29.7034214l66.5258415-65.05294434c1.96386246-2.82305268 5.89158737-4.29594985 11.78317475-4.29594985s13.74703719 4.29594985 13.74703847 9.94205392c0 2.82305268 0 4.29594985-1.96386245 5.64610407l-70.45356772 67.87599833 74.38129262 73.64484403c1.96386246 1.47289717 3.92772491 4.29594985 3.92772492 5.64610408 0 5.64610407-7.85544982 9.94205392-13.74703848 9.94205393-5.89158737 0-9.81931228 0-11.78317474-2.82305141l-72.41742887-70.82179136M785.95443522 856.65786943c-4.66417349 0-7.85544982-3.19127633-11.04672745-7.85544982L760.79244694 812.71644553h-94.26540048l-14.11526212 36.08597408c-1.59563882 4.66417349-6.25981231 7.85544982-11.04672616 7.85544982-6.25981231 0-12.51962332-6.25981231-12.51962332-12.51962332 0-1.59563882 0-3.19127633 1.59563751-4.66417349L694.88031108 677.70089876c3.19127633-7.85544982 11.04672615-12.51962332 18.90217727-12.51962331 9.45108863 0 15.71089965 4.66417349 18.90217598 12.51962331l66.03487621 161.77317386c0 1.59563882 1.59563882 3.19127633 1.59563882 4.66417349-0.2454833 6.25981231-6.5052943 12.51962332-14.36074414 12.51962332z m-72.29468853-166.43734734l-39.27725041 102.12085029h80.15013835l-40.87288794-102.12085029z" fill="#FFFFFF" p-id="111789"></path></svg>