<?xml version="1.0" standalone="no"?><!DOCTYPE svg PUBLIC "-//W3C//DTD SVG 1.1//EN" "http://www.w3.org/Graphics/SVG/1.1/DTD/svg11.dtd"><svg t="1579070642653" class="icon" viewBox="0 0 1024 1024" version="1.1" xmlns="http://www.w3.org/2000/svg" p-id="32975" xmlns:xlink="http://www.w3.org/1999/xlink" width="32" height="32"><defs><style type="text/css"></style></defs><path d="M160.185282 411.641291l11.945053 48.481178-41.455157 151.298891c-1.249457 4.371564-1.873674 8.432043-1.873674 12.178367 0 9.837042 4.605901 16.863063 13.818727 21.079084l8.197706 3.747347c5.152347 2.342348 7.729032 6.245238 7.729032 11.710716 0 7.806803-5.698792 11.710716-17.0974 11.710716L81.959663 671.847591c-5.777587 0-10.349719-1.204431-13.69593-3.635807-3.367701-2.408863-5.040806-5.732561-5.040806-9.948583 0-4.52813 3.435239-8.275477 10.304693-11.242042 6.401804-2.811022 11.130502-5.342682 14.163581-7.606235 3.055592-2.263553 5.978155-5.352915 8.788154-9.256828 4.371564-6.401804 7.963369-14.911618 10.773368-25.52842L160.185282 411.641291zM176.346357 352.152409l94.385671 0 65.109903 275.195689c1.249457 4.840238 2.654456 9.134031 4.216022 12.881378 1.404999 2.966565 4.52813 5.386684 9.368368 7.260357 4.059456 1.717108 6.870478 3.435239 8.43102 5.152347s2.342348 4.059456 2.342348 7.02602c0 8.118911-6.089695 12.178367-18.268062 12.178367L225.061872 671.846568c-4.683672 0-8.43102-1.12666-11.242042-3.390213s-4.216022-5.275143-4.216022-9.022491c0-3.123131 0.624217-5.464455 1.873674-7.02602s4.059456-3.51301 8.43102-5.855358c3.123131-1.561565 5.308913-3.278673 6.557346-5.152347 1.249457-1.873674 1.873674-4.216022 1.873674-7.02602 0-2.654456-0.234337-4.996804-0.703011-7.02602l-7.494695-33.960463-65.344241 0 6.324032-27.870768 52.462862 0-43.094494-190.411701L176.346357 352.152409zM507.283582 352.152409l0 275.195689c0 6.089695 1.170662 10.461259 3.51301 13.115716 1.249457 1.561565 2.420119 2.542916 3.51301 2.921539 1.092891 0.401136 4.684696 1.372254 10.773368 2.932796 7.494695 1.717108 11.242042 6.010901 11.242042 12.881378 0 4.059456-2.030239 7.338129-6.089695 9.837042-2.966565 1.873674-7.884574 2.811022-14.755052 2.811022l-7.963369 0L403.059845 671.847591l-6.089695 0c-5.621021 0-9.959839-1.047866-12.992919-3.167133-3.055592-2.096754-4.573155-5.108345-4.573155-9.011234 0-6.401804 3.123131-10.617825 9.368368-12.647041 5.152347-1.717108 8.15268-2.765997 9.011234-3.167133 0.858554-0.379647 1.762133-1.282203 2.698458-2.688225 1.873674-2.49789 2.811022-6.479575 2.811022-11.945053L403.293159 394.778228c0-5.464455-0.936325-9.44614-2.811022-11.945053-0.936325-1.404999-1.839905-2.297322-2.698458-2.699482-0.858554-0.379647-3.858888-1.438769-9.011234-3.155876-6.245238-2.030239-9.368368-6.245238-9.368368-12.647041 0-3.903913 1.51654-6.903224 4.573155-9.022491 3.03308-2.096754 7.371898-3.155876 12.992919-3.155876l6.089695 0L507.283582 352.152409zM527.190981 549.355793l0-25.060769c6.713912-1.561565 11.431354-3.200902 14.174837-4.91801 2.720971-1.717108 5.108345-4.371564 7.137561-7.963369 3.278673-6.089695 4.91801-14.286378 4.91801-24.592095l0-74.946946c0-7.338129-0.546446-12.803607-1.639337-16.394389-1.092891-3.590781-3.278673-6.870478-6.558369-9.837042-4.52813-4.371564-10.617825-7.104815-18.268062-8.197706l0-25.294083c32.16456 0 55.898101 3.044336 71.199599 9.134031 17.643845 7.02602 31.618115 17.799388 41.923832 32.321126 10.461259 14.832823 15.692401 33.023114 15.692401 54.570873 0 24.045649-5.308913 43.718711-15.925714 59.020208-10.617825 15.145955-25.450648 26.309202-44.499493 33.491789C579.575048 546.468023 556.857651 549.355793 527.190981 549.355793zM812.457026 352.152409l0 275.195689c0 6.089695 1.170662 10.461259 3.51301 13.115716 1.249457 1.561565 2.420119 2.542916 3.51301 2.921539 1.092891 0.401136 4.684696 1.372254 10.773368 2.932796 7.494695 1.717108 11.242042 6.010901 11.242042 12.881378 0 4.059456-2.030239 7.338129-6.089695 9.837042-2.966565 1.873674-7.884574 2.811022-14.755052 2.811022l-7.963369 0L708.234313 671.847591l-6.089695 0c-5.621021 0-9.959839-1.047866-12.992919-3.167133-3.055592-2.096754-4.573155-5.108345-4.573155-9.011234 0-6.401804 3.123131-10.617825 9.368368-12.647041 5.152347-1.717108 8.15268-2.765997 9.011234-3.167133 0.858554-0.379647 1.762133-1.282203 2.698458-2.688225 1.873674-2.49789 2.811022-6.479575 2.811022-11.945053L708.467627 394.778228c0-5.464455-0.937348-9.44614-2.811022-11.945053-0.936325-1.404999-1.839905-2.297322-2.698458-2.699482-0.858554-0.379647-3.858888-1.438769-9.011234-3.155876-6.245238-2.030239-9.368368-6.245238-9.368368-12.647041 0-3.903913 1.51654-6.903224 4.573155-9.022491 3.03308-2.096754 7.371898-3.155876 12.992919-3.155876l6.089695 0L812.457026 352.152409zM832.364425 549.355793l0-25.060769c6.713912-1.561565 11.431354-3.200902 14.174837-4.91801 2.720971-1.717108 5.108345-4.371564 7.137561-7.963369 3.278673-6.089695 4.91801-14.286378 4.91801-24.592095l0-74.946946c0-7.338129-0.546446-12.803607-1.639337-16.394389-1.092891-3.590781-3.278673-6.870478-6.557346-9.837042-4.52813-4.371564-10.617825-7.104815-18.268062-8.197706l0-25.294083c32.16456 0 55.898101 3.044336 71.199599 9.134031 17.643845 7.02602 31.618115 17.799388 41.923832 32.321126 10.461259 14.832823 15.692401 33.023114 15.692401 54.570873 0 24.045649-5.308913 43.718711-15.925714 59.020208-10.617825 15.145955-25.450648 26.309202-44.499493 33.491789C884.749516 546.468023 862.031095 549.355793 832.364425 549.355793z" p-id="32976" fill="#1afa29"></path></svg>