<?xml version="1.0" standalone="no"?><!DOCTYPE svg PUBLIC "-//W3C//DTD SVG 1.1//EN" "http://www.w3.org/Graphics/SVG/1.1/DTD/svg11.dtd"><svg t="1579073795765" class="icon" viewBox="0 0 1024 1024" version="1.1" xmlns="http://www.w3.org/2000/svg" p-id="112726" width="32" height="32" xmlns:xlink="http://www.w3.org/1999/xlink"><defs><style type="text/css"></style></defs><path d="M600 304v208h-80V96l80-80z" fill="#856CD3" p-id="112727"></path><path d="M600 16l-80 80H8l80-80z" fill="#967ADC" p-id="112728"></path><path d="M264 320a32 32 0 1 1 0 64 32 32 0 0 1 0-64z" fill="#FFFFFF" p-id="112729"></path><path d="M264 96H8v512h448v-64c0-17.6 14.4-32 32-32h32V96h-256z m0 288a32 32 0 1 1 0-64 32 32 0 0 1 0 64z" fill="#AC92EC" p-id="112730"></path><path d="M391.872 492.976c-47.392 0-113.136-21.616-175.872-57.824C121.968 380.848 38.848 294 70.016 240c7.648-13.216 25.296-28.976 66.128-28.976 47.392 0 113.136 21.632 175.856 57.824 49.776 28.736 92.432 63.408 120.112 97.632 30.928 38.24 40.112 72.88 25.888 97.52-7.648 13.216-25.296 28.976-66.128 28.976zM136.144 243.024c-19.664 0-33.648 4.72-38.4 12.976-13.36 23.136 31.248 91.936 134.272 151.424 58.096 33.552 117.856 53.552 159.872 53.552 19.936 0 33.584-4.592 38.4-12.976 6.832-11.84-2-35.36-23.04-61.392-25.264-31.232-64.768-63.2-111.232-90.032-58.096-33.552-117.84-53.552-159.872-53.552z" fill="#E6E9ED" p-id="112731"></path><path d="M264 576c-62.352 0-96-115.408-96-224s33.648-224 96-224 96 115.408 96 224-33.648 224-96 224z m0-416c-26.72 0-64 73.04-64 192s37.28 192 64 192 64-73.04 64-192-37.28-192-64-192z" fill="#F5F7FA" p-id="112732"></path><path d="M136.128 492.976c-40.816 0-58.464-15.744-66.112-28.976-31.168-54.016 51.952-140.848 145.984-195.136 62.736-36.224 128.48-57.856 175.888-57.856 40.832 0 58.48 15.776 66.128 29.008 31.152 54-51.968 140.848-146.016 195.136-62.72 36.192-128.464 57.824-175.872 57.824z m255.76-249.968c-42.032 0-101.792 20.032-159.888 53.584C128.992 356.048 84.368 424.848 97.728 448c4.832 8.352 18.464 12.976 38.384 12.976 42.032 0 101.792-20.016 159.872-53.552 103.008-59.488 147.664-128.304 134.304-151.424-4.816-8.368-18.464-12.992-38.4-12.992z" fill="#FFFFFF" p-id="112733"></path><path d="M664 288h-96a16 16 0 1 0 0 32h96c26.464 0 48 21.536 48 48v144a16 16 0 1 0 32 0v-144c0-44.112-35.888-80-80-80z" fill="#656D78" p-id="112734"></path><path d="M807.68 908.864a15.92 15.92 0 0 0-18.832-12.544 15.776 15.776 0 0 0-12.544 15.68H679.68a15.76 15.76 0 0 0-12.544-15.68 15.936 15.936 0 0 0-18.832 12.544l-16 80a16 16 0 0 0 31.376 6.272l0.64-3.136h127.376l0.624 3.136a15.968 15.968 0 0 0 18.816 12.544 16 16 0 0 0 12.544-18.832l-16-79.984z" fill="#CCD1D9" p-id="112735"></path><path d="M840 1008h-224a16 16 0 1 1 0-32h224a16 16 0 1 1 0 32zM968 512h-480c-26.464 0-48 21.536-48 48v320c0 26.464 21.536 48 48 48h480c26.464 0 48-21.536 48-48V560c0-26.464-21.536-48-48-48z" fill="#E6E9ED" p-id="112736"></path><path d="M968 512h-64c26.464 0 48 21.536 48 48v320c0 26.464-21.536 48-48 48h64c26.464 0 48-21.536 48-48V560c0-26.464-21.536-48-48-48z" fill="#CCD1D9" p-id="112737"></path><path d="M984 864V560a16 16 0 0 0-16-16h-480a16 16 0 0 0-16 16v304h512z" fill="#48CFAD" p-id="112738"></path><path d="M968 544h-18.96c1.792 5.024 2.96 10.352 2.96 16v304h32V560a16 16 0 0 0-16-16zM712 624h-176a16 16 0 1 1 0-32h176a16 16 0 1 1 0 32zM920 624h-144a16 16 0 1 1 0-32h144a16 16 0 1 1 0 32zM600 688h-64a16 16 0 1 1 0-32h64a16 16 0 1 1 0 32zM808 752h-272a16 16 0 1 1 0-32h272a16 16 0 1 1 0 32zM680 816h-144a16 16 0 1 1 0-32h144a16 16 0 1 1 0 32zM920 688h-272a16 16 0 1 1 0-32h272a16 16 0 1 1 0 32zM920 752h-48a16 16 0 1 1 0-32h48a16 16 0 1 1 0 32zM920 816h-176a16 16 0 1 1 0-32h176a16 16 0 1 1 0 32z" fill="#37BC9B" p-id="112739"></path><path d="M728.48 912c-8.848 0-16.08-7.152-16.08-16s7.072-16 15.904-16h0.176a16 16 0 1 1 0 32z" fill="#656D78" p-id="112740"></path></svg>