<?xml version="1.0" standalone="no"?><!DOCTYPE svg PUBLIC "-//W3C//DTD SVG 1.1//EN" "http://www.w3.org/Graphics/SVG/1.1/DTD/svg11.dtd"><svg t="1579074216323" class="icon" viewBox="0 0 1024 1024" version="1.1" xmlns="http://www.w3.org/2000/svg" p-id="119050" width="32" height="32" xmlns:xlink="http://www.w3.org/1999/xlink"><defs><style type="text/css"></style></defs><path d="M512 512m-480 0a480 480 0 1 0 960 0 480 480 0 1 0-960 0Z" fill="#2EC5FE" p-id="119051"></path><path d="M512 1008c-272 0-496-224-496-496s224-496 496-496 496 224 496 496-224 496-496 496z m0-960c-256 0-464 208-464 464s208 464 464 464 464-208 464-464S768 48 512 48z" fill="#2EC5FE" p-id="119052"></path><path d="M768 688h-512c-9.6 0-16-6.4-16-16s6.4-16 16-16h512c9.6 0 16 6.4 16 16s-6.4 16-16 16zM512 656c-3.2 0-6.4 0-9.6-3.2l-192-128c-6.4-6.4-9.6-16-3.2-22.4 6.4-6.4 16-9.6 22.4-3.2l182.4 121.6 214.4-214.4c6.4-6.4 16-6.4 22.4 0s6.4 16 0 22.4l-224 224c-3.2 3.2-9.6 3.2-12.8 3.2z" fill="#FFFFFF" p-id="119053"></path><path d="M736 496h-6.4c-9.6-3.2-12.8-12.8-9.6-19.2l22.4-67.2-67.2 22.4c-9.6 3.2-16-3.2-19.2-9.6-3.2-9.6 3.2-16 9.6-19.2l96-32c6.4-3.2 12.8 0 16 3.2s6.4 9.6 3.2 16l-32 96c0 6.4-6.4 9.6-12.8 9.6z" fill="#FFFFFF" p-id="119054"></path></svg>