<?xml version="1.0" standalone="no"?><!DOCTYPE svg PUBLIC "-//W3C//DTD SVG 1.1//EN" "http://www.w3.org/Graphics/SVG/1.1/DTD/svg11.dtd"><svg t="1579070719217" class="icon" viewBox="0 0 1024 1024" version="1.1" xmlns="http://www.w3.org/2000/svg" p-id="36505" width="32" height="32" xmlns:xlink="http://www.w3.org/1999/xlink"><defs><style type="text/css"></style></defs><path d="M512 104c55.1 0 108.5 10.8 158.8 32 48.6 20.5 92.2 50 129.7 87.5s66.9 81.1 87.5 129.7c21.3 50.3 32 103.7 32 158.8s-10.8 108.5-32 158.8c-20.5 48.6-50 92.2-87.5 129.7s-81.1 66.9-129.7 87.5c-50.3 21.3-103.7 32-158.8 32s-108.5-10.8-158.8-32c-48.6-20.5-92.2-50-129.7-87.5s-66.9-81.1-87.5-129.7c-21.3-50.3-32-103.7-32-158.8s10.8-108.5 32-158.8c20.5-48.6 50-92.2 87.5-129.7s81.1-66.9 129.7-87.5c50.3-21.2 103.7-32 158.8-32m0-40C264.6 64 64 264.6 64 512s200.6 448 448 448 448-200.6 448-448S759.4 64 512 64z" fill="#3E4FB7" p-id="36506"></path><path d="M313.7 543c-16.2 0-29.2-12.3-29.2-27.2V258.4c0-14.9 13-27.2 29.2-27.2h396.7c16.2 0 29.2 12.3 29.2 27.2v257.3c0 14.9-13 27.2-29.2 27.2H313.7z" fill="#3E4FB7" p-id="36507"></path><path d="M720.1 515.7c0 5.2-4.5 9.1-9.7 9.1H313.7c-5.2 0-9.7-3.9-9.7-9.1V258.4c0-5.2 4.5-9.1 9.7-9.1h396.7c5.2 0 9.7 3.9 9.7 9.1v257.3z" fill="#FFFFFF" p-id="36508"></path><path d="M386.3 308.3l28.5-14.9v3.9l-24 12.3 24 11.7v4.5l-28.5-14.9v-2.6zM423.2 282.4h5.2v18.8c0.6-1.3 1.9-2.6 3.9-3.9 1.3-0.6 3.2-1.3 5.2-1.3 3.9 0 10.4 2.6 10.4 13v17.5h-5.2V309c0-4.5-1.9-9.1-7.1-9.1-3.2 0-6.5 2.6-7.1 5.2 0 0.6-0.6 1.3-0.6 2.6v18.1h-5.2v-43.4h0.5zM463.4 288.2v8.4h7.8v3.9h-7.8v16.2c0 3.9 1.3 5.8 3.9 5.8 1.3 0 2.6 0 3.2-0.6v3.9c-1.3 0.6-2.6 0.6-4.5 0.6-2.6 0-4.5-0.6-5.8-1.9s-1.9-4.5-1.9-7.8v-16.2h-4.5v-3.9h4.5v-7.1l5.1-1.3zM477 304.4v-7.8h4.5v4.5c1.9-2.6 4.5-5.2 9.1-5.2 3.9 0 7.1 2.6 8.4 5.8 0.6-1.9 1.9-3.2 3.2-3.9 1.9-1.3 3.9-1.9 6.5-1.9 3.9 0 9.7 2.6 9.7 13v17.5h-5.2v-16.9c0-5.8-1.9-9.1-6.5-9.1-3.2 0-5.2 2.6-6.5 5.2 0 0.6-0.6 1.9-0.6 2.6v18.1h-5.2V309c0-4.5-1.9-8.4-6.5-8.4-3.2 0-5.8 2.6-6.5 5.2 0 0.6-0.6 1.9-0.6 2.6v18.1h-5.2v-22h1.4zM528.2 282.4h5.2v43.4h-5.2v-43.4zM571 311.6l-28.5 14.3V322l24-11.7-24-12.3v-3.9l28.5 14.3v3.2zM578.1 323.2c0-2.6 1.3-3.9 3.9-3.9 1.9 0 3.9 1.3 3.9 3.9 0 1.9-1.3 3.9-3.9 3.9-2.6-0.6-3.9-1.9-3.9-3.9zM590.4 323.2c0-2.6 1.3-3.9 3.9-3.9 1.9 0 3.9 1.3 3.9 3.9 0 1.9-1.3 3.9-3.9 3.9-1.9-0.6-3.9-1.9-3.9-3.9zM603.4 323.2c0-2.6 1.3-3.9 3.9-3.9 1.9 0 3.9 1.3 3.9 3.9 0 1.9-1.3 3.9-3.9 3.9-2.6-0.6-3.9-1.9-3.9-3.9zM615.7 323.2c0-2.6 1.3-3.9 3.9-3.9 1.9 0 3.9 1.3 3.9 3.9 0 1.9-1.3 3.9-3.9 3.9-2-0.6-3.9-1.9-3.9-3.9zM628.7 323.2c0-2.6 1.3-3.9 3.9-3.9 1.9 0 3.9 1.3 3.9 3.9 0 1.9-1.3 3.9-3.9 3.9-2.6-0.6-3.9-1.9-3.9-3.9zM641 323.2c0-2.6 1.3-3.9 3.9-3.9 1.9 0 3.9 1.3 3.9 3.9 0 1.9-1.3 3.9-3.9 3.9-2-0.6-3.9-1.9-3.9-3.9zM653.9 323.2c0-2.6 1.3-3.9 3.9-3.9 1.9 0 3.9 1.3 3.9 3.9 0 1.9-1.3 3.9-3.9 3.9-2.6-0.6-3.9-1.9-3.9-3.9zM666.9 323.2c0-2.6 1.3-3.9 3.9-3.9 1.9 0 3.9 1.3 3.9 3.9 0 1.9-1.3 3.9-3.9 3.9-2.6-0.6-3.9-1.9-3.9-3.9zM811.4 709.2c-5.2 5.2-13 7.8-22 7.8H232c-8.4 0-14.6-1.6-19.1-5.5l-0.7 1.3v38.6c4.5 3.9 11.4 6.4 20.5 6.4h557.4c9.7 0 16.9-2.6 22-7.8v-40.8h-0.7z" fill="#3E4FB7" p-id="36509"></path><path d="M789.4 718c9.7 0 17.5-3.2 22.7-8.4l-49.9-127c-8.4-21.4-34.4-39.5-57.7-39.5H335.7c-23.3 0-50.6 16.9-60.3 38.2l-62.9 130.9c4.5 3.9 11.7 5.8 19.4 5.8h557.5z" fill="#3E4FB7" p-id="36510"></path><path d="M593.7 703.1H421.9l14.3-33.7h142.6zM759.6 648H279.3l33.7-79.1h421.3z" fill="#FFFFFF" p-id="36511"></path></svg>