<?xml version="1.0" standalone="no"?><!DOCTYPE svg PUBLIC "-//W3C//DTD SVG 1.1//EN" "http://www.w3.org/Graphics/SVG/1.1/DTD/svg11.dtd"><svg t="1579074296292" class="icon" viewBox="0 0 1024 1024" version="1.1" xmlns="http://www.w3.org/2000/svg" p-id="123647" width="32" height="32" xmlns:xlink="http://www.w3.org/1999/xlink"><defs><style type="text/css"></style></defs><path d="M923.362 614.911c-45.849 184.508-212.585 321.265-411.276 321.265-234.051 0-423.796-189.743-423.796-423.793 0-234.049 189.745-423.794 423.796-423.794 188.96 0 349.014 123.688 403.684 294.509h86.758C945.361 165.666 747.46 5.283 512.086 5.283c-280.06 0-507.101 227.043-507.101 507.1 0 280.058 227.041 507.1 507.101 507.1 244.935 0 449.312-173.663 496.726-404.571h-85.45z" fill="#1F71B9" p-id="123648"></path><path d="M410.136 923.088C225.623 877.235 88.865 710.497 88.865 511.809c0-234.049 189.745-423.795 423.796-423.795 234.05 0 423.795 189.746 423.795 423.795 0 188.961-123.69 349.014-294.509 403.682v86.761c217.431-57.169 377.814-255.068 377.814-490.442 0-280.061-227.044-507.1-507.101-507.1S5.564 231.748 5.561 511.809c-0.001 244.935 173.667 449.31 404.575 496.724v-85.445z" fill="#1F71B9" p-id="123649"></path><path d="M537.404 860.116h36.215c5.983 0 10.861-4.902 10.861-10.86V744.21h48.889c69.016 0 124.954-59.994 124.954-134.009 0.075-46.196-21.694-86.906-54.834-111.002 16.247-22.928 25.935-51.622 25.935-82.795 0-75.02-55.959-135.836-124.962-135.836h-19.916V175.534c0-5.981-4.892-10.867-10.857-10.867h-36.246c-5.981 0-10.856 4.899-10.856 10.867v105.034h-57.958V175.534c0-5.981-4.892-10.867-10.857-10.867h-36.208c-5.981 0-10.86 4.899-10.86 10.867v105.034H291.166c-6.002 0-10.855 4.863-10.855 10.858v36.586c0 5.589 4.17 10.438 9.753 10.94 40.809 3.743 62.684 31.129 62.684 64.768v224.582c0 30.264-15.609 54.29-49.746 57.578-4.841 0.475-8.865 3.916-9.77 8.705l-6.927 36.937c-1.247 6.587 3.826 12.688 10.543 12.688h113.817v105.046c0 5.981 4.893 10.86 10.858 10.86h36.214c5.983 0 10.859-4.902 10.859-10.86V744.21h57.949v105.046c0.002 5.981 4.893 10.86 10.859 10.86z m-68.79-492.623h88.743c33.012 0 59.765 26.753 59.765 59.771 0 33.012-26.753 59.762-59.765 59.762h-88.743V367.493z m0 293.4V541.355h117.718c33.01 0 59.764 26.752 59.764 59.773 0 33.011-26.754 59.764-59.764 59.764H468.614z" fill="#F29419" p-id="123650"></path></svg>