<?xml version="1.0" standalone="no"?><!DOCTYPE svg PUBLIC "-//W3C//DTD SVG 1.1//EN" "http://www.w3.org/Graphics/SVG/1.1/DTD/svg11.dtd"><svg t="1579072520143" class="icon" viewBox="0 0 1024 1024" version="1.1" xmlns="http://www.w3.org/2000/svg" p-id="74330" xmlns:xlink="http://www.w3.org/1999/xlink" width="32" height="32"><defs><style type="text/css"></style></defs><path d="M518.856001 28.24263c-270.965524 0-490.562206 219.596682-490.562206 490.562206 0 270.863196 219.596682 490.562206 490.562206 490.562206 270.965524 0 490.562206-219.699011 490.562206-490.562206C1009.418207 247.941641 789.821525 28.24263 518.856001 28.24263L518.856001 28.24263zM518.856001 943.979215c-234.843609 0-425.174378-190.330768-425.174378-425.174378 0-234.843609 190.330768-425.174378 425.174378-425.174378 234.843609 0 425.174378 190.330768 425.174378 425.174378C944.030379 753.648446 753.69961 943.979215 518.856001 943.979215L518.856001 943.979215z" p-id="74331" fill="#00fdb9"></path><path d="M475.878085 701.767962c-26.196063 21.795943-58.122514 32.64275-95.779354 32.64275-31.005496 0-59.759768-8.083941-86.467473-23.944839-26.503048-15.963226-46.047767-40.112721-58.736484-72.243829-12.58639-32.335765-18.930748-69.992605-18.930748-113.277506 0-33.563705 5.321075-66.104127 15.963226-97.621265 10.64215-31.619466 28.958929-56.689917 55.359648-75.518337 26.196063-18.623763 58.838813-27.935645 98.030579-27.935645 33.973019 0 62.113321 8.390926 84.625562 25.172779 22.409913 16.986509 39.498751 43.898871 51.368842 80.839412l66.206455-15.656241c-13.609673-46.866394-37.65684-83.192965-72.448486-109.184371-34.689317-25.889078-77.462576-38.987109-128.319776-38.987109-44.819826 0-85.955831 10.335165-123.203358 30.800839-37.349855 20.465674-66.104127 50.447886-86.365144 89.741981-20.261017 39.498751-30.391526 85.648846-30.391526 138.654942 0 48.503647 8.902568 93.937444 26.912361 136.199061 17.907465 42.363945 44.103528 74.69971 78.383532 96.904967 34.280004 22.307585 78.895173 33.461377 133.74318 33.461377 52.903767 0 97.723593-14.530629 134.35715-43.489557 36.735885-29.061257 62.010992-71.220546 76.132307-126.477865l-67.332068-16.986509C519.674628 647.840911 501.97182 680.176676 475.878085 701.767962L475.878085 701.767962z" p-id="74332" fill="#00fdb9"></path><path d="M546.586989 508.060358l167.61387 0 0 30.698511-167.61387 0 0-30.698511Z" p-id="74333" fill="#00fdb9"></path><path d="M615.044669 444.105126l30.698511 0 0 157.892675-30.698511 0 0-157.892675Z" p-id="74334" fill="#00fdb9"></path><path d="M734.973519 507.037074l167.61387 0 0 30.698511-167.61387 0 0-30.698511Z" p-id="74335" fill="#00fdb9"></path><path d="M803.431198 442.979514l30.698511 0 0 157.892675-30.698511 0 0-157.892675Z" p-id="74336" fill="#00fdb9"></path></svg>