<?xml version="1.0" standalone="no"?><!DOCTYPE svg PUBLIC "-//W3C//DTD SVG 1.1//EN" "http://www.w3.org/Graphics/SVG/1.1/DTD/svg11.dtd"><svg t="1579073128797" class="icon" viewBox="0 0 1024 1024" version="1.1" xmlns="http://www.w3.org/2000/svg" p-id="87233" width="32" height="32" xmlns:xlink="http://www.w3.org/1999/xlink"><defs><style type="text/css"></style></defs><path d="M896 1024H128a128 128 0 0 1-128-128V128a128 128 0 0 1 128-128h768a128 128 0 0 1 128 128v768a128 128 0 0 1-128 128z m0-896H128v768h768z m-256 64a64 64 0 0 1 0 128c-33.92-5.76-5.76 0-64 0a175.36 175.36 0 0 0-192 192c0 168.96 90.24 192 192 192 60.16 0 7.04 7.68 64 0a64 64 0 0 1 0 128c-372.48 14.72-384-199.04-384-320-3.84-211.84 121.6-320 384-320z" fill="#1d8171" p-id="87234"></path></svg>