<?xml version="1.0" standalone="no"?><!DOCTYPE svg PUBLIC "-//W3C//DTD SVG 1.1//EN" "http://www.w3.org/Graphics/SVG/1.1/DTD/svg11.dtd"><svg t="1579071828310" class="icon" viewBox="0 0 1024 1024" version="1.1" xmlns="http://www.w3.org/2000/svg" p-id="50751" width="32" height="32" xmlns:xlink="http://www.w3.org/1999/xlink"><defs><style type="text/css"></style></defs><path d="M0 512C0 229.226667 229.226667 0 512 0s512 229.226667 512 512-229.226667 512-512 512S0 794.773333 0 512z m517.333333 21.077333v236.245334L810.666667 810.666667V533.077333H517.333333z m36.330667 202.752v-165.12h220.608v196.821334l-220.608-31.701334z m-36.309333-481.066666v236.224H810.666667V213.333333l-293.333334 41.408z m36.309333 198.592v-165.12l220.608-31.701334v196.821334H553.664zM234.666667 533.077333v196.352l241.92 34.730667V533.077333H234.666667z m36.309333 162.837334v-125.205334h169.28v149.013334l-169.28-23.808zM234.666667 294.570667v196.416h241.92v-229.76L234.666667 294.549333z m36.309333 158.784v-125.205334l169.28-23.722666v148.992h-169.28v-0.064z" fill="#409EFF" p-id="50752"></path></svg>