<?xml version="1.0" standalone="no"?><!DOCTYPE svg PUBLIC "-//W3C//DTD SVG 1.1//EN" "http://www.w3.org/Graphics/SVG/1.1/DTD/svg11.dtd"><svg t="1579070804312" class="icon" viewBox="0 0 1024 1024" version="1.1" xmlns="http://www.w3.org/2000/svg" p-id="39900" width="32" height="32" xmlns:xlink="http://www.w3.org/1999/xlink"><defs><style type="text/css"></style></defs><path d="M512 512m-512 0a512 512 0 1 0 1024 0 512 512 0 1 0-1024 0Z" fill="#DDAF59" p-id="39901"></path><path d="M438.916 463.366c-41.42-24.86-69.138-70.209-69.138-122.033 0-50.81 27.107-97.762 71.11-123.168 44.005-25.405 98.22-25.405 142.223 0 44.004 25.406 71.111 72.357 71.111 123.168 0 51.822-27.716 97.17-69.133 122.03 120.189 29.48 209.102 129.904 211.223 249.895 0.09 0.408 0.135 0.824 0.132 1.24v18.793c0 3.46-3.032 6.265-6.772 6.265H234.328c-1.796 0-3.519-0.66-4.789-1.835-1.27-1.175-1.983-2.768-1.983-4.43V714.5c0-0.426 0.047-0.837 0.135-1.238 2.124-119.994 91.039-220.417 211.225-249.895z" fill="#FFFFFF" p-id="39902"></path></svg>