<?xml version="1.0" standalone="no"?><!DOCTYPE svg PUBLIC "-//W3C//DTD SVG 1.1//EN" "http://www.w3.org/Graphics/SVG/1.1/DTD/svg11.dtd"><svg t="1579070041774" class="icon" viewBox="0 0 1024 1024" version="1.1" xmlns="http://www.w3.org/2000/svg" p-id="16606" width="32" height="32" xmlns:xlink="http://www.w3.org/1999/xlink"><defs><style type="text/css"></style></defs><path d="M444.57 934.31a48.72 48.72 0 0 1-8-0.67l-2.48-0.41-2.34-0.9L111.78 809l-0.42-0.18c-31.32-13.42-37.9-34.21-37.9-49.3v-387.8a47.65 47.65 0 0 1 47.59-47.59h4.58L451 449.48l1.42 0.77c35.81 19.51 35.81 55.62 35.81 69.22v366.91c0 15.43-6 29.34-16.36 38.15a41.64 41.64 0 0 1-27.3 9.78zM130.38 763.42L439 882.32V519.47c0-13.75-1.28-20.57-9-25.29l-307.28-118.4V758.9c0.75 0.73 2.82 2.41 7.66 4.52zM588.06 934.32h-4.58a47.65 47.65 0 0 1-47.6-47.59V498.88c0-15.08 6.57-35.88 37.9-49.3l0.84-0.34 321.88-124 2.48-0.41c13.22-2.2 25.74 1 35.27 9.11 10.4 8.81 16.36 22.72 16.36 38.15V739c0 13.59 0 49.71-35.81 69.22l-1.42 0.77z m-2.93-434.77v383.11l307.28-118.4c7.68-4.72 9-11.54 9-25.29V376.12L592.79 495c-4.79 2.13-6.91 3.81-7.66 4.55zM511.46 400.2a201 201 0 0 1-28.71-1.9 158.26 158.26 0 0 1-30.89-7l-0.32-0.12L407.89 375l-102.63-37.78-111.05-41L139.87 276c-33.13-13.39-40.94-38.29-40.37-52 0.25-20.89 14.46-36.46 27.16-43.87 5.46-3.56 13.1-6.74 17.39-8.39l0.29-0.11L254.6 130.7l199.88-73.53 0.93-0.26a213.8 213.8 0 0 1 88.34-5.53 157.91 157.91 0 0 1 26.43 5.95l0.55 0.2 15.9 5.9-17.15 46.17-15.48-5.73a120.3 120.3 0 0 0-17.49-3.77 164.14 164.14 0 0 0-66.91 4l-198 72.82-110 40.81a80.91 80.91 0 0 0-7.92 3.55l-1.34 1-0.7 0.33a14 14 0 0 0-2.46 2.14c1.1 1.3 3.69 3.43 8.82 5.55l53.32 19.7 111 41 102.63 37.83 43.41 16a112.46 112.46 0 0 0 20.64 4.62l1.17 0.17a167.66 167.66 0 0 0 37.18 0.63l1.52-0.09a124.31 124.31 0 0 0 39.92-10l1.27-0.51 95-35.07 85.08-31.36 60.38-22.35L858 233.42l0.72-0.2c6.1-1.83 13.66-5.87 16.15-8.54-1.11-1.15-3.69-3.28-9.17-5.71l-208.48-82.85 18-45.85 208.77 83 0.6 0.26c18.74 8.07 31.12 19.53 36.8 34a45.55 45.55 0 0 1 0.91 30.89c-7.7 27.51-40.27 39.15-49 41.82l-45.77 16.82-60.35 22.35-85.1 31.36-94.32 34.84c-27.52 11.81-51.18 13.5-56.63 13.74-7.07 0.65-13.7 0.85-19.67 0.85zM154 221z m722.28 0z" fill="#E54545" p-id="16607"></path></svg>