<?xml version="1.0" standalone="no"?><!DOCTYPE svg PUBLIC "-//W3C//DTD SVG 1.1//EN" "http://www.w3.org/Graphics/SVG/1.1/DTD/svg11.dtd"><svg t="1579068548485" class="icon" viewBox="0 0 1024 1024" version="1.1" xmlns="http://www.w3.org/2000/svg" p-id="8376" width="32" height="32" xmlns:xlink="http://www.w3.org/1999/xlink"><defs><style type="text/css"></style></defs><path d="M744.811143 226.288456a113.214587 113.214587 0 0 1 2.814374 73.259005c53.551281 7.227824 101.601741 42.713099 122.332874 96.712122 27.80971 72.463021-3.240794 153.042242-69.705503 189.046329a113.370941 113.370941 0 0 1 62.236041 64.126505c22.507884 58.63279-6.780083 124.401013-65.405766 146.908897L518.417504 903.323058c-58.63279 22.500777-124.40812-6.780083-146.916005-65.412873a113.363834 113.363834 0 0 1 2.558522-87.615155l-116.156887 44.589348c-78.788256 30.240306-167.170968-9.11118-197.411273-87.892329C30.237341 628.196686 69.595934 539.813974 148.384189 509.573669l28.584374-10.973216a113.243015 113.243015 0 0 1-29.302181-43.08977c-22.507884-58.63279 6.780083-124.401013 65.405766-146.908897l384.830098-147.719096c58.63279-22.507884 124.401013 6.772976 146.908897 65.405766zM963.102796 675.756763a28.428019 28.428019 0 1 1 0 56.856038 28.428019 28.428019 0 0 1 0-56.856038zM46.299172 434.118598a28.428019 28.428019 0 1 1 0 56.856039 28.428019 28.428019 0 0 1 0-56.856039z" fill="#F8F8F8" p-id="8377"></path><path d="M554.229701 527.028472l174.512504 86.37143a42.642029 42.642029 0 0 1 0.383778 76.243948L555.516069 777.756496a142.140097 142.140097 0 0 1-128.658109 0l-173.624128-88.12686a42.642029 42.642029 0 0 1 0.390885-76.243948l174.505397-86.357216a142.140097 142.140097 0 0 1 126.099587 0z" fill="#D1CDDC" p-id="8378"></path><path d="M506.70516 256.621152l124.685293 309.27553a14.21401 14.21401 0 0 1-6.737441 17.980722C578.763082 607.223915 532.866044 618.900724 486.954793 618.900724c-45.911251 0-91.822503-11.676809-137.740861-35.02332a14.21401 14.21401 0 0 1-6.73744-17.980722L467.161785 256.614045a21.321015 21.321015 0 0 1 39.543375 0z" fill="#DEDCE3" p-id="8379"></path><path d="M506.605661 247.659219L609.770944 494.528139a14.21401 14.21401 0 0 1-6.950651 18.286324C564.207936 531.413494 525.581364 540.723671 486.947686 540.723671c-38.633678 0-77.267357-9.310176-115.901035-27.916315a14.21401 14.21401 0 0 1-6.943544-18.286324L467.261283 247.659219a21.321015 21.321015 0 0 1 39.344378 0z" fill="#FFFFFF" p-id="8380"></path><path d="M506.499056 263.3657l67.395727 155.785546a14.21401 14.21401 0 0 1-7.28468 18.641674C540.058333 449.555013 513.506563 455.439613 486.933472 455.439613c-26.558877 0-53.117754-5.8846-79.676631-17.646693a14.21401 14.21401 0 0 1-7.291787-18.641674l67.395727-155.785546a21.321015 21.321015 0 0 1 39.131168 0z" fill="#DEDCE3" p-id="8381"></path></svg>