<?xml version="1.0" standalone="no"?><!DOCTYPE svg PUBLIC "-//W3C//DTD SVG 1.1//EN" "http://www.w3.org/Graphics/SVG/1.1/DTD/svg11.dtd"><svg t="1579223548187" class="icon" viewBox="0 0 1024 1024" version="1.1" xmlns="http://www.w3.org/2000/svg" p-id="4620" width="32" height="32" xmlns:xlink="http://www.w3.org/1999/xlink"><defs><style type="text/css"></style></defs><path d="M793.088 290.133333H230.912a14.677333 14.677333 0 0 0 0 1.536v314.709334a13.994667 13.994667 0 0 0 3.413333 0h558.762667V290.986667c0.170667 0.682667 0 0.341333 0-0.853334zM444.586667 536.917333h-26.965334a13.312 13.312 0 0 1 0-1.877333l7.850667-37.376 10.410667-49.834667 7.850666-39.936v-2.389333h26.794667z m160.426666-124.245333c0 2.389333-1.024 4.608-1.365333 6.997333l-1.536 7.168a4.266667 4.266667 0 0 1-2.730667 0h-35.328v1.536l-5.12 24.064-9.898666 47.616-6.997334 34.133334v3.072h-28.16c0-3.925333 1.365333-7.509333 2.218667-11.093334s1.536-7.168 2.218667-10.752l2.389333-11.093333 2.218667-10.752 2.389333-11.093333 2.389333-11.093334L529.066667 460.8l2.218666-11.093333c0-3.584 1.536-7.168 2.218667-10.752s1.706667-7.338667 2.218667-10.922667a5.461333 5.461333 0 0 0-2.901334 0h-31.744a5.461333 5.461333 0 0 1-2.901333 0l4.437333-21.333333h103.253334a39.424 39.424 0 0 1-0.853334 5.973333zM512 628.394667A20.138667 20.138667 0 1 0 532.138667 648.533333 20.138667 20.138667 0 0 0 512 628.394667z" fill="#97C56B" p-id="4621"></path><path d="M512 0a512 512 0 1 0 512 512A512 512 0 0 0 512 0z m307.2 667.648a22.869333 22.869333 0 0 1 0 5.290667 18.261333 18.261333 0 0 1-13.824 14.336H580.266667a13.653333 13.653333 0 0 0-3.413334 0 4.096 4.096 0 0 0 0 1.024 98.133333 98.133333 0 0 0 5.290667 27.306666 49.152 49.152 0 0 0 4.096 8.533334 30.208 30.208 0 0 0 4.949333 6.144l8.192 7.68 6.314667 6.314666a21.162667 21.162667 0 0 1 3.925333 6.485334 2.218667 2.218667 0 0 1 0 2.56 6.826667 6.826667 0 0 1-2.901333 2.048 25.6 25.6 0 0 1-7.509333 1.536H439.637333a72.874667 72.874667 0 0 1-12.458666-0.853334l-3.925334-1.024a6.997333 6.997333 0 0 1-3.754666-2.901333 3.584 3.584 0 0 1 0-3.925333 16.042667 16.042667 0 0 1 2.218666-3.413334 57.514667 57.514667 0 0 1 4.437334-4.608l10.410666-9.898666a35.328 35.328 0 0 0 7.68-10.752 72.192 72.192 0 0 0 5.290667-17.066667 119.466667 119.466667 0 0 0 2.048-14.677333v-1.877334H224.938667a20.309333 20.309333 0 0 1-6.314667 0 18.944 18.944 0 0 1-13.482667-14.506666 14.336 14.336 0 0 1 0-2.56v-2.901334-381.781333a23.381333 23.381333 0 0 1 0-5.290667 17.066667 17.066667 0 0 1 14.165334-13.824 29.866667 29.866667 0 0 1 4.608 0h575.146666a34.133333 34.133333 0 0 1 5.632 0 17.066667 17.066667 0 0 1 14.506667 17.066667v385.536z" fill="#97C56B" p-id="4622"></path></svg>