<?xml version="1.0" standalone="no"?><!DOCTYPE svg PUBLIC "-//W3C//DTD SVG 1.1//EN" "http://www.w3.org/Graphics/SVG/1.1/DTD/svg11.dtd"><svg t="1579070680528" class="icon" viewBox="0 0 1024 1024" version="1.1" xmlns="http://www.w3.org/2000/svg" p-id="34717" width="32" height="32" xmlns:xlink="http://www.w3.org/1999/xlink"><defs><style type="text/css"></style></defs><path d="M347.264 27.264C409.344 5.504 475.776-2.24 541.44 1.28c178.496 7.616 347.136 118.848 426.624 278.464-16.576 3.712-33.536 2.368-50.368 2.56-120.768 0.256-241.536 0.64-362.304 0.768-43.2-6.848-88.512-3.84-129.28 12.8a233.088 233.088 0 0 0-133.12 138.24 237.376 237.376 0 0 0 12.928 186.432c-73.6-129.28-149.632-257.28-224.256-385.984A513.728 513.728 0 0 1 347.264 27.2z" fill="#D94F42" p-id="34718"></path><path d="M18.048 377.6c13.44-50.688 35.264-99.008 63.552-143.04 74.624 128.64 150.592 256.64 224.256 385.92a235.2 235.2 0 0 0 117.12 106.688 233.6 233.6 0 0 0 202.816-12.288c30.08-16.512 55.168-40.704 76.032-67.712-71.04 125.504-143.168 250.432-214.592 375.744a508.48 508.48 0 0 1-297.664-113.664C89.792 828.672 21.888 709.568 5.056 582.4c-8.32-68.224-5.696-138.432 12.992-204.8z" fill="#19A05E" p-id="34719"></path><path d="M426.048 295.872c40.768-16.64 86.08-19.648 129.28-12.8 65.536 13.184 125.056 54.592 158.144 112.832 45.312 76.672 40.96 179.264-11.648 251.264-20.928 27.008-45.952 51.2-76.032 67.712a233.6 233.6 0 0 1-202.752 12.288 235.2 235.2 0 0 1-117.12-106.624 237.312 237.312 0 0 1-12.992-186.432 233.088 233.088 0 0 1 133.12-138.24z m54.592 32.832a186.368 186.368 0 0 0-147.2 131.392A187.008 187.008 0 0 0 358.4 616.96a185.28 185.28 0 0 0 153.344 80.768c55.04 0.768 109.44-25.152 144-67.84a184.32 184.32 0 0 0 41.92-121.728A185.472 185.472 0 0 0 480.64 328.704z" fill="#F2F2F2" p-id="34720"></path><path d="M555.328 283.072l362.304-0.768c16.832-0.192 33.792 1.152 50.368-2.56a502.08 502.08 0 0 1 54.848 254.72c-3.584 108.928-45.056 215.872-113.92 300.16a511.424 511.424 0 0 1-274.432 174.08c-48 12.544-97.856 15.552-147.2 14.272 71.36-125.376 143.424-250.24 214.528-375.808 52.672-72 56.96-174.592 11.648-251.264-33.088-58.24-92.608-99.648-158.144-112.832z" fill="#FDCA41" p-id="34721"></path><path d="M480.64 328.704a185.472 185.472 0 0 1 217.088 179.456 184.32 184.32 0 0 1-41.856 121.664 184.832 184.832 0 0 1-144 67.904A185.28 185.28 0 0 1 358.4 616.96 187.008 187.008 0 0 1 333.44 460.16a186.432 186.432 0 0 1 147.2-131.392z" fill="#4B8BF5" p-id="34722"></path></svg>