<?xml version="1.0" standalone="no"?><!DOCTYPE svg PUBLIC "-//W3C//DTD SVG 1.1//EN" "http://www.w3.org/Graphics/SVG/1.1/DTD/svg11.dtd"><svg t="1579070659681" class="icon" viewBox="0 0 1024 1024" version="1.1" xmlns="http://www.w3.org/2000/svg" p-id="33828" xmlns:xlink="http://www.w3.org/1999/xlink" width="32" height="32"><defs><style type="text/css"></style></defs><path d="M511.968032 0C263.928072 0 62.881119 200.375624 62.881119 447.584416c0 247.112887 201.078921 447.488511 449.086913 447.488511 248.071928 0 449.118881-200.375624 449.118881-447.488511C961.054945 200.375624 759.976024 0 511.968032 0zM784.591409 719.248751c-35.420579 35.292707-76.627373 63.008991-122.565435 82.34965-47.472527 19.98002-97.982018 30.145854-150.057942 30.145854s-102.553447-10.165834-150.025974-30.145854c-45.906094-19.340659-87.144855-47.088911-122.565435-82.34965-35.420579-35.324675-63.232767-76.435564-82.637363-122.117882-20.075924-47.376623-30.273726-97.662338-30.273726-149.546454 0-51.916084 10.197802-102.233766 30.273726-149.578422 19.404595-45.746254 47.248751-86.857143 82.637363-122.14985C274.765235 140.563437 316.003996 112.847153 361.91009 93.506494c47.504496-20.011988 97.95005-30.177822 150.025974-30.177822s102.585415 10.165834 150.057942 30.177822c45.938062 19.340659 87.144855 47.056943 122.565435 82.34965 35.420579 35.292707 63.232767 76.403596 82.637363 122.14985 20.107892 47.312687 30.273726 97.662338 30.273726 149.578422 0 51.884116-10.165834 102.137862-30.273726 149.546454C847.792208 642.813187 820.011988 683.924076 784.591409 719.248751zM671.968032 288.383616 608.191808 287.712288l0 287.744256 64.15984 0L671.968032 288.383616zM704.447552 639.392607c1.598402 26.021978-6.681319 31.648352-34.301698 31.648352-24.391608 0-62.657343 0-62.657343 0l0.703297 64.255744c0 0 48.111888-1.182817 77.394605-1.182817 55.272727-1.694306 86.217782-41.014985 83.020979-94.721279L768.607393 191.808192l-64.15984 0L704.447552 639.392607zM470.313686 671.040959l-86.633367 0.31968c-19.82018 2.941059-32.575425-9.366633-31.936064-31.776224l0-192.447552 128.255744 0c0 0 10.261738 96.543457-32.15984 96.543457-16.271728 0-63.360639-0.447552-63.360639-0.447552l-0.735265 64.575425 96.191808-0.383616c48.783217-1.63037 61.826174-32.287712 63.456543-82.733267 3.260739-45.522478 0.191808-96.927073 0.191808-139.252747l4.859141-1.534466 34.717283-37.85015L446.241758 223.776224l1.566434-63.296703-62.20979-0.415584c-11.86014 86.761239-85.61039 173.65035-160.415584 225.726274 9.75025 17.934066 22.665335 39.416583 30.817183 60.579421C275.180819 431.984016 287.424575 415.584416 287.424575 415.584416l0 223.808192c-1.63037 58.565435 36.027972 97.470529 96.223776 95.904096l96.223776 0c101.978022 0 109.97003-99.036963 109.97003-99.036963l-56.583417-14.097902C533.322677 622.161838 524.691309 671.040959 470.313686 671.040959zM417.982018 272.591409c16.23976 16.23976 114.317682 110.769231 114.317682 110.769231L330.101898 382.977023C374.025974 343.944056 388.699301 319.808192 417.982018 272.591409z" p-id="33829" fill="#f4ea2a"></path></svg>