<?xml version="1.0" standalone="no"?><!DOCTYPE svg PUBLIC "-//W3C//DTD SVG 1.1//EN" "http://www.w3.org/Graphics/SVG/1.1/DTD/svg11.dtd"><svg t="1579068462378" class="icon" viewBox="0 0 1024 1024" version="1.1" xmlns="http://www.w3.org/2000/svg" p-id="5574" width="32" height="32" xmlns:xlink="http://www.w3.org/1999/xlink"><defs><style type="text/css"></style></defs><path d="M512 0C229.627709 0 0 229.627709 0 512S229.627709 1024 512 1024 1024 794.372291 1024 512 794.372291 0 512 0z m0 996.655196c-267.269721 0-484.655196-217.385475-484.655196-484.655196s217.385475-484.655196 484.655196-484.655196 484.655196 217.385475 484.655196 484.655196-217.385475 484.655196-484.655196 484.655196z m-78.602011-520.924246L397.014525 512.114413l-7.894525-7.894525c-6.635978-6.635978-17.505251-6.635978-24.141229 0-6.635978 6.635978-6.635978 17.505251 0 24.141229l20.022346 20.022347c3.317989 3.317989 7.665698 5.03419 12.013408 5.03419s8.695419-1.716201 12.013408-5.03419l48.396871-48.396872c6.635978-6.635978 6.635978-17.505251 0-24.141229s-17.390838-6.750391-24.026815-0.114413z m0-133.520447L397.014525 378.593966l-8.008938-7.894525c-6.635978-6.635978-17.505251-6.635978-24.141229 0-6.635978 6.635978-6.635978 17.505251 0 24.141229l20.022346 20.022347c3.203575 3.203575 7.551285 5.03419 12.013408 5.03419s8.809832-1.830615 12.013408-5.03419l48.396871-48.396872c6.635978-6.635978 6.635978-17.505251 0-24.141229-6.521564-6.750391-17.276425-6.750391-23.912402-0.114413z m0 267.040894L397.014525 645.520447l-7.894525-7.894525c-6.635978-6.635978-17.505251-6.635978-24.141229 0-6.635978 6.635978-6.635978 17.505251 0 24.141229l20.022346 20.022346c3.203575 3.203575 7.551285 5.03419 12.013408 5.03419s8.809832-1.830615 12.013408-5.03419l48.396871-48.396871c6.635978-6.635978 6.635978-17.505251 0-24.141229s-17.390838-6.750391-24.026815 0z m203.427039-248.277095H520.352179c-15.10257 0-27.344804 12.242235-27.344805 27.344804s12.242235 27.344804 27.344805 27.344805h116.472849c15.10257 0 27.344804-12.242235 27.344804-27.344805s-12.356648-27.344804-27.344804-27.344804zM665.77162 202.511732H358.22838c-45.193296 0-81.92 36.726704-81.92 81.92v455.022123c0 45.193296 36.726704 81.92 81.92 81.92h307.428827c45.193296 0 81.92-36.726704 81.92-81.92V284.431732c0.114413-45.078883-36.726704-81.92-81.805587-81.92z m27.230391 536.942123c0 15.10257-12.242235 27.344804-27.344804 27.344804H358.22838c-15.10257 0-27.344804-12.242235-27.344805-27.344804V284.431732c0-15.10257 12.242235-27.344804 27.344805-27.344805h307.428827c15.10257 0 27.344804 12.242235 27.344804 27.344805v455.022123z m-56.176983-245.07352H520.352179c-15.10257 0-27.344804 12.242235-27.344805 27.344805s12.242235 27.344804 27.344805 27.344804h116.472849c15.10257 0 27.344804-12.242235 27.344804-27.344804s-12.356648-27.344804-27.344804-27.344805z m0 133.520447H520.352179c-15.10257 0-27.344804 12.242235-27.344805 27.344805s12.242235 27.344804 27.344805 27.344804h116.472849c15.10257 0 27.344804-12.242235 27.344804-27.344804s-12.356648-27.344804-27.344804-27.344805z" fill="#1A70CC" p-id="5575"></path></svg>