<?xml version="1.0" standalone="no"?><!DOCTYPE svg PUBLIC "-//W3C//DTD SVG 1.1//EN" "http://www.w3.org/Graphics/SVG/1.1/DTD/svg11.dtd"><svg t="1579074305887" class="icon" viewBox="0 0 1024 1024" version="1.1" xmlns="http://www.w3.org/2000/svg" p-id="124085" width="32" height="32" xmlns:xlink="http://www.w3.org/1999/xlink"><defs><style type="text/css"></style></defs><path d="M565.213 318.17c-17.862 0-32.317 14.454-32.317 32.317s14.455 32.317 32.317 32.317h96.952c17.862 0 32.317-14.455 32.317-32.317 0-17.864-14.455-32.317-32.317-32.317h-96.952z m-32.318 226.222c0-17.864-14.455-32.318-32.317-32.318H338.991c-17.862 0-32.317 14.454-32.317 32.318 0 17.862 14.455 32.316 32.317 32.316h161.587c17.862 0 32.317-14.454 32.317-32.316z m0 193.903H274.356c-25.375 0-32.316-8.584-32.316-32.317l-0.411-453.042c0-24.459 7.67-31.654 31.782-31.654h453.451c24.555 0 31.78 7.194 31.78 31.654 0 237.092-7.614 233.01-1.531 228.021-3.987 6.109 52.624 23.229 66.64 31.117V221.219c0-46.045-39.135-64.571-84.422-64.571H251.287c-6.753 0-13.919 0.377-21.051 2.02-33.391 8.458-52.831 35.125-52.831 73.913v494.354c0 47.655 28.183 76.311 75.049 76.311h331.159c-47.119-41.597-37.905-65.866-50.718-64.951z m-193.904-96.952c-17.862 0-32.317 14.454-32.317 32.317s14.455 32.317 32.317 32.317h96.952c17.831 0 32.317-14.454 32.317-32.317s-14.486-32.317-32.317-32.317h-96.952z m64.635-193.904c53.525 0 96.952-43.426 96.952-96.952 0-53.526-43.427-96.952-96.952-96.952-53.557 0-96.952 43.426-96.952 96.952 0 53.526 43.395 96.952 96.952 96.952z m0-129.269c17.831 0 32.317 14.454 32.317 32.317s-14.486 32.317-32.317 32.317c-17.862 0-32.317-14.455-32.317-32.317-0.001-17.863 14.454-32.317 32.317-32.317z m504.863 495.144c-13.445-13.539-57.471-57.281-70.916-70.285 48.667-82.813 15.529-164.048-36.798-202.613-59.017-42.671-140.314-36.421-192.61 14.58-51.253 51.064-58.511 131.794-17.072 191.126 39.323 55.735 123.21 88.021 206.084 38.031 12.94 13.537 55.926 57.784 69.37 71.356 14.517 14.58 32.632 15.59 45.066 3.629 12.94-11.962 11.897-30.708-3.124-45.824zM712.25 749.783c-48.696-0.474-88.082-40.082-88.557-89.063-0.504-48.413 40.901-90.071 89.6-89.567 48.664 0.506 88.019 40.112 88.556 88.558-0.001 49.99-39.892 90.072-89.599 90.072z" fill="#0F6CF9" p-id="124086"></path></svg>