<?xml version="1.0" standalone="no"?><!DOCTYPE svg PUBLIC "-//W3C//DTD SVG 1.1//EN" "http://www.w3.org/Graphics/SVG/1.1/DTD/svg11.dtd"><svg t="1579072598915" class="icon" viewBox="0 0 1024 1024" version="1.1" xmlns="http://www.w3.org/2000/svg" p-id="78128" width="32" height="32" xmlns:xlink="http://www.w3.org/1999/xlink"><defs><style type="text/css"></style></defs><path d="M0 0m256 0l512 0q256 0 256 256l0 512q0 256-256 256l-512 0q-256 0-256-256l0-512q0-256 256-256Z" fill="#06BDFB" p-id="78129"></path><path d="M427.264 819.136c-80.128 0-165.504-43.328-165.504-199.616a431.808 431.808 0 0 1 151.04-333.696 387.584 387.584 0 0 1 210.176-81.408c96 0 139.264 53.824 139.264 115.52 0 137.984-199.68 190.464-329.728 215.488-1.28 11.776-2.56 40.704-2.56 49.856 0 68.352 20.992 128.768 91.904 128.768a281.92 281.92 0 0 0 193.088-103.744l21.056 42.048a409.088 409.088 0 0 1-308.736 166.784z m10.496-333.632c136.64-32.832 178.688-88 178.688-157.632 0-43.328-22.336-61.76-52.544-61.76-34.176 0-101.12 40.768-126.144 219.392z" fill="#FFFFFF" p-id="78130"></path></svg>