<?xml version="1.0" standalone="no"?><!DOCTYPE svg PUBLIC "-//W3C//DTD SVG 1.1//EN" "http://www.w3.org/Graphics/SVG/1.1/DTD/svg11.dtd"><svg t="1579073104491" class="icon" viewBox="0 0 2647 1024" version="1.1" xmlns="http://www.w3.org/2000/svg" p-id="86262" width="82.71875" height="32" xmlns:xlink="http://www.w3.org/1999/xlink"><defs><style type="text/css"></style></defs><path d="M1937.842424 320.387879c18.10101 7.757576 38.012121 11.894949 58.957576 11.894949 65.163636 0 120.759596-41.632323 141.705051-99.555555-18.10101-7.757576-38.012121-11.894949-58.957576-11.89495-65.163636 0-120.759596 41.373737-141.705051 99.555556z" p-id="86263"></path><path d="M945.648485 356.848485c-156.961616 0-284.444444 127.224242-284.444445 284.444444 0 156.961616 127.224242 284.444444 284.444445 284.444445s284.444444-127.224242 284.444444-284.444445c0-156.961616-127.224242-284.444444-284.444444-284.444444z m0 460.024242c-96.969697 0-175.579798-78.610101-175.579798-175.579798 0-96.969697 78.610101-175.579798 175.579798-175.579798s175.579798 78.610101 175.579798 175.579798c0 96.969697-78.610101 175.579798-175.579798 175.579798z" p-id="86264"></path><path d="M496.226263 155.151515v261.430303c-48.09697-37.494949-108.606061-59.733333-174.286869-59.733333-156.961616 0-284.444444 127.224242-284.444445 284.444444 0 156.961616 127.224242 284.444444 284.444445 284.444445 154.117172 0 279.531313-122.311111 284.185859-275.135354h0.258585V155.151515h-110.157575z m-174.286869 660.428283c-96.193939 0-174.286869-78.092929-174.286869-174.286869s78.092929-174.286869 174.286869-174.286868 174.286869 78.092929 174.286869 174.286868-78.092929 174.286869-174.286869 174.286869z" p-id="86265"></path><path d="M1927.49899 356.848485H2037.656566v568.888889h-110.157576z" p-id="86266"></path><path d="M1697.357576 356.848485c-45.769697 0.258586-87.660606 18.10101-118.690909 47.321212-31.030303-29.220202-72.662626-47.062626-118.690909-47.321212-96.193939-0.258586-175.062626 81.713131-175.062627 177.907071V925.737374l89.212122-22.238384c12.153535-3.10303 20.945455-13.963636 20.945454-26.634344v-343.919191c0-34.650505 26.634343-64.387879 61.026263-65.939394 36.977778-1.810101 67.232323 27.668687 67.232323 64.129293V925.737374l89.212121-22.238384c12.153535-3.10303 20.945455-13.963636 20.945455-26.634344V533.20404c0-34.650505 26.634343-64.387879 61.026262-65.939394 36.977778-1.810101 67.232323 27.668687 67.232324 64.129293V925.737374l89.212121-22.238384c12.153535-3.10303 20.945455-13.963636 20.945454-26.634344V534.755556c0.517172-96.193939-78.351515-178.165657-174.545454-177.907071z" p-id="86267"></path><path d="M1929.826263 264.791919c0 19.911111 2.327273 39.305051 6.981818 57.923233 90.505051-35.684848 154.892929-124.121212 154.892929-227.555556 0-19.911111-2.327273-39.305051-6.981818-57.923232-90.763636 35.684848-154.892929 124.121212-154.892929 227.555555zM2613.527273 393.309091H2513.454545c-17.842424 0-34.391919 8.533333-44.735353 23.014141l-107.571717 152.565657-107.830303-152.307071c-10.343434-14.480808-26.892929-23.014141-44.735354-23.014141h-100.072727l188.250505 266.084848L2108.509091 925.737374h100.072727c17.842424 0 34.391919-8.533333 44.735354-23.014142l107.830303-152.30707 107.830303 152.30707c10.343434 14.480808 26.892929 23.014141 44.735353 23.014142h100.072728L2425.535354 659.652525l187.991919-266.343434z" p-id="86268"></path></svg>