<?xml version="1.0" standalone="no"?><!DOCTYPE svg PUBLIC "-//W3C//DTD SVG 1.1//EN" "http://www.w3.org/Graphics/SVG/1.1/DTD/svg11.dtd"><svg t="1579072097226" class="icon" viewBox="0 0 1109 1024" version="1.1" xmlns="http://www.w3.org/2000/svg" p-id="63750" width="34.65625" height="32" xmlns:xlink="http://www.w3.org/1999/xlink"><defs><style type="text/css"></style></defs><path d="M0.043066 849.717544l353.764829-378.656233 163.712133 174.282456-353.764829 378.656233z m408.449199-204.24591l-54.599126-58.094152-244.82231 262.212195 54.556504 58.094152z m-0.255734-232.632342l163.328533-174.7513 163.712133 174.239833-163.328532 174.751301z m218.055526-0.255733L571.565064 354.489407l-54.428637 58.222019 54.599126 58.094152zM926.565938 298.782102a606.472258 606.472258 0 0 0-49.22872 193.846077 727.562123 727.562123 0 0 0-50.763122-194.485411 517.81794 517.81794 0 0 0-180.334817-51.743434A618.91796 618.91796 0 0 0 827.298675 193.078876a732.122706 732.122706 0 0 0 49.61232-193.121498A611.459063 611.459063 0 0 0 925.756115 192.226431a614.954089 614.954089 0 0 0 182.423309 53.704058A514.45078 514.45078 0 0 0 926.565938 298.782102z m-49.271342-52.681124h-0.213111v0.255734h0.213111v-0.255734zM385.518862 174.751301a353.466472 353.466472 0 0 0-28.727409 113.076878 424.560416 424.560416 0 0 0-29.622476-113.460479 302.959084 302.959084 0 0 0-105.191759-30.176566 361.820437 361.820437 0 0 0 105.532737-31.156878A427.117752 427.117752 0 0 0 356.493097 0.426223a356.705765 356.705765 0 0 0 28.55692 112.18181 358.709011 358.709011 0 0 0 106.555672 31.327368 300.273881 300.273881 0 0 0-106.086827 30.943767z m-28.727409-30.730656zM763.365272 700.198626a252.750052 252.750052 0 0 0-20.501311 80.769199 303.001707 303.001707 0 0 0-21.311134-80.98231 216.691613 216.691613 0 0 0-75.143059-21.566868 257.907347 257.907347 0 0 0 75.398793-22.248824 305.047575 305.047575 0 0 0 20.6718-80.470843 254.710676 254.710676 0 0 0 20.416066 80.087243 256.245078 256.245078 0 0 0 75.995505 22.376691 215.071967 215.071967 0 0 0-75.52666 22.035712z m-20.543933-21.950468z" fill="#1890FF" p-id="63751"></path></svg>