<?xml version="1.0" standalone="no"?><!DOCTYPE svg PUBLIC "-//W3C//DTD SVG 1.1//EN" "http://www.w3.org/Graphics/SVG/1.1/DTD/svg11.dtd"><svg t="1579073715517" class="icon" viewBox="0 0 1024 1024" version="1.1" xmlns="http://www.w3.org/2000/svg" p-id="107924" width="32" height="32" xmlns:xlink="http://www.w3.org/1999/xlink"><defs><style type="text/css"></style></defs><path d="M97.6 304v404.8s6.4 44.8 19.2 57.6c14.4 14.4 40 28.8 40 28.8l284.8 78.4s25.6 8 32 4.8c6.4-3.2 4.8-12.8 4.8-12.8v-456L97.6 304z m820.8 0l-121.6 33.6v176l-80 20.8v-176L534.4 408v419.2s-1.6 41.6 4.8 49.6c4.8 8 32-3.2 32-3.2l256-70.4s54.4-14.4 73.6-33.6c19.2-19.2 17.6-104 17.6-104V304z m-1.6-41.6L529.6 155.2s-16-4.8-22.4-4.8-22.4 4.8-22.4 4.8l-120 33.6 412.8 112 139.2-38.4z m-819.2 0l409.6 110.4 161.6-43.2-411.2-110.4-160 43.2z" fill="#FFA200" p-id="107925"></path></svg>