<?xml version="1.0" standalone="no"?><!DOCTYPE svg PUBLIC "-//W3C//DTD SVG 1.1//EN" "http://www.w3.org/Graphics/SVG/1.1/DTD/svg11.dtd"><svg t="1579073150917" class="icon" viewBox="0 0 1024 1024" version="1.1" xmlns="http://www.w3.org/2000/svg" p-id="88902" width="32" height="32" xmlns:xlink="http://www.w3.org/1999/xlink"><defs><style type="text/css"></style></defs><path d="M512 1024C228.8 1024 0 795.2 0 512S228.8 0 512 0s512 228.8 512 512-228.8 512-512 512z m-134.4-595.2v80h57.6v278.4h107.2V508.8h84.8l6.4-80h-91.2v-62.4c0-20.8 19.2-28.8 41.6-28.8 22.4 0 46.4 6.4 46.4 6.4l14.4-81.6s-30.4-9.6-102.4-9.6c-44.8 0-70.4 16-89.6 40-17.6 22.4-19.2 59.2-19.2 83.2v54.4h-56z" fill="#537BBC" p-id="88903"></path></svg>