<?xml version="1.0" standalone="no"?><!DOCTYPE svg PUBLIC "-//W3C//DTD SVG 1.1//EN" "http://www.w3.org/Graphics/SVG/1.1/DTD/svg11.dtd"><svg t="1579073771276" class="icon" viewBox="0 0 1024 1024" version="1.1" xmlns="http://www.w3.org/2000/svg" p-id="110827" width="32" height="32" xmlns:xlink="http://www.w3.org/1999/xlink"><defs><style type="text/css"></style></defs><path d="M515.046 506.493z m-491.726 0c0 279.786 220.161 506.524 491.726 506.524s491.758-226.77 491.758-506.524C1006.774 226.77 786.58 0 515.046 0S23.32 226.77 23.32 506.493" fill="#1370B3" p-id="110828"></path><path d="M23.32 547.287c0 257.233 220.161 465.761 491.726 465.761s491.758-208.528 491.758-465.761S786.58 81.525 515.046 81.525 23.32 290.054 23.32 547.287z" fill="#1678BC" p-id="110829"></path><path d="M755.372 118.845l-78.981-28.882 99.89 88.35-37.35-2.264-7.694 15.759c-18.799-15.387-41.538-22.987-68.093-22.615a36.11 36.11 0 0 0-25.22 23.825l5.987 25.407 76.407 6.266c5.987 8.81 18.054 8.438 18.054 26.617l28.603-1.21 19.822-6.67c21.933 27.796 38.405 62.571 48.301 105.443l-22.46 16.194-6.11 19.792L806 454.47s-14.301 14.704-16.535 10.175c-2.14-4.53 0.652-57.08-7.631-62.292s-16.69-5.615-25.283-1.055c-8.562-17.651-20.102-30.215-35.179-36.233a177.135 177.135 0 0 0-15.417-28.323c-5.864 1.458-9.99 4.25-12.13 9.058a36.637 36.637 0 0 0-2.14-26.058l-35.21-6.794-24.632-1.613c-9.12 2.668-15.355 9.493-17 22.025l-13.773 11.913-8.283 29.936c-2.11 7.88 25.624 20.443 36.823 17.527 11.168-2.947 32.48 28.85 32.48 28.85l-5.615 22.615s-8.686 15.915-10.889 12.564l-20.94-32.883c-14.642-8.717-29.812-7.228-44.981 0-3.537 31.425-4.436 69.24 0 84.907 4.28 15.759 10.888 22.584 17.496 20.32 6.608-2.11 32.976-22.616 32.976-22.616s24.29 65.642 24.29 69.148c0 3.288 36.172 30.432 38.374 30.432 2.172 0 9.834 3.475 10.982-4.529 1.055-7.91-4.405-22.615-1.148-24.88 3.258-2.295 7.694 2.234 8.81 13.588 1.583 16.07 3.01 49.2 1.055 56.553-4.436 17-26.368 40.762-26.368 40.762s-6.577 24.849-3.227 26.059c3.227 1.055 14.301 33.969 18.738 42.934 4.28 9.09 77.988 238.558 224.101 46.905 89.312-117.076 109.01-278.328 59.283-411.318-31.642-84.752-107.274-129.392-159.328-236.604l-70.327-36.698z" fill="#10549A" p-id="110830"></path><path d="M128.05 99.053c0.65 35.302 15.696 70.047 52.674 104.14 42.066-11.51 81.774-12.72 119.28-2.823 42.561-46.378 88.132-63.223 135.75-60.555-33.224 27.144-57.235 60.834-69.302 102.93 4.932 15.636 14.239 29.41 34.124 38.499 33.224 4.963 70.202 1.613 106.56 11.385l-2.203 28.354c-22.46 42.344-69.582 55.59-107.707 89.963 5.708 24.88 3.35 46.657-2.203 67.224-14.022-11.633-28.54-17.248-43.865-15.79l-2.73 1.737c-46.719 46.967-7.259 86.8 66.449 123.964a111.896 111.896 0 0 0 58.259-4.56c38.932-22.057 135.596-44.765 153.775 32.758-8.934 11.385-22.49 12.967-37.35 11.385-5.057 4.281-14.829 6.143-19.761 10.176-57.111 45.943-116.146 63.75-185.2 52.613 13.246 16.441 29.191 30.246 47.773 41.32 38.436 2.793 60.214 8.16 62.695 16.442H459.89c64.618 28.85 127.871 33.131 188.953 1.613 0.435 5.863-3.35 13.867-8.81 22.708 20.35-17.496 38.933-39.708 60.462-55.498l3.32 21.53c35.209-7.911 64.121-64.712 85.712-177.663l14.24 40.67c13.99-61.485 13.649-134.945 7.165-214.485 17.124 18.582 34 41.042 43.338 72.995 2.823-112.548-29.099-216.688-107.646-277.273 17.31-3.599 43.648 7.228 94.524 46.408-28.292-56.956-77.524-109.88-146.175-159.638 93.872 28.075 178.344 85.31 243.862 195.84 0.652-23.235-53.481-99.983-103.954-143.692l2.854-14.86 59.47 54.412 3.225-12.408c77.896 93.034 94.12 173.505 95.423 251.028-1.954 54.816-9.492 106.56-27.95 152.72 33.472-23.297 48.425-47.866 32.728-126.134l11.943-49.046c17.124 76.997 18.055 160.29-22.304 259.777-19.482 54.412-67.225 108.266-100.883 162.4l43.027-30.588 46.44-93.81c4.436 29.005 2.295 59.872-14.705 95.02A366.368 366.368 0 0 1 829.856 895.6c-0.528 14.084-8.562 29.13-28.292 45.478-66.48 51.496-157.157 72.994-270.324 66.82l16.441 15.822c-45.136 0.124-89.653-5.894-133.145-21.281l26.089 17.372C186.835 956.496 26.298 789.598 23.568 562.52L0.084 605.577c-0.9-48.518 16.473-90.49 24.538-135.565l3.91-37.444-16.877 41.166c7.91-57.36 19.854-116.146 63.72-186.751-5.492-70.575 12.966-132.867 52.674-187.93z" fill="#E36724" p-id="110831"></path><path d="M366.452 242.746c-15.852 66.448-10.517 124.707 30.742 168.169 8.314-6.67 15.573-14.456 25.562-20.723 23.608-14.456 52.18-25.5 82.146-69.24l2.203-28.354c-16.752-6.174-60.462-8.81-106.56-11.385-18.8-8.283-30.34-21.095-34.093-38.467z m-18.055 221.34c-94.865-4.28-123.529 58.197-109.414 163.516 2.203-56.366 89.157-124.738 89.281-126.041 1.055-13.93 8.066-26.338 20.133-37.475z m250.75 164.075c-20.227-10.579-49.45-10.982-90.987 2.823-92.414 23.111-168.294 10.02-231.764-30.433 10.516 34.714 38.808 65.208 103.302 87.11 34.496 6.576 68.9 7.383 103.024-2.39a180.113 180.113 0 0 0 55.56-27.267c20.412-17 40.607-29.72 60.864-29.843z m-418.423-425l-97.718 76.997c14.394-38.095 34.248-74.452 72.404-104.792l25.314 27.796z" fill="#D5562C" p-id="110832"></path><path d="M367.227 361.063c-1.427-4.53 23.763-14.58 26.338-14.704 2.73-0.125 37.102-6.267 40.732-4.53l12.067 5.615c24.01-9.213 36.203-17.651 46.719-29.936l-0.652 23.112c-8.313 13.37-58.91 44.516-83.696 59.5-1.055 0.527-1.83 2.14-2.73 2.791-6.08 4.312-8.407 7.756-8.81 8.035-1.303 0.9-24.135-32.387-29.968-49.883z" fill="#F0B991" p-id="110833"></path><path d="M468.855 284.594l19.326 8.562 4.933 24.321-0.652 23.112 12.72-20.847c2.078-8.128 3.133-16.442 0.527-25.531a22.708 22.708 0 0 0-13.743-6.7l-23.111-2.917z" fill="#7E3430" p-id="110834"></path><path d="M226.668 194.6a218.61 218.61 0 0 1 73.335 5.77c40.887-45.726 86.8-62.292 135.752-60.555-29.068 23.67-53.854 54.133-68.528 100.418-12.843 41.538-10.237 81.277 0 119.868 5.584 17.528 15.977 34.496 29.967 50.814 4.933 24.166 3.754 46.533-2.202 67.224-14.922-12.719-30.091-17.93-45.292-14.983-94.989-5.491-125.36 56.18-110.686 164.446-38.032-99.176-6.111-173.132 93.438-219.541-35.83-54.66-21.932-133.27-6.608-183.401-21.808-16.131-58.166-24.414-99.176-30.06zM626.91 616.248c-13.65-51.155-57.235-64.432-126.786-44.516-33.1 18.582-78.64 24.166-100.573 7.787-0.403-0.31-0.775-0.683-1.179-0.838-21.157-11.075-39.18-22.46-53.047-38.715-1.551-1.893-3.63-3.227-5.46-4.809l-6.607 17.217c-1.055 39.863 59.437 73.925 137.054 60.028 69.272-12.44 119.713-8.438 156.598 3.846z" fill="#FF9D00" p-id="110835"></path><path d="M759.157 672.708c14.177-35.179 23.39-72.87 30.37-111.74l14.24 40.638c13.122-69.148 14.735-140.839 7.165-214.485 18.551 20.475 34.652 43.307 43.338 72.995-0.652-139.164-41.166-226.987-107.584-277.242 22.305-1.086 52.303 11.354 94.462 46.377-34.404-66.976-87.45-116.021-146.175-159.607 77.244 20.474 158.118 59.624 243.862 195.84l-32.293-86.612-68.807-71.909 58.29 53.358 4.436-11.416c121.606 149.308 105.878 278.172 67.473 403.749L759.157 672.708z" fill="#F5B044" p-id="110836"></path><path d="M875.737 579.115c49.79-76.872 63.595-172.078 42.934-284.904 76.841 144.655 77.058 309.35-30.742 502.522l-72.53 45.199 60.338-262.817z" fill="#FF9D00" p-id="110837"></path><path d="M715.447 732.704c37.35-27.795 59.407-87.047 73.584-171.364 20.63 31.425 26.369 78.33 17.62 140.342 32.17-40.514 40.236-120.178 47.247-201.455 53.047 154.675 20.319 290.116-68.838 369.625 4.933-4.157-47.06-16.442-29.719-38.498 38.591-48.643 50.007-150.239 39.894-152.1-37.257 49.82-60.74 58.507-79.788 53.45z" fill="#FF9D00" p-id="110838"></path><path d="M612.083 831.354c94.523-24.29 150.052-72.87 180.298-137.024-1.86 88.63-34.155 156.133-113.167 191.312-47.898-12.998-66.418-31.89-67.131-54.288z" fill="#FF9D00" p-id="110839"></path><path d="M771.845 913.437L747.74 937.79l26.369 0.497c-32.17 18.21-66.48 23.638-101.132 26.058 24.508-20.567 57.887-37.257 98.867-50.907z" fill="#10549A" p-id="110840"></path></svg>