<?xml version="1.0" standalone="no"?><!DOCTYPE svg PUBLIC "-//W3C//DTD SVG 1.1//EN" "http://www.w3.org/Graphics/SVG/1.1/DTD/svg11.dtd"><svg t="1579073687183" class="icon" viewBox="0 0 1024 1024" version="1.1" xmlns="http://www.w3.org/2000/svg" p-id="106041" width="32" height="32" xmlns:xlink="http://www.w3.org/1999/xlink"><defs><style type="text/css"></style></defs><path d="M359.253333 949.12a256 32 0 1 0 512 0 256 32 0 1 0-512 0Z" fill="#45413C" p-id="106042"></path><path d="M21.333333 158.08a21.333333 21.333333 0 0 1 12.16-21.333333c61.226667-28.16 324.053333-133.546667 559.36 17.493333 175.146667 111.786667 270.293333 150.826667 316.373334 164.48a21.333333 21.333333 0 0 1 8.106666 35.2C846.506667 426.666667 632.533333 605.866667 349.866667 522.026667S27.52 217.386667 21.333333 158.08z" fill="#6DD627" p-id="106043"></path><path d="M592.853333 239.786667c140.16 89.813333 229.546667 132.693333 283.306667 152.96 17.066667-14.506667 31.146667-27.946667 42.666667-38.826667a21.333333 21.333333 0 0 0-8.96-35.2c-46.72-13.653333-141.866667-52.693333-317.013334-164.48C357.546667 3.2 94.72 108.586667 33.706667 136.746667a21.333333 21.333333 0 0 0-12.16 21.333333 358.186667 358.186667 0 0 0 12.586666 64c61.866667-28.586667 323.84-133.12 558.72 17.706667z" fill="#9CEB60" p-id="106044"></path><path d="M712.106667 684.586667A345.386667 345.386667 0 0 0 554.666667 902.826667a21.333333 21.333333 0 0 0 15.146666 24.746666 344.746667 344.746667 0 0 0 423.253334-257.28 21.333333 21.333333 0 0 0-14.933334-24.746666 344.533333 344.533333 0 0 0-266.026666 39.04z" fill="#6DD627" p-id="106045"></path><path d="M570.24 927.573333h2.773333A343.893333 343.893333 0 0 1 975.36 725.333333a356.906667 356.906667 0 0 0 17.706667-54.826666 21.333333 21.333333 0 0 0-14.933334-24.746667A344.533333 344.533333 0 0 0 554.666667 902.826667a21.333333 21.333333 0 0 0 15.573333 24.746666z" fill="#9CEB60" p-id="106046"></path></svg>