<?xml version="1.0" standalone="no"?><!DOCTYPE svg PUBLIC "-//W3C//DTD SVG 1.1//EN" "http://www.w3.org/Graphics/SVG/1.1/DTD/svg11.dtd"><svg t="1579070100503" class="icon" viewBox="0 0 1024 1024" version="1.1" xmlns="http://www.w3.org/2000/svg" p-id="19769" width="32" height="32" xmlns:xlink="http://www.w3.org/1999/xlink"><defs><style type="text/css"></style></defs><path d="M425.29708 248.566688v115.437779c-13.823862 4.539688-29.013043 8.738046-45.567544 12.560941 6.143939 16.383836 9.250041 32.426342 9.250041 48.025119 0 48.36645-14.062793 89.599104-42.154245 123.697963-28.091452 34.132992-65.979074 55.568511-113.662864 64.306557-15.393979 3.071969-26.862665 8.191918-34.371923 15.428113-7.509258 7.236194-11.263887 18.295284-11.263887 33.109002 0 11.810015 4.33489 21.640317 12.970537 29.456772 8.703913 7.850588 19.865401 13.926261 33.484465 18.295284 13.653197 4.369023 28.739979 8.533248 45.328614 12.560941 16.554501 4.027693 33.109002 8.874578 49.663503 14.574787 16.520368 5.70021 31.607151 12.834005 45.29448 21.435519 13.68733 8.601514 24.848818 20.821125 33.450332 36.556435 8.635647 15.769442 12.970537 34.542588 13.00467 56.285304C420.723259 966.110446 350.887158 1024 211.283221 1024c-26.555468 0-51.540818-2.389309-75.024317-7.133795a258.079553 258.079553 0 0 1-66.96893-23.449366 125.336347 125.336347 0 0 1-50.516828-46.830465C6.314604 926.208978 0.068266 901.940421 0 873.746569c0-62.872971 35.02045-105.744009 105.061349-128.613114v-2.28691c-25.804542-15.63291-38.706813-39.628404-38.706813-72.020613 0-41.505718 12.117212-67.583324 36.351637-78.266951v-2.321043c-27.681857-9.147642-50.687493-29.798102-68.948644-61.985514-18.261151-32.187411-27.408793-63.692163-27.408792-94.548388 0-52.974404 18.261151-97.074229 54.817585-132.299477 36.522301-35.225248 81.748516-52.837872 135.610377-52.837871 36.96603 0 71.201421 8.942844 102.740306 26.862664 37.682823 0 79.63227-8.976977 125.780075-26.862664z m-155.202714 185.137348c0-23.244568-5.802609-42.66624-17.33956-58.29915-11.536951-15.63291-28.671713-23.449366-51.370153-23.449366-47.717923 0-71.542751 27.647724-71.542751 82.874905 0 51.404286 23.824828 77.140562 71.542751 77.140562 45.738209 0 68.67558-26.111739 68.67558-78.335217v0.034133z m34.030593 431.372753c0-38.092419-31.743683-57.138629-95.231048-57.138628-60.756726 0-91.169222 19.797135-91.169222 59.391406 0 38.502015 33.109002 57.753022 99.258741 57.753022 58.128485 0 87.141529-20.001933 87.141529-60.039933v0.034133z m304.739352-113.082602h-128.135252c1.535985-17.134762 2.321043-42.66624 2.321044-76.594434V327.413899c0-35.839642-0.785059-60.176465-2.321044-73.147002h128.135252c-1.570118 12.595074-2.355176 36.180972-2.355176 70.825959v350.272764c0 33.928194 0.785059 59.459672 2.355176 76.594434zM955.723776 625.121855v112.02448c-27.306394 14.847852-60.756726 22.254711-100.419262 22.254711-23.893094 0-44.441156-3.822895-61.780716-11.434552-17.305427-7.64579-30.753826-17.168895-40.379329-28.569315-9.659637-11.400419-17.237161-26.282404-22.800839-44.577687a264.598954 264.598954 0 0 1-10.683627-52.564808 650.438296 650.438296 0 0 1-2.321043-58.811145V362.843945h1.126389v-2.286911c-2.662373 0-6.314604-0.204798-10.956691-0.58026a140.798592 140.798592 0 0 0-10.376429-0.580261c-8.089519 0-19.455805 1.126389-34.064726 3.413299V254.30103h55.431979V210.815599c0-20.582194-1.160522-37.546291-3.481566-50.858159h131.002424c-2.321043 15.598777-3.481565 47.035263-3.481565 94.241191h98.712612v108.577048c-5.802609 0-14.131059-0.375463-25.121882-1.126389a397.922421 397.922421 0 0 0-24.541621-1.126389h-49.049109v208.552582c0 49.902434 16.725166 74.853651 50.209631 74.853651 23.483498 0 44.441156-6.280471 62.907104-18.875545l0.068266 0.034133zM623.302567 84.011533c0 22.084046-7.509258 41.403319-22.527775 58.026087-14.95025 16.554501-33.450332 24.848818-55.363713 24.848818a74.205125 74.205125 0 0 1-56.558368-24.882951 82.601841 82.601841 0 0 1-23.108035-57.991954c0-22.493642 7.611657-42.085979 22.800839-58.845278 15.189181-16.725166 34.132992-25.121882 56.865564-25.156015a70.996623 70.996623 0 0 1 55.705043 25.394946c14.813719 16.964097 22.220578 36.488168 22.220578 58.606347h-0.034133zM853.3248 921.601024l238.930944 0.34133L972.960937 1024 853.3248 921.601024z" fill="#2C2C2C" p-id="19770"></path></svg>