<?xml version="1.0" standalone="no"?><!DOCTYPE svg PUBLIC "-//W3C//DTD SVG 1.1//EN" "http://www.w3.org/Graphics/SVG/1.1/DTD/svg11.dtd"><svg t="1579071938464" class="icon" viewBox="0 0 1024 1024" version="1.1" xmlns="http://www.w3.org/2000/svg" p-id="57443" width="32" height="32" xmlns:xlink="http://www.w3.org/1999/xlink"><defs><style type="text/css"></style></defs><path d="M1024 687.274667a21.333333 21.333333 0 0 1-21.333333 21.333333H21.333333a21.333333 21.333333 0 0 1-21.333333-21.333333v-366.933334a21.333333 21.333333 0 0 1 21.333333-21.333333h981.333334a21.333333 21.333333 0 0 1 21.333333 21.333333v366.933334z m-557.312-181.290667H377.216v29.482667h56.021333v69.802666c-13.781333 7.594667-30.506667 11.349333-50.176 11.349334-28.544 0-51.242667-9.002667-68.010666-27.008s-25.173333-43.136-25.173334-75.477334c0-31.445333 9.088-56.789333 27.349334-75.989333s41.386667-28.842667 69.504-28.842667c28.544 0 53.162667 6.485333 73.813333 19.498667v-35.968c-19.328-8.874667-42.965333-13.354667-70.826667-13.354667-39.424 0-71.765333 12.842667-96.981333 38.485334s-37.845333 58.453333-37.845333 98.346666c0 39.424 11.434667 70.997333 34.261333 94.549334 22.826667 23.637333 52.906667 35.413333 90.24 35.413333 32.469333 0 61.525333-7.338667 87.338667-22.016v-118.272zM541.866667 610.133333c22.144 24.106667 51.498667 36.181333 88.149333 36.181334 37.546667 0 67.541333-12.245333 89.984-36.821334 22.442667-24.533333 33.664-57.770667 33.664-99.626666 0-38.656-10.965333-70.058667-32.853333-94.165334s-50.773333-36.181333-86.656-36.181333c-38.528 0-69.12 12.330667-91.648 36.992s-33.834667 57.813333-33.834667 99.498667c0.042667 38.656 11.093333 70.016 33.194667 94.122666z m26.325333-171.989333c16.341333-19.114667 37.674667-28.672 64-28.672 26.794667 0 47.872 9.045333 63.232 27.178667s23.082667 43.818667 23.082667 77.184c0 32.426667-7.893333 57.685333-23.594667 75.733333-15.701333 18.090667-37.376 27.093333-64.896 27.093333-25.685333 0-46.464-9.429333-62.421333-28.245333s-23.936-43.818667-23.936-75.050667c0.042667-31.061333 8.234667-56.106667 24.533333-75.221333z" p-id="57444" fill="#6fd220"></path></svg>