<?xml version="1.0" standalone="no"?><!DOCTYPE svg PUBLIC "-//W3C//DTD SVG 1.1//EN" "http://www.w3.org/Graphics/SVG/1.1/DTD/svg11.dtd"><svg t="1579070273115" class="icon" viewBox="0 0 1024 1024" version="1.1" xmlns="http://www.w3.org/2000/svg" p-id="29056" width="32" height="32" xmlns:xlink="http://www.w3.org/1999/xlink"><defs><style type="text/css"></style></defs><path d="M226.78 368.04c51.4-104.6 164.34-176.24 281.24-175.56 79.64-2.38 160.22 27.52 217.7 82.96-30.12 29.1-60.06 58.36-90 87.64-34.84-30.8-80.92-49.04-127.72-46.74-79.84-0.14-153.3 57.12-178.28 132-34.46-26.58-69.16-52.88-102.94-80.3z" fill="#EB4F43" p-id="29057"></path><path d="M226.6 655.82c-45.68-88.6-45.96-199.32 0.18-287.78 33.78 27.42 68.48 53.72 102.94 80.3-13.62 41.12-13.7 86.12 0.08 127.22-34.58 26.52-69.02 53.24-103.2 80.26z" fill="#FBC017" p-id="29058"></path><path d="M512.02 454c99.86 0.1 199.76-0.54 299.6 0.28 22.66 105.7-6.74 226.2-88.22 300.16-33.14-26.42-67.4-51.46-100.18-78.3 33.16-24.94 58.6-61.8 64.54-103.36-58.56-0.08-117.12 0.08-175.68-0.08-0.18-39.56-0.04-79.12-0.06-118.7z" fill="#4889F3" p-id="29059"></path><path d="M226.6 655.82c34.18-27.02 68.62-53.74 103.2-80.26 14.24 40.82 41.44 77.1 77.56 101.04 63.36 42.74 152.68 42.36 215.86-0.46 32.78 26.84 67.04 51.88 100.18 78.3-67.22 63.58-165.42 86.22-255.58 74.3-102.34-13.3-195.66-80.44-241.22-172.92z" fill="#3CAB5B" p-id="29060"></path></svg>