<?xml version="1.0" standalone="no"?><!DOCTYPE svg PUBLIC "-//W3C//DTD SVG 1.1//EN" "http://www.w3.org/Graphics/SVG/1.1/DTD/svg11.dtd"><svg t="1579071867825" class="icon" viewBox="0 0 1024 1024" version="1.1" xmlns="http://www.w3.org/2000/svg" p-id="53133" width="32" height="32" xmlns:xlink="http://www.w3.org/1999/xlink"><defs><style type="text/css"></style></defs><path d="M933.76 208.448A146.624 146.624 0 0 0 805.056 127.296c-49.216-0.96-89.6 28.48-82.176 48.064a317.056 317.056 0 0 0 16.704 35.008c8.32 12.8 22.848 2.816 28.096 0a77.696 77.696 0 0 1 50.56-9.344 75.968 75.968 0 0 1 57.088 47.104A132.544 132.544 0 0 1 653.44 375.04a353.6 353.6 0 0 0-347.968-51.776c-63.232 22.4-92.672 44.8-67.648 96.576a1097.344 1097.344 0 0 0 55.808 107.328c52.288 92.864 167.168-42.88 167.168-42.88-85.44 136.512-158.784 103.552-186.944 56a755.2 755.2 0 0 1-45.248-92.864C12.032 530.432 70.4 894.016 70.4 894.016l107.648 0.448c27.264-134.848 125.632-129.28 142.336 0.448l82.176 0.448c72.512-263.168 256.576 0.96 256.576 0.96l107.2 0.448c-29.888-179.648 60.16-236.16 116.864-341.12s111.616-234.24 50.56-347.2z m-333.44 352a58.944 58.944 0 0 1-33.856-75.584s13.184 4.672 35.136 12.16a23.104 23.104 0 0 0-3.52 16.32 25.088 25.088 0 0 0 27.264 22.848 25.984 25.984 0 0 0 22.4-22.848q13.184 4.928 27.648 9.792a60.48 60.48 0 0 1-75.072 37.184z" fill="#26A2C1" p-id="53134"></path></svg>