<?xml version="1.0" standalone="no"?><!DOCTYPE svg PUBLIC "-//W3C//DTD SVG 1.1//EN" "http://www.w3.org/Graphics/SVG/1.1/DTD/svg11.dtd"><svg t="1579073647060" class="icon" viewBox="0 0 1024 1024" version="1.1" xmlns="http://www.w3.org/2000/svg" p-id="103841" width="32" height="32" xmlns:xlink="http://www.w3.org/1999/xlink"><defs><style type="text/css"></style></defs><path d="M316.010667 520.597333a50.496 50.496 0 0 0-3.242667 8.32 1467.178667 1467.178667 0 0 0-12.949333 41.237334c-2.666667 8.917333-5.333333 17.813333-8.042667 26.709333a4293.632 4293.632 0 0 0-19.754667 68.053333c-1.322667 4.757333-2.133333 7.573333-2.432 8.469334a63.04 63.04 0 0 1-9.386666 19.157333c-2.218667 3.093333-4.693333 5.632-7.36 7.68a13.568 13.568 0 0 1-8.256 3.029333c-4.757333 0-8.213333-1.578667-10.368-4.757333-2.176-3.178667-3.242667-8.981333-3.242667-17.450667v-3.690666c0-1.237333 0.064-2.56 0.213333-3.968 0.149333-2.816 1.28-8.106667 3.349334-15.872 2.090667-7.744 4.586667-16.512 7.466666-26.304 2.922667-9.770667 6.037333-19.904 9.386667-30.378667 2.986667-9.386667 6.016-18.773333 9.045333-28.16-7.893333 8.810667-16.426667 17.578667-25.664 26.304-9.237333 8.725333-18.666667 16.554667-28.352 23.509333-9.664 6.976-19.413333 12.650667-29.226666 17.066667-9.813333 4.394667-19.264 6.613333-28.352 6.613333-10.410667 0-19.370667-2.304-26.88-6.890666a58.986667 58.986667 0 0 1-18.645334-17.962667 81.344 81.344 0 0 1-10.922666-25.109333 112.938667 112.938667 0 0 1-3.584-28.032v-3.434667c0-1.066667 0.085333-2.112 0.213333-3.178667 0.917333-16.917333 3.328-34.261333 7.253333-52.053333 3.968-17.813333 9.130667-35.52 15.530667-53.141333a488.533333 488.533333 0 0 1 22.186667-51.690667c8.426667-16.810667 17.578667-32.725333 27.456-47.701333 9.898667-14.976 20.437333-28.757333 31.573333-41.386667 11.178667-12.586667 22.613333-23.424 34.389333-32.490667a163.413333 163.413333 0 0 1 35.584-21.290666 90.197333 90.197333 0 0 1 35.605334-7.658667c13.525333 0 26.624 3.712 39.253333 11.093333 12.650667 7.402667 24.490667 19.413333 35.498667 35.968 2.517333 3.690667 4.138667 7.445333 4.8 11.221334a61.866667 61.866667 0 0 1 1.002666 10.709333c0 7.936-1.92 14.186667-5.696 18.773333-3.797333 4.586667-8.298667 6.869333-13.504 6.869334-4.757333 0-9.173333-2.517333-13.269333-7.530667-4.096-5.034667-8.682667-12.202667-13.738667-21.546667-4.757333-8.448-10.005333-14.570667-15.722666-18.368a33.109333 33.109333 0 0 0-18.645334-5.674666c-10.410667 0-21.546667 4.309333-33.365333 12.949333-11.818667 8.618667-23.530667 20.053333-35.136 34.218667a375.168 375.168 0 0 0-33.365333 48.64c-10.645333 18.24-20.053333 36.906667-28.245334 56.042666a399.146667 399.146667 0 0 0-19.52 56.554667c-4.842667 18.602667-7.253333 35.306667-7.253333 50.112 0 4.906667 0.341333 9.984 1.002667 15.189333 0.661333 5.205333 1.92 9.92 3.797333 14.144 1.856 4.224 4.394667 7.701333 7.594667 10.453334 3.2 2.730667 7.253333 4.074667 12.16 4.074666 5.504 0 11.733333-1.834667 18.752-5.546666a141.226667 141.226667 0 0 0 21.76-14.528c7.509333-5.994667 15.061333-12.8 22.634666-20.373334a365.952 365.952 0 0 0 38.613334-45.333333c5.056-7.125333 8.853333-13.333333 11.392-18.624l20.736-62.122667c2.538667-6.698667 5.845333-11.456 9.941333-14.272a21.973333 21.973333 0 0 1 12.608-4.224c2.090667 0 4.16 0.341333 6.250667 1.066667a15.573333 15.573333 0 0 1 5.568 3.285333c1.642667 1.493333 2.944 3.434667 3.904 5.824 0.981333 2.368 1.450667 5.162667 1.450666 8.32 0 8.469333-0.746667 16.384-2.218666 23.786667a190.08 190.08 0 0 1-5.696 21.674667c-2.346667 7.168-4.906667 14.293333-7.68 21.290666-2.922667 7.381333-5.674667 14.826667-8.256 22.336z m281.386666 51.818667a208.576 208.576 0 0 1-22.848 25.770667c-8.704 8.362667-17.685333 15.808-26.88 22.336a160.298667 160.298667 0 0 1-27.242666 15.722666c-8.938667 3.968-16.96 5.952-24.106667 5.952-7.146667 0-12.949333-2.389333-17.408-7.146666-4.48-4.757333-6.698667-12.864-6.698667-24.32 0-8.106667 1.194667-17.536 3.584-28.288a144.682667 144.682667 0 0 1-14.506666 20.906666c-5.802667 7.04-12.437333 13.461333-19.861334 19.285334-7.466667 5.802667-15.786667 10.517333-25.002666 14.122666-9.216 3.626667-19.264 5.44-30.122667 5.44-4.906667 0-9.642667-0.64-14.186667-1.856a29.546667 29.546667 0 0 1-11.946666-6.336c-3.413333-2.986667-6.165333-7.018667-8.234667-12.032-2.090667-5.013333-3.136-11.306667-3.136-18.901333l0.896-8.064c0.597333-5.205333 2.496-13.397333 5.696-24.597333 3.2-11.178667 8.149333-25.664 14.848-43.477334 6.698667-17.792 16.128-39.381333 28.330667-64.746666 3.114667-6.698667 6.741333-11.52 10.816-14.4a22.464 22.464 0 0 1 19.754666-3.456 21.056 21.056 0 0 1 6.250667 2.922666c1.92 1.28 3.52 3.008 4.693333 5.013334a13.525333 13.525333 0 0 1 1.792 6.997333c0 1.770667-0.213333 3.434667-0.682666 5.013333-0.746667 3.008-2.346667 6.933333-4.8 11.776-2.816 5.546667-5.696 11.114667-8.576 16.64-3.52 6.72-6.976 13.461333-10.389334 20.245334-3.690667 7.338667-7.082667 14.826667-10.154666 22.464a224 224 0 0 0-8.021334 23.658666 101.866667 101.866667 0 0 0-3.797333 23.381334c0 3.178667 0.746667 6.08 2.218667 8.725333 1.493333 2.645333 3.946667 3.968 7.381333 3.968 9.664 0 18.88-3.178667 27.669333-9.514667a122.645333 122.645333 0 0 0 24.32-23.68c7.445333-9.386667 14.165333-19.541333 20.202667-30.378666 6.016-10.837333 11.050667-20.757333 15.061333-29.738667 2.816-5.994667 5.312-12.437333 7.466667-19.306667 2.154667-6.869333 4.501333-13.205333 7.04-19.029333 2.517333-5.802667 5.418667-10.666667 8.704-14.528a15.402667 15.402667 0 0 1 12.266667-5.824c5.354667 0 9.6 2.026667 12.714666 6.08 3.136 4.053333 4.693333 8.896 4.693334 14.549333 0 3.157333-1.002667 7.530667-3.008 13.077334-2.026667 5.546667-4.544 11.904-7.594667 19.029333-3.264 7.637333-6.570667 15.253333-9.92 22.869333-3.584 8.106667-6.912 16.362667-9.941333 24.704-3.050667 8.384-5.568 16.576-7.594667 24.597334a92.224 92.224 0 0 0-2.986667 22.336c0 6.336 3.242667 9.514667 9.813334 9.514666 4.586667 0 10.325333-1.6 17.152-4.757333a117.76 117.76 0 0 0 21.546666-13.354667 202.88 202.88 0 0 0 22.549334-20.224c7.466667-7.68 14.144-16.106667 19.968-25.109333l2.24 35.968z m6.933334-13.226667c-1.621333 4.053333-3.221333 8.746667-4.8 14.144-1.557333 5.376-2.346667 10.176-2.346667 14.4 0 2.645333 0.469333 4.757333 1.344 6.336 0.896 1.6 2.624 2.389333 5.141333 2.389334 3.136 0 7.04-1.088 11.733334-3.306667 4.672-2.197333 9.728-5.12 15.146666-8.725333 5.44-3.605333 11.093333-7.744 16.981334-12.416a546.346667 546.346667 0 0 0 34.133333-29.610667c5.290667-5.013333 10.026667-9.642667 14.186667-13.866667a10.069333 10.069333 0 0 1 4.224-2.645333 14.08 14.08 0 0 1 4.266666-0.789333 8.96 8.96 0 0 1 7.338667 3.690666c1.92 2.474667 2.901333 5.717333 2.901333 9.792 0 3.690667-1.045333 7.829333-3.114666 12.416-2.090667 4.586667-5.738667 9.088-10.944 13.482667-9.514667 10.389333-19.114667 20.266667-28.8 29.610667a296.32 296.32 0 0 1-28.885334 24.704c-9.6 7.146667-19.114667 12.8-28.565333 17.066666a67.264 67.264 0 0 1-27.562667 6.336c-6.101333 0-11.2-0.981333-15.296-2.922666a25.386667 25.386667 0 0 1-9.813333-7.914667 31.744 31.744 0 0 1-5.248-11.904 65.28 65.28 0 0 1-1.557333-14.528c0-8.64 1.066667-17.493333 3.242666-26.581333 2.133333-9.066667 4.714667-17.408 7.68-24.96 5.205333-13.717333 10.474667-27.370667 15.850667-40.981334l14.741333-37.269333 67.626667-170.496c2.666667-6.869333 6.272-11.733333 10.816-14.549333a25.813333 25.813333 0 0 1 13.717333-4.224c4.608 0 8.810667 1.493333 12.608 4.48 3.797333 3.008 5.696 7.850667 5.696 14.549333 0 3.178667-0.64 6.528-1.898666 10.026667a122.88 122.88 0 0 1-4.8 11.392c-3.712 8.277333-8.128 18.410667-13.269334 30.378666a4417.706667 4417.706667 0 0 0-34.602666 83.136l-18.069334 44.544a5226.986667 5226.986667 0 0 0-29.802666 74.816z m316.245333-47.850666c2.069333-1.408 4.010667-2.56 5.802667-3.434667a11.669333 11.669333 0 0 1 5.12-1.322667c3.264 0 5.738667 1.450667 7.381333 4.352 1.621333 2.922667 2.453333 6.485333 2.453333 10.709334 0 4.586667-1.002667 9.258667-3.029333 14.016a29.525333 29.525333 0 0 1-9.024 11.904c-15.936 14.08-30.144 26.944-42.624 38.592a456.533333 456.533333 0 0 1-35.370667 29.994666 159.914667 159.914667 0 0 1-32.469333 19.413334 84.373333 84.373333 0 0 1-33.92 6.890666c-11.306667 0-20.053333-2.474667-26.24-7.402666-6.186667-4.928-9.258667-11.733333-9.258667-20.352v-1.984c0-0.618667 0.064-1.365333 0.213334-2.261334 0.597333-5.269333 2.922667-11.349333 6.933333-18.218666 4.010667-6.890667 8.853333-14.016 14.506667-21.418667 5.653333-7.402667 11.669333-14.890667 18.069333-22.464 6.016-7.104 11.946667-14.293333 17.749333-21.546667a208.426667 208.426667 0 0 0 13.504-18.645333c3.562667-5.632 5.333333-10.197333 5.333334-13.738667a6.186667 6.186667 0 0 0-2.218667-5.013333c-1.493333-1.237333-3.946667-1.856-7.36-1.856-5.973333 0-12.096 1.536-18.410667 4.629333-6.336 3.072-12.586667 7.232-18.752 12.416-6.186667 5.205333-12.202667 11.157333-18.069333 17.856-5.866667 6.656-11.370667 13.653333-16.512 20.864a302.186667 302.186667 0 0 0-24.874667 42.026667l-3.818666 8.213333c-1.813333 3.946667-3.605333 7.893333-5.333334 11.904-2.005333 4.544-4.053333 9.088-6.144 13.589334-2.026667 4.394667-4.010667 8.789333-5.909333 13.226666-1.792 4.138667-3.413333 7.829333-4.8 11.093334-1.429333 3.264-2.432 5.504-3.029333 6.741333a163.242667 163.242667 0 0 0-3.669334 8.981333c-2.005333 5.162667-3.968 10.304-5.930666 15.466667l-7.018667 18.645333a5022.464 5022.464 0 0 0-12.608 33.834667 145.024 145.024 0 0 0-3.136 8.96c-1.429333 4.458667-3.178667 8.789333-5.226667 12.970667-2.026667 4.053333-4.330667 7.616-6.933333 10.709333-2.602667 3.072-5.568 5.546667-8.917333 7.402667-3.349333 1.856-7.104 2.773333-11.264 2.773333a21.973333 21.973333 0 0 1-13.290667-3.84c-3.498667-2.56-5.248-7.445333-5.248-14.656 0-3.541333 0.448-7.146667 1.344-10.837333 0.896-3.733333 2.026667-7.381333 3.349333-10.986667 1.322667-3.541333 2.688-7.061333 4.138667-10.56 1.344-3.285333 2.645333-6.592 3.904-9.92 8.064-17.706667 16.256-35.370667 24.533333-52.992 8.213333-17.450667 16.213333-34.986667 24-52.608 7.658667-17.365333 14.762667-34.410667 21.312-51.157333 6.549333-16.725333 11.968-32.768 16.298667-48.106667 1.173333-3.178667 2.816-7.658667 4.906667-13.482667 2.090667-5.845333 4.48-11.562667 7.125333-17.173333a73.173333 73.173333 0 0 1 9.045333-14.677333c3.349333-4.138667 6.954667-6.186667 10.816-6.186667 5.973333 0 10.261333 1.344 12.949334 4.074667s4.010667 6.741333 4.010666 12.032c0 1.066667-0.149333 2.730667-0.426666 5.013333a179.072 179.072 0 0 1-2.56 14.549333 32.341333 32.341333 0 0 1-1.472 5.013334c5.504-5.973333 11.456-11.946667 17.856-17.834667 6.4-5.909333 13.013333-11.242667 19.861333-16 6.826667-4.757333 13.845333-8.618667 20.970667-11.626667 7.146667-2.986667 14.293333-4.48 21.44-4.48 4.906667 0 9.770667 0.682667 14.613333 2.112 4.821333 1.408 9.152 3.477333 12.928 6.186667 3.797333 2.752 6.890667 6.186667 9.258667 10.325333 2.389333 4.138667 3.584 8.96 3.584 14.4 0 7.253333-1.834667 14.933333-5.461334 23.125334-3.648 8.192-8.234667 16.426667-13.738666 24.725333-5.546667 8.341333-11.52 16.426667-17.856 24.192-6.4 7.829333-12.373333 14.976-17.962667 21.397333-4.714667 5.44-9.386667 10.88-14.058667 16.384-3.797333 4.501333-5.76 7.552-5.909333 9.130667 0 2.133333 0.661333 3.84 2.005333 5.141333 1.344 1.322667 3.584 1.984 6.698667 1.984 2.538667 0 6.250667-1.408 11.157333-4.224 4.906667-2.816 11.797333-7.701333 20.650667-14.656 8.832-6.976 20.074667-16.32 33.706667-28.032 13.610667-11.690667 30.378667-26.453333 50.325333-44.266666z" fill="#FF4A7A" p-id="103842"></path></svg>