<?xml version="1.0" standalone="no"?><!DOCTYPE svg PUBLIC "-//W3C//DTD SVG 1.1//EN" "http://www.w3.org/Graphics/SVG/1.1/DTD/svg11.dtd"><svg t="1579068719550" class="icon" viewBox="0 0 1024 1024" version="1.1" xmlns="http://www.w3.org/2000/svg" p-id="15029" width="32" height="32" xmlns:xlink="http://www.w3.org/1999/xlink"><defs><style type="text/css"></style></defs><path d="M597.329778 384.026666h383.984001l-383.984001-383.984001z" fill="#FF8976" p-id="15030"></path><path d="M560.253989 421.102454v-421.059789H128.015999c-46.931378 0-85.329778 38.3984-85.329778 85.329778v853.297779c0 46.974043 38.3984 85.329778 85.329778 85.329778h767.968002c46.931378 0 85.329778-38.3984 85.329778-85.329778v-517.567768h-421.05979z m-220.065497 104.827632l-87.079038 83.964502 77.052789 77.052789c4.266489 4.309154 4.266489 17.065956 0 21.332445l-21.332444 21.332444c-4.266489 8.532978-12.799467 8.532978-21.332445 0l-110.928711-110.928711c-3.882505-3.882505-4.223824-14.804716-1.023957-19.967168 0.127995-1.365276 0.895963-2.815883 2.559893-4.522478l119.461689-115.195201c4.266489-4.266489 12.799467-4.266489 21.332445 0l21.332444 25.598934c4.223824 4.309154 8.490313 17.065956-0.042665 21.332444z m96.593309 314.610891c0 8.532978-12.799467 12.799467-21.332445 12.799467l-34.131911-8.532978c-8.532978 0-12.799467-12.799467-12.799467-21.332444l115.195201-469.313779c4.266489-8.532978 12.799467-12.799467 21.332444-12.799466l34.131911 8.532977c8.532978 0 12.842132 12.799467 12.842132 21.332445l-115.237865 469.313778z m328.56231-221.857422l-110.971377 110.928711c-8.532978 8.532978-17.023291 8.532978-21.332444 0l-21.332444-21.332444c-4.266489-4.266489-4.266489-17.023291 0-21.332445l77.052789-77.052789-87.079038-83.964502c-8.532978-4.266489-4.266489-17.065956 0-21.332444l21.332444-25.598934c8.532978-4.266489 17.065956-4.266489 21.332445 0l119.461689 115.195201c1.706596 1.706596 2.474564 3.157202 2.602558 4.522478 3.157202 5.205116 2.815883 16.084663-1.066622 19.967168z" fill="#FF8976" p-id="15031"></path></svg>