<?xml version="1.0" standalone="no"?><!DOCTYPE svg PUBLIC "-//W3C//DTD SVG 1.1//EN" "http://www.w3.org/Graphics/SVG/1.1/DTD/svg11.dtd"><svg t="1579072555975" class="icon" viewBox="0 0 1024 1024" version="1.1" xmlns="http://www.w3.org/2000/svg" p-id="75482" width="32" height="32" xmlns:xlink="http://www.w3.org/1999/xlink"><defs><style type="text/css"></style></defs><path d="M114 572.6V344h26.4v105c7.6-12.2 16.6-21.8 27.4-28.6 10.6-6.8 21.4-10.4 32-10.4 9 0 17.2 2.2 24.6 6.8 7.4 4.6 12.6 10.2 15.6 16.6 2.4 5 4 10.4 4.8 16 0.8 5.6 1.2 17.2 1.2 34.8v88.4h-26.4v-91.6c0-15.2-0.8-25.2-2.2-30-1.4-4.8-4.2-8.8-8-12-4-3.2-8.2-4.6-12.8-4.6-9.2 0-19.2 4.4-29.8 13.2-10.6 8.8-19.4 19.8-26.2 33v92.2H114zM420.2 566.2c-12.4 5.2-21.4 8.2-26.8 9.2-5.6 1-11 1.4-16.2 1.4-11 0-21.2-2.2-30.2-6.4-9.2-4.2-16-10.6-20.8-18.8-4.6-8.4-7-21.2-7-38.6v-63.8h-39.6v-22h39.6v-63.8h26.4v63.8H416v22h-70.4v63.2c0 12.8 1.6 21.8 4.6 27 3 5.2 7 9 12.2 11.6 5 2.4 11 3.6 18 3.6 12.8 0 26.2-4 40.2-12v23.6zM594.2 566.2c-12.4 5.2-21.4 8.2-27 9.2-5.6 1-11 1.4-16.2 1.4-11 0-21.2-2.2-30.2-6.4-9.2-4.2-16-10.6-20.8-18.8-4.6-8.4-7-21.2-7-38.6v-63.8h-39.6v-22h39.6v-63.8h26.4v63.8h70.4v22h-70.4v63.2c0 12.8 1.6 21.8 4.6 27 3 5.2 7 9 12.2 11.6 5 2.4 11 3.6 18 3.6 12.8 0 26.2-4 40.2-12v23.6zM660.2 450c8.2-13.2 17.8-23.2 29-29.8 11.2-6.8 21.6-10 31-10 13.2 0 25.2 5.8 35.6 17.2 10.6 11.4 15.8 28.8 15.8 52 0 18.4-3.6 34.6-10.6 49-7 14.4-16.4 25.8-28.2 34.2-11.8 8.4-26.2 12.6-43.4 12.6-5 0-12.4-0.6-22.6-1.6-1.6-0.2-3.8-0.4-6.8-0.8V634h-26V414.4h26.4V450z m0 31.4v67.8c9.6 2.4 18.4 3.6 26.4 3.6 16 0 29.4-6.2 40.2-18.8 11-12.6 16.4-29.6 16.4-51.4 0-15.8-3-27.6-9-35.6s-12.6-12-20.2-12c-8.2 0-17.2 4.2-27.2 12.4-9.6 8.6-18.6 19.8-26.6 34zM811.8 564.2v-27.8c10.6 6.8 21.8 11.8 33.6 14.6 11.8 2.8 21.8 4.2 30 4.2 13.4 0 22.8-2.2 28.8-6.4 5.8-4.2 8.8-9.6 8.8-16 0-4.2-1.4-7.8-4.2-11-2.8-3-9.6-6.8-20.4-11.2l-9-3.6-18.2-7.2c-19.6-7.6-32-14.8-37-21.2-5.2-6.4-7.8-14.2-7.8-23.6 0-13 5-23.8 15-32.2 10-8.4 26.4-12.6 49-12.6 17 0 33 2.4 48 7.4v24c-17.4-6.2-33.8-9.4-49-9.4-11.2 0-19.8 2-26.2 5.8-6.2 4-9.4 8.8-9.4 14.6 0 5.6 2.8 10.2 8.2 13.6 5.4 3.4 14.2 7.4 26.4 11.8l17.8 6.6c16.4 6 27.8 12.4 34.4 19.4 6.6 7 9.8 15.8 9.8 26.2 0 13.6-5.2 25-15.8 33.8-10.6 8.8-27.4 13.2-50.4 13.2-20.4-0.2-41-4.4-62.4-13z" fill="#b2e756" p-id="75483"></path></svg>