<?xml version="1.0" standalone="no"?><!DOCTYPE svg PUBLIC "-//W3C//DTD SVG 1.1//EN" "http://www.w3.org/Graphics/SVG/1.1/DTD/svg11.dtd"><svg t="1579072495991" class="icon" viewBox="0 0 1024 1024" version="1.1" xmlns="http://www.w3.org/2000/svg" p-id="72652" width="32" height="32" xmlns:xlink="http://www.w3.org/1999/xlink"><defs><style type="text/css"></style></defs><path d="M805.748952 32.606316c-65.643789-11.856842-134.898526 6.952421-184.643369 56.697263-81.92 81.92-79.872 216.656842 4.527158 301.056 84.345263 84.399158 219.189895 86.393263 301.056 4.527158 53.463579-53.463579 71.141053-129.401263 53.571368-199.194948-13.150316-7.545263-26.947368 4.311579-26.947368 4.311579L842.612952 307.738947l-124.712421-128.91621a22.528 22.528 0 0 0 3.772631-3.018105l102.453895-102.50779a23.659789 23.659789 0 0 0-4.096-36.702316l0.700631-0.700631a217.303579 217.303579 0 0 0-3.395368-0.862316 24.629895 24.629895 0 0 0-11.587368-2.371368zM116.327478 763.850105l-73.83579-73.835789c9.970526-24.252632 24.791579-46.888421 44.355369-66.452211 81.92-81.92 216.710737-79.872 301.109895 4.473263 84.345263 84.399158 86.393263 219.189895 4.473263 301.109895a203.776 203.776 0 0 1-66.452211 44.409263l-73.835789-73.835789 33.953684-33.953684-135.814737-135.814737-33.953684 33.953684z" fill="#4B8DE8" p-id="72653"></path><path d="M334.062215 851.105684l71.68-71.841684a53.625263 53.625263 0 0 0-0.269474-75.991579L311.803688 609.711158a53.409684 53.409684 0 0 0-75.883789-0.161684l-72.111158 72.218947a24.037053 24.037053 0 0 1 9.701053 39.504842l-102.50779 102.50779a23.659789 23.659789 0 0 1-33.630316-0.323369 23.875368 23.875368 0 0 1-5.712842-9.162105l-0.323368 0.269474c-14.282105-67.476211 4.096-139.641263 55.511579-191.002948 65.589895-65.643789 165.187368-77.392842 245.598316-36.001684l329.404631-329.404632 101.861053 101.861053-331.452632 331.452632c36.648421 78.901895 23.605895 174.187789-39.882105 237.675789-48.505263 48.505263-115.442526 67.530105-179.523368 57.559579a24.144842 24.144842 0 0 1-19.56379-7.006316 24.037053 24.037053 0 0 1-0.323368-33.68421l102.507789-102.50779a23.659789 23.659789 0 0 1 33.630316 0.323369c2.155789 2.155789 3.772632 4.634947 4.904421 7.275789z" fill="#4B8DE8" p-id="72654"></path><path d="M404.502636 750.645895a268.719158 265.593263 0 1 0 537.438316 0 268.719158 265.593263 0 1 0-537.438316 0Z" fill="#6DC059" p-id="72655"></path><path d="M612.482425 861.453474a26.947368 26.947368 0 0 0 39.181474 0.215579l160.606316-168.313264a26.947368 26.947368 0 0 0-39.01979-37.187368l-143.413894 149.881263-52.062316-60.901052a26.947368 26.947368 0 0 0-39.450948 36.75621l74.159158 79.548632z" fill="#FFFFFF" p-id="72656"></path></svg>