<?xml version="1.0" standalone="no"?><!DOCTYPE svg PUBLIC "-//W3C//DTD SVG 1.1//EN" "http://www.w3.org/Graphics/SVG/1.1/DTD/svg11.dtd"><svg t="1579074352822" class="icon" viewBox="0 0 1024 1024" version="1.1" xmlns="http://www.w3.org/2000/svg" p-id="125636" width="32" height="32" xmlns:xlink="http://www.w3.org/1999/xlink"><defs><style type="text/css"></style></defs><path d="M605 111.3c0.5-15.6-2.4-31.1-4.4-46.7 24.8 30.1 29.7 72.4 16.5 108.4-17.5 50.1-56.4 88-95.8 121.5-32.6 25.8-66.6 54.9-78.8 96.3-8.3 29.7 3.4 60.3 19 85.6 16.5 27.2 37.9 51.5 51 80.7-32.1-28.2-63.2-57.3-89.5-91.9-16.1-22.4-31.6-48.1-30.1-76.8 0.5-25.3 17-46.2 33.5-64.2 44.7-46.7 103.6-78.3 144.9-128.8 19.6-23.9 33.2-53 33.7-84.1z m0 0" fill="#3ECCE5" p-id="125637"></path><path d="M577.3 307.7c40.6-26.9 85.5-46.6 132.7-58.3-42.8 27.7-88.5 52.5-124 89.9-14.6 16.1-26.7 37.9-20.9 60.3 7.8 27.2 28.7 47.1 41.8 71.5 9.7 18.5 8.3 41.3-2.4 58.8-15.1 25.3-39.4 44.2-65.2 58.4 15.6-15.1 30.2-34 29.2-56.9 0.5-18.5-12.6-33-23.3-46.7-21.9-26.8-37.9-61.8-30.6-96.8 7.3-34.5 34.5-60.8 62.7-80.2z m0 0" fill="#3ECCE5" p-id="125638"></path><path d="M715.9 566.3c12.7-14.6 33.6-17 52-17.5 27.2 0 55.4 14.1 66.6 39.9 10.7 22.8 3.4 50.1-12.2 68.5-31.1 37.9-79.7 54-124.5 68.6 0.6-1.7 0.9-3.5 0.9-5.3 30.2-14.6 59.3-33.5 81.7-58.8 13.6-16 24.8-36.9 20.9-58.3-4.9-26.7-33.1-45.7-59.8-42.8-8.6 1.3-16.9 3.8-25.6 5.7z m-430.3 16.5c39.4-16 82.2-26.7 124.9-25.8-27.7 9.2-56.9 14.1-82.1 28.7-4.9 2.9-8.8 7.3-12.6 11.2 10.2 9.2 24.3 11.7 37.4 13.1 61.3 6.3 123.5 3.4 184.7 0 48.6-3.4 97.2-8.7 145.4-17 6.3-1 12.6-1 19-1-17.5 4.9-32.1 17-49.1 22.9-79.7 18.5-161.9 22.4-243.6 21.9-41.3-2-83.6-2.5-124-12.1-12.6-3.4-26.7-6.3-34.5-17.5 7.8-13.7 21.9-18.5 34.5-24.4zM326 685.4c10.2-14.6 29.2-20.5 45.2-26.3-4.6 6.1-8.8 12.4-12.6 19 5.4 9.2 15.6 12.6 25.3 14.1 26.7 4.4 54 4.4 81.2 6.3 55.4 1 110.8-6.8 165.8-16 11.2 9.2 23.8 17 37.4 22.4-83.6 23.3-171.6 33-258.1 23.3-25.8-3.4-52.5-7.3-75.4-20.9-6.4-4.9-15.1-13.6-8.8-21.9z m31.6 87c10.7-8.3 23.3-12.2 36-16.6-3.4 3.4-6.3 7.3-9.7 10.7 1.9 9.2 11.2 12.7 19.5 14.1 59.3 9.8 120.5 9.8 179.4-2 8.7-0.9 18.5-4.8 26.7 0 14.1 7.8 28.2 15.6 43.8 20.4-54.5 24.3-114.7 33.5-174 31.1-30.6-0.5-61.7-4.9-90.9-15.1-14.1-5.3-29.7-12.1-36.9-26.2-2.2-6.1 1.2-12.5 6.1-16.4z m0 0" fill="#393D3F" p-id="125639"></path><path d="M216.6 842.4c34-14.1 72.4-27.2 109.4-17.5-26.7 4.9-54.9 8.7-78.3 23.3-4.4 2.9-10.2 6.8-8.8 12.6 4.4 4.4 10.2 6.8 15.6 8.8 31.1 11.2 64.2 14.6 97.2 18 87.5 6.8 175.5 5.8 263-0.5 48.1-4.9 96.7-8.3 143.4-21.9 12.7-3.4 24.8-10.2 32.6-20.9-2-5.3-3.9-10.2-5.4-15.6 7.8 4.4 14.6 10.3 18 18.5-4.4 8.3-10.2 15.1-18.5 19.5-32.6 18.4-69.5 25.8-105.5 33.1-83.1 14.6-167.7 18.9-251.8 16.5-71-2.9-142-8.8-211.5-21.9-12.6-3.4-30.6-6.3-33.5-21.4 3-16.5 20.5-23.3 34.1-30.6z m0 0" fill="#393D3F" p-id="125640"></path><path d="M816 893c9.2-4.4 15.6-12.6 25.3-16.5-10.2 32.1-44.2 45.7-73.4 54.9-63.2 18.9-129.3 23.3-195 27.2-56.9 1.5-113.7 1-170.1-3.9-35-3.9-71-7.3-103.5-21.4 11.2-0.5 21.9 1.9 33.1 3.4 52.5 6.8 106 8.3 158.5 8.3 68.5-0.5 137.1-5.4 204.7-16.5 41.2-8.3 83-17 120.4-35.5z m0 0" fill="#393D3F" p-id="125641"></path></svg>