<?xml version="1.0" standalone="no"?><!DOCTYPE svg PUBLIC "-//W3C//DTD SVG 1.1//EN" "http://www.w3.org/Graphics/SVG/1.1/DTD/svg11.dtd"><svg t="1579068577130" class="icon" viewBox="0 0 1024 1024" version="1.1" xmlns="http://www.w3.org/2000/svg" p-id="10107" width="32" height="32" xmlns:xlink="http://www.w3.org/1999/xlink"><defs><style type="text/css"></style></defs><path d="M606.484 32s32.582 55.188 26.064 92.11c-6.514 36.922-14.108 62.078-89.044 129.406-74.914 67.328-100.976 90.11-100.976 132.484 0 53.204 81.442 152.016 81.442 152.016s-132.32-81.36-132.32-174.764c0-62.984 75.628-99.968 120.804-139.062 45.172-39.078 83.172-70.578 91.868-112.922C613.004 68.906 606.484 32 606.484 32z" fill="#008CDB" p-id="10108"></path><path d="M719.428 219.86s-150.948 86.876-150.948 149.782c0 45.67 54.3 66.296 52.124 109.734-2.164 43.454-53.204 81.454-77.102 87.968 0 0 28.238-26.046 28.238-54.296 0-51.046-68.016-96.718-61.386-139 8.184-52.11 61.238-86.656 95.05-108.594 40.176-26.064 114.024-45.594 114.024-45.594z m5.782 327.936c2.542 2.532 13.764-7.954 35.108-6.516 14.126 0.968 51.408 12.672 52.126 57.906 0.722 45.266-55.376 79.282-66.954 86.876-11.59 7.61-42.368 20.266-38.738 22.438 3.618 2.188 52.488-13.016 69.862-21.344 17.368-8.328 76.008-41.266 75.646-90.5-0.364-49.218-49.226-76.734-97.722-64.782-20.826 5.11-29.328 15.922-29.328 15.922z" fill="#008CDB" p-id="10109"></path><path d="M406.684 538.014c1.078 2.156-30.14 4.062-66.684 21.828-30.02 14.578-9.946 24.906 6.422 30.844 61.352 22.266 214.098 22.266 360.038-18.64-42.422 34.39-148.104 64.782-260.316 64.782-93.386 0-197.636-23.876-197.636-53.39 0-18.266 35.274-26.172 61.192-33.39 31.124-8.706 95.542-14.924 96.984-12.034z m-32.216 105.876s-26.742 25.75 7.972 37.11c84.692 27.718 209.214 11.562 250.968-14.828 0 0 23.036 19 40.954 24.422 0 0-85.604 51.406-206.506 43.25-93.75-6.312-147.496-22.624-147.496-56.828 0-27.86 54.108-33.126 54.108-33.126z m14.844 98.812s-41.258 3.266-41.258 30.954c0 21.75 42.344 56.468 149.304 53.75s166.678-40.172 166.678-40.172-42.346-15.204-53.202-27.688c0 0-37.64 32.954-119.148 30.766-47.21-1.266-126.26-12.844-102.374-47.61z" fill="#008CDB" p-id="10110"></path><path d="M315.11 812.75s-84.696 14.812-83.25 40.546c1.02 18.204 103.292 39.876 274.192 39.078 157.988-0.718 299.16-17.376 289.022-73.11 0 0 30.16 18.124 10.86 41.266-26.57 31.844-122.832 69.562-331.562 68.124C265.642 927.2 169.6 894.592 171.776 861.264c2.174-33.312 102.072-59.374 143.334-48.514z" fill="#008CDB" p-id="10111"></path><path d="M846.834 876.124s-67.472 57.952-243.6 77.796c-103.438 11.656-201.976 7.968-314.542-22.766 31.668 38.688 147.824 74.266 308.028 55.844 218.622-25.11 241.424-89.874 250.114-110.874z" fill="#008CDB" p-id="10112"></path></svg>