<?xml version="1.0" standalone="no"?><!DOCTYPE svg PUBLIC "-//W3C//DTD SVG 1.1//EN" "http://www.w3.org/Graphics/SVG/1.1/DTD/svg11.dtd"><svg t="1579068423455" class="icon" viewBox="0 0 1024 1024" version="1.1" xmlns="http://www.w3.org/2000/svg" p-id="4855" width="32" height="32" xmlns:xlink="http://www.w3.org/1999/xlink"><defs><style type="text/css"></style></defs><path d="M325.6 106.9h409.9c11 0 20 9 20 20v270.9c0 11-9 20-20 20H325.6c-11 0-20-9-20-20V126.9c0-11 8.9-20 20-20z" fill="#FFDF00" p-id="4856"></path><path d="M725.5 427.8H295.6c-16.5 0-30-13.5-30-30V260.3c0-5.5 4.5-10 10-10s10 4.5 10 10v137.5c0 5.5 4.5 10 10 10h429.9c5.5 0 10-4.5 10-10V126.9c0-5.5-4.5-10-10-10H295.6c-5.5 0-10 4.5-10 10v12.9c0 5.5-4.5 10-10 10s-10-4.5-10-10v-12.9c0-16.5 13.5-30 30-30h429.9c16.5 0 30 13.5 30 30v270.9c0 16.5-13.5 30-30 30z" fill="#222222" p-id="4857"></path><path d="M275 201.3m-16 0a16 16 0 1 0 32 0 16 16 0 1 0-32 0Z" fill="#222222" p-id="4858"></path><path d="M122.7 672h175.7c11 0 20 8.9 20 20v206.6c0 11-8.9 20-20 20H122.7c-11 0-20-8.9-20-20V692c0-11 8.9-20 20-20z" fill="#22B4FF" p-id="4859"></path><path d="M288.4 928.6H92.7c-16.5 0-30-13.5-30-30V692c0-16.5 13.5-30 30-30h195.7c16.5 0 30 13.5 30 30v206.6c0 16.5-13.5 30-30 30zM92.7 682c-5.5 0-10 4.5-10 10v206.6c0 5.5 4.5 10 10 10h195.7c5.5 0 10-4.5 10-10V692c0-5.5-4.5-10-10-10H92.7z" fill="#222222" p-id="4860"></path><path d="M442.7 672h175.7c11 0 20 8.9 20 20v206.6c0 11-8.9 20-20 20H442.7c-11 0-20-8.9-20-20V692c0-11 8.9-20 20-20z" fill="#EB6877" p-id="4861"></path><path d="M608.4 928.6H412.7c-16.5 0-30-13.5-30-30V692c0-16.5 13.5-30 30-30h195.7c16.5 0 30 13.5 30 30v206.6c0 16.5-13.5 30-30 30zM412.7 682c-5.5 0-10 4.5-10 10v206.6c0 5.5 4.5 10 10 10h195.7c5.5 0 10-4.5 10-10V692c0-5.5-4.5-10-10-10H412.7z" fill="#222222" p-id="4862"></path><path d="M762.7 672h175.7c11 0 20 8.9 20 20v206.6c0 11-8.9 20-20 20H762.7c-11 0-20-8.9-20-20V692c0-11 8.9-20 20-20z" fill="#57EBBF" p-id="4863"></path><path d="M928.4 928.6H732.7c-16.5 0-30-13.5-30-30V692c0-16.5 13.5-30 30-30h195.7c16.5 0 30 13.5 30 30v206.6c0 16.5-13.5 30-30 30zM732.7 682c-5.5 0-10 4.5-10 10v206.6c0 5.5 4.5 10 10 10h195.7c5.5 0 10-4.5 10-10V692c0-5.5-4.5-10-10-10H732.7zM188 630.3c-5.5 0-10-4.5-10-10v-67c0-5.5 4.5-10 10-10h646c5.5 0 10 4.5 10 10v64c0 5.5-4.5 10-10 10s-10-4.5-10-10v-54H198v57c0 5.5-4.5 10-10 10z" fill="#222222" p-id="4864"></path><path d="M501 630.3c-5.5 0-10-4.5-10-10v-147c0-5.5 4.5-10 10-10s10 4.5 10 10v147c0 5.5-4.5 10-10 10z" fill="#222222" p-id="4865"></path><path d="M437.6 200.4c10.3 0 18.6 8.3 18.6 18.5 0 10.3-8.3 18.6-18.5 18.7-10.3 0-18.6-8.3-18.7-18.5v-0.1c0-10.3 8.3-18.6 18.6-18.6z m146.9 0c10.3 0 18.6 8.3 18.6 18.5 0 10.3-8.3 18.6-18.5 18.7-10.3 0-18.6-8.3-18.7-18.5v-0.1c0-10.3 8.3-18.6 18.6-18.6zM558.2 282.8c-8 26.1-35.7 40.8-61.8 32.8-15.8-4.8-28.1-17.3-32.9-33.1 7.2 0 70.6 0.3 94.7 0.3z" fill="#222222" p-id="4866"></path><path d="M510.9 320.8c-5.2 0-10.3-0.8-15.4-2.3-16.7-5.1-29.8-18.2-34.9-35.1-0.3-0.9-0.1-1.9 0.5-2.7s1.5-1.2 2.4-1.2c2.5 0 12.1 0 24.5 0.1 23.1 0.1 54.6 0.2 70.2 0.2 1 0 1.8 0.5 2.4 1.2s0.7 1.8 0.5 2.7c-4.1 13.4-13.2 24.4-25.6 31-7.7 4-16.1 6.1-24.6 6.1z m-43.2-35.3c5.2 13.1 16 23.1 29.5 27.2 23.2 7.1 47.7-4.9 56.7-26.9-16.6 0-44.9-0.1-66-0.2-8.5 0-15.7-0.1-20.2-0.1z" fill="#222222" p-id="4867"></path><path d="M510.9 294.5c14.2 0 26.6 4.2 33.3 10.3-18.9 17.3-47.8 17.3-66.6 0 6.7-6.2 19.1-10.3 33.3-10.3z" fill="#FF1834" p-id="4868"></path><path d="M229.5 491.4c-1.4 0-2.8-0.7-3.5-2.1l-15.8-28.4c-1.1-1.9-0.4-4.4 1.6-5.4 1.9-1.1 4.4-0.4 5.4 1.6l15.8 28.4c1.1 1.9 0.4 4.4-1.6 5.4-0.6 0.3-1.2 0.5-1.9 0.5z" fill="#00B7EE" p-id="4869"></path><path d="M207.4 485.1c-1.4 0-2.8-0.7-3.5-2.1-1.1-1.9-0.4-4.4 1.6-5.4l28.4-15.8c1.9-1.1 4.4-0.4 5.4 1.6 1.1 1.9 0.4 4.4-1.6 5.4l-28.4 15.8c-0.6 0.3-1.2 0.5-1.9 0.5z" fill="#00B7EE" p-id="4870"></path><path d="M893.8 149.8c-1.8 0-3.4-1.2-3.9-3l-6.3-23.4c-0.6-2.1 0.7-4.3 2.8-4.9s4.3 0.7 4.9 2.8l6.3 23.4c0.6 2.1-0.7 4.3-2.8 4.9-0.3 0.2-0.7 0.2-1 0.2z" fill="#ACD598" p-id="4871"></path><path d="M879 141.3c-1.8 0-3.4-1.2-3.9-3-0.6-2.1 0.7-4.3 2.8-4.9l23.4-6.3c2.1-0.6 4.3 0.7 4.9 2.8 0.6 2.1-0.7 4.3-2.8 4.9l-23.4 6.3c-0.3 0.2-0.7 0.2-1 0.2z" fill="#ACD598" p-id="4872"></path><path d="M876.5 337.5c-0.8 0-1.6-0.2-2.3-0.8l-24.7-17.8c-1.8-1.3-2.2-3.8-0.9-5.6 1.3-1.8 3.8-2.2 5.6-0.9l24.7 17.8c1.8 1.3 2.2 3.8 0.9 5.6-0.8 1.1-2.1 1.7-3.3 1.7z" fill="#FFF100" p-id="4873"></path><path d="M855.3 340.9c-0.8 0-1.6-0.2-2.3-0.7-1.8-1.3-2.2-3.8-0.9-5.6l17.7-24.7c1.3-1.8 3.8-2.2 5.6-0.9 1.8 1.3 2.2 3.8 0.9 5.6l-17.7 24.7c-0.8 1-2.1 1.6-3.3 1.6z" fill="#FFF100" p-id="4874"></path><path d="M45.5 323.2c-6.6 0-12-5.4-12-12s5.4-12 12-12 12 5.4 12 12-5.4 12-12 12z m0-19.2c-4 0-7.2 3.2-7.2 7.2s3.2 7.2 7.2 7.2 7.2-3.2 7.2-7.2-3.2-7.2-7.2-7.2z" fill="#E898EA" p-id="4875"></path><path d="M946.8 502.7c-6.1 0-11-4.9-11-11s4.9-11 11-11 11 4.9 11 11-4.9 11-11 11z m0-17.4c-3.5 0-6.4 2.8-6.4 6.4s2.8 6.4 6.4 6.4 6.4-2.8 6.4-6.4-2.9-6.4-6.4-6.4z" fill="#7EDDDC" p-id="4876"></path><path d="M103 437.3m-8 0a8 8 0 1 0 16 0 8 8 0 1 0-16 0Z" fill="#F6B37F" p-id="4877"></path><path d="M961 382.3m-6 0a6 6 0 1 0 12 0 6 6 0 1 0-12 0Z" fill="#D3D462" p-id="4878"></path><path d="M255 57.3m-4 0a4 4 0 1 0 8 0 4 4 0 1 0-8 0Z" fill="#FF455C" p-id="4879"></path><path d="M51.3 118.7m-6 0a6 6 0 1 0 12 0 6 6 0 1 0-12 0Z" fill="#71E7DB" p-id="4880"></path><path d="M168.1 126.2c-3.5 0-7.2-1.3-9.9-4.1-2.7-2.6-4.1-6.1-4.1-9.8s1.5-7.3 4.1-9.9l1.8 1.8-1.8-1.8c5.4-5.4 14.3-5.4 19.7 0 5.4 5.4 5.4 14.3 0 19.8-2.7 2.7-6.3 4-9.8 4z m-6.4-20.2c-1.7 1.7-2.7 3.9-2.7 6.3 0 2.3 1 4.6 2.6 6.2 3.5 3.4 9.1 3.5 12.6 0 3.4-3.5 3.4-9.1 0-12.5-3.3-3.4-9-3.4-12.5 0z" fill="#FF8A8A" p-id="4881"></path><path d="M959 275.4c-8.3 0-15-6.7-15-15s6.7-15 15-15 15 6.7 15 15-6.7 15-15 15z m0-24.8c-5.4 0-9.8 4.4-9.8 9.8s4.4 9.8 9.8 9.8 9.8-4.4 9.8-9.8-4.4-9.8-9.8-9.8z" fill="#B3D465" p-id="4882"></path><path d="M912 585.3m-8 0a8 8 0 1 0 16 0 8 8 0 1 0-16 0Z" fill="#CC9EE1" p-id="4883"></path><path d="M108.5 38.8m-3.5 0a3.5 3.5 0 1 0 7 0 3.5 3.5 0 1 0-7 0Z" fill="#D3A884" p-id="4884"></path><path d="M920.5 51.8m-3.5 0a3.5 3.5 0 1 0 7 0 3.5 3.5 0 1 0-7 0Z" fill="#D3A884" p-id="4885"></path><path d="M220.5 211.8m-3.5 0a3.5 3.5 0 1 0 7 0 3.5 3.5 0 1 0-7 0Z" fill="#22B4FF" p-id="4886"></path><path d="M704.5 286.8m-7.5 0a7.5 7.5 0 1 0 15 0 7.5 7.5 0 1 0-15 0Z" fill="#F2ED62" p-id="4887"></path><path d="M827 463.1c-5.6 0-10.8-2.2-14.7-6.1-3.9-3.9-6.1-9.1-6.1-14.7 0-5.5 2.2-10.8 6.1-14.7 3.9-3.9 9.1-6.1 14.7-6.1h0.1c5.5 0 10.7 2.2 14.6 6.1 3.9 3.9 6.1 9.1 6.1 14.7s-2.2 10.8-6.1 14.7c-3.9 3.9-9.2 6.1-14.7 6.1z m-10.4-30.9c-2.7 2.8-4.1 6.3-4.1 10.1 0 3.9 1.5 7.5 4.3 10.3s6.4 4.3 10.2 4.3h0.1c3.9 0 7.6-1.5 10.4-4.3 2.8-2.7 4.3-6.4 4.2-10.3 0-3.9-1.5-7.6-4.3-10.4-2.7-2.8-6.4-4.2-10.2-4.3h-0.1c-3.9 0-7.6 1.5-10.4 4.3l-0.1 0.3z" fill="#EFAD62" p-id="4888"></path><path d="M789.3 69.2m-8 0a8 8 0 1 0 16 0 8 8 0 1 0-16 0Z" fill="#EBB4BE" p-id="4889"></path><path d="M78.9 583.2c-0.1 0-0.1 0 0 0-5.1 0-9.9-2-13.4-5.6-3.6-3.5-5.6-8.2-5.6-13.3s2-9.9 5.6-13.5c3.6-3.6 8.4-5.6 13.5-5.6h0.1c5.1 0 9.8 2 13.3 5.6 3.6 3.6 5.6 8.4 5.6 13.5s-2 9.8-5.6 13.3c-3.7 3.6-8.5 5.6-13.5 5.6z m-7.8-26.8c-2.1 2.1-3.3 4.9-3.3 7.9 0 2.9 1.2 5.6 3.2 7.7 2.1 2.1 4.8 3.3 7.7 3.3 2.9 0 5.7-1.2 7.8-3.3 2.1-2.1 3.2-4.8 3.3-7.7 0-3-1.1-5.7-3.3-7.9-2.1-2.1-4.8-3.2-7.7-3.3-2.8 0.1-5.6 1.2-7.7 3.3z" fill="#FF8A8A" p-id="4890"></path><path d="M817.2 201.8m-9 0a9 9 0 1 0 18 0 9 9 0 1 0-18 0Z" fill="#A657FF" p-id="4891"></path><path d="M192 365.3c-13.2 0-24-10.8-24-24s10.8-24 24-24 24 10.8 24 24-10.8 24-24 24z m0-40c-8.8 0-16 7.2-16 16s7.2 16 16 16 16-7.2 16-16-7.2-16-16-16z" fill="#57EBBF" p-id="4892"></path><path d="M963.5 115.8m-7.5 0a7.5 7.5 0 1 0 15 0 7.5 7.5 0 1 0-15 0Z" fill="#FFD200" p-id="4893"></path><path d="M110.5 228.8m-7.5 0a7.5 7.5 0 1 0 15 0 7.5 7.5 0 1 0-15 0Z" fill="#FFD375" p-id="4894"></path></svg>