<?xml version="1.0" standalone="no"?><!DOCTYPE svg PUBLIC "-//W3C//DTD SVG 1.1//EN" "http://www.w3.org/Graphics/SVG/1.1/DTD/svg11.dtd"><svg t="1579074187186" class="icon" viewBox="0 0 1024 1024" version="1.1" xmlns="http://www.w3.org/2000/svg" p-id="117972" width="32" height="32" xmlns:xlink="http://www.w3.org/1999/xlink"><defs><style type="text/css"></style></defs><path d="M662.4 674.133333H356.48c-26.24 0-52.693333-9.813333-73.813333-29.653333-18.346667-19.84-26.24-44.586667-23.893334-69.546667 7.893333-47.146667 50.133333-84.48 100.053334-81.92h308.693333c26.24 0 52.693333 9.813333 73.813333 29.653334 18.346667 19.84 26.24 44.586667 23.893334 69.546666-7.893333 47.36-50.133333 81.92-102.826667 81.92z m-277.12-144.853333h253.653333c30.08 0 54.4 24.32 54.4 54.4s-24.32 54.4-54.4 54.4H385.28c-30.08 0-54.4-24.32-54.4-54.4s24.32-54.4 54.4-54.4z m589.226667 101.973333c-7.68-7.68-17.706667-10.24-28.16-10.24h-48.426667c-2.56-122.666667-53.546667-207.146667-137.6-258.133333l91.733333-191.786667c20.48-2.56 35.84-20.48 35.84-40.96-2.56-20.48-20.48-35.84-40.746666-35.84-20.48 2.56-35.84 20.48-35.84 40.96 0 7.68 2.56 12.8 7.68 17.92l-91.733334 189.013334c-68.906667-30.506667-142.72-43.306667-216.746666-43.306667-74.026667-2.56-148.053333 12.8-216.746667 43.306667L201.6 155.733333c10.026667-15.36 7.68-33.28-2.56-46.08-12.8-12.8-30.506667-15.36-45.866667-7.68-17.706667 10.026667-25.386667 30.506667-17.706666 50.986667 7.68 10.24 20.266667 17.92 33.066666 17.92L263.04 362.666667c-84.053333 50.986667-132.693333 138.026667-135.253333 258.133333H79.146667c-10.026667 0-20.48 5.12-25.386667 10.24-7.68 10.24-12.8 17.92-12.8 28.16v94.72c0 10.24 5.12 20.48 10.026667 25.6 7.68 7.253333 17.92 9.813333 25.6 9.813333h45.866666v46.08c0 30.506667 25.386667 56.32 56.106667 56.32h660.48c30.506667 0 56.106667-25.6 56.106667-56.32V789.333333h48.426666c20.48 0 38.186667-17.92 38.186667-38.4v-94.72c2.986667-7.253333 0.426667-17.28-7.253333-24.96z" fill="#45CE62" p-id="117973"></path></svg>