<?xml version="1.0" standalone="no"?><!DOCTYPE svg PUBLIC "-//W3C//DTD SVG 1.1//EN" "http://www.w3.org/Graphics/SVG/1.1/DTD/svg11.dtd"><svg t="1579070306137" class="icon" viewBox="0 0 1448 1024" version="1.1" xmlns="http://www.w3.org/2000/svg" p-id="30384" width="45.25" height="32" xmlns:xlink="http://www.w3.org/1999/xlink"><defs><style type="text/css"></style></defs><path d="M1028.865186 373.767906c-33.326523 0-66.653047 16.663262-94.506236 38.921487l-111.169498-111.169498c22.258225-22.258225 38.921487-55.584749 38.921488-94.506235 0-77.842974-61.179713-138.901057-138.901058-138.901058s-138.901057 61.179713-138.901057 138.901058c0 33.326523 16.663262 66.653047 38.921487 94.506235L512.060815 412.689393c-22.258225-22.258225-55.584749-38.921487-94.506236-38.921487-77.842974 0-138.901057 61.179713-138.901057 138.901057s61.179713 138.901057 138.901057 138.901057c33.326523 0 66.653047-16.663262 94.506236-38.921487l111.169497 111.169498c-22.258225 22.258225-38.921487 55.584749-38.921487 94.506236 0 77.842974 61.179713 138.901057 138.901057 138.901057s138.901057-61.179713 138.901058-138.901057c0-33.326523-16.663262-66.653047-38.921488-94.506236l111.169498-111.169498c22.258225 22.258225 55.584749 38.921487 94.506236 38.921487 77.842974 0 138.901057-61.179713 138.901057-138.901057s-61.179713-138.901057-138.901057-138.901057z" fill="#00A0E9" p-id="30385"></path><path d="M723.209882 679.30158c-22.258225 0-38.921487 5.594964-55.584748 11.068298L545.387338 568.253712c5.594964-16.663262 11.068298-33.326523 11.068298-55.584749s-5.594964-38.921487-11.068298-55.584749l122.237796-122.237795c16.663262 5.594964 33.326523 11.068298 55.584748 11.068298 22.258225 0 38.921487-5.594964 55.584749-11.068298l122.237796 122.237795c-5.594964 16.663262-11.068298 33.326523-11.068298 55.584749s5.594964 38.921487 11.068298 55.584749L778.794631 690.491507c-16.663262-5.594964-33.326523-11.189928-55.584749-11.189927z" fill="#FFFFFF" p-id="30386"></path><path d="M723.209882 123.697351c44.394821 0 83.316308 38.921487 83.316309 83.316309s-38.921487 83.316308-83.316309 83.316308-83.316308-38.921487-83.316308-83.316308 38.921487-83.316308 83.316308-83.316309zM417.554579 595.985271c-44.394821 0-83.316308-38.921487-83.316308-83.316308s38.921487-83.316308 83.316308-83.316308 83.316308 38.921487 83.316308 83.316308-38.799857 83.316308-83.316308 83.316308zM723.209882 901.640575c-44.394821 0-83.316308-38.921487-83.316308-83.316308s38.921487-83.316308 83.316308-83.316309 83.316308 38.921487 83.316309 83.316309-38.921487 83.316308-83.316309 83.316308zM1028.865186 595.985271c-44.394821 0-83.316308-38.921487-83.316308-83.316308s38.921487-83.316308 83.316308-83.316308 83.316308 38.921487 83.316308 83.316308-38.921487 83.316308-83.316308 83.316308z" fill="#BBF2FF" p-id="30387"></path></svg>