<?xml version="1.0" standalone="no"?><!DOCTYPE svg PUBLIC "-//W3C//DTD SVG 1.1//EN" "http://www.w3.org/Graphics/SVG/1.1/DTD/svg11.dtd"><svg t="1579073052704" class="icon" viewBox="0 0 2194 1024" version="1.1" xmlns="http://www.w3.org/2000/svg" p-id="83360" width="68.5625" height="32" xmlns:xlink="http://www.w3.org/1999/xlink"><defs><style type="text/css"></style></defs><path d="M0 0m210.295332 0l1156.624329 0q210.295332 0 210.295333 210.295332l0 315.442999q0 210.295332-210.295333 210.295333l-1156.624329 0q-210.295332 0-210.295332-210.295333l0-315.442999q0-210.295332 210.295332-210.295332Z" fill="#DDEBFC" p-id="83361"></path><path d="M380.319109 182.956939H312.551438v190.790441q0 74.129105-48.893665 74.129104a64.981258 64.981258 0 0 1-40.271556-13.353753V498.399938a118.922011 118.922011 0 0 0 44.58261 8.201518A103.991042 103.991042 0 0 0 351.245779 473.164498a143.842007 143.842007 0 0 0 29.07333-96.735853V182.956939zM436.362815 488.936648a198.098203 198.098203 0 0 0 89.375516 17.664808 152.779559 152.779559 0 0 0 92.214503-24.026242 81.489441 81.489441 0 0 0 32.438056-69.81805 84.433576 84.433576 0 0 0-17.769956-53.783031 165.923017 165.923017 0 0 0-65.191553-42.900248 191.684196 191.684196 0 0 1-50.733749-28.021853 31.5443 31.5443 0 0 1-10.514767-22.711896 27.70641 27.70641 0 0 1 15.193838-24.55198 76.442353 76.442353 0 0 1 40.061261-9.147847 130.172811 130.172811 0 0 1 74.707417 21.765567V189.738964a220.074065 220.074065 0 0 0-78.229864-12.091982 148.836522 148.836522 0 0 0-89.375516 24.55198 80.227669 80.227669 0 0 0-33.804975 68.924295 100.94176 100.94176 0 0 0 74.549695 92.004208A208.244953 208.244953 0 0 1 567.797398 394.303748a34.909025 34.909025 0 0 1 11.093078 24.446833 28.705313 28.705313 0 0 1-13.984639 24.55198 74.181679 74.181679 0 0 1-41.69105 9.568437A133.011798 133.011798 0 0 1 436.362815 420.958682V488.936648z m290.36528-27.233246a146.470699 146.470699 0 0 0 111.08851 44.898054 147.732471 147.732471 0 0 0 113.244036-46.317547 169.708333 169.708333 0 0 0 43.110543-120.656947 165.975591 165.975591 0 0 0-41.585902-116.661336 141.949349 141.949349 0 0 0-109.774163-45.371218 150.04572 150.04572 0 0 0-115.294416 46.948433 171.548417 171.548417 0 0 0-43.636282 121.65585 160.718208 160.718208 0 0 0 42.689953 115.557285z m51.364635-195.784954a75.02286 75.02286 0 0 1 62.668009-29.336199 71.500413 71.500413 0 0 1 60.775351 28.863034 128.490448 128.490448 0 0 1 21.555272 78.545307 119.552897 119.552897 0 0 1-22.186158 75.864041 74.391974 74.391974 0 0 1-62.037123 28.232149 72.867333 72.867333 0 0 1-61.406237-29.493921 121.971293 121.971293 0 0 1-22.396453-75.864041 121.550702 121.550702 0 0 1 23.027339-76.81037zM1330.748864 182.956939h-64.297798v181.327151a302.457262 302.457262 0 0 0 2.05038 43.951724h-1.051477q-2.891561-5.257383-15.77215-25.23544l-129.804794-199.780566h-73.918809v317.861395h64.297797V320.12207a499.188545 499.188545 0 0 0-1.840084-50.733749h1.051477a239.736679 239.736679 0 0 0 15.193838 25.866326l134.746734 205.773983h69.39746V182.956939z" fill="#1A54A0" p-id="83362"></path></svg>