<?xml version="1.0" standalone="no"?><!DOCTYPE svg PUBLIC "-//W3C//DTD SVG 1.1//EN" "http://www.w3.org/Graphics/SVG/1.1/DTD/svg11.dtd"><svg t="1579074171705" class="icon" viewBox="0 0 1024 1024" version="1.1" xmlns="http://www.w3.org/2000/svg" p-id="117066" width="32" height="32" xmlns:xlink="http://www.w3.org/1999/xlink"><defs><style type="text/css"></style></defs><path d="M735.744 194.56c-25.6 20.48-51.2 35.84-81.92 61.44-20.48 20.48-66.56 46.08-66.56 76.8-5.12 51.2 76.8 102.4 35.84 168.96-15.36 25.6-46.08 35.84-76.8 51.2-5.12-5.12 10.24-15.36 15.36-20.48 56.32-76.8-56.32-102.4-40.96-199.68 5.12-92.16 117.76-122.88 215.04-138.24z" fill="#FB1C25" p-id="117067"></path><path d="M397.824 517.12c-25.6 10.24-66.56 15.36-87.04 40.96 20.48 15.36 46.08 15.36 71.68 15.36 102.4 5.12 235.52-5.12 322.56-20.48 5.12 5.12-10.24 15.36-20.48 25.6-56.32 40.96-230.4 51.2-348.16 46.08-40.96-5.12-133.12-15.36-133.12-51.2 0-46.08 112.64-46.08 158.72-51.2 5.12-5.12 20.48-5.12 35.84-5.12z m-56.32 112.64c10.24 0-10.24 10.24-5.12 15.36 40.96 40.96 174.08 30.72 240.64 15.36 15.36-5.12 25.6-10.24 35.84-10.24 25.6 0 40.96 30.72 61.44 35.84-76.8 35.84-220.16 51.2-327.68 30.72-25.6-5.12-76.8-20.48-76.8-40.96 0-30.72 51.2-46.08 71.68-46.08z m35.84 97.28c5.12 0-5.12 5.12 0 10.24 20.48 40.96 133.12 25.6 189.44 10.24 10.24-5.12 20.48-10.24 30.72-10.24 30.72 0 40.96 30.72 66.56 35.84-76.8 46.08-271.36 66.56-348.16 5.12-10.24-35.84 25.6-40.96 61.44-51.2z" fill="#2868C0" p-id="117068"></path><path d="M305.664 803.84c-25.6 5.12-81.92 0-87.04 30.72 0 10.24 20.48 25.6 35.84 30.72 81.92 30.72 240.64 35.84 373.76 20.48 61.44-5.12 179.2-25.6 163.84-92.16 20.48 0 35.84 15.36 35.84 30.72 5.12 66.56-148.48 97.28-209.92 102.4-138.24 15.36-307.2 10.24-414.72-25.6-35.84-10.24-76.8-35.84-71.68-66.56 0-51.2 133.12-66.56 174.08-30.72z" fill="#2868C0" p-id="117069"></path><path d="M515.584 1008.64c-92.16-10.24-179.2-25.6-256-56.32 194.56 46.08 481.28 46.08 619.52-56.32 5.12-5.12 15.36-15.36 25.6-15.36-35.84 102.4-168.96 112.64-281.6 128h-107.52z" fill="#2868C0" p-id="117070"></path><path d="M577.024 25.6c15.36 15.36 30.72 46.08 30.72 76.8 0 97.28-102.4 148.48-148.48 215.04-15.36 20.48-25.6 40.96-25.6 61.44 0 51.2 56.32 112.64 71.68 153.6-35.84-20.48-76.8-51.2-107.52-87.04-25.6-35.84-56.32-92.16-30.72-143.36 40.96-76.8 163.84-117.76 204.8-199.68 10.24-20.48 20.48-51.2 5.12-76.8z" fill="#FB1C25" p-id="117071"></path><path d="M725.504 542.72c51.2-40.96 138.24-25.6 138.24 46.08 5.12 87.04-92.16 133.12-158.72 138.24 30.72-30.72 112.64-76.8 97.28-148.48-5.12-30.72-40.96-46.08-76.8-35.84z" fill="#2868C0" p-id="117072"></path></svg>