<?xml version="1.0" standalone="no"?><!DOCTYPE svg PUBLIC "-//W3C//DTD SVG 1.1//EN" "http://www.w3.org/Graphics/SVG/1.1/DTD/svg11.dtd"><svg t="1579074274602" class="icon" viewBox="0 0 1024 1024" version="1.1" xmlns="http://www.w3.org/2000/svg" p-id="121907" width="32" height="32" xmlns:xlink="http://www.w3.org/1999/xlink"><defs><style type="text/css"></style></defs><path d="M 691.192 460.805 c -70.5465 0 -127.987 -57.4407 -127.987 -127.987 s 57.4407 -127.987 127.987 -127.987 s 127.987 57.4407 127.987 127.987 s -57.4407 127.987 -127.987 127.987 Z M 691.192 256.026 c -42.3382 0 -76.7923 34.4542 -76.7923 76.7923 s 34.4542 76.7923 76.7923 76.7923 s 76.7923 -34.4542 76.7923 -76.7923 s -34.4542 -76.7923 -76.7923 -76.7923 Z M 25.6587 1023.95 c -6.65533 0 -13.2083 -2.61094 -18.123 -7.47445 c -7.0137 -7.0137 -9.36866 -17.5086 -5.93861 -26.8261 c 78.7889 -216.606 161.622 -326.47 246.145 -326.47 c 27.9012 0 53.9594 11.9796 77.5602 35.5292 c 37.2699 37.2699 38.6009 74.3862 33.1743 98.9597 c -17.0991 77.2019 -126.144 152.817 -324.064 224.797 c -2.86691 1.0239 -5.83622 1.53585 -8.75432 1.53585 Z M 247.793 714.322 c -25.3415 0 -55.1881 22.2186 -86.2634 64.2496 c -30.5633 41.3143 -61.2803 100.188 -91.5364 175.445 c 68.3452 -27.4917 123.277 -55.3929 163.772 -83.1917 c 54.6249 -37.5258 70.8025 -66.5533 74.7445 -84.2668 s -2.40616 -34.6589 -19.4029 -51.6556 c -13.8226 -13.8226 -27.3381 -20.5291 -41.3655 -20.5291 Z M 998.361 0.051195 c -132.851 0 -251.213 22.5257 -351.914 66.9629 c -82.9869 36.6555 -154.045 88.0552 -211.23 152.868 c -10.6485 12.082 -20.5291 24.3176 -29.693 36.6043 c -44.13 2.91811 -89.2839 20.478 -134.335 52.2188 c -38.1402 26.8261 -76.434 63.9936 -113.909 110.427 c -62.9697 78.021 -101.673 154.967 -103.311 158.192 c -5.58024 11.2117 -2.25257 24.8295 7.88401 32.1504 c 4.50515 3.27647 9.77822 4.86351 15.0001 4.86351 c 6.55295 0 13.1059 -2.50855 18.0718 -7.42326 c 0.255974 -0.255974 24.7271 -24.3176 66.451 -47.9184 c 34.403 -19.4541 87.4409 -42.3382 151.588 -46.3826 c 16.2288 41.519 62.6625 91.1781 84.9323 113.448 s 71.9288 68.7035 113.448 84.9323 c -4.0444 64.1472 -26.9285 117.185 -46.3826 151.588 c -23.652 41.775 -47.6624 66.195 -47.8672 66.3998 c -8.85671 8.85671 -9.983 22.8841 -2.66213 33.0719 c 4.9659 6.86011 12.7475 10.6485 20.7851 10.6485 c 3.89081 0 7.78162 -0.870313 11.4165 -2.71333 c 3.22528 -1.63824 80.1712 -40.3416 158.192 -103.311 c 46.4338 -37.4747 83.6012 -75.7684 110.427 -113.909 c 31.7408 -45.1027 49.2495 -90.2054 52.2188 -134.335 c 12.2356 -9.11269 24.4712 -18.9933 36.6043 -29.693 c 64.8127 -57.1847 116.212 -128.243 152.868 -211.23 c 44.4372 -100.649 66.9629 -219.063 66.9629 -351.914 l 0 -25.5974 l -25.5974 0 Z M 159.124 502.171 c 48.7887 -70.8025 123.38 -158.602 207.442 -186.196 c -33.2255 58.2086 -50.427 111.656 -56.6215 145.547 c -59.3349 3.63484 -110.479 20.8875 -150.82 40.6487 Z M 521.891 864.733 c 19.7612 -40.3416 37.0139 -91.4341 40.5975 -150.718 c 33.8398 -6.19458 87.3385 -23.3961 145.496 -56.5703 c -27.6452 83.9084 -115.393 158.499 -186.145 207.288 Z M 770.237 550.396 c -106.485 93.9426 -216.759 115.188 -232.63 115.188 c -0.10239 0 -10.5973 -0.20478 -38.8569 -20.1196 c -19.71 -13.8738 -42.6965 -33.635 -64.6079 -55.5464 s -41.6726 -44.8979 -55.5464 -64.6079 c -19.9148 -28.2596 -20.1196 -38.7545 -20.1196 -38.8569 c 0 -15.8704 21.2459 -126.144 115.188 -232.63 c 112.424 -127.373 284.49 -197.049 498.843 -202.22 c -5.17068 214.353 -74.7957 386.419 -202.22 498.843 Z" fill="#13227a" p-id="121908"></path></svg>