<?xml version="1.0" standalone="no"?><!DOCTYPE svg PUBLIC "-//W3C//DTD SVG 1.1//EN" "http://www.w3.org/Graphics/SVG/1.1/DTD/svg11.dtd"><svg t="1579070058449" class="icon" viewBox="0 0 1024 1024" version="1.1" xmlns="http://www.w3.org/2000/svg" p-id="17489" width="32" height="32" xmlns:xlink="http://www.w3.org/1999/xlink"><defs><style type="text/css"></style></defs><path d="M808.448 236.032H206.336c-24.576 0-44.544 19.968-44.544 44.544v316.928c0 24.576 19.968 44.544 44.544 44.544h602.112c24.576 0 44.544-19.968 44.544-44.544V280.576c0-24.576-19.968-44.544-44.544-44.544z m-498.176 292.864H207.36v-174.08h37.888v141.312h65.024v32.768z m16.384 0V403.456h35.328v124.928h-35.328z m35.328-149.504c-2.56 2.56-8.192 5.632-16.384 5.632-5.632 0-10.752-2.56-13.824-5.632-5.632-5.632-8.192-8.192-8.192-13.824s2.56-10.752 5.632-13.824c2.56-2.56 10.752-5.632 16.384-5.632s10.752 2.56 16.384 5.632c2.56 2.56 5.632 8.192 5.632 13.824s-3.072 8.192-5.632 13.824z m149.504 149.504H476.16V458.24c0-18.944-8.192-29.696-21.504-29.696-8.192 0-13.824 2.56-16.384 8.192-5.632 5.632-5.632 10.752-5.632 18.944v70.656h-37.888v-122.88H430.08v18.944c8.192-16.384 21.504-21.504 40.96-21.504 27.136 0 40.96 16.384 40.96 51.712v76.288z m111.104 0v-18.944c-8.192 13.824-21.504 21.504-37.888 21.504-29.696 0-43.52-16.384-43.52-51.712V403.456h35.328v70.656c0 18.944 8.192 27.136 21.504 27.136 8.192 0 13.824-2.56 16.384-8.192 5.632-5.632 5.632-10.752 5.632-21.504V403.456h35.328v124.928h-32.768z m144.384-65.536l40.96 65.024h-40.96l-18.944-32.768c-2.56-5.632-5.632-8.192-5.632-10.752 0 2.56-2.56 8.192-5.632 10.752l-18.944 35.328h-40.96l40.96-62.464-40.96-65.024h40.96l18.944 35.328c2.56 2.56 2.56 8.192 5.632 10.752 0-2.56 2.56-5.632 5.632-10.752l18.944-35.328h40.96l-40.96 59.904z" fill="#333333" p-id="17490"></path><path d="M893.952 141.824h-773.12c-33.792 0-61.44 27.648-61.44 61.44v471.04c0 33.792 27.648 61.44 61.44 61.44h372.224v132.096H309.76c-16.384 0-29.696 13.312-29.696 29.696s13.312 29.696 29.696 29.696h430.08c16.384 0 29.696-13.312 29.696-29.696s-13.312-29.696-29.696-29.696h-183.296v-132.096h336.896c33.792 0 61.44-27.648 61.44-61.44v-471.04c0.512-33.792-27.136-61.44-60.928-61.44z m10.752 497.152c0 29.184-24.064 53.248-53.248 53.248H163.328c-29.184 0-53.248-24.064-53.248-53.248V239.104c0-29.184 24.064-53.248 53.248-53.248h687.616c29.184 0 53.248 24.064 53.248 53.248v399.872z" fill="#333333" p-id="17491"></path></svg>