<?xml version="1.0" standalone="no"?><!DOCTYPE svg PUBLIC "-//W3C//DTD SVG 1.1//EN" "http://www.w3.org/Graphics/SVG/1.1/DTD/svg11.dtd"><svg t="1579070862602" class="icon" viewBox="0 0 1365 1024" version="1.1" xmlns="http://www.w3.org/2000/svg" p-id="41928" width="42.65625" height="32" xmlns:xlink="http://www.w3.org/1999/xlink"><defs><style type="text/css"></style></defs><path d="M1298.0224 830.805333H66.56C29.7984 830.805333 0 801.621333 0 765.610667V65.194667C0 29.184 29.764267 0 66.56 0h1231.530667c36.727467 0 66.491733 29.184 66.491733 65.194667v700.416c0 35.976533-29.764267 65.194667-66.56 65.194666z m-15.428267-750.148266H81.783467V754.688h1200.878933V80.657067h-0.068267zM433.425067 974.779733c122.88 0 112.264533-117.418667 112.264533-117.418666l112.196267 0.341333v-0.2048l158.9248-0.6144s-9.898667 117.794133 103.901866 117.794133c36.078933 0 40.209067 49.322667 0.682667 49.322667H432.64c-42.666667 0-38.229333-49.220267 0.785067-49.220267zM897.160533 517.461333c-0.682667 2.048-11.025067 38.775467-36.420266 76.561067-22.016 32.5632-44.7488 65.399467-80.6912 65.979733-35.328 0.6144-46.626133-21.469867-86.971734-21.469866-40.277333 0-52.9408 20.8896-86.357333 22.084266-34.474667 1.4336-61.064533-35.566933-83.1488-67.9936-45.124267-66.389333-79.872-188.177067-33.28-269.755733 22.9376-40.8576 64.170667-66.798933 109.021867-67.515733 33.826133-0.648533 66.013867 23.313067 86.562133 23.313066 21.0944 0 60.0064-29.013333 101.102933-24.644266 17.169067 0.750933 65.262933 7.304533 96.256 53.009066-2.423467 1.706667-57.5488 34.816-56.9344 102.161067 0.853333 81.339733 70.109867 107.997867 70.8608 108.270933z m-137.079466-306.9952c-18.432 22.1184-48.605867 39.594667-77.994667 37.7856-4.164267-31.0272 10.752-63.146667 27.682133-83.0464 19.1488-22.869333 51.370667-39.697067 77.824-40.7552 3.1744 31.402667-8.977067 63.010133-27.511466 86.016z" fill="#ebc21c" p-id="41929"></path></svg>