<?xml version="1.0" standalone="no"?><!DOCTYPE svg PUBLIC "-//W3C//DTD SVG 1.1//EN" "http://www.w3.org/Graphics/SVG/1.1/DTD/svg11.dtd"><svg t="1579071879800" class="icon" viewBox="0 0 1024 1024" version="1.1" xmlns="http://www.w3.org/2000/svg" p-id="54046" xmlns:xlink="http://www.w3.org/1999/xlink" width="32" height="32"><defs><style type="text/css"></style></defs><path d="M896 512c0-86.656-28.672-166.656-86.016-240v480C867.328 681.344 896 601.344 896 512z m-144 297.984H272c29.354667 24.021333 67.328 44.373333 114.005333 61.013333 46.677333 16.64 88.661333 25.002667 125.994667 25.002667s79.36-8.32 125.994667-25.002667c46.677333-16.64 84.693333-36.992 114.005333-61.013333z m-282.026667-83.968L298.069333 384v342.016h171.946667z m256-342.016l-171.946666 342.016h171.946666V384zM512 619.989333l160-322.005333h-320L512 619.989333z m240-405.973333C681.344 156.672 601.344 128 512 128s-169.344 28.672-240 86.016h480zM213.973333 752V272C156.714667 345.344 128 425.344 128 512c0 89.344 28.672 169.344 86.016 240z m768-240c0 129.322667-45.994667 240-137.984 331.989333-91.989333 92.032-202.666667 138.026667-331.989333 138.026667-129.322667 0-240-45.994667-331.989333-138.026667C87.978667 752 41.984 641.322667 41.984 512c0-129.322667 46.037333-240 138.026667-331.989333C272 87.978667 382.677333 41.984 512 41.984c129.322667 0 240 46.037333 331.989333 138.026667 92.032 91.989333 138.026667 202.666667 138.026667 331.989333z" p-id="54047" fill="#62ec3c"></path></svg>