<?xml version="1.0" standalone="no"?><!DOCTYPE svg PUBLIC "-//W3C//DTD SVG 1.1//EN" "http://www.w3.org/Graphics/SVG/1.1/DTD/svg11.dtd"><svg t="1579072057748" class="icon" viewBox="0 0 1024 1024" version="1.1" xmlns="http://www.w3.org/2000/svg" p-id="61169" width="32" height="32" xmlns:xlink="http://www.w3.org/1999/xlink"><defs><style type="text/css"></style></defs><path d="M854.4 204.8c-3.2-9.6-9.6-16-19.2-19.2-134.4-32-284.8 6.4-390.4 112-16 16-28.8 32-41.6 48-3.2 6.4-9.6 9.6-12.8 9.6-54.4 12.8-108.8 41.6-153.6 86.4-19.2 19.2-38.4 41.6-51.2 67.2-12.8 19.2 9.6 44.8 32 35.2 35.2-12.8 73.6-19.2 112-19.2 0 3.2 0 6.4-3.2 9.6 28.8 32 54.4 64 86.4 92.8 28.8 28.8 60.8 57.6 92.8 86.4 3.2 0 6.4 0 9.6-3.2 0 38.4-6.4 76.8-19.2 112-9.6 22.4 16 41.6 35.2 32 22.4-12.8 44.8-32 67.2-51.2 44.8-44.8 73.6-96 86.4-153.6 0-6.4 3.2-9.6 9.6-12.8 16-12.8 32-25.6 48-41.6 105.6-105.6 144-252.8 112-390.4z m-169.6 272c-32 32-86.4 32-118.4 0s-32-86.4 0-118.4 86.4-32 118.4 0 32 86.4 0 118.4z" fill="#98D75A" p-id="61170"></path><path d="M268.8 659.2c-25.6 25.6-134.4 185.6-102.4 214.4 32 32 188.8-76.8 214.4-102.4 25.6-25.6 22.4-70.4-9.6-102.4s-76.8-35.2-102.4-9.6z" fill="#98D75A" p-id="61171"></path></svg>