<?xml version="1.0" standalone="no"?><!DOCTYPE svg PUBLIC "-//W3C//DTD SVG 1.1//EN" "http://www.w3.org/Graphics/SVG/1.1/DTD/svg11.dtd"><svg t="1579071997563" class="icon" viewBox="0 0 1024 1024" version="1.1" xmlns="http://www.w3.org/2000/svg" p-id="58958" width="32" height="32" xmlns:xlink="http://www.w3.org/1999/xlink"><defs><style type="text/css"></style></defs><path d="M507.834 954.199c-22.864 0-44.029-10.53-56.621-28.17l-5.09-7.138a2.138 2.138 0 0 0-1.735-0.892h-245.47c-16.048 0-29.109-11.707-29.109-26.094s13.057-26.091 29.109-26.091h245.438c0.686 0 1.328-0.331 1.727-0.889l5.095-7.097c4.947-6.889 11.207-12.751 18.606-17.422l7.939-5.01c0.619-0.39 0.993-1.07 0.993-1.799v-76.374a2.126 2.126 0 0 0-2.129-2.129H131.341c-32.019 0-58.071-23.883-58.071-53.244V176.938c0-29.359 26.051-53.244 58.071-53.244h772.276c32.021 0 58.075 23.883 58.075 53.244V701.85c0 29.359-26.051 53.244-58.075 53.244h-364.55a2.126 2.126 0 0 0-2.129 2.129v76.374c0 0.73 0.374 1.41 0.993 1.799l7.939 5.01c7.399 4.667 13.664 10.533 18.606 17.422l5.095 7.097a2.129 2.129 0 0 0 1.727 0.889h264.745c16.048 0 29.109 11.706 29.109 26.091 0 14.389-13.057 26.094-29.109 26.094H571.276c-0.687 0-1.332 0.332-1.73 0.892l-5.095 7.131c-12.609 17.647-33.775 28.178-56.626 28.178z m-314.703-488.71c-33.985 0-61.635 26.458-61.635 58.981v119.455c0 32.522 27.649 58.985 61.635 58.985h648.707c33.986 0 61.639-26.463 61.639-58.985V524.47c0-32.522-27.649-58.981-61.639-58.981H193.131z m0-289.601c-33.985 0-61.635 26.458-61.635 58.981v119.454c0 32.522 27.649 58.981 61.635 58.981h648.707c33.986 0 61.639-26.463 61.639-58.981V234.869c0-32.522-27.649-58.981-61.639-58.981H193.131zM778.13 610.29c-16.048 0-29.109-11.707-29.109-26.094 0-14.386 13.057-26.091 29.109-26.091 16.053 0 29.11 11.707 29.11 26.091 0 14.389-13.057 26.094-29.11 26.094z m0-289.604c-16.048 0-29.109-11.707-29.109-26.094s13.057-26.094 29.109-26.094c16.053 0 29.11 11.707 29.11 26.094 0 14.389-13.057 26.094-29.11 26.094z" p-id="58959" fill="#83c6c2"></path></svg>