<?xml version="1.0" standalone="no"?><!DOCTYPE svg PUBLIC "-//W3C//DTD SVG 1.1//EN" "http://www.w3.org/Graphics/SVG/1.1/DTD/svg11.dtd"><svg t="1579070701283" class="icon" viewBox="0 0 1024 1024" version="1.1" xmlns="http://www.w3.org/2000/svg" p-id="35503" width="32" height="32" xmlns:xlink="http://www.w3.org/1999/xlink"><defs><style type="text/css"></style></defs><path d="M510.919111 199.111111L227.555556 362.666667v327.111111L510.919111 853.333333l283.363556-163.555555v-327.111111L510.919111 199.111111z m163.555556 452.238222c0 19.2-17.607111 35.157333-41.699556 35.157334-17.180444 0-36.807111-6.940444-49.066667-22.072889l-163.555555-194.645334v181.532445c0 19.626667-15.559111 35.157333-34.759111 35.157333h-2.048c-19.626667 0-35.157333-16.355556-35.157334-35.157333v-250.225778c0-19.2 17.152-35.157333 40.874667-35.157333 17.607111 0 37.632 6.940444 49.891556 22.072889l162.730666 194.645333v-181.560889c0-19.626667 16.355556-35.157333 35.157334-35.157333h2.048c19.626667 0 35.185778 16.355556 35.185777 35.157333V651.377778h0.398223z" fill="#4ABC99" p-id="35504"></path></svg>