<?xml version="1.0" standalone="no"?><!DOCTYPE svg PUBLIC "-//W3C//DTD SVG 1.1//EN" "http://www.w3.org/Graphics/SVG/1.1/DTD/svg11.dtd"><svg t="1579068610031" class="icon" viewBox="0 0 1024 1024" version="1.1" xmlns="http://www.w3.org/2000/svg" p-id="11564" width="32" height="32" xmlns:xlink="http://www.w3.org/1999/xlink"><defs><style type="text/css"></style></defs><path d="M630.101333 531.797333a23.552 23.552 0 0 0-12.458666 3.072 25.258667 25.258667 0 0 0-8.021334 7.68 31.402667 31.402667 0 0 0-4.266666 9.728 49.493333 49.493333 0 0 0-1.536 9.216h51.2a47.616 47.616 0 0 0-7.850667-22.016 19.968 19.968 0 0 0-17.066667-7.68zM517.973333 546.133333a29.354667 29.354667 0 0 0-8.362666-9.728 20.992 20.992 0 0 0-12.8-3.754666 22.016 22.016 0 0 0-13.141334 3.754666 27.306667 27.306667 0 0 0-8.533333 10.069334 48.64 48.64 0 0 0-4.608 14.165333 89.770667 89.770667 0 0 0 0 32.768 47.616 47.616 0 0 0 4.949333 14.336 30.549333 30.549333 0 0 0 8.533334 10.24 20.138667 20.138667 0 0 0 12.458666 3.925333 21.333333 21.333333 0 0 0 12.970667-3.754666 26.965333 26.965333 0 0 0 8.362667-10.069334 51.2 51.2 0 0 0 4.437333-14.336 98.986667 98.986667 0 0 0 1.365333-17.066666 105.130667 105.130667 0 0 0-1.365333-17.066667 46.08 46.08 0 0 0-4.266667-13.482667zM384.853333 546.133333a28.501333 28.501333 0 0 0-8.533333-10.069333 22.186667 22.186667 0 0 0-13.312-3.925333 21.845333 21.845333 0 0 0-13.312 3.925333A29.184 29.184 0 0 0 341.333333 546.133333a45.909333 45.909333 0 0 0-4.608 14.336 97.109333 97.109333 0 0 0-1.365333 17.066667 86.698667 86.698667 0 0 0 1.365333 17.066667 49.834667 49.834667 0 0 0 4.608 14.336 27.477333 27.477333 0 0 0 8.533334 10.069333 22.357333 22.357333 0 0 0 13.312 3.754667 22.869333 22.869333 0 0 0 13.312-3.754667 26.965333 26.965333 0 0 0 8.533333-10.069333 47.445333 47.445333 0 0 0 4.608-14.336 94.72 94.72 0 0 0 1.365333-17.066667 106.666667 106.666667 0 0 0-1.365333-17.066667 48.810667 48.810667 0 0 0-4.778667-14.336z" fill="#62ec3c" p-id="11565"></path><path d="M944.469333 386.901333a57.856 57.856 0 0 0-39.936-15.530666h-23.381333v-108.714667a12.117333 12.117333 0 0 0 0-2.048 17.066667 17.066667 0 0 0-4.608-11.946667L685.909333 41.813333a17.066667 17.066667 0 0 0-5.12-3.754666l-3.754666-1.536h-1.024a17.92 17.92 0 0 0-4.437334 0H202.752a37.888 37.888 0 0 0-38.912 35.84v299.008H140.117333a56.832 56.832 0 0 0-39.253333 15.36 51.2 51.2 0 0 0-17.066667 37.205333v273.066667A54.101333 54.101333 0 0 0 140.117333 750.933333h23.893334v187.733334a37.888 37.888 0 0 0 38.741333 36.864h639.829333A37.888 37.888 0 0 0 881.322667 938.666667V750.933333H904.533333a54.101333 54.101333 0 0 0 55.466667-52.565333v-273.066667a51.2 51.2 0 0 0-15.530667-38.4zM202.752 72.362667h449.024v187.733333a18.090667 18.090667 0 0 0 5.802667 13.141333 19.968 19.968 0 0 0 13.653333 5.290667h170.666667v92.330667H202.752z m409.6 540.330666a25.088 25.088 0 0 0 20.309333 8.362667A24.576 24.576 0 0 0 648.533333 614.4a23.552 23.552 0 0 0 8.362667-12.288h27.477333a65.194667 65.194667 0 0 1-20.309333 35.84 52.053333 52.053333 0 0 1-33.28 10.752 55.808 55.808 0 0 1-24.405333-5.290667 51.2 51.2 0 0 1-18.432-15.018666 70.656 70.656 0 0 1-11.605334-23.210667 100.181333 100.181333 0 0 1-4.096-29.696 95.744 95.744 0 0 1 4.266667-29.013333 69.802667 69.802667 0 0 1 11.946667-23.210667 58.197333 58.197333 0 0 1 18.432-15.530667 51.2 51.2 0 0 1 23.893333-5.632 46.421333 46.421333 0 0 1 25.429333 6.826667 55.978667 55.978667 0 0 1 17.066667 18.432 85.333333 85.333333 0 0 1 10.069333 26.282667 120.490667 120.490667 0 0 1 2.218667 30.890666h-81.749333a43.690667 43.690667 0 0 0 7.68 27.989334z m61.610667 47.616a54.613333 54.613333 0 0 0 20.650666 3.754667c20.821333 0 34.133333-10.410667 34.133334-52.565333v-157.354667h31.573333v158.378667c0 62.464-26.112 81.92-62.464 81.92a78.848 78.848 0 0 1-27.136-4.608zM523.946667 628.053333a35.328 35.328 0 0 1-14.506667 17.066667 41.813333 41.813333 0 0 1-20.309333 4.949333 42.325333 42.325333 0 0 1-22.698667-6.144 48.64 48.64 0 0 1-16.042667-17.066666 81.92 81.92 0 0 1-9.557333-23.893334 119.466667 119.466667 0 0 1-3.242667-27.989333 111.616 111.616 0 0 1 3.242667-26.965333 76.629333 76.629333 0 0 1 9.557333-23.04 51.2 51.2 0 0 1 15.872-16.042667 40.789333 40.789333 0 0 1 22.186667-6.144 39.082667 39.082667 0 0 1 19.456 5.290667 36.522667 36.522667 0 0 1 14.506667 15.530666v-69.973333h31.402666v192.170667h-29.525333v-17.066667z m-102.4-51.2a99.669333 99.669333 0 0 1-4.266667 30.208 66.56 66.56 0 0 1-11.946667 23.04 51.2 51.2 0 0 1-18.773333 14.677334 57.856 57.856 0 0 1-24.405333 5.12 55.808 55.808 0 0 1-24.405334-5.12 52.224 52.224 0 0 1-18.602666-14.677334 69.290667 69.290667 0 0 1-11.946667-23.04 102.4 102.4 0 0 1-4.266667-30.208A103.253333 103.253333 0 0 1 307.2 546.133333a66.730667 66.730667 0 0 1 11.946667-23.210666 53.418667 53.418667 0 0 1 18.602666-14.677334 55.808 55.808 0 0 1 24.405334-5.290666 56.490667 56.490667 0 0 1 24.405333 5.290666 53.077333 53.077333 0 0 1 18.773333 14.677334 69.461333 69.461333 0 0 1 11.946667 23.210666 103.424 103.424 0 0 1 4.949333 30.378667z m-242.517334-59.562666v128.682666H146.432V453.802667h34.133333l66.048 128.853333v-128.853333h33.28v192.170666h-34.133333l-65.706667-128.682666z m663.552 410.624H202.752V750.933333h639.829333z m-2.048-233.472a91.648 91.648 0 0 1-50.176-14.336l7.168-30.037334a82.602667 82.602667 0 0 0 45.056 13.994667 34.133333 34.133333 0 0 0 38.570667-35.84c0-20.138667-10.581333-32.426667-35.328-44.202667-31.061333-14.165333-51.2-35.498667-51.2-68.266666a63.658667 63.658667 0 0 1 68.266667-65.536A87.381333 87.381333 0 0 1 904.533333 460.8l-7.68 29.696a69.973333 69.973333 0 0 0-37.034666-10.410667A31.573333 31.573333 0 0 0 825.514667 512c0 20.138667 11.605333 30.037333 38.058666 43.008 34.133333 17.066667 49.322667 37.546667 49.322667 69.973333a66.389333 66.389333 0 0 1-72.362667 69.461334z" fill="#62ec3c" p-id="11566"></path></svg>