<?xml version="1.0" standalone="no"?><!DOCTYPE svg PUBLIC "-//W3C//DTD SVG 1.1//EN" "http://www.w3.org/Graphics/SVG/1.1/DTD/svg11.dtd"><svg t="1579072392470" class="icon" viewBox="0 0 1024 1024" version="1.1" xmlns="http://www.w3.org/2000/svg" p-id="65716" xmlns:xlink="http://www.w3.org/1999/xlink" width="32" height="32"><defs><style type="text/css"></style></defs><path d="M192.400808 808.791919c-3.167677-1.874747-6.839596-2.818586-11.002828-2.818586s-7.835152 0.930909-11.002828 2.818586c-3.167677 1.874747-5.624242 4.538182-7.356768 7.990303-1.732525 3.452121-2.598788 7.447273-2.598788 11.985455v29.582222c0 4.538182 0.866263 8.533333 2.598788 11.985455 1.732525 3.452121 4.189091 6.115556 7.356768 7.990303 3.167677 1.874747 6.839596 2.818586 11.002828 2.818585s7.835152-0.930909 11.002828-2.818585c3.167677-1.874747 5.624242-4.538182 7.356768-7.990303 1.732525-3.452121 2.598788-7.447273 2.598788-11.985455V828.767677c0-4.538182-0.866263-8.533333-2.598788-11.985455-1.719596-3.452121-4.176162-6.115556-7.356768-7.990303z m191.043232 24.888889c-5.365657 0-9.528889 1.758384-12.463838 5.275152-2.689293 3.219394-4.137374 7.68-4.357172 13.330101h31.896566c-0.413737-5.882828-1.939394-10.446869-4.551111-13.71798-2.624646-3.245253-6.128485-4.887273-10.524445-4.887273z m-116.273131 0c-3.012525 0-5.572525 0.55596-7.68 1.667879-2.107475 1.111919-3.710707 2.74101-4.822626 4.900202-1.111919 2.159192-1.667879 4.732121-1.667879 7.744646v19.652526c0 3.10303 0.55596 5.740606 1.667879 7.912727 1.111919 2.172121 2.715152 3.84 4.822626 5.003636 2.107475 1.163636 4.667475 1.732525 7.68 1.732525 4.680404 0 8.300606-1.422222 10.873535-4.266666 2.572929-2.844444 3.852929-6.865455 3.85293-12.050101V850.359596c0-5.275152-1.28-9.373737-3.85293-12.295758s-6.193131-4.38303-10.873535-4.38303z m417.292929 0c-5.365657 0-9.528889 1.758384-12.463838 5.275152-2.689293 3.219394-4.137374 7.68-4.357172 13.330101h31.896566c-0.413737-5.882828-1.939394-10.446869-4.551111-13.71798-2.611717-3.245253-6.128485-4.887273-10.524445-4.887273zM415.961212 297.373737l-126.086465 128.051718 126.086465 128.051717 28.030707-28.444445-98.055757-99.607272L443.991919 325.818182l-28.030707-28.444445zM694.820202 49.131313H140.929293v926.564849h741.313939V230.141414L694.820202 49.131313zM165.753535 73.955556h510.862223v171.080404h180.699798V708.008081H165.753535V73.955556z m51.135354 783.90303c0 7.408485-1.473939 13.924848-4.408889 19.549091-2.934949 5.624242-7.098182 9.981414-12.463838 13.058586s-11.571717 4.615758-18.605253 4.615757c-7.033535 0-13.239596-1.538586-18.605252-4.615757s-9.528889-7.434343-12.463839-13.058586c-2.934949-5.624242-4.408889-12.140606-4.408889-19.549091v-28.612525c0-7.408485 1.473939-13.924848 4.408889-19.549091 2.934949-5.624242 7.098182-9.981414 12.463839-13.058586s11.571717-4.615758 18.605252-4.615758c7.033535 0 13.239596 1.538586 18.605253 4.615758s9.528889 7.434343 12.463838 13.058586c2.934949 5.624242 4.408889 12.140606 4.408889 19.549091v28.612525z m79.17899 8.119596c0 6.115556-0.969697 11.33899-2.92202 15.696161-1.939394 4.357172-4.796768 7.68-8.546263 9.968485-3.749495 2.288485-8.23596 3.439192-13.472323 3.439192-4.486465 0-8.40404-1.073131-11.739798-3.232323-2.715152-1.758384-4.835556-4.111515-6.387071-7.059394v9.244444H238.842828v-100.977777h14.170505v38.542222c1.939394-3.012525 4.305455-5.443232 7.085253-7.253333 3.516768-2.288485 7.434343-3.439192 11.739798-3.439192 5.094141 0 9.451313 1.150707 13.084444 3.439192 3.633131 2.288485 6.4 5.637172 8.300606 10.033131 1.900606 4.39596 2.844444 9.69697 2.844445 15.90303v15.696162z m37.016565 38.270707c0 6.063838-1.473939 10.770101-4.408888 14.092929-2.934949 3.335758-7.098182 5.003636-12.463839 5.003637h-9.309091v-13.472324h7.912728c1.292929 0 2.301414-0.478384 3.025454-1.422222 0.711111-0.943838 1.073131-2.301414 1.073131-4.059798v-82.424242h14.170505v82.28202z m0.142223-97.021414h-14.442021v-14.170505h14.442021v14.170505z m78.765252 56.462222h-45.394747c0.103434 5.66303 1.667879 10.046061 4.706262 13.123232 3.141818 3.193535 7.615354 4.796768 13.407677 4.796768 2.870303 0 5.714747-0.581818 8.546263-1.732525a24.449293 24.449293 0 0 0 7.563636-4.861414l9.309091 9.30909c-3.568485 3.426263-7.563636 6.076768-12.011313 7.951516-4.447677 1.874747-8.908283 2.805657-13.407677 2.805656h-9.994343s-2.366061-1.254141-7.085253-3.749495-8.326465-6.167273-10.795959-11.002828c-2.482424-4.835556-3.710707-10.679596-3.710708-17.532121v-8.119596c0-7.12404 1.189495-13.213737 3.581415-18.269091 2.37899-5.042424 5.84404-8.895354 10.382222-11.532929s9.994343-3.956364 16.394343-3.956364c6.012121 0 11.15798 1.499798 15.411717 4.512323 4.253737 3.012525 7.511919 7.356768 9.761617 13.058586 2.249697 5.688889 3.374545 12.528485 3.374545 20.48v4.719192z m36.421818 13.265455c2.986667 3.10303 7.227475 4.654545 12.748283 4.654545 3.012525 0 5.882828-0.672323 8.610909-2.01697 2.728081-1.344646 5.094141-3.245253 7.085253-5.688889l10.214141 9.865051a25.276768 25.276768 0 0 1-6.671515 6.141414c-2.637576 1.693737-5.611313 2.973737-8.921212 3.852929-3.309899 0.879192-6.813737 1.318788-10.524444 1.318788h-9.865051l-6.981818-3.684848c-4.654545-2.456566-8.210101-6.012121-10.666667-10.692526-2.456566-4.680404-3.684848-10.317576-3.684848-16.950303v-11.86909c0-6.529293 1.228283-12.101818 3.684848-16.730506 2.456566-4.628687 6.012121-8.158384 10.666667-10.58909 4.654545-2.430707 10.265859-3.646061 16.833939-3.646061 3.749495 0 7.279192 0.452525 10.589091 1.357576 3.309899 0.905051 6.283636 2.210909 8.921212 3.917575 2.637576 1.719596 4.835556 3.801212 6.59394 6.244849l-10.214142 9.166869c-2.042828-2.314343-4.421818-4.098586-7.149899-5.352728-2.728081-1.254141-5.585455-1.874747-8.546262-1.874747-5.469091 0-9.69697 1.525657-12.709495 4.57697-3.012525 3.051313-4.512323 7.356768-4.512324 12.916363v11.869091c0.025859 5.714747 1.512727 10.110707 4.499394 13.213738z m81.648485-42.227071h-10.899394v40.688485c0 1.758384 0.349091 3.11596 1.047273 4.059798s1.706667 1.422222 3.051313 1.422222h6.800808v13.472323h-8.197171c-5.831111 0-10.097778-1.603232-12.81293-4.822626-2.702222-3.219394-4.059798-7.977374-4.059798-14.27394V834.715152h-7.434343v-12.774142h7.434343V800.969697h14.170505v20.971313h10.899394v12.787071z m34.042829 59.306666h-14.170506v-72.080808h14.170506v72.080808z m0-86.807272h-14.170506v-14.170505h14.170506v14.170505z m52.092121 86.807272h-10.692526l-27.086868-72.080808h14.791111l17.635555 51.458586 17.635556-51.458586h14.791111l-27.073939 72.080808z m96.814545-30.34505h-45.394747c0.103434 5.66303 1.667879 10.046061 4.706262 13.123232 3.141818 3.193535 7.615354 4.796768 13.407677 4.796768 2.870303 0 5.714747-0.581818 8.546263-1.732525a24.449293 24.449293 0 0 0 7.563636-4.861414l9.309091 9.30909c-3.568485 3.426263-7.563636 6.076768-12.011313 7.951516-4.447677 1.874747-8.908283 2.805657-13.407677 2.805656h-9.994343s-2.366061-1.254141-7.085253-3.749495-8.326465-6.167273-10.795959-11.002828c-2.482424-4.835556-3.710707-10.679596-3.710708-17.532121v-8.119596c0-7.12404 1.189495-13.213737 3.581415-18.269091 2.37899-5.042424 5.84404-8.895354 10.382222-11.532929s9.994343-3.956364 16.394343-3.956364c6.012121 0 11.15798 1.499798 15.411717 4.512323 4.253737 3.012525 7.511919 7.356768 9.761617 13.058586 2.249697 5.688889 3.374545 12.528485 3.374545 20.48v4.719192z m66.534142 0.90505h-46.661819v-13.472323h46.661819v13.472323z m38.348282 5.339798c1.706667 3.607273 4.124444 6.4 7.227475 8.365253 3.10303 1.965253 6.710303 2.947879 10.834748 2.947879 3.012525 0 5.895758-0.620606 8.649697-1.874748 2.753939-1.254141 5.158788-3.10303 7.227474-5.559596 2.055758-2.456566 3.529697-5.365657 4.408889-8.753131h14.519596c-1.163636 5.973333-3.374545 11.222626-6.671515 15.760808-3.28404 4.538182-7.356768 8.04202-12.218182 10.524445-4.861414 2.482424-10.162424 3.710707-15.90303 3.710707h-10.485657l-7.951515-4.654546c-5.30101-3.10303-9.412525-7.49899-12.321616-13.200808s-4.370101-12.295758-4.370101-19.794747v-27.707475c0-7.49899 1.46101-14.092929 4.370101-19.794748s7.020606-10.110707 12.321616-13.226666c5.30101-3.128889 11.442424-4.693333 18.437172-4.693334 5.792323 0 11.106263 1.241212 15.967677 3.710707 4.861414 2.482424 8.921212 5.986263 12.192323 10.524445 3.271111 4.538182 5.469091 9.787475 6.632727 15.760808h-14.519596c-0.879192-3.141818-2.353131-5.960404-4.408889-8.442828s-4.473535-4.38303-7.253333-5.727677c-2.779798-1.344646-5.650101-2.01697-8.610909-2.01697-4.124444 0-7.731717 0.995556-10.834748 2.986667-3.10303 1.991111-5.507879 4.783838-7.227474 8.365252-1.719596 3.594343-2.572929 7.770505-2.57293 12.541415v27.707474c-0.012929 4.770909 0.840404 8.934141 2.56 12.541414zM587.662222 325.818182l98.055758 99.607273-98.055758 99.607272 28.030707 28.444445 126.086465-128.051717L615.692929 297.373737l-28.030707 28.444445z" p-id="65717" fill="#6fd220"></path></svg>