<?xml version="1.0" standalone="no"?><!DOCTYPE svg PUBLIC "-//W3C//DTD SVG 1.1//EN" "http://www.w3.org/Graphics/SVG/1.1/DTD/svg11.dtd"><svg t="1579070953090" class="icon" viewBox="0 0 1024 1024" version="1.1" xmlns="http://www.w3.org/2000/svg" p-id="45554" width="32" height="32" xmlns:xlink="http://www.w3.org/1999/xlink"><defs><style type="text/css"></style></defs><path d="M74.472727 1000.727273c-28.299636 0-51.2-22.900364-51.2-51.2V74.472727c0-28.299636 22.900364-51.2 51.2-51.2h875.054546c28.299636 0 51.2 22.900364 51.2 51.2v875.054546c0 28.299636-22.900364 51.2-51.2 51.2H74.472727z" fill="#001D26" p-id="45555"></path><path d="M949.527273 46.545455c15.453091 0 27.927273 12.474182 27.927272 27.927272v875.054546c0 15.453091-12.474182 27.927273-27.927272 27.927272H74.472727c-15.453091 0-27.927273-12.474182-27.927272-27.927272V74.472727c0-15.453091 12.474182-27.927273 27.927272-27.927272h875.054546m0-46.545455H74.472727C33.326545 0 0 33.326545 0 74.472727v875.054546c0 41.146182 33.326545 74.472727 74.472727 74.472727h875.054546c41.146182 0 74.472727-33.326545 74.472727-74.472727V74.472727c0-41.146182-33.326545-74.472727-74.472727-74.472727z" fill="#09C9FF" p-id="45556"></path><path d="M364.544 556.125091v147.269818h-72.610909V280.948364h117.480727c84.898909 0 127.348364 44.497455 127.348364 133.678545 0 43.194182-12.846545 78.010182-38.353455 104.075636-25.693091 26.065455-57.716364 38.539636-96.069818 37.422546h-37.794909z m0-205.358546v136.285091h31.464727c42.821818 0 64.046545-23.086545 64.046546-69.073454 0-44.869818-21.224727-67.397818-63.488-67.397818h-32.023273zM574.929455 622.405818c24.389818 18.432 48.221091 27.554909 71.493818 27.554909 29.416727 0 44.125091-9.681455 44.125091-29.230545 0-13.777455-12.101818-25.320727-36.305455-34.629818-30.161455-11.543273-51.013818-24.576-62.370909-38.912-11.357091-14.336-16.942545-33.512727-16.942545-57.902546 0-29.602909 9.681455-52.875636 29.044363-69.632 19.362909-16.756364 44.869818-25.134545 76.148364-25.134545 22.341818 0 43.752727 4.096 64.605091 12.288v69.259636c-18.990545-13.777455-39.842909-20.666182-62.557091-20.666182-11.357091 0-20.48 2.420364-27.368727 7.447273-6.888727 5.026909-10.426182 11.543273-10.426182 19.735273 0 13.777455 10.24 24.948364 30.906182 33.512727 21.969455 9.122909 38.539636 17.314909 49.710545 24.762182s19.549091 17.314909 25.320727 29.416727c5.771636 12.101818 8.750545 26.251636 8.750546 42.263273 0 31.092364-10.053818 55.296-30.161455 72.424727-20.107636 17.128727-46.917818 25.693091-80.616727 25.693091-26.437818 0-50.827636-5.213091-73.355636-15.453091v-72.797091z" fill="#09C9FF" p-id="45557"></path></svg>