<?xml version="1.0" standalone="no"?><!DOCTYPE svg PUBLIC "-//W3C//DTD SVG 1.1//EN" "http://www.w3.org/Graphics/SVG/1.1/DTD/svg11.dtd"><svg t="1579074096144" class="icon" viewBox="0 0 1024 1024" version="1.1" xmlns="http://www.w3.org/2000/svg" p-id="113620" width="32" height="32" xmlns:xlink="http://www.w3.org/1999/xlink"><defs><style type="text/css"></style></defs><path d="M669.488685 517.124737H354.597273l-90.436538-407.050551v-2.325511A107.748675 107.748675 0 0 1 371.82328 0.08613h280.353268a107.748675 107.748675 0 0 1 107.662545 107.662545v2.325511z m-280.353268-43.065018h245.815123l81.823535-368.550425A64.683657 64.683657 0 0 0 652.176548 43.065018H371.82328a64.683657 64.683657 0 0 0-64.597527 62.444276z" fill="#333333" p-id="113621"></path><path d="M512.042979 635.811927m-366.655564 0a366.655564 366.655564 0 1 0 733.311128 0 366.655564 366.655564 0 1 0-733.311128 0Z" fill="#FCDB00" p-id="113622"></path><path d="M512.042979 517.124737l35.743965 72.435361 80.014803 11.627554-57.879384 56.415174 13.608546 79.670284-71.48793-37.638826-71.57406 37.638826 13.694676-79.670284-57.879385-56.415174 79.928674-11.627554 35.830095-72.435361z" fill="#FFFFFF" p-id="113623"></path><path d="M630.299519 804.540668l-118.25654-62.185886-118.34267 62.185886 22.56607-131.692825-95.60434-93.27883 132.209605-19.206998 59.171335-119.80688 59.171335 119.80688 132.209605 19.206998-95.69047 93.27883zM512.042979 693.777441l61.066196 32.126504-11.713685-68.042729 49.43864-48.23282-68.301118-9.904954-30.576163-61.841366-30.576163 61.841366-68.214989 9.904954 49.438641 48.14669-11.627555 68.042729z" fill="#333333" p-id="113624"></path><path d="M512.042979 1024a388.188073 388.188073 0 1 1 388.101943-388.532593 388.618723 388.618723 0 0 1-388.101943 388.532593z m0-733.311128a345.123055 345.123055 0 1 0 345.036925 344.778535 345.467575 345.467575 0 0 0-345.036925-344.520145z" fill="#333333" p-id="113625"></path></svg>