<?xml version="1.0" standalone="no"?><!DOCTYPE svg PUBLIC "-//W3C//DTD SVG 1.1//EN" "http://www.w3.org/Graphics/SVG/1.1/DTD/svg11.dtd"><svg t="1579070114508" class="icon" viewBox="0 0 1024 1024" version="1.1" xmlns="http://www.w3.org/2000/svg" p-id="20589" width="32" height="32" xmlns:xlink="http://www.w3.org/1999/xlink"><defs><style type="text/css"></style></defs><path d="M933.21255612 361.72808256h-25.6543659V244.37579852c0-0.78936543-0.13156133-1.44716951-0.26312268-2.23653493 0-4.73619125-1.71029089-9.34082116-4.99931262-12.89296428L696.92925849 6.38220872l-0.13156133-0.13156135c-1.57873085-1.71029089-3.42058177-3.02589906-5.52555537-4.07838586-1.31560818-0.6578041-2.7627777-1.18404814-4.07838717-1.71029089l-1.18404684-0.39468271c-1.57873085-0.39468271-3.15746041-0.52624404-4.73619124-0.52624405h-505.19368865c-23.02314957 0-41.83635193 17.76071556-41.83635323 39.73137832v322.45566038H108.7206688c-15.7873033 0-31.04836254 5.92023809-42.23103465 16.57666743s-17.49759419 25.12812317-17.49759419 40.12606104v295.09100098c0 31.31148391 26.70685402 56.70272975 59.72862884 56.70272975h25.65436721v201.94591465c0 21.83910271 18.68164102 39.73137833 41.83635191 39.73137831h689.77357044c23.02314957 0 41.83635193-17.76071556 41.83635323-39.73137831V770.35610181h25.6543672c33.02177482 0 59.72862881-25.39124583 59.72862882-56.70272846V418.56237237c0-14.99793787-6.3149208-29.4696317-17.49759417-40.12606105-11.44579476-10.65642934-26.57529268-16.70822877-42.49415732-16.70822876zM176.07982789 39.27242218h484.14395134v203.12996279c0 5.26243399 2.23653493 10.26174663 6.18336077 14.0770124 3.94682583 3.68370445 9.20925983 5.78867804 14.73481521 5.78867676h184.71144312v99.46000843H176.07982789V39.27242218z m689.77357044 922.2416049H176.07982789V770.35610181h689.77357044v191.15792527z" fill="#333333" p-id="20590"></path><path d="M156.34569877 477.37007441c12.6298416 0 23.54939361 1.84185222 32.36397072 5.52555669 8.94613844 3.68370445 16.18198471 8.55145573 21.70754138 14.60325515 5.52555537 6.05179942 9.60394254 13.02452431 12.23516019 20.78661463 2.49965631 7.76209031 3.81526449 15.7873033 3.81526448 24.20719769 0 8.15677302-1.31560818 16.18198471-3.81526448 24.07563766s-6.57804347 14.86637653-12.23516019 20.91817597c-5.52555537 6.05179942-12.89296428 10.91955071-21.70754138 14.60325515-8.94613844 3.68370445-19.73412912 5.52555537-32.36397072 5.52555538h-46.83566455v72.75315313h-44.59913092V477.37007441h91.43479547z m-12.23515889 95.51318263c5.13087396 0 9.99862525-0.39468271 14.73481519-1.18404815 4.73619125-0.78936543 8.94613844-2.23653493 12.49828157-4.34150853 3.55214311-2.23653493 6.44648213-5.26243399 8.68301706-9.20925982 2.23653493-3.94682583 3.28902174-9.20925983 3.28902044-15.65574197s-1.05248681-11.70891613-3.28902044-15.65574196-5.13087396-7.10428623-8.68301706-9.20925982c-3.55214311-2.23653493-7.76209031-3.68370445-12.49828157-4.34150853-4.73619125-0.78936543-9.60394254-1.18404814-14.73481519-1.18404685h-34.732067v60.78111563h34.732067zM304.48322396 724.0466813c-7.76209031 5.13087396-18.55008098 7.63053027-32.3639707 7.63052898-4.2099472 0-8.28833436-0.13156133-12.36672153-0.39468271-4.07838717-0.26312138-8.15677302-0.6578041-12.36672023-1.05248681V696.94514459c3.81526449 0.39468271 7.63053027 0.78936543 11.70891614 1.18404813 3.94682583 0.39468271 7.89365165 0.52624404 11.97203881 0.26312137 5.26243399-0.52624404 9.20925983-2.63121764 11.84047617-6.3149208 2.49965631-3.55214311 3.81526449-7.63053027 3.81526579-11.9720388 0-3.15746041-0.52624404-6.3149208-1.71029219-9.0776985l-51.44029445-137.87577728h42.88883871l33.28489749 100.64405398h0.52624275l32.10084935-100.64405398h41.83635192L322.77018229 698.26075276c-4.47306858 12.23516018-10.524868 20.65505458-18.28695833 25.78592854zM478.40667513 533.41500008v26.96997539h-29.60119174v72.75315314c0 6.84116484 1.18404814 11.31423342 3.42058178 13.68232969 2.23653493 2.23653493 6.84116484 3.42058177 13.6823297 3.42058178 2.23653493 0 4.47306858-0.13156133 6.57804217-0.26312138s4.07838717-0.52624404 5.92023809-0.78936542v31.31148392c-3.42058177 0.52624404-7.23584756 0.92092547-11.31423342 1.18404814-4.2099472 0.13156133-8.28833436 0.26312138-12.23515889 0.26312137-6.3149208 0-12.23516018-0.39468271-17.76071556-1.31560818-5.52555537-0.78936543-10.524868-2.49965631-14.7348165-4.99931262-4.2099472-2.49965631-7.63053027-5.92023809-10.13018529-10.52486929-2.49965631-4.60462991-3.68370445-10.524868-3.68370445-17.89227561v-86.69860421h-24.47031907v-26.96997667h24.47031907v-44.07288686h40.38918241v44.07288686H478.40667513zM538.00374391 477.37007441v76.43685759h0.78936542c5.13087396-8.55145573 11.70891613-14.73481649 19.60256779-18.5500797 7.89365165-3.81526449 15.7873033-5.78867804 23.28627093-5.78867804 10.78799068 0 19.60256779 1.44716951 26.57529268 4.34150855 6.9727249 2.89433903 12.36672022 6.9727249 16.31354605 12.23515888 3.94682583 5.26243399 6.70960351 11.57735479 8.41989569 19.07632503 1.57873085 7.49896894 2.36809497 15.7873033 2.36809499 24.86500177v90.38230737h-40.38918241v-83.01489976c0-12.10359884-1.84185222-21.18129733-5.65711672-27.10153672s-10.524868-8.94613844-20.12881183-8.94613844c-11.05111205 0-18.9447637 3.28902174-23.81251499 9.86706521-4.86775129 6.57804347-7.36740761 17.23447281-7.3674076 32.23240938v76.96310033h-40.3891837V477.37007441h40.3891837zM667.06494408 574.98823063c3.55214311-9.60394254 8.68301707-17.76071556 15.39262059-24.47031907 6.57804347-6.70960351 14.60325516-11.9720375 23.81251499-15.65574197 9.34082116-3.68370445 19.73412912-5.52555537 31.31148391-5.52555666s21.97066276 1.84185222 31.44304397 5.52555666c9.34082116 3.68370445 17.36603285 8.94613844 24.07563637 15.65574197 6.57804347 6.70960351 11.70891613 14.86637653 15.39262058 24.47031907 3.55214311 9.60394254 5.39399533 20.26037187 5.39399533 31.96928801s-1.84185222 22.36534547-5.39399533 31.83772668c-3.55214311 9.47238121-8.68301707 17.62915423-15.39262058 24.33875902-6.57804347 6.70960351-14.60325516 11.84047747-24.07563637 15.52418063-9.34082116 3.55214311-19.86568916 5.39399533-31.44304397 5.39399534-11.57735479 0-21.97066276-1.84185222-31.31148391-5.39399534-9.34082116-3.55214311-17.23447281-8.81457711-23.81251499-15.52418063-6.57804347-6.70960351-11.70891613-14.86637653-15.39262059-24.33875902-3.55214311-9.47238121-5.39399533-20.12881054-5.39399534-31.83772668 0-11.70891613 1.71029089-22.36534547 5.39399534-31.96928801z m36.57391793 49.20375953c1.18404814 5.52555537 3.02589906 10.65642934 5.78867805 14.99793788 2.7627777 4.47306858 6.44648213 8.02521169 10.91955071 10.65642933 4.60462991 2.63121764 10.26174663 3.94682583 17.10291147 3.94682581s12.49828157-1.31560818 17.23447152-3.94682581c4.60462991-2.63121764 8.28833436-6.18336076 11.05111204-10.65642933 2.7627777-4.47306858 4.73619125-9.47238121 5.78867806-14.99793788 1.18404814-5.52555537 1.71029089-11.31423342 1.71029088-17.23447152s-0.52624404-11.70891613-1.71029088-17.36603286c-1.18404814-5.6571167-3.02589906-10.65642934-5.78867806-14.99793786-2.7627777-4.34150854-6.44648213-7.89365165-11.05111204-10.65642934-4.60462991-2.7627777-10.39330797-4.07838717-17.23447152-4.07838715s-12.49828157 1.31560818-17.10291147 4.07838715-8.15677302 6.3149208-10.91955071 10.65642934c-2.7627777 4.34150854-4.73619125 9.34082116-5.78867805 14.99793786-1.18404814 5.6571167-1.71029089 11.44579476-1.7102909 17.36603286s0.6578041 11.70891613 1.7102909 17.23447152zM878.22011855 533.41500008v20.52349326h0.78936543c5.13087396-8.55145573 11.70891613-14.73481649 19.86568917-18.550081 8.15677302-3.81526449 16.44510738-5.78867804 24.99656311-5.78867803 10.78799068 0 19.60256779 1.44716951 26.57529268 4.34150853 6.9727249 2.89433903 12.36672022 6.9727249 16.31354604 12.23516018 3.94682583 5.26243399 6.70960351 11.57735479 8.4198944 19.07632374 1.57873085 7.49896894 2.36809497 15.7873033 2.36809627 24.86500179v90.38230865h-40.38918369v-83.01489976c0-12.10359884-1.84185222-21.18129733-5.65711673-27.10153672s-10.524868-8.94613844-20.12881053-8.94613844c-11.05111205 0-18.9447637 3.28902174-23.81251499 9.8670639-4.86775129 6.57804347-7.36740761 17.23447281-7.3674076 32.23241069v76.96310033h-40.38918371V533.41500008h38.41577015z" fill="#FFFFFF" p-id="20591"></path></svg>