<?xml version="1.0" standalone="no"?><!DOCTYPE svg PUBLIC "-//W3C//DTD SVG 1.1//EN" "http://www.w3.org/Graphics/SVG/1.1/DTD/svg11.dtd"><svg t="1579074162668" class="icon" viewBox="0 0 1024 1024" version="1.1" xmlns="http://www.w3.org/2000/svg" p-id="116344" width="32" height="32" xmlns:xlink="http://www.w3.org/1999/xlink"><defs><style type="text/css"></style></defs><path d="M178.299337 512.908696m-84.950787 0a83.016 83.016 0 1 0 169.901575 0 83.016 83.016 0 1 0-169.901575 0Z" fill="#1296db" p-id="116345"></path><path d="M778.017144 846.339718m-84.950787 0a83.016 83.016 0 1 0 169.901575 0 83.016 83.016 0 1 0-169.901575 0Z" fill="#1296db" p-id="116346"></path><path d="M769.587148 169.332616m-84.950787 0a83.016 83.016 0 1 0 169.901575 0 83.016 83.016 0 1 0-169.901575 0Z" fill="#1296db" p-id="116347"></path><path d="M575.648111 284.513916c114.354468 0 208.244858 87.547938 218.34489 199.271486l132.850727 0c-4.693906-83.772962-38.694277-159.710468-91.923596-217.733976-18.827811 13.078877-41.693588 20.751626-66.35629 20.751626-64.316841 0-116.455315-52.138474-116.455315-116.456339 0-3.333932 0.148379-6.632047 0.422625-9.894348-24.749684-5.51869-50.472532-8.450463-76.884065-8.450463-62.194504 0-120.606869 16.162098-171.301458 44.484144l70.284763 112.647593C504.862951 293.41054 539.21534 284.513916 575.648111 284.513916z" fill="#1296db" p-id="116348"></path><path d="M356.386338 503.775688c0-69.244061 32.108279-130.980123 82.238003-171.163311l-70.449515-112.911606c-63.221904 46.25344-110.420879 113.089661-131.735323 190.655248 36.284391 19.72525 60.913325 58.177004 60.913325 102.381785 0 42.316781-22.572088 79.358419-56.33096 99.750865 24.049742 74.078159 72.002894 137.368624 134.77045 180.78239l70.173223-112.693642C391.648446 640.667451 356.386338 576.34447 356.386338 503.775688z" fill="#1296db" p-id="116349"></path><path d="M575.648111 723.038484c-33.138748 0-64.551178-7.365758-92.713588-20.526499l-70.367651 113.00575c48.750307 25.556049 104.220666 40.032762 163.081239 40.032762 29.925566 0 58.97416-3.749394 86.712921-10.781554-0.00614-0.499373-0.019443-0.998747-0.019443-1.499144 0-64.315818 52.138474-116.454292 116.455315-116.454292 20.421098 0 39.61116 5.262864 56.299237 14.496156 52.494585-57.305147 86.235037-132.054595 91.558275-214.549447L793.712615 526.762215C782.22191 637.052111 688.979272 723.038484 575.648111 723.038484z" fill="#1296db" p-id="116350"></path></svg>