<?xml version="1.0" standalone="no"?><!DOCTYPE svg PUBLIC "-//W3C//DTD SVG 1.1//EN" "http://www.w3.org/Graphics/SVG/1.1/DTD/svg11.dtd"><svg t="1579068690917" class="icon" viewBox="0 0 1024 1024" version="1.1" xmlns="http://www.w3.org/2000/svg" p-id="13900" width="32" height="32" xmlns:xlink="http://www.w3.org/1999/xlink"><defs><style type="text/css"></style></defs><path d="M170.3 260.8h56v56h-56zM249.1 260.8h56v56h-56zM327.8 260.8h56v56h-56zM176.5 456.7v335.9h223.9V456.7H176.5z m167.9 280h-112v-224h112v224zM456 456.7v335.9h391.9V456.7H456z m335.9 280H512v-224h279.9v224z" p-id="13901" fill="#d4237a"></path><path d="M903.9 456.7v391.9H120.2V456.7h-56v447.9h895.7V456.7zM64.2 176.8v223.9h895.7V176.8H64.2z m839.7 168H120.2v-112h783.7v112z" p-id="13902" fill="#d4237a"></path></svg>