<?xml version="1.0" standalone="no"?><!DOCTYPE svg PUBLIC "-//W3C//DTD SVG 1.1//EN" "http://www.w3.org/Graphics/SVG/1.1/DTD/svg11.dtd"><svg t="1579070199225" class="icon" viewBox="0 0 1024 1024" version="1.1" xmlns="http://www.w3.org/2000/svg" p-id="24799" width="32" height="32" xmlns:xlink="http://www.w3.org/1999/xlink"><defs><style type="text/css"></style></defs><path d="M512 64C369.28 64 128 90.88 128 192v672c0 101.12 241.28 128 384 128s384-26.88 384-128V192c0-101.12-241.28-128-384-128z m0 64c189.76 0 306.56 40.96 320 64-13.12 23.04-129.92 64-320 64S201.92 213.76 192 193.6V192c9.92-21.76 128-64 320-64zM192 268.16C273.6 307.52 416 320 512 320s238.4-12.48 320-51.84V416c-9.28 23.04-128 64-320 64s-311.36-42.56-320-64z m0 224C273.6 531.52 416 544 512 544s238.72-12.48 320-51.84V640c-8.96 22.72-128 64-320 64s-311.36-42.56-320-64zM512 928c-192 0-311.36-42.56-320-64v-147.84C273.6 755.52 416 768 512 768s238.72-12.48 320-51.84V864c-8.64 21.44-128 64-320 64z" p-id="24800"></path><path d="M288 384m-32 0a32 32 0 1 0 64 0 32 32 0 1 0-64 0Z" p-id="24801"></path><path d="M288 608m-32 0a32 32 0 1 0 64 0 32 32 0 1 0-64 0Z" p-id="24802"></path><path d="M288 832m-32 0a32 32 0 1 0 64 0 32 32 0 1 0-64 0Z" p-id="24803"></path></svg>