<?xml version="1.0" standalone="no"?><!DOCTYPE svg PUBLIC "-//W3C//DTD SVG 1.1//EN" "http://www.w3.org/Graphics/SVG/1.1/DTD/svg11.dtd"><svg t="1579073607344" class="icon" viewBox="0 0 1024 1024" version="1.1" xmlns="http://www.w3.org/2000/svg" p-id="101105" width="32" height="32" xmlns:xlink="http://www.w3.org/1999/xlink"><defs><style type="text/css"></style></defs><path d="M405.1968 648.448H242.5856c-36.8128 0-36.8128 58.0608 0 58.0608h162.6112c43.6224 0.0512 43.6224-58.0608 0-58.0608zM405.1968 401.8688H242.5856c-36.8128 0-36.8128 58.0608 0 58.0608h162.6112c43.6224 0 43.6224-58.0608 0-58.0608zM405.1968 525.1584H242.5856c-36.8128 0-36.8128 58.0608 0 58.0608h162.6112c43.6224 0 43.6224-58.0608 0-58.0608zM561.152 493.5168a35.84 35.84 0 0 1 35.84-35.84h74.752c42.6496 0 42.6496-55.7056 0-55.7056h-74.6496a91.7504 91.7504 0 0 0-91.6992 91.5456V542.72c0 41.5232 55.7056 41.5232 55.7056 0zM889.856 801.28l-58.4704-58.4704a146.3808 146.3808 0 1 0-28.7744 37.2736l54.272 54.272c24.6272 24.6272 57.6-8.3968 32.9728-33.0752z m-186.88-36.1472a91.392 91.392 0 1 1 91.392-91.392 91.4944 91.4944 0 0 1-91.392 91.392z" p-id="101106" fill="#17abe3"></path><path d="M733.4912 228.2496H221.696A120.4224 120.4224 0 0 0 101.5808 348.16v411.7504A120.4224 120.4224 0 0 0 221.696 880.128h282.4192a27.136 27.136 0 0 0 0-54.272H223.9488a68.8128 68.8128 0 0 1-68.608-68.608V351.1808a68.8128 68.8128 0 0 1 68.608-68.608h507.2896a68.8128 68.8128 0 0 1 68.608 68.608V445.44a26.7776 26.7776 0 0 0 53.5552 0V348.16a120.4224 120.4224 0 0 0-119.9104-119.9104z" p-id="101107" fill="#17abe3"></path></svg>