<?xml version="1.0" standalone="no"?><!DOCTYPE svg PUBLIC "-//W3C//DTD SVG 1.1//EN" "http://www.w3.org/Graphics/SVG/1.1/DTD/svg11.dtd"><svg t="1579073254119" class="icon" viewBox="0 0 1024 1024" version="1.1" xmlns="http://www.w3.org/2000/svg" p-id="96197" width="32" height="32" xmlns:xlink="http://www.w3.org/1999/xlink"><defs><style type="text/css"></style></defs><path d="M426.666667 170.666667H170.666667c-47.36 0-85.333333 37.973333-85.333334 85.333333v512c0 46.805333 38.528 85.333333 85.333334 85.333333h682.666666c46.805333 0 85.333333-38.528 85.333334-85.333333V341.333333a85.333333 85.333333 0 0 0-85.333334-85.333333h-341.333333l-85.333333-85.333333z" fill="#8BC34A" p-id="96198"></path><path d="M839.68 755.328a41.258667 41.258667 0 0 0-4.394667-82.346667h-1.493333a41.130667 41.130667 0 0 0-39.68 42.666667 42.24 42.24 0 0 0 11.733333 27.178667c-24.96 49.28-63.189333 85.290667-120.533333 115.413333-38.954667 20.608-79.36 27.946667-119.808 22.784-33.066667-4.394667-58.794667-19.114667-74.965333-43.349333-23.552-36.010667-25.728-75.008-5.888-113.92a173.013333 173.013333 0 0 1 49.962666-58.837334 396.544 396.544 0 0 1-9.557333-37.461333c-106.581333 77.141333-95.573333 181.546667-63.189333 230.826667 24.234667 36.693333 73.472 59.52 127.872 59.52 14.72 0 29.44-1.493333 44.117333-5.162667 94.08-18.346667 165.376-74.24 205.824-157.312z" fill="#DCEDC8" p-id="96199"></path><path d="M969.045333 664.192c-55.893333-65.408-138.197333-101.461333-232.277333-101.461333h-11.776a40.405333 40.405333 0 0 0-36.010667-22.016h-1.450666a41.130667 41.130667 0 0 0 1.450666 82.346666h1.493334a41.386667 41.386667 0 0 0 36.010666-25.045333h13.226667c55.893333 0 108.8 16.213333 156.586667 47.786667 36.693333 24.277333 63.189333 55.893333 77.909333 94.08 12.458667 30.890667 11.733333 61.013333-1.493333 86.741333-20.565333 38.954667-55.125333 60.288-100.693334 60.288-29.44 0-57.344-8.832-72.021333-15.445333-8.106667 7.381333-22.826667 19.114667-33.109333 26.453333 31.616 14.72 64 22.826667 94.848 22.826667 70.570667 0 122.752-38.997333 142.592-77.952 21.333333-42.624 19.84-116.138667-35.285334-178.602667z" fill="#DCEDC8" p-id="96200"></path><path d="M595.626667 767.829333c0.725333 22.058667 19.114667 39.68 41.173333 39.68h1.450667a41.130667 41.130667 0 0 0-1.450667-82.346666h-1.493333c-1.450667 0-3.669333 0-5.12 0.768-30.122667-49.962667-42.666667-104.362667-38.229334-163.2 2.944-44.074667 17.664-82.346667 43.349334-113.92 21.333333-27.178667 62.506667-40.405333 90.453333-41.173334 77.909333-1.450667 110.976 95.573333 113.194667 134.528 9.557333 2.218667 25.728 7.338667 36.736 11.050667-8.832-119.082667-82.346667-180.864-152.874667-180.864-66.133333 0-127.146667 47.786667-151.466667 118.357333-33.792 94.08-11.733333 184.490667 29.44 255.786667a33.024 33.024 0 0 0-5.12 21.333333z" fill="#DCEDC8" p-id="96201"></path></svg>