<?xml version="1.0" standalone="no"?><!DOCTYPE svg PUBLIC "-//W3C//DTD SVG 1.1//EN" "http://www.w3.org/Graphics/SVG/1.1/DTD/svg11.dtd"><svg t="1579072030468" class="icon" viewBox="0 0 2240 1024" version="1.1" xmlns="http://www.w3.org/2000/svg" p-id="60117" width="70" height="32" xmlns:xlink="http://www.w3.org/1999/xlink"><defs><style type="text/css"></style></defs><path d="M1125.386139 1024C520.648238 1024 30.415842 794.765941 30.415842 512S520.648238 0 1125.386139 0s1094.970297 229.234059 1094.970297 512S1730.12404 1024 1125.386139 1024z m5.201109-694.190891c0-54.008396-17.63105-96.043089-52.913426-126.083802-35.272238-30.030574-84.059248-45.056-146.330614-45.056H736.225584v640.334574h82.670258V529.468832h59.53394c24.525307 0 45.603485 6.407604 63.244673 19.222812 17.63105 12.815208 37.066772 37.005941 58.286892 72.55192l106.242534 177.760317h97.553743l-119.878971-191.812435c-20.398891-33.345901-36.995802-56.90804-49.811009-70.686416a131.36602 131.36602 0 0 0-45.684594-31.835248v-2.068277c94.806178-26.451644 142.204198-84.049109 142.204198-172.792396z m405.118732 11.983841l-111.200317 189.338614h-1.652594a940.924198 940.924198 0 0 0-19.009901-36.387485l-85.569901-152.951129h-94.258693l148.40903 232.74202-155.435089 224.468911h93.011643l88.87509-145.519525c13.504634-22.041347 20.398891-33.893386 20.672633-35.54598h1.652594c8.536713 15.988594 15.157228 27.840634 19.841268 35.54598l87.222495 145.519525h94.258693l-150.89299-226.952871 152.961267-230.25806h-88.885228zM916.459723 457.129822H818.895842V231.008317h98.800792c41.061386 0 72.33901 9.368079 93.84301 28.114376 21.493861 18.736158 32.240792 44.782257 32.240792 78.128158 0 35.829861-11.781069 64.765465-35.343208 86.806812-23.562139 22.051485-54.221307 33.072158-91.977505 33.072159z" p-id="60118"></path></svg>