<?xml version="1.0" standalone="no"?><!DOCTYPE svg PUBLIC "-//W3C//DTD SVG 1.1//EN" "http://www.w3.org/Graphics/SVG/1.1/DTD/svg11.dtd"><svg t="1579073181571" class="icon" viewBox="0 0 1024 1024" version="1.1" xmlns="http://www.w3.org/2000/svg" p-id="91283" width="32" height="32" xmlns:xlink="http://www.w3.org/1999/xlink"><defs><style type="text/css"></style></defs><path d="M891.264 173.632C864 68.352 685.376 33.728 516.48 92.416a853.376 853.376 0 0 0-287.552 161.344c-92.992 85.12-107.84 159.168-101.76 190.144 21.632 109.184 174.592 180.544 237.632 233.536-18.56 8.896-154.24 76.096-186.048 144.832a92.736 92.736 0 0 0 31.04 131.456 192.512 192.512 0 0 0 205.44-81.472 200.32 200.32 0 0 0 20.48-181.504 249.6 249.6 0 0 1 92.736-5.184c106.304 12.16 127.168 76.8 123.136 104.256a68.736 68.736 0 0 1-33.728 46.592c-7.424 4.544-9.728 6.08-9.088 9.408 0.896 4.864 4.352 4.672 10.688 3.648a81.664 81.664 0 0 0 57.6-72.256c2.56-63.68-59.84-134.912-170.304-133.056a297.536 297.536 0 0 0-94.784 12.8l-4.672-5.056C339.2 580.672 212.864 530.24 218.24 434.432c1.92-34.816 14.336-126.528 242.56-237.76 186.944-91.136 336.64-66.048 362.496-10.496 36.928 79.424-80 227.008-274.176 248.256a148.032 148.032 0 0 1-122.624-30.4c-10.176-11.008-11.712-11.52-15.552-9.408-6.4 3.392-2.24 12.8 0 18.88a114.496 114.496 0 0 0 70.4 53.952 379.648 379.648 0 0 0 227.584-22.016c117.44-44.48 209.344-168.32 182.336-271.808z m-500.48 536.448a148.608 148.608 0 0 1-1.28 88.576q-1.536 4.48-3.328 8.896t-3.904 8.64a165.504 165.504 0 0 1-27.968 39.936A106.56 106.56 0 0 1 248.768 896c-22.784-12.8-11.392-65.92 29.44-108.096a410.688 410.688 0 0 1 107.072-74.688z" fill="#F03D70" p-id="91284"></path></svg>