<?xml version="1.0" standalone="no"?><!DOCTYPE svg PUBLIC "-//W3C//DTD SVG 1.1//EN" "http://www.w3.org/Graphics/SVG/1.1/DTD/svg11.dtd"><svg t="1579071802911" class="icon" viewBox="0 0 1024 1024" version="1.1" xmlns="http://www.w3.org/2000/svg" p-id="49034" width="32" height="32" xmlns:xlink="http://www.w3.org/1999/xlink"><defs><style type="text/css"></style></defs><path d="M902.896595 871.833852c1.927503 1.566096 5.662041-84.810147-91.97805-195.762058-51.681183-59.02979-138.117661-108.843704-138.11766-108.843704l-160.946529 261.116468-161.187466-261.236937s-91.917815 46.380549-161.066997 152.272764C146.231068 785.638312 120.450711 871.653148 120.450711 871.653148S211.163836 1022.359815 511.733887 1023.986146c293.763555 1.686565 391.102473-152.152294 391.102474-152.152294m-249.792385-133.118199h109.626752v43.971169h-109.626752v-43.971169m-72.281376-84.508975L511.794122 588.671565 442.705174 654.206678l69.149182 108.663001 68.84801-108.663001M511.252012 584.816558c114.806917-6.746262 186.967823-74.269113 213.049352-204.797229 4.698289-22.045819 5.421103-44.212108 3.192428-65.655582-15.239323 3.132193-36.743032 4.276648-58.909321-6.505324-56.379473-26.924812-105.048932-75.413568-105.048932-75.413568s-86.73765 79.148106-209.856925 75.413568a492.657805 492.657805 0 0 1-56.499941-4.57782c-4.095945 24.87684-4.095945 50.958369 0.903517 76.678492 22.768633 122.516931 108.301594 210.760443 213.230056 204.797229M248.448979 139.382585c-44.754218 42.284604-104.807994 50.054852-104.807994 50.054852S187.913327 259.911778 353.437676 265.031708c123.119275 3.433365 209.91716-75.594271 209.91716-75.594271s48.789928 48.54899 104.988697 75.594271c39.93546 18.973861 78.66623 0 78.66623 0S785.800768 74.811223 589.677303 13.070882c-168.415604-52.524466-277.500246 66.257927-341.228324 126.251468" fill="#06B082" p-id="49035"></path></svg>