<?xml version="1.0" standalone="no"?><!DOCTYPE svg PUBLIC "-//W3C//DTD SVG 1.1//EN" "http://www.w3.org/Graphics/SVG/1.1/DTD/svg11.dtd"><svg t="1579074227904" class="icon" viewBox="0 0 1024 1024" version="1.1" xmlns="http://www.w3.org/2000/svg" p-id="119588" width="32" height="32" xmlns:xlink="http://www.w3.org/1999/xlink"><defs><style type="text/css"></style></defs><path d="M190.2 509.8h-0.2c0.1 0 0.2 0.1 0.4 0.1-0.1 0-0.1 0-0.2-0.1z" fill="#2C6DF8" p-id="119589"></path><path d="M941.7 449c-16.5-41-44.3-78-76.5-104-24.4-19.7-56.5-31.6-86.6-27.5-1.6 0.2-3.1 0.5-4.7 0.8 1.3-33.4-8.3-68.6-25.4-95.6-47-74.4-120.9-94.9-194.6-72.8-26.9 8.1-53.1 25.4-71.2 49.7l-0.1 0.1c-2.8-3.5-5.7-6.8-8.9-9.9-25.9-25.9-59.8-38.6-94.1-37.8-38 0.9-73.2 19-103.5 44.1-30.1 24.9-58.6 55.1-67.7 97.6-1.5 6.9-2.3 13.8-2.6 20.7-13.7-0.5-27.3 5.1-40.1 10.6-34 15-61.6 44.7-79.9 80.6-14.5 28.4-20.2 61.1-21.7 93.6-1.6 33.7 3.2 68 16 98.5 13.1 31.2 42 56.1 73 56.1l50.1-3 134.3 0.1c24.6 0 49.3 0.1 73.9 0.1v-70.9c-84.9-0.1-169.9 2.8-254.8 2.8H153c7.7 0.4 4.8 4.1 1.6 1.5-0.6-0.5-1.1-1-1.6-1.5-1.4-0.4-2.9-0.9-4.3-1.4-1.2-0.7-2.3-1.4-3.4-2.2-1-1-3.4-3.2-4.4-4.4-0.6-0.6-1.1-1.3-1.6-2-1.3-2.2-2.6-4.5-3.7-6.8-0.7-1.5-2.4-5.6-3.1-7.4-2.5-8.1-4.3-16.5-5.5-25l-0.1-0.7c-1.4-15.7-1.4-31.6 0.2-47.3l0.4-2.7c0.5-3.2 1-6.4 1.6-9.6 1.2-6.4 2.8-12.7 4.7-18.9 0.3-0.9 0.5-1.7 0.8-2.6 2.7-6.5 5.7-12.8 9.2-18.8 0.9-1.7 1.9-3.3 2.9-4.9l1.2-1.9c4.4-6.1 9.1-11.9 14.2-17.2 1.2-1.2 5.7-5.4 6.6-6.3 2.5-2 5.1-3.9 7.8-5.7 2.1-1.4 4.2-5.7 6.3-6.9-1.3 0.9 6-2.6 8-3.2 1.6-0.5 6.7-1.5 8.1-1.9 3.3-0.2 6.5-0.1 9.8 0.1 1.4 0.3 2.8 0.7 4.2 1.1 2.8 0.8 5.6 1.8 8.3 3.1 4.6 2.6 9 5.6 13.2 8.9-0.9-0.7 3.2 2.9 3.9 3.6 12.8 12.6 31.2 14.4 43.9 0 11.8-13.6 12-36.6 0-50.1-2.1-2.3-4.1-4.8-6-7.3 0.3 0.1-3.9-6.4-4.8-8.3-0.5-0.9-0.9-1.8-1.3-2.8-0.2-0.4-0.3-0.9-0.4-1.3-0.6-2-1.5-7.9-1.9-9.8-0.1-2.4 0-4.8 0.1-7.2 0.7-4.3 1.8-8.5 3.1-12.6 2.8-6.8 6.2-13.2 10.1-19.2 6.3-8.7 13.3-16.7 20.9-24l3.3-3.1c4.2-3.8 8.6-7.3 13.1-10.5 8.7-6.5 17.8-12.3 27.2-17.4l2.8-1.2c7.2-3 14.6-5.2 22.2-6.7l2.7-0.3c1-0.3 1.3-0.4 0.1 0 6.3-0.6 12.7-0.6 19.1 0 0.8 0.2 6.3 1.1 8 1.5 3.7 1 7.4 2.1 11 3.6-0.3-0.4-0.2-0.3 0.1 0 1.1 0.4 2.2 0.9 3.2 1.3 4.5 2.4 8.8 5.2 13 8.4-0.4-0.1 5.3 5 6.8 6.6 1.2 1.3 2.3 2.7 3.4 4.1 0.4 0.8 3.5 5.3 4.4 7 1.5 2.7 2.8 5.5 4 8.4 0.7 2.2 1.3 4.4 1.9 6.6 0.5 2.1 1.6 9.2 2 10.5 0.2 3.8 0.3 7.5 0.3 11.3-0.3 19.3 14.3 35.4 31 35.4 17.8 0 29.9-16.2 31-35.4 0.1-1.6 0.2-3.1 0.3-4.7 1.1-6.8 2.7-13.5 4.7-20 2.5-6.2 5.5-12.2 9-17.8 4-5.4 8.3-10.4 13.1-15 6.1-4.9 12.5-9.1 19.3-12.6 7.5-3.2 15.3-5.6 23.3-7.1 0 0.1 7.1-0.9 9-1.1 9.7-0.7 19.4-0.3 29.1 1l3.1 0.6c9 1.7 18 4.3 26.6 7.6 1.4 0.6 6.6 2.9 8.1 3.5 5.4 2.9 10.7 6.1 15.7 9.8 1.5 1.1 2.9 2.2 4.3 3.3l1.9 1.7c4.6 4.3 8.8 9.1 12.8 14.1l2.7 3.6c3.7 6 7 12.3 9.9 18.9l0.6 1.5c2.5 7.3 4.3 14.9 5.5 22.7 0.1 1.3 0.2 2.5 0.2 3.8 0.4 1.1 0.5 1.6 0 0.3 0.3 5.8 0.3 11.7-0.2 17.6v0.9c-1.1 7.7-2.9 15.2-5.4 22.5-0.7 1.9-1.6 3.7-2.4 5.6-2.2 4.7-4.6 9.2-7.2 13.5-0.7 1.1-2 3-2.7 3.9-10.9 14.8-12.7 35.6 0 50.1 11.2 12.8 32.9 17.7 43.9 3 4.4-5.9 9.1-11.5 14.2-16.6l1.3-1.3c3.3-2.8 6.8-5.3 10.4-7.6 1.1-0.7 4.1-2.3 5.7-3.1 4.3-1.7 8.6-3.1 13.1-4 0.9-0.1 1.7-0.1 2.6-0.2 1.3-0.5 1.9-0.7 0.2 0 4-0.2 8-0.2 12 0.2 6 1.2 11.9 3.3 17.7 5.7 7.7 4.1 14.9 9 21.7 14.8 8.1 7.6 15.5 15.9 22.4 25 1.4 1.8 2.8 3.7 4.1 5.6l1.7 2.4c2.8 4.3 5.5 8.7 8.1 13.1 5.7 9.6 10.8 19.7 15.2 30.2l1.5 4.1c3.4 10 5.9 20.4 7.5 31l0.1 0.4c0.8 8.7 0.8 17.6 0.1 26.3-1 6.3-2.4 12.4-4.3 18.4-1.3 3-2.7 5.9-4.2 8.7-0.3 0.1-3.9 5.3-5.4 7l-0.2 0.2c-0.7 0.6-1.5 1.1-2.3 1.6-0.9 0.4-2 0.9-2.9 1.2h-0.8l-147.6-3.2-94.8-0.1v70.9c76.6 0.1 153.3 3.2 229.9 3.3h12.6c0.7 0 1.5 0 2.2-0.1 36.1-2 60.7-33.2 73.1-69.8 14.9-44 5.7-94.4-11-135.7zM149.6 582.9h0.8c3.2 1.5 2 1.2-0.6 0.2 0.9 1 1.6 1.8 2 2.3h-0.3c-0.7-0.8-1.4-1.6-2.1-2.5-0.2-0.2-0.4-0.4-0.5-0.7l-0.4-0.6c0.4 0.5 0.8 0.9 1.1 1.3z m-23.4-98c1-2.9 2.7-7 0 0zM268.1 334c5.2 6.5 2.6 3.5 0 0zM518 263.1c1-2.7 1.4-3.6 0 0z m37.8-42.1c-3.1 1.5-2.3 1.1 0 0z" fill="#2C6DF8" p-id="119590"></path><path d="M539.1 440c-0.2-0.2-0.5-0.4-0.8-0.6L426.6 366c-5.7-3.7-14.1-3.1-18.8 1.4-4.7 4.5-3.9 11.1 1.7 14.9l97 63.8c3.4 2.2 5.4 5.6 5.4 9.1V895c0 5.6 5.7 10.1 12.7 10.1h3.5c7 0 12.7-4.5 12.7-10.1V443.2c0.2-1.3-0.6-2.4-1.7-3.2z" fill="#2C6DF8" p-id="119591"></path><path d="M692.8 513c-3.5-4.7-11.1-6.4-17.1-3.6L619.8 535c-8.3 3.8-18.8-1-18.8-8.6V380.1c0-5.5-5.6-9.9-12.5-9.9h-3c-6.9 0-12.5 4.4-12.5 9.9v515c0 5.5 5.6 9.9 12.5 9.9h3c6.9 0 12.5-4.4 12.5-9.9v-323c0-3.5 2.4-6.8 6.3-8.6l80.9-37c6-2.7 8-8.7 4.6-13.5z" fill="#15BFCC" p-id="119592"></path><path d="M443 475.3v57.4l-106.7-43.4c-7.2-2.9-16.1-0.7-19.9 5-3.7 5.7-0.9 12.8 6.4 15.7l107.6 43.8c7.7 3.1 12.6 9.4 12.6 16.3v323.1c0 6.4 6.6 11.7 14.7 11.7h0.5c8.1 0 14.7-5.2 14.7-11.7v-418c0-6.4-6.6-11.7-14.7-11.7h-0.5c-8.1 0.1-14.7 5.3-14.7 11.8zM754.7 361.4h-0.2c-0.5 0.2-1.2 0.4-1.8 0.7 0.9-0.3 1.5-0.5 2-0.7zM242.8 358.9c4.9 1.7 2.7 0.8 0 0zM683.5 273.3c-0.3-0.8-0.4-0.9 0 0zM425.5 172.6c-0.8-0.9-2.2-2.2-2.7-2.7h-0.1c0.3 0.3 1.2 1.1 2.8 2.7zM689.4 295.5v-0.2c-0.2-0.6-0.6-1.4-1-2.1 0.5 1.1 0.8 1.8 1 2.3zM389 165.9h-0.1c-0.6 0.1-1.3 0.4-2.2 0.6 1.1-0.3 1.8-0.5 2.3-0.6z" fill="#2C6DF8" p-id="119593"></path><path d="M386.7 359.2m-46 0a46 46 0 1 0 92 0 46 46 0 1 0-92 0Z" fill="#2C6DF8" p-id="119594"></path><path d="M314.8 483.7m-46 0a46 46 0 1 0 92 0 46 46 0 1 0-92 0Z" fill="#15BFCC" p-id="119595"></path><path d="M450.8 475.1m-37.4 0a37.4 37.4 0 1 0 74.8 0 37.4 37.4 0 1 0-74.8 0Z" fill="#15BFCC" p-id="119596"></path><path d="M587 332m-46 0a46 46 0 1 0 92 0 46 46 0 1 0-92 0Z" fill="#2C6DF8" p-id="119597"></path><path d="M754.7 524.1c0 25.4-20.6 43-46 43s-46-20.6-46-46 20.6-46 46-46 46 23.6 46 49z" fill="#15BFCC" p-id="119598"></path></svg>