<?xml version="1.0" standalone="no"?><!DOCTYPE svg PUBLIC "-//W3C//DTD SVG 1.1//EN" "http://www.w3.org/Graphics/SVG/1.1/DTD/svg11.dtd"><svg t="1579072478113" class="icon" viewBox="0 0 1024 1024" version="1.1" xmlns="http://www.w3.org/2000/svg" p-id="71795" width="32" height="32" xmlns:xlink="http://www.w3.org/1999/xlink"><defs><style type="text/css"></style></defs><path d="M658 336m-244 0a244 244 0 1 0 488 0 244 244 0 1 0-488 0Z" fill="#54C4C5" fill-opacity=".15" p-id="71796"></path><path d="M556.5 187c-122.1 0-219.8 102.9-216.4 227.2C343.4 535 440.2 629 556.6 629c119 0 216.4-98.6 216.4-220.9C773 282.2 671.7 187 556.5 187z m17.8 393l51.8-64.9c20.8-21.3 27.7-57.8-6.5-92.7-11.9-12.1-27.3-19.3-43.8-20.6l22.4-22.9c20.9-21.3 20.8-55.8 0-77L534 236.5c26.4-3.6 52.8-0.8 77.8 8.1l12.6 68.8c6.7 36.6 41.4 60.9 77.4 54l18.6-3.5c26.4 103-43.6 205-146.1 216.1zM391.8 367l55.8 56.8c7.3 7.5 11.4 17.4 11.4 27.9V549c-57.5-40.9-83.5-114.5-67.2-182z m151.8 82.5h27.6c14.3 0 34.3 19.9 22 31.8-1.7 1.7 4.2-5.5-75.7 94.7-4-1-6.5-1.7-10.9-3.1V451.8c0-23.4-8.9-45.4-25.1-62l-69.5-71c21.1-35 53.5-59.4 71.7-66.8l82 83.8c2.4 2.5 2.4 6.4 0 9l-45.6 46.6c-21 21.4-6.1 58.1 23.5 58.1zM702 319l-8.4 1.6c-10.4 2-20.4-5.1-22.4-15.7L666 276c6.1 4.2 29.3 29.2 36 43z" fill="#3153D4" p-id="71797"></path><path d="M705.9 153.6c-75.5-32.3-169.7-34.2-257.4-4.8-131 43.9-212.6 164.9-208.4 311 0.4 12.4-2.2 24.9-7.5 36.2l-1 2.2-69.1 122.9-0.3 0.5 70.4 10.2 5.8 48.7c9.9 82.4 17.2 128.8 24.6 156.3 2.9 10.9 5.6 17.8 8 22.1 0.6 1 1.1 1.9 1.7 2.7 0.4 0 0.8 0.1 1.2 0.1 9 0.5 22.8-1.1 40.7-5.6 25.3-6.3 52.6-16.8 77.1-29.8l67-35.5 23.8 72c3.3 10.1 6.4 21.1 9.3 33.2h274.9c-5.6-18.9-10.6-37.9-14.8-57-9.9-44.9-15.1-88.1-14.4-128.9 0.5-27.3 7.9-51.7 21.5-75.1 9.1-15.6 17.1-25.8 37.7-50.3 15.8-18.7 23.8-28.9 31.8-40.9 9.9-14.8 17.4-29.5 22.9-45.7 14-40.8 15.9-92.2 1.8-161.9-17.4-87.2-69.7-149.4-147.3-182.6zM421.8 882.9c-34.1 15-53.7 23.6-59 25.6-10.9 3.8-21.9 7.1-32.7 9.7-47.4 11.8-80.2 9.8-97.2-5.9-27-24.8-38.1-57.5-58.1-224.2l-22.4-3.2c-44.4-6.4-68.8-56.1-45.5-95.7l67.6-120.3c1-2.2 1.6-4.8 1.5-7.3-5-173.9 94-320.5 252.1-373.5C631.3 20 870 95.5 916.1 323.5 951.4 498 893.6 569.2 845.8 626c-25.3 30-43.6 51.7-44.2 85.2-1.3 76.2 21.8 157.2 41.4 211.7 6.5 18-6.6 37.1-25.5 37.1H461.7c-9.9 0-18.7-5.4-23.4-13.7-3.3-5.3-8.8-26.4-16.5-63.4z" fill="#3153D4" p-id="71798"></path></svg>