<?xml version="1.0" standalone="no"?><!DOCTYPE svg PUBLIC "-//W3C//DTD SVG 1.1//EN" "http://www.w3.org/Graphics/SVG/1.1/DTD/svg11.dtd"><svg t="1579068637874" class="icon" viewBox="0 0 1024 1024" version="1.1" xmlns="http://www.w3.org/2000/svg" p-id="12419" width="32" height="32" xmlns:xlink="http://www.w3.org/1999/xlink"><defs><style type="text/css"></style></defs><path d="M90.66666667 614.82666667v190.4c1.6 99.94666667 166.08 180.8 421.33333333 180.8s419.62666667-80.85333333 421.33333333-180.8V614.82666667H90.66666667z" fill="#ee3333" p-id="12420"></path><path d="M933.33333333 614.08c0 106.02666667-165.12 192-421.33333333 192s-421.33333333-85.97333333-421.33333333-192 165.12-192 421.33333333-192 421.33333333 85.86666667 421.33333333 192z" fill="#f56c6c" p-id="12421"></path><path d="M90.66666667 422.82666667v169.06666666c1.6 99.94666667 166.08 191.46666667 421.33333333 191.46666667s419.62666667-91.52 421.33333333-191.46666667V422.82666667H90.66666667z" fill="#ee3333" p-id="12422"></path><path d="M933.33333333 422.08c0 106.02666667-165.12 192-421.33333333 192s-421.33333333-85.97333333-421.33333333-192 165.12-192 421.33333333-192 421.33333333 85.86666667 421.33333333 192z" fill="#f56c6c" p-id="12423"></path><path d="M90.66666667 230.82666667v169.06666666c1.6 99.94666667 166.08 191.46666667 421.33333333 191.46666667s419.62666667-91.52 421.33333333-191.46666667V230.82666667H90.66666667z" fill="#ee3333" p-id="12424"></path><path d="M933.33333333 230.08c0 106.02666667-165.12 192-421.33333333 192s-421.33333333-85.97333333-421.33333333-192 165.12-192 421.33333333-192 421.33333333 85.86666667 421.33333333 192z" fill="#f56c6c" p-id="12425"></path></svg>