<?xml version="1.0" standalone="no"?><!DOCTYPE svg PUBLIC "-//W3C//DTD SVG 1.1//EN" "http://www.w3.org/Graphics/SVG/1.1/DTD/svg11.dtd"><svg t="1579071892442" class="icon" viewBox="0 0 1024 1024" version="1.1" xmlns="http://www.w3.org/2000/svg" p-id="54881" width="32" height="32" xmlns:xlink="http://www.w3.org/1999/xlink"><defs><style type="text/css"></style></defs><path d="M932.2064585125278 428.4858480324355c2.979307239084393 20.60687507033373 4.593098660255107 41.586163545553006 4.593098660255107 63.062003227286326 0 242.93767778700655-197.62738019259803 440.44092017797624-440.44092017797624 440.44092017797624-12.289642361223125 0-24.455146920817732-0.6206890081425819-36.62065148041232-1.6137914211707134-0.8689646113996146 14.151709385650863-4.468960858626591 27.55859196153065-10.303437535166864 39.72409652112524 15.393087401936038 1.4896536195421965 31.158588208757614 2.3586182309418113 46.924089015579185 2.3586182309418113 265.15834427851104 0 480.90984350887254-215.75149923036147 480.90984350887254-480.90984350887254 0-25.696524937102897-2.110342627684778-51.020636469320245-5.958614478168786-75.59992119176647-11.917228956337572 6.455165684682854-25.07583592896031 10.79998874168093-39.10340751298265 12.537917964480155zM55.917716816830705 491.5478512597219c0-68.7723421021981 15.889638608450097-133.94468795716918 44.19305737975183-192.04117911931488-12.786193567737191-4.965512065140655-24.455146920817732-12.289642361223125-34.38617105109905-21.475839681733326-32.02755282015724 64.42751904520001-50.15167185792062 136.92399519625357-50.15167185792062 213.51701880104815 0 174.04119788317996 92.85507561813026 326.7306938862552 231.6411378388116 411.14439899364635 2.731031635827362-13.779295980765324 8.068957105853569-26.68962735013102 15.517225203564552-37.98616729832604-124.13780162851641-78.08267722433682-206.81357751310836-216.12391263524705-206.81357751310836-373.15823169532024zM496.3586369948068 10.63800775084951c-111.10333245752217 0-213.2687431977912 37.98616729832604-294.82727886772665 101.42058393049793 11.048264344937957 7.944819304225049 20.482737268705208 17.999981236134886 27.806867564787666 29.54479678758691 74.11026757222429-56.73097534423201 166.71706758709752-90.49645738718846 267.02041130293884-90.49645738718846 147.59984613630604 0 278.44108905276227 73.11716515919613 358.385833301527 184.8411866248609 10.924126543309448-8.193094907482081 23.33790670616109-14.275847187279389 36.86892708366937-17.875843434506365-87.02059894158998-125.25504184317307-231.6411378388116-207.43426652125086-395.25476038519605-207.43426652125086zM204.48583780583914 229.02619388780045l230.96582819795253 219.5252883998684-28.989900814307433 30.501899238142766-230.9670695759687-219.5252883998684z" fill="#1afa29" p-id="54882"></path><path d="M186.73537355097756 255.81761423526683L352.1725804032851 839.4874885542088l-40.48754400114062 11.475298382540059-165.43720685230758-583.6686329409262zM436.027665403348 884.5681312156051l-30.041347994100967-29.54479678758691 470.4822681720771-479.5443276909588 30.16548579572949 29.420658985958386zM565.379254700262 489.68578423529414l-15.144811798679-39.227545314611206 301.03416894915233-116.06884452266283 15.020673997050483 39.227545314611206zM847.2962021986228 324.4583702677388l-643.5303636422288-104.5240289712108 6.703441287939887-41.586163545553006 643.6545014438575 104.5240289712108zM447.0610332120904 570.4101138782856l40.092785791961944 12.7936418358349L398.3183254026536 861.6026379143292l-40.091544413945655-12.7936418358349z" fill="#1afa29" p-id="54883"></path><path d="M352.60706270898504 1012.9266180994905c-49.28270724652102 0-89.50335497416035-40.0965099260108-89.50335497416035-89.37921717253178s40.0965099260108-89.50335497416035 89.50335497416035-89.50335497416035 89.50335497416035 40.0965099260108 89.50335497416035 89.50335497416035-40.2206477276393 89.37921717253178-89.50335497416035 89.37921717253178z m0-136.79985739462515c-26.06893834198844 0-47.420640222093276 21.227564078476302-47.420640222093276 47.420640222093276s21.227564078476302 47.29650242046474 47.420640222093276 47.29650242046474 47.420640222093276-21.227564078476302 47.420640222093276-47.29650242046474-21.351701880104827-47.420640222093276-47.420640222093276-47.420640222093276zM919.0478515399052 411.2306936060717c-49.28270724652102 0-89.37921717253178-40.0965099260108-89.37921717253178-89.37921717253178s40.0965099260108-89.37921717253178 89.37921717253178-89.37921717253178 89.50335497416035 40.0965099260108 89.50335497416035 89.37921717253178-40.0965099260108 89.37921717253178-89.50335497416035 89.37921717253178z m0-136.79985739462515c-26.06893834198844 0-47.29650242046474 21.227564078476302-47.29650242046474 47.29650242046474s21.227564078476302 47.29650242046474 47.29650242046474 47.29650242046474 47.420640222093276-21.227564078476302 47.420640222093276-47.29650242046474-21.227564078476302-47.29650242046474-47.420640222093276-47.29650242046474zM138.71763050305134 288.5825455970978c-49.28270724652102 0-89.50335497416035-40.0965099260108-89.50335497416035-89.37921717253178s40.0965099260108-89.50335497416035 89.50335497416035-89.50335497416035 89.37921717253178 40.0965099260108 89.37921717253178 89.50335497416035-40.0965099260108 89.37921717253178-89.37921717253178 89.37921717253178z m0-136.79985739462515c-26.06893834198844 0-47.420640222093276 21.227564078476302-47.420640222093276 47.420640222093276s21.227564078476302 47.29650242046474 47.420640222093276 47.29650242046474c26.06893834198844 0 47.29650242046474-21.227564078476302 47.29650242046474-47.29650242046474S164.78656884503965 151.78268820247257 138.71763050305134 151.78268820247257zM489.40692010361005 601.5339435025871c-49.28270724652102 0-89.37921717253178-40.0965099260108-89.37921717253178-89.37921717253178s40.0965099260108-89.37921717253178 89.37921717253178-89.37921717253178 89.50335497416035 40.0965099260108 89.50335497416035 89.37921717253178-40.2206477276393 89.37921717253178-89.50335497416035 89.37921717253178z m0-136.79985739462515c-26.06893834198844 0-47.29650242046474 21.227564078476302-47.29650242046474 47.29650242046474s21.227564078476302 47.29650242046474 47.29650242046474 47.29650242046474 47.420640222093276-21.227564078476302 47.420640222093276-47.29650242046474-21.351701880104827-47.29650242046474-47.420640222093276-47.29650242046474z" fill="#1afa29" p-id="54884"></path></svg>