<?xml version="1.0" standalone="no"?><!DOCTYPE svg PUBLIC "-//W3C//DTD SVG 1.1//EN" "http://www.w3.org/Graphics/SVG/1.1/DTD/svg11.dtd"><svg t="1579071817345" class="icon" viewBox="0 0 1024 1024" version="1.1" xmlns="http://www.w3.org/2000/svg" p-id="49894" width="32" height="32" xmlns:xlink="http://www.w3.org/1999/xlink"><defs><style type="text/css"></style></defs><path d="M960.877266 336.657534H666.301923c-14.027397 0-28.054795-14.027397-28.054794-35.068493s14.027397-35.068493 35.068493-35.068493H967.890964c21.041096 0 35.068493 14.027397 35.068494 35.068493-7.013699 21.041096-21.041096 35.068493-42.082192 35.068493zM960.877266 722.410959H666.301923c-21.041096 0-35.068493-14.027397-35.068493-35.068493s14.027397-35.068493 35.068493-35.068493h294.575343c21.041096 0 35.068493 14.027397 35.068493 35.068493s-14.027397 35.068493-35.068493 35.068493z" fill="#00D929" p-id="49895"></path><path d="M967.890964 91.178082H273.5348C259.507403 35.068493 210.411512 0 154.301923 0 84.164937 0 21.041649 56.109589 21.041649 126.246575a125.720548 125.720548 0 0 0 126.246576 126.246576c56.109589 0 105.205479-42.082192 126.246575-91.178083h687.342466c21.041096 0 42.082192-14.027397 42.082192-35.068493s-21.041096-35.068493-35.068494-35.068493zM154.301923 203.39726c-42.082192 0-77.150685-35.068493-77.150685-77.150685s35.068493-77.150685 77.150685-77.150685 77.150685 35.068493 77.150685 77.150685c-7.013699 42.082192-35.068493 77.150685-77.150685 77.150685zM967.890964 455.890411H280.548499c-21.041096-56.109589-70.136986-98.191781-126.246576-98.191781a126.246575 126.246575 0 0 0 0 252.493151c56.109589 0 105.205479-42.082192 126.246576-91.178082H967.890964c21.041096 0 35.068493-14.027397 35.068494-35.068494S988.93206 455.890411 967.890964 455.890411z m-813.589041 105.205479c-42.082192 0-77.150685-35.068493-77.150685-77.150685s35.068493-77.150685 77.150685-77.150684C196.384115 413.808219 231.452608 448.876712 231.452608 490.958904c0 35.068493-35.068493 70.136986-77.150685 70.136986zM967.890964 862.684932H280.548499C266.521101 806.575342 217.425211 771.506849 154.301923 771.506849a126.246575 126.246575 0 0 0 0 252.493151c56.109589 0 105.205479-42.082192 126.246576-91.178082H967.890964c21.041096 0 35.068493-14.027397 35.068494-35.068493s-14.027397-35.068493-35.068494-35.068493z m-813.589041 105.205479c-42.082192 0-77.150685-35.068493-77.150685-77.150685s35.068493-77.150685 77.150685-77.150685 77.150685 35.068493 77.150685 77.150685c0 49.09589-35.068493 77.150685-77.150685 77.150685z" fill="#0066EB" p-id="49896"></path></svg>