<?xml version="1.0" standalone="no"?><!DOCTYPE svg PUBLIC "-//W3C//DTD SVG 1.1//EN" "http://www.w3.org/Graphics/SVG/1.1/DTD/svg11.dtd"><svg t="1579072428868" class="icon" viewBox="0 0 3432 1024" version="1.1" xmlns="http://www.w3.org/2000/svg" p-id="68302" width="107.25" height="32" xmlns:xlink="http://www.w3.org/1999/xlink"><defs><style type="text/css"></style></defs><path d="M962.162816 326.206007c39.29601 55.309135 61.847008 118.575711 61.847008 185.821009 0 67.240386-22.550998 130.904835-62.239969 186.312209-11.155155 67.196178-40.027899 128.055874-87.723431 175.746495-46.860492 46.80646-106.978476 76.62722-176.139455 87.973944-55.314047 39.29601-118.61992 61.930512-185.870129 61.930512-67.25021 0-130.664147-22.442934-185.924161-61.930512-69.160978-11.356547-129.283874-41.167483-176.139455-87.973944-47.700445-47.690621-76.583012-108.555229-87.684135-175.746495C22.595206 642.877819 0 579.414762 0 512.027016c0-67.392658 22.595206-130.953955 62.284177-186.312209 11.052003-67.196178 39.831419-128.055874 87.679223-175.751407 46.860492-46.860492 106.983388-76.62722 176.144367-87.973944C381.367781 22.447846 444.732598 0 512.027016 0c67.289506 0 130.413635 22.447846 185.870129 61.989456 69.160978 11.346723 129.278962 41.113451 176.139455 87.973944 46.865404 46.860492 76.828612 107.474589 88.126216 176.242607z m48.334092 185.821009a299.641904 299.641904 0 0 0-44.600971-155.464841 436.495172 436.495172 0 0 1-2.799841 95.440185 507.532535 507.532535 0 0 1-12.280003 60.515856 459.689642 459.689642 0 0 1 14.736003 155.612201 299.691024 299.691024 0 0 0 44.900604-156.098489h0.044208z m-60.908816-61.842096a407.79926 407.79926 0 0 0-0.388048-118.870432 424.087457 424.087457 0 0 0-113.815982-105.608028c21.465446 41.958315 37.82241 86.333335 48.731965 132.181955a588.113916 588.113916 0 0 1 58.944016 128.203234c2.696689-11.985283 4.907089-23.921446 6.528049-35.906729z m-0.63856 242.805136a424.888113 424.888113 0 0 0-5.801073-154.335081 585.996844 585.996844 0 0 1-59.189616 127.712034 592.289117 592.289117 0 0 1-48.623901 131.788995 426.356801 426.356801 0 0 0 113.668622-105.165948h-0.054032z m-12.132643-180.66832a555.611204 555.611204 0 0 0-44.208012-111.60067 664.294144 664.294144 0 0 1 0 223.294668 554.019715 554.019715 0 0 0 44.257132-111.69891l-0.04912 0.004912z m6.582082-210.086296a294.720078 294.720078 0 0 0-221.629499-221.629499 458.545146 458.545146 0 0 1 100.396394 121.228193 459.910682 459.910682 0 0 1 121.233105 100.450426v-0.04912z m-78.935861 562.232582a300.113456 300.113456 0 0 0 78.59202-142.448038 460.868522 460.868522 0 0 1-120.884352 99.998522 459.483338 459.483338 0 0 1-100.352186 121.179073 299.067199 299.067199 0 0 0 142.644518-78.729557z m-4.469922-543.075777a555.45402 555.45402 0 0 0-47.59238-109.734109 556.210468 556.210468 0 0 0-109.395181-47.499052 675.616307 675.616307 0 0 1 84.928502 71.960819 662.260576 662.260576 0 0 1 72.005027 85.321462l0.054032-0.04912z m-47.597292 490.905411a556.220292 556.220292 0 0 0 47.499052-109.483597 670.473442 670.473442 0 0 1-156.938441 157.184041 558.239124 558.239124 0 0 0 109.395181-47.651324l0.044208-0.04912z m-14.048324-623.824166a424.937233 424.937233 0 0 0-105.504876-113.76195 389.089447 389.089447 0 0 0-59.779056-4.617281 455.637241 455.637241 0 0 0-94.752505 10.364322 583.609611 583.609611 0 0 1 128.355506 59.435216 591.237949 591.237949 0 0 1 131.641635 48.776173l0.039296-0.19648z m-105.558908 760.672522a424.377265 424.377265 0 0 0 105.460668-113.76195 590.029597 590.029597 0 0 1-131.641635 48.579693 585.608796 585.608796 0 0 1-128.350594 59.440128 456.261065 456.261065 0 0 0 94.752505 10.325026 389.148391 389.148391 0 0 0 59.779056-4.582897z m17.093765-323.401254c71.916611-83.847862 44.208012-228.658573 19.648005-321.790117-31.092968 55.260015-101.334587 94.556025-160.332635 104.527388-55.402463 9.480163-115.967439-5.255841-167.646604 10.855522-117.888031 36.79089-125.113585 174.081326-63.856017 209.005656l2.952112 2.406881c0.496112 0 108.064029-11.695475 160.814011-27.31564 77.11842-22.939046 164.159084-86.014055 196.480052-163.820155-19.648005 81.838854-96.083658 156.791082-169.857005 188.773122-39.29601 17.039733-68.375058 22.049974-133.066115 37.026666a129.234754 129.234754 0 0 0-42.832651 19.648005c73.090579-46.56086 269.128551 43.765932 357.736143-59.386096l-0.039296 0.068768zM633.009608 56.733615c11.690563 0 23.135526 0.4912 34.384009 1.42448a293.197358 293.197358 0 0 0-310.787234 0c11.248483-0.93328 22.742566-1.42448 34.384009-1.42448a476.513247 476.513247 0 0 1 120.982592 16.258724 476.051518 476.051518 0 0 1 121.036624-16.258724z m34.384009 909.10829a424.834081 424.834081 0 0 1-34.384009 1.478512 477.618447 477.618447 0 0 1-120.982592-16.263636 478.541903 478.541903 0 0 1-120.987504 16.263636 417.520111 417.520111 0 0 1-34.384009-1.419568 293.059822 293.059822 0 0 0 310.787234 0l-0.04912-0.058944z m-43.323851-834.49499a549.166658 549.166658 0 0 0-112.086958-44.208012 548.493714 548.493714 0 0 0-112.086958 44.208012 664.917969 664.917969 0 0 1 224.13462 0h0.039296z m-112.04275 805.813814a549.279634 549.279634 0 0 0 112.086958-44.208012 664.917969 664.917969 0 0 1-224.13462 0 548.719666 548.719666 0 0 0 112.047662 44.208012z m-26.279207-856.554788a455.170601 455.170601 0 0 0-94.703385-10.364322 387.905655 387.905655 0 0 0-59.779056 4.617281 424.170961 424.170961 0 0 0-105.553996 113.81107 590.569917 590.569917 0 0 1 131.838115-48.628813 583.560491 583.560491 0 0 1 128.198322-59.435216z m-94.752505 873.113144a455.376905 455.376905 0 0 0 94.698473-10.320114 584.361147 584.361147 0 0 1-128.154114-59.44504 590.643597 590.643597 0 0 1-131.695667-48.584605 424.873377 424.873377 0 0 0 105.504876 113.76195 386.918343 386.918343 0 0 0 59.646432 4.587809z m-91.608824-258.135492a30.788424 30.788424 0 0 0 30.243192-31.333657 30.788424 30.788424 0 0 0-31.338569-30.248104 30.798248 30.798248 0 0 0-30.248104 31.274713 30.70492 30.70492 0 0 0 31.083144 30.316872l0.260337-0.009824z m21.661925-531.424509a555.041411 555.041411 0 0 0-109.341149 47.499052 555.075795 555.075795 0 0 0-47.646412 109.734109 669.844706 669.844706 0 0 1 157.184041-157.184041l-0.19648-0.04912z m-109.390269 648.384172a557.507236 557.507236 0 0 0 109.395181 47.499052 675.557363 675.557363 0 0 1-84.928502-71.960819 666.853297 666.853297 0 0 1-72.059059-85.36567 555.47858 555.47858 0 0 0 47.646412 109.626045l-0.054032 0.201392z m-9.824002-610.709122a460.637658 460.637658 0 0 1 100.357098-121.179073 293.885038 293.885038 0 0 0-221.040058 221.040059 459.645434 459.645434 0 0 1 120.68296-99.860986z m100.352186 741.712197a461.079738 461.079738 0 0 1-100.357098-121.380465 460.69169 460.69169 0 0 1-120.840144-100.003434 293.875214 293.875214 0 0 0 221.040058 221.040059l0.157184 0.34384z m-162.096043-585.461436a590.221165 590.221165 0 0 1 48.781085-132.181955 423.380128 423.380128 0 0 0-113.815982 105.116828 424.804609 424.804609 0 0 0 5.845281 154.777161 590.864637 590.864637 0 0 1 58.993136-127.908514l0.19648 0.19648z m48.776173 440.414949a590.397997 590.397997 0 0 1-48.781085-132.181955 591.046381 591.046381 0 0 1-58.944015-127.712034 424.495153 424.495153 0 0 0-5.84037 154.782073 424.053073 424.053073 0 0 0 113.36899 104.910524l0.19648 0.201392z m-67.097938-286.472828c0.004912-37.301738 3.163329-74.534708 9.431043-111.30595a555.881364 555.881364 0 0 0-43.815052 111.30595 556.087668 556.087668 0 0 0 43.962412 111.30595 662.530736 662.530736 0 0 1-9.578403-111.30595z m-48.432333 0a459.85665 459.85665 0 0 1-14.736003-156.152521 293.22683 293.22683 0 0 0 0 312.305042 459.846826 459.846826 0 0 1 14.736003-156.152521z" fill="#55B332" p-id="68303"></path><path d="M729.432194 303.954641c24.560007 93.328025 52.361934 237.937343-19.648005 321.790117-88.416023 103.152027-284.650476 12.776115-357.647727 58.944016a128.822146 128.822146 0 0 1 42.837563-19.648005c64.691057-14.736004 93.819225-19.991845 133.066115-37.041402 73.68002-31.977128 150.115672-106.934268 169.857005-188.76821-32.424121 77.806101-119.415664 140.920405-196.480052 163.815243-52.558414 15.625076-160.278603 27.320551-160.818923 27.320551l-2.9472-2.40688c-61.350896-34.875209-54.032014-172.165646 63.856017-209.005656 51.674254-16.111364 112.23923-1.37536 167.646604-10.855523 58.993136-9.637347 129.234754-48.933357 160.278603-104.144251z" fill="#F5F5F5" p-id="68304"></path><path d="M1188.704316 626.476646c33.514585 23.21903 69.701299 34.821177 108.412781 34.821178 51.924766 0 77.845397-16.27346 77.845396-48.815469 0-13.881316-5.673362-25.326279-16.970964-34.334889-11.356547-8.998786-34.320153-19.687301-69.013619-32.050809-41.702891-16.057332-68.79749-31.947656-81.215029-47.680797-12.476483-15.728228-18.734373-34.767145-18.734373-57.116751 0-31.893624 14.131828-57.440943 42.346363-76.646868s62.908001-28.803976 104.183548-28.803976c31.962392 0 61.621056 5.319697 89.039847 15.949268v61.508081c-28.111383-17.354101-59.916592-26.038519-95.513865-26.038519-21.308262 0-38.652538 4.450273-51.988622 13.345907-13.385204 8.900546-20.070437 20.615669-20.070437 35.14537 0 14.323396 4.813761 25.498199 14.451108 33.524409 9.632435 8.031122 30.994728 18.331589 64.081969 30.916136 41.919019 14.97178 70.241619 30.488792 84.967798 46.541212 14.721268 16.062244 22.108918 35.916554 22.108918 59.558016 0 32.984089-14.131828 58.963664-42.346363 77.943637-28.209623 18.989797-64.730353 28.479784-109.596573 28.479783-38.981642 0-72.972691-7.053634-101.987883-21.155989V626.476646zM1598.640297 653.487742V869.915431h-66.606738V344.306731h66.606738V406.468108h1.340976c29.491656-47.076621 72.540435-70.624755 129.185634-70.624755 48.019725 0 85.709511 16.111364 113.020238 48.334093 27.300903 32.222729 40.951355 75.453252 40.951355 129.69157 0 59.877296-15.467892 107.995261-46.359468 144.339159-30.945608 36.338986-72.594467 54.51339-124.951489 54.51339-48.240765 0-85.552327-19.741333-111.841358-59.233823h-1.345888z m-0.31928-97.63585c0 29.290264 9.853475 53.97307 29.555511 74.038595 19.706949 20.070437 44.429052 30.105656 74.09754 30.105656 35.336937 0 63.011153-13.016803 82.93423-39.055322 19.957461-26.038519 29.923912-62.0484 29.923912-108.049293 0-38.834282-9.313154-69.269042-27.890343-91.289544-18.582101-22.01559-43.9575-33.033209-76.131109-33.033209-32.871113 0-59.808528 11.174803-80.900661 33.519497-21.087222 22.349606-31.58908 50.991486-31.58908 85.915815v47.847805zM2178.187683 407.445596c-11.086387-7.593954-26.392183-11.390931-45.883005-11.390931-25.851863 0-47.115917 11.557939-63.919873 34.663993-16.76466 23.106054-25.115063 53.535902-25.115062 91.289545v182.254896H1976.618797v-359.951456h66.650946v73.228116h1.340976c19.014357-52.936638 51.875646-79.412325 98.559306-79.412325 15.202644 0 26.873559 1.630784 35.012746 4.882529v64.435633zM2234.297473 217.380618c0-11.277955 4.013105-20.772854 12.04914-28.479784 8.031122-7.697106 17.933717-11.553027 29.717608-11.553027 11.990195 0 22.207158 3.796977 30.454408 11.390931s12.378243 17.137973 12.378243 28.636968c0 11.282867-4.126081 20.664789-12.378243 28.150679-8.252162 7.480978-18.464213 11.228835-30.454408 11.228835-12.000019 0-21.961558-3.747857-29.879704-11.228835-7.932882-7.480978-11.887043-16.8629-11.887044-28.145767z m7.810083 486.877569v-359.951456h66.611649v359.951456h-66.611649zM2745.474713 704.258187h-66.277633V499.545621c0-73.984564-28.165415-110.976845-84.599399-110.976846-29.226408 0-53.221534 10.413443-72.059059 31.240329-18.847349 20.826886-28.258744 47.189597-28.258743 79.088133v205.36095h-66.606738v-359.951456h66.606738V403.864747h1.380272c28.366808-45.342684 69.48517-68.021394 123.355089-68.021394 41.319755 0 72.692707 12.643491 94.222009 37.92065 21.519478 25.277159 32.237465 62.112256 32.237464 110.490558v220.003626zM3182.976845 673.990435c0 133.218387-67.554754 199.830037-202.580757 199.830037-46.688572 0-87.266615-8.350402-121.650625-25.061031v-61.50808c41.869899 22.344694 82.128662 33.519497 120.58472 33.519497 91.333752 0 137.044836-46.000892 137.044837-137.992853v-38.077834h-1.390097c-28.578024 45.347596-71.111043 68.021394-127.829922 68.021394-47.125741 0-84.820439-16.160484-113.187246-48.491277-28.283304-32.325881-42.410219-75.183092-42.410219-128.556898 0-61.395104 15.629988-110.048477 46.894877-145.96503 31.264888-35.90673 72.928483-53.865006 125.064465-53.865007 50.107325 0 87.266615 19.097861 111.468045 57.278847h1.390097v-48.815469H3182.976845v329.683704z m-66.596913-183.880769c0.211216-27.767543-9.529283-51.634958-29.236232-71.597331-19.702037-19.957461-43.996796-29.94356-72.795859-29.94356-36.20145 0-64.460193 12.746643-84.594487 38.23993-20.144117 25.493287-30.302136 60.481472-30.302136 104.954732 0 38.185898 9.745411 69.106946 29.236232 92.753321 19.485909 23.651286 45.38198 35.479385 77.516293 35.479385 32.438857 0 58.993136-11.282867 79.554773-33.848601 20.654965-22.565734 30.82772-51.207614 30.616504-85.920727V490.109666z" p-id="68305"></path></svg>