<?xml version="1.0" standalone="no"?><!DOCTYPE svg PUBLIC "-//W3C//DTD SVG 1.1//EN" "http://www.w3.org/Graphics/SVG/1.1/DTD/svg11.dtd"><svg t="1579073744737" class="icon" viewBox="0 0 1024 1024" version="1.1" xmlns="http://www.w3.org/2000/svg" p-id="109099" width="32" height="32" xmlns:xlink="http://www.w3.org/1999/xlink"><defs><style type="text/css"></style></defs><path d="M133.9106797 64.57844622v611.66933333h737.88681482v-436.90666666l-194.18074074-194.18074074h-524.288a19.41807408 19.41807408 0 0 0-19.41807408 19.41807407z" fill="#B6E1F8" p-id="109100"></path><path d="M917.7212397 966.70333155H84.11302875a49.22481778 49.22481778 0 0 1-49.22481778-49.22481777V676.12156208c0-27.1853037 22.03951408-49.22481778 49.22481778-49.22481778h833.60821095c27.1853037 0 49.22481778 22.03951408 49.22481778 49.22481778v241.3569517c0 27.1853037-22.03951408 49.22481778-49.22481778 49.22481777z" fill="#209AD7" p-id="109101"></path><path d="M697.03482785 239.34111289h174.76266667l-194.18074074-194.18074074v174.76266667a19.41807408 19.41807408 0 0 0 19.41807407 19.41807407z" fill="#86D0F4" p-id="109102"></path><path d="M288.21640533 348.17941808h446.6157037v33.98162962h-446.6157037z m0 135.92651851h446.6157037v33.98162963h-446.6157037z" fill="#209AD7" p-id="109103"></path><path d="M375.33559467 750.07529718h-46.11792592c-1.63111822-22.64147437-13.76741452-33.98162963-36.4088889-33.98162963-23.47645155 1.63111822-35.61274785 11.34015525-36.40888888 29.12711112-1.63111822 16.99081482 12.1362963 27.51541097 41.2634074 31.55437036 1.61170015 0.81555911 3.2234003 1.63111822 4.85451852 2.42725927 53.3997037 10.52459615 79.68206697 30.75822933 78.88592593 60.68148148-1.63111822 46.93348503-33.58355911 71.18665955-95.87674074 72.81777777-59.06978133-0.81555911-87.79882192-25.48622222-86.16770371-74.0314074h48.54518518c0 26.69985185 12.53436682 40.46726637 37.62251853 41.2634074 29.12711111-0.79614103 44.08873718-10.50517808 44.90429629-29.1271111 0-14.56355555-14.16548503-25.06873363-42.47703704-31.55437037a106.77998933 106.77998933 0 0 1-8.49540741-2.42725926c-50.17630341-10.50517808-74.84696652-31.13688178-74.0314074-61.89511112 2.42725925-45.30236682 33.56414103-69.97302992 93.44948148-74.0314074 48.54518518 3.24281837 74.03140741 26.30178133 76.45866667 69.17688888z m258.50311111 125.00385185v35.19525927h-94.66311111c-4.05837748 0-7.69926637 0.39807052-10.92266667 1.21362962h-7.28177778c-2.42725925 0.79614103-4.05837748 1.21362963-4.85451852 1.21362963-70.39051852-1.63111822-106.40133689-39.63228918-108.01303703-114.08118518 1.61170015-76.04117808 37.62251852-115.29481482 108.01303703-117.72207407 68.7594003 2.42725925 104.37214815 41.680896 106.79940741 117.72207407-2.42725925 30.75822933-13.34992592 57.04059259-32.768 78.88592593 1.61170015 0 6.06814815-0.39807052 13.34992592-1.21362963 6.46621867 0 11.32073718-0.39807052 14.56355556-1.21362964h15.77718519z m-117.72207408 4.85451852c37.20502992 0 55.82696297-27.09792237 55.82696297-81.31318518 0-55.01140385-18.62193303-82.52681482-55.82696297-82.52681482-38.83614815 0-57.8561517 27.51541097-57.04059259 82.52681482-0.81555911 55.03082192 18.20444445 82.1287443 57.04059259 81.31318518z m286.4165926 30.34074075h-144.42192593v-224.52148148h47.33155555v186.89896296h97.09037038v37.62251852z" fill="#EFF8FD" p-id="109104"></path></svg>