<?xml version="1.0" standalone="no"?><!DOCTYPE svg PUBLIC "-//W3C//DTD SVG 1.1//EN" "http://www.w3.org/Graphics/SVG/1.1/DTD/svg11.dtd"><svg t="1579070988618" class="icon" viewBox="0 0 1024 1024" version="1.1" xmlns="http://www.w3.org/2000/svg" p-id="47410" xmlns:xlink="http://www.w3.org/1999/xlink" width="32" height="32"><defs><style type="text/css"></style></defs><path d="M336 85.333333c-31.488 0-58.496 16.981333-73.344 42.666667h-13.312a128.426667 128.426667 0 0 0-128 120.021333l-37.333333 554.666667a129.28 129.28 0 0 0 34.645333 96A128.298667 128.298667 0 0 0 212.053333 938.666667h597.333334c35.157333 0 67.968-14.336 91.989333-40.021334a129.28 129.28 0 0 0 34.688-96l-37.333333-554.666666A127.232 127.232 0 0 0 771.968 128h-13.312c-14.805333-25.685333-41.813333-42.666667-73.301333-42.666667z m0 85.333334h349.354667l34.645333 384H301.312zM246.656 213.333333l-30.634667 333.354667c-0.170667 1.28-4.010667 135.978667-4.010666 135.978667 0 47.018667 38.314667 85.333333 85.333333 85.333333h426.666667c46.976 0 85.333333-38.314667 85.333333-85.333333 0 0-5.162667-134.826667-5.333333-136.021334L774.656 213.333333c21.162667 1.493333 38.698667 18.517333 40.021333 40.021334l35.968 554.666666a41.557333 41.557333 0 0 1-10.666666 32 41.386667 41.386667 0 0 1-30.634667 13.312h-597.333333a44.373333 44.373333 0 0 1-32-13.354666c-8.192-8.661333-11.349333-20.138667-10.666667-32l37.333333-554.666667c1.322667-21.461333 18.816-38.485333 39.978667-39.978667z m266.666667 0c-45.141333 0-113.322667 18.986667-113.322667 86.656 0 82.517333 157.354667 61.994667 157.354667 114.688 0 19.84-25.685333 33.322667-50.688 33.322667-35.328 0-63.146667-21.333333-82.688-21.333333-15.488 0-41.301333 4.821333-41.301334 33.322666 0 45.013333 103.509333 52.010667 141.312 52.010667 22.528 0 114.688-13.354667 114.688-100.010667 0-104.661333-160-80.810667-160-121.344 0-15.658667 10.837333-27.989333 34.645334-27.989333 23.850667 0 42.197333 16 66.688 16 13.824 0 30.677333-5.674667 30.677333-25.301333 0-31.701333-63.530667-40.021333-97.365333-40.021334zM297.386667 640c1.322667 0.170667 425.301333 0.170667 426.666666 0v42.666667h-426.666666z" fill="#d4237a" p-id="47411"></path></svg>