<?xml version="1.0" standalone="no"?><!DOCTYPE svg PUBLIC "-//W3C//DTD SVG 1.1//EN" "http://www.w3.org/Graphics/SVG/1.1/DTD/svg11.dtd"><svg t="1579074253588" class="icon" viewBox="0 0 1024 1024" version="1.1" xmlns="http://www.w3.org/2000/svg" p-id="121034" width="32" height="32" xmlns:xlink="http://www.w3.org/1999/xlink"><defs><style type="text/css"></style></defs><path d="M371.797333 551.509333v187.733334h83.968V552.618667l-41.898666-35.498667z m-140.970666 187.733334h83.968V597.930667l-83.968 68.864z m422.997333-230.4v230.4h83.968V437.077333zM512.853333 600.917333V739.584h83.968V557.738667L529.664 614.997333z m0 0" fill="#297ED3" p-id="121035"></path><path d="M793.088 285.013333H632.064l68.266667 66.730667-170.666667 146.090667L413.866667 399.786667 230.4 550.229333V614.997333l183.466667-150.186666 115.882666 98.133333 206.08-176.469333 57.258667 55.978666z m0 0" fill="#297ED3" p-id="121036"></path><path d="M512 1024a512 512 0 1 1 512-512 512 512 0 0 1-512 512zM512 13.397333A498.944 498.944 0 1 0 1010.602667 512.597333 499.456 499.456 0 0 0 512 13.397333z" fill="#297ED3" p-id="121037"></path></svg>