<?xml version="1.0" standalone="no"?><!DOCTYPE svg PUBLIC "-//W3C//DTD SVG 1.1//EN" "http://www.w3.org/Graphics/SVG/1.1/DTD/svg11.dtd"><svg t="1579070940886" class="icon" viewBox="0 0 1241 1024" version="1.1" xmlns="http://www.w3.org/2000/svg" p-id="44647" width="38.78125" height="32" xmlns:xlink="http://www.w3.org/1999/xlink"><defs><style type="text/css"></style></defs><path d="M1183.590346 808.266946C1153.934103 808.266946 1129.865268 784.198111 1129.865268 754.541868L1129.435467 108.578384 324.902413 109.035047C295.24617 109.035047 271.177335 84.993075 271.177335 55.309969 271.177335 25.653725 295.24617 1.58489 324.902413 1.58489L1074.474711 1.155089 1074.474711 1.611752 1131.557608 1.611752C1183.563484 1.611752 1226.919622 38.547744 1236.858762 87.598741L1237.315425 754.541868C1237.315425 784.198111 1213.273452 808.266946 1183.590346 808.266946ZM1076.167051 270.237146 1076.167051 323.962225 1076.247639 323.962225 1076.650577 926.811333C1070.660231 980.482686 1025.665477 1022.388248 970.382371 1022.388248L913.299475 1022.388248 913.299475 1022.468835 268.974607 1022.898636C239.318363 1022.898636 215.249528 998.829801 215.249528 969.173557 215.249528 939.490451 239.318363 914.669465 268.974607 914.669465L863.764953 914.884365C888.559077 914.803778 907.255404 912.789087 921.976076 908.491081L704.174607 630.920462 609.054355 780.786569C594.817209 806.816369 562.179224 816.379433 536.12256 802.142288 535.853935 801.981112 535.69276 801.712487 535.424134 801.551312 525.914795 796.366842 517.829171 788.388667 512.752151 777.885414L356.788248 534.645121 102.937251 996.062959C102.453725 996.949423 101.782162 997.674711 101.244911 998.50745 100.60021 999.555089 99.901784 1000.549003 99.203358 1001.516055 97.672193 1003.638195 96.087303 1005.599161 94.314376 1007.425813 93.9383 1007.828751 93.535362 1008.177964 93.159286 1008.55404 90.929696 1010.729906 88.565792 1012.717733 86.040714 1014.436936 85.933263 1014.490661 85.852676 1014.544386 85.772088 1014.598111 83.811123 1015.914376 81.581532 1016.666527 79.486254 1017.741028 36.130115 1005.223085 4.217419 966.514166 2.149003 919.665897L1.719203 269.699895C1.987828 212.240923 47.439244 165.822455 104.334103 163.270514L969.146695 162.813851C1028.271144 163.055614 1076.167051 211.032109 1076.167051 270.237146ZM872.468416 914.884365 927.026233 914.911228 926.730745 914.535152 872.468416 914.884365ZM109.16936 270.720672 109.16936 270.908709 142.102833 270.693809 109.16936 270.720672ZM968.770619 270.264008 878.6468 270.317733 968.770619 270.908709 968.770619 270.264008ZM968.797482 321.840084 967.427492 377.633578C967.427492 292.747954 951.336831 270.962434 863.684365 270.317733L204.611962 270.666946C125.743547 272.950262 110.405037 296.078909 110.405037 377.633578L109.196222 328.931794 109.49171 761.23064 305.61511 404.73788C311.148793 394.610703 319.503043 387.062329 329.146695 382.361385 329.388458 382.227072 329.52277 381.98531 329.791396 381.850997 331.994124 380.776495 334.27744 380.131794 336.533893 379.379643 336.990556 379.245331 337.420357 379.03043 337.87702 378.896118 362.698006 371.482057 389.909759 382.737461 401.541238 406.833158L561.29276 655.929486 651.470304 513.853515C661.328856 495.828751 680.052046 485.943337 699.258762 486.158237 718.465477 485.943337 737.161805 495.828751 747.020357 513.853515L969.119832 796.850367 968.797482 321.840084ZM834.404197 323.962225C878.915425 323.962225 914.991815 360.038615 914.991815 404.549843 914.991815 449.06107 878.915425 485.137461 834.404197 485.137461 789.89297 485.137461 753.816579 449.06107 753.816579 404.549843 753.816579 360.038615 789.89297 323.962225 834.404197 323.962225ZM1055.187408 109.27681 1019.460231 109.035047C1033.025813 109.035047 1044.791605 109.06191 1055.187408 109.27681ZM1127.87744 109.733473 1128.280378 170.066737C1126.668625 118.678699 1116.433998 110.512487 1055.187408 109.27681L1127.87744 109.733473ZM1128.280378 170.066737C1128.683316 182.745855 1128.602728 197.92319 1128.602728 216.485205L1128.280378 170.066737Z" fill="#59a6f7" p-id="44648"></path></svg>