<?xml version="1.0" standalone="no"?><!DOCTYPE svg PUBLIC "-//W3C//DTD SVG 1.1//EN" "http://www.w3.org/Graphics/SVG/1.1/DTD/svg11.dtd"><svg t="1579073209210" class="icon" viewBox="0 0 1024 1024" version="1.1" xmlns="http://www.w3.org/2000/svg" p-id="93161" width="32" height="32" xmlns:xlink="http://www.w3.org/1999/xlink"><defs><style type="text/css"></style></defs><path d="M493.14691997 378.04265961h-160.25118033V858.79620056H215.06398942V378.04265961H54.8128091V293.20379942h433.62084085v84.83886019z m362.92179072 334.64217065c0-23.56635005-9.42654002-37.70616007-23.56635006-51.8459701-14.13981003-14.13981003-42.41943008-23.56635005-80.12559017-37.70616007-65.98578013-18.85308003-117.83175024-42.41943008-155.53791029-70.69905015-32.99289006-28.27962006-51.84597011-61.27251012-51.84597011-108.40521022 0-47.1327001 18.85308003-84.83886017 61.27251013-113.11848021 37.70616007-28.27962006 89.55213018-42.41943008 150.82464029-42.41943008 61.27251012 0 113.11848021 18.85308003 150.82464031 51.84597008 37.70616007 32.99289006 56.55924012 75.41232014 56.5592401 122.54502027h-108.4052102c0-28.27962006-9.42654002-47.1327001-28.27962007-65.98578015-18.85308003-14.13981003-42.41943008-23.56635005-75.41232016-23.56635004-28.27962006 0-51.84597011 4.71327001-70.69905012 18.85308003-18.85308003 14.13981003-23.56635005 32.99289006-23.56635007 51.8459701 0 18.85308003 9.42654002 32.99289006 28.27962008 47.1327001 18.85308003 14.13981003 47.1327001 23.56635005 94.26540019 37.70616007 61.27251012 18.85308003 108.40521023 42.41943008 141.39810028 70.69905015 32.99289006 28.27962006 47.1327001 65.98578013 47.13270008 113.11848022s-18.85308003 89.55213018-56.55924012 113.11848022c-37.70616007 28.27962006-89.55213018 42.41943008-150.82464029 42.4194301-61.27251012 0-117.83175024-14.13981003-160.25118031-47.13270011s-70.69905013-75.41232014-65.98578013-136.68483025h113.11848022c0 32.99289006 9.42654002 56.55924012 32.99289007 75.41232014 18.85308003 14.13981003 51.84597011 23.56635005 84.83886016 23.56635004s56.55924012-4.71327001 70.69905015-18.85308005c9.42654002-14.13981003 18.85308003-32.99289006 18.85308004-51.84597009z" fill="#529BBA" p-id="93162"></path></svg>