<?xml version="1.0" standalone="no"?><!DOCTYPE svg PUBLIC "-//W3C//DTD SVG 1.1//EN" "http://www.w3.org/Graphics/SVG/1.1/DTD/svg11.dtd"><svg t="1579072608594" class="icon" viewBox="0 0 1024 1024" version="1.1" xmlns="http://www.w3.org/2000/svg" p-id="78987" width="32" height="32" xmlns:xlink="http://www.w3.org/1999/xlink"><defs><style type="text/css"></style></defs><path d="M596.23424 253.21472a235.52 235.52 0 0 0-98.28352 21.05344l-84.23424-143.91296c56.15616-28.0576 115.83488-45.62944 182.51776-45.62944 24.576 0 52.6336 3.52256 77.2096 7.02464v14.04928c0 80.71168 66.70336 147.41504 147.43552 147.41504 31.58016 0 59.65824-10.5472 84.23424-28.09856 56.15616 63.1808 91.25888 143.91296 98.26304 235.17184l-164.9664 3.50208c-14.0288-119.33696-119.33696-210.57536-242.176-210.57536z m221.12256-42.12736c-59.65824 0-105.28768-45.62944-105.28768-105.28768 0-59.67872 45.62944-105.30816 105.28768-105.30816 59.67872 0 105.30816 45.62944 105.30816 105.30816 0 59.65824-45.62944 105.2672-105.30816 105.2672zM354.05824 495.39072c0 77.2096 35.10272 143.89248 91.25888 189.52192l-80.73216 143.91296c-70.20544-49.152-126.3616-122.83904-154.4192-203.5712 38.58432-28.07808 63.16032-70.20544 63.16032-122.83904a141.55776 141.55776 0 0 0-70.20544-122.85952c28.09856-87.73632 80.73216-164.9664 154.43968-217.6l87.7568 140.3904a248.46336 248.46336 0 0 0-91.25888 193.04448z m-228.1472 112.31232c-59.65824 0-105.28768-45.62944-105.28768-105.28768 0-59.67872 45.62944-105.30816 105.28768-105.30816 59.67872 0 105.30816 45.62944 105.30816 105.30816 0 59.65824-45.62944 105.28768-105.30816 105.28768z m470.3232 129.86368c126.3616 0 228.1472-94.76096 242.176-217.62048l164.9664 3.52256c-7.00416 98.26304-49.13152 186.01984-112.31232 252.7232-21.05344-10.5472-42.10688-17.57184-66.68288-17.57184-77.2096 0-140.3904 59.67872-147.41504 136.88832-28.07808 7.02464-52.6336 7.02464-80.73216 7.02464-63.1808 0-126.3616-14.04928-178.9952-42.12736l84.23424-143.89248c28.0576 14.0288 59.65824 21.05344 94.76096 21.05344z m228.1472 63.1808c59.65824 0 105.28768 45.62944 105.28768 105.28768 0 59.67872-45.62944 105.30816-105.28768 105.30816-59.67872 0-105.30816-49.152-105.30816-105.30816 0-59.65824 45.62944-105.28768 105.30816-105.28768z" fill="#4489DE" p-id="78988"></path></svg>