<?xml version="1.0" standalone="no"?><!DOCTYPE svg PUBLIC "-//W3C//DTD SVG 1.1//EN" "http://www.w3.org/Graphics/SVG/1.1/DTD/svg11.dtd"><svg t="1579073729994" class="icon" viewBox="0 0 1024 1024" version="1.1" xmlns="http://www.w3.org/2000/svg" p-id="108177" width="32" height="32" xmlns:xlink="http://www.w3.org/1999/xlink"><defs><style type="text/css"></style></defs><path d="M882.574222 0C753.095111 35.271111 623.502222 70.656 494.136889 105.927111c-18.773333 35.271111-37.660444 70.656-56.547556 105.927111-143.132444-4.664889-220.501333 57.230222-261.347555 148.366222L20.821333 515.640889c132.096 102.058667 192.284444 296.96 409.713778 289.450667C522.012444 963.470222 706.218667 960.398222 889.628444 1024c70.200889-111.616 131.982222-413.127111 56.547556-501.418667 11.150222-46.193778 46.876444-71.566222 56.547556-105.927111C1011.712 383.886222 898.958222 14.563556 882.574222 0zM451.697778 225.962667l275.456-70.656h21.162666c-56.547556 96.483556-112.981333 193.080889-169.528888 289.564444-48.241778 43.576889-271.701333 16.497778-353.166223 14.108445 75.320889-77.596444 150.641778-155.306667 226.076445-233.016889z m-225.962667 339.057777h345.998222c58.936889 101.262222 117.646222 202.410667 176.583111 303.672889-252.700444-40.846222-398.336-138.353778-522.581333-303.672889z m614.4 254.179556h-7.054222c-56.547556-98.872889-112.981333-197.745778-169.528889-296.618667 56.547556-105.927111 112.981333-211.854222 169.528889-317.781333 126.065778 214.584889 46.876444 389.802667 7.054222 614.4z" fill="#1296db" p-id="108178"></path></svg>