<?xml version="1.0" standalone="no"?><!DOCTYPE svg PUBLIC "-//W3C//DTD SVG 1.1//EN" "http://www.w3.org/Graphics/SVG/1.1/DTD/svg11.dtd"><svg t="1579071974086" class="icon" viewBox="0 0 1024 1024" version="1.1" xmlns="http://www.w3.org/2000/svg" p-id="58536" width="32" height="32" xmlns:xlink="http://www.w3.org/1999/xlink"><defs><style type="text/css"></style></defs><path d="M960 128H320c-38.4 0-64 25.6-64 64v64c0 38.4 25.6 64 64 64h640c38.4 0 64-25.6 64-64V192c0-38.4-25.6-64-64-64zM960 448H512c-38.4 0-64 25.6-64 64v64c0 38.4 25.6 64 64 64h448c38.4 0 64-25.6 64-64V512c0-38.4-25.6-64-64-64zM960 768H512c-38.4 0-64 25.6-64 64v64c0 38.4 25.6 64 64 64h448c38.4 0 64-25.6 64-64v-64c0-38.4-25.6-64-64-64zM352 576c19.2 0 32-12.8 32-32S371.2 512 352 512H128V320c38.4 0 64-25.6 64-64V192c0-38.4-25.6-64-64-64H64c-38.4 0-64 25.6-64 64v64c0 38.4 25.6 64 64 64v544c0 19.2 12.8 32 32 32h256c19.2 0 32-12.8 32-32s-12.8-32-32-32H128V576h224z" fill="#14ADC4" p-id="58537"></path></svg>