<?xml version="1.0" standalone="no"?><!DOCTYPE svg PUBLIC "-//W3C//DTD SVG 1.1//EN" "http://www.w3.org/Graphics/SVG/1.1/DTD/svg11.dtd"><svg t="1579074107398" class="icon" viewBox="0 0 1024 1024" version="1.1" xmlns="http://www.w3.org/2000/svg" p-id="113887" width="32" height="32" xmlns:xlink="http://www.w3.org/1999/xlink"><defs><style type="text/css"></style></defs><path d="M512 1006.4c-9.6 0-18.4-2.4-24.8-5.6L100.8 778.4c-13.6-8-24.8-28-24.8-43.2V288.8c0-15.2 12-35.2 24.8-43.2L487.2 23.2c6.4-4 15.2-5.6 24.8-5.6 9.6 0 18.4 2.4 24.8 5.6l385.6 223.2c13.6 8 24.8 28 24.8 43.2v445.6c0 15.2-12 35.2-24.8 43.2l-385.6 223.2c-6.4 3.2-15.2 4.8-24.8 4.8z" fill="#3D3B47" p-id="113888"></path><path d="M512 29.6c7.2 0 14.4 1.6 19.2 4L916.8 256c9.6 5.6 19.2 21.6 19.2 32.8v445.6c0 11.2-9.6 27.2-19.2 32.8l-385.6 223.2c-4.8 2.4-12 4-19.2 4-7.2 0-14.4-1.6-19.2-4L107.2 768c-9.6-5.6-19.2-21.6-19.2-32.8V288.8c0-11.2 9.6-27.2 19.2-32.8L492.8 33.6c4.8-2.4 12-4 19.2-4m0-24c-11.2 0-22.4 2.4-31.2 7.2L95.2 235.2C78.4 245.6 64 269.6 64 288.8v445.6c0 20 13.6 44 31.2 53.6l385.6 223.2c8.8 4.8 20 7.2 31.2 7.2s22.4-2.4 31.2-7.2l385.6-223.2c16.8-9.6 31.2-33.6 31.2-53.6V288.8c0-20-13.6-44-31.2-53.6L543.2 12.8C534.4 8 523.2 5.6 512 5.6z" fill="#CCCCCC" p-id="113889"></path><path d="M512 477.6h2.4c11.2 0.8 21.6 7.2 28 16.8 3.2 5.6 4.8 12.8 4.8 20-1.6 18.4-16 32-34.4 32h-2.4c-11.2-0.8-21.6-7.2-28-16.8-3.2-5.6-4.8-12.8-4.8-20 0.8-17.6 16-32 34.4-32m0-2.4c-19.2 0-35.2 15.2-36.8 34.4-0.8 7.2 0.8 14.4 4.8 20.8 6.4 10.4 16.8 17.6 29.6 18.4h2.4c19.2 0 35.2-15.2 36.8-34.4 0.8-7.2-1.6-14.4-4.8-20.8-6.4-10.4-16.8-17.6-29.6-18.4H512z" fill="#EFF3F3" p-id="113890"></path><path d="M512.8 500c6.4 0.8 12 6.4 11.2 12.8-0.8 6.4-6.4 12-12.8 11.2-6.4-0.8-12-6.4-11.2-12.8 0-6.4 6.4-12 12.8-11.2zM512 560.8h-3.2c-16-0.8-31.2-10.4-39.2-24-4.8-8.8-7.2-18.4-6.4-28 0.8-11.2 5.6-21.6 12.8-29.6v-0.8L160 719.2l363.2-160c-4 0.8-7.2 1.6-11.2 1.6z" fill="#EFF3F3" p-id="113891"></path><path d="M500 464.8c4.8-0.8 9.6-1.6 15.2-1.6 16 0.8 31.2 10.4 39.2 24 4.8 8.8 7.2 18.4 6.4 28-0.8 12-5.6 22.4-13.6 30.4l319.2-235.2-366.4 154.4z" fill="#0977F7" p-id="113892"></path></svg>