<?xml version="1.0" standalone="no"?><!DOCTYPE svg PUBLIC "-//W3C//DTD SVG 1.1//EN" "http://www.w3.org/Graphics/SVG/1.1/DTD/svg11.dtd"><svg t="1579073042427" class="icon" viewBox="0 0 1286 1024" version="1.1" xmlns="http://www.w3.org/2000/svg" p-id="82485" width="40.1875" height="32" xmlns:xlink="http://www.w3.org/1999/xlink"><defs><style type="text/css"></style></defs><path d="M1081.53125 722.9375V195.59375c0-58.0078125-42.1875-105.46875-94.921875-105.46875H243.0546875C195.59375 90.125 153.40625 137.5859375 153.40625 195.59375v527.34375H90.125v105.46875c0 58.0078125 42.1875 105.46875 94.921875 105.46875h870.1171875c52.734375 0 94.921875-47.4609375 94.921875-105.46875v-105.46875h-68.5546875zM216.6875 195.59375c0-21.09375 15.8203125-36.9140625 31.640625-36.9140625h743.5546875c15.8203125 0 31.640625 15.8203125 31.640625 36.9140625v527.34375H216.6875V195.59375z m864.84375 632.8125c0 21.09375-15.8203125 36.9140625-31.640625 36.9140625H185.046875c-15.8203125 0-31.640625-15.8203125-31.640625-36.9140625v-36.9140625h928.125v36.9140625z" fill="#0A6ED7" p-id="82486"></path><path d="M274.6953125 232.5078125h63.28125v421.875H274.6953125z" fill="#0A6ED7" p-id="82487"></path></svg>