<?xml version="1.0" standalone="no"?><!DOCTYPE svg PUBLIC "-//W3C//DTD SVG 1.1//EN" "http://www.w3.org/Graphics/SVG/1.1/DTD/svg11.dtd"><svg t="1579070212959" class="icon" viewBox="0 0 1252 1024" version="1.1" xmlns="http://www.w3.org/2000/svg" p-id="25652" width="39.125" height="32" xmlns:xlink="http://www.w3.org/1999/xlink"><defs><style type="text/css"></style></defs><path d="M846.769231 311.138462c15.753846 0 27.569231 0 43.323077 3.938461-39.384615-177.230769-228.430769-311.138462-445.046154-311.138461C200.861538 3.938462 3.938462 169.353846 3.938462 382.030769c0 122.092308 66.953846 220.553846 177.230769 299.323077l-43.323077 133.907692 153.6-78.76923c55.138462 11.815385 98.461538 23.630769 153.6 23.630769h43.323077c-7.876923-31.507692-11.815385-59.076923-11.815385-94.523077-7.876923-196.923077 161.476923-354.461538 370.215385-354.461538z m-236.307693-122.092308c31.507692 0 55.138462 23.630769 55.138462 55.138461 0 31.507692-23.630769 55.138462-55.138462 55.138462-31.507692 0-66.953846-23.630769-66.953846-55.138462 0-31.507692 31.507692-55.138462 66.953846-55.138461zM299.323077 299.323077c-31.507692 0-66.953846-23.630769-66.953846-55.138462 0-31.507692 31.507692-55.138462 66.953846-55.138461 31.507692 0 55.138462 23.630769 55.138461 55.138461 0 35.446154-23.630769 55.138462-55.138461 55.138462z m953.107692 358.4c0-177.230769-177.230769-322.953846-374.153846-322.953846-212.676923 0-378.092308 145.723077-378.092308 322.953846 0 177.230769 165.415385 322.953846 378.092308 322.953846 43.323077 0 86.646154-11.815385 133.907692-23.630769l122.092308 66.953846-31.507692-110.276923c82.707692-66.953846 149.661538-157.538462 149.661538-256z m-500.184615-59.076923c-23.630769 0-43.323077-23.630769-43.323077-43.323077 0-23.630769 23.630769-43.323077 43.323077-43.323077 35.446154 0 55.138462 23.630769 55.138461 43.323077 0 23.630769-19.692308 43.323077-55.138461 43.323077z m244.184615 0c-23.630769 0-43.323077-23.630769-43.323077-43.323077 0-23.630769 23.630769-43.323077 43.323077-43.323077 31.507692 0 55.138462 23.630769 55.138462 43.323077 0 23.630769-23.630769 43.323077-55.138462 43.323077z" fill="#67C213" p-id="25653"></path></svg>