<?xml version="1.0" standalone="no"?><!DOCTYPE svg PUBLIC "-//W3C//DTD SVG 1.1//EN" "http://www.w3.org/Graphics/SVG/1.1/DTD/svg11.dtd"><svg t="1579070158756" class="icon" viewBox="0 0 1024 1024" version="1.1" xmlns="http://www.w3.org/2000/svg" p-id="23261" width="32" height="32" xmlns:xlink="http://www.w3.org/1999/xlink"><defs><style type="text/css"></style></defs><path d="M511.99337094 32.03977531c-265.10144063 0-479.95359562 214.852155-479.95359563 479.95359563s214.852155 479.95359562 479.95359563 479.95359562 479.95359562-214.78586345 479.95359562-479.95359562-214.78586345-479.95359562-479.95359562-479.95359563z m283.09307062 439.31664094a171.0331875 171.0331875 0 0 1-98.80149656 73.78292156c-1.07392969 0.3049425-2.12134219 0.63640219-3.19527094 0.91482844a72.92112656 72.92112656 0 0 1-19.88758031 2.99639531c-29.28777562 0-45.83424281-19.76825437-36.93786469-44.1902025a70.40203313 70.40203313 0 0 1 44.36256093-39.89448562 77.16380999 77.16380999 0 0 0 54.84994595-69.8319225c0-42.06886031-40.92863906-76.18268906-91.41657563-76.18268907s-91.48286813 34.11382875-91.48286812 76.18268907v233.67906468a154.81818094 154.81818094 0 0 1-81.27391031 133.33959375 183.77449687 183.77449687 0 0 1-91.48286719 24.13026375c-95.2217325 0-172.69048594-70.64068406-172.69048594-157.4698575a145.74944437 145.74944437 0 0 1 21.66420375-76.18269 171.0331875 171.0331875 0 0 1 99.34509093-73.98179718h0.11932595a73.75640437 73.75640437 0 0 1 21.94262906-3.46043907c29.42035969 0 46.03311844 19.88758031 37.12348312 44.38907813a71.91348937 71.91348937 0 0 1-41.32639125 38.54213062c-2.24066719 0.74246999-4.46807625 1.57774781-6.62919376 2.49257625a76.20920625 76.20920625 0 0 0-50.92546217 68.2276575c0 42.08211937 40.91538094 76.19594813 91.41657561 76.19594813s91.48286813-34.11382875 91.4828672-76.19594813V395.16046813a154.81818094 154.81818094 0 0 1 81.27391031-133.32633563 183.74798062 183.74798062 0 0 1 91.41657563-24.13026375c95.2217325 0 172.69048594 70.62742594 172.69048593 157.45659938a145.7627025 145.7627025 0 0 1-21.66420375 76.19594812z m0 0" fill="#2BA245" p-id="23262"></path></svg>