<?xml version="1.0" standalone="no"?><!DOCTYPE svg PUBLIC "-//W3C//DTD SVG 1.1//EN" "http://www.w3.org/Graphics/SVG/1.1/DTD/svg11.dtd"><svg t="1579073574124" class="icon" viewBox="0 0 1024 1024" version="1.1" xmlns="http://www.w3.org/2000/svg" p-id="99942" width="32" height="32" xmlns:xlink="http://www.w3.org/1999/xlink"><defs><style type="text/css"></style></defs><path d="M466.829061 525.635918V721.606531l-205.301551-28.295837V525.635918h205.301551z m0-223.660408v198.373878H261.52751V330.271347L466.829061 301.97551z m295.612082 223.660408V762.253061l-273.031837-37.637224V525.635918h273.031837z m0-264.306938v239.020408h-273.031837V298.955755l273.031837-37.616326zM512 1018.77551C232.113633 1018.77551 5.22449 791.886367 5.22449 512S232.113633 5.22449 512 5.22449 1018.77551 232.113633 1018.77551 512 791.886367 1018.77551 512 1018.77551z m0-10.448979c274.118531 0 496.326531-222.208 496.326531-496.326531S786.118531 15.673469 512 15.673469 15.673469 237.881469 15.673469 512 237.881469 1008.326531 512 1008.326531z" fill="#4489DE" p-id="99943"></path></svg>