<?xml version="1.0" standalone="no"?><!DOCTYPE svg PUBLIC "-//W3C//DTD SVG 1.1//EN" "http://www.w3.org/Graphics/SVG/1.1/DTD/svg11.dtd"><svg t="1579072046095" class="icon" viewBox="0 0 1024 1024" version="1.1" xmlns="http://www.w3.org/2000/svg" p-id="60813" width="32" height="32" xmlns:xlink="http://www.w3.org/1999/xlink"><defs><style type="text/css"></style></defs><path d="M723.936 439.872c1.792-5.664 3.2-10.592 4.64-15.488a1619.968 1619.968 0 0 1 52.64-165.376 58.592 58.592 0 0 1 51.2-40.768c16.768-1.792 34.56-3.2 45.92 12.8a42.016 42.016 0 0 0 28.128 18.048 76.512 76.512 0 0 1 16.768 4.384c7.488 2.848 10.336-0.256 12.384-7.232 6.4-22.72 13.152-45.152 19.872-67.584 7.488-25.6 7.488-25.28-17.28-34.048a38.944 38.944 0 0 0-30.432-0.512 40.608 40.608 0 0 1-47.744-9.792 138.944 138.944 0 0 0-52.384-33.792 367.2 367.2 0 0 0-180.448-19.776 191.712 191.712 0 0 0-83.584 30.432 103.744 103.744 0 0 0-9.792 8.768 458.176 458.176 0 0 1 99.584 1.024 80.224 80.224 0 0 1 56.768 29.152 120.768 120.768 0 0 1 21.152 67.2 263.264 263.264 0 0 1-12.8 97.024c-9.792 33.536-19.2 67.584-28.64 101.152-1.28 4.384-2.336 8.256 3.616 9.792 16.64 4.768 32.896 9.44 50.432 14.592zM565.28 947.2a38.144 38.144 0 0 0 37.664-20.64 106.72 106.72 0 0 0 11.104-27.616q37.152-153.6 73.792-307.552c10.048-42.56 19.616-85.152 29.92-127.712 2.08-8.256 0-11.616-8-13.408a512.96 512.96 0 0 1-32.512-9.024c-19.872-5.92-16-5.152-21.92 11.36Q582.176 661.12 508.8 869.44a61.6 61.6 0 0 0-4.128 17.792 56.16 56.16 0 0 0 60.608 59.968z" fill="#235EE1" p-id="60814"></path><path d="M64.736 328.16c1.024 8.512 2.08 15.744 3.2 22.72 7.488 49.536 15.232 99.2 22.4 148.608s14.72 99.84 21.92 149.632c7.488 50.304 14.976 100.352 22.72 150.688 4.64 31.744 9.6 63.456 14.176 95.456 1.024 6.72 3.2 9.792 11.36 8.512q70.4-11.616 140.8-22.4c67.2-10.592 133.92-20.64 200.992-31.232 2.592-0.512 4.64-3.616 6.976-5.664-2.848-1.536-6.208-4.384-8.768-4.128-36.64 5.152-73.024 10.848-109.664 16.512-74.048 11.616-148.096 22.976-221.888 34.816-7.744 1.28-10.336-0.512-11.36-8a5750.4 5750.4 0 0 0-13.92-96.224c-10.592-71.2-21.664-142.432-32.256-213.376-11.616-77.408-22.976-155.072-34.816-232.736-1.28-8.512 1.536-12.384 10.048-13.408 14.976-2.08 29.92-4.64 44.64-6.976 60.8-9.792 121.792-19.872 182.656-29.664l159.648-26.368c49.536-8 98.816-16 148.352-24.256 23.232-3.872 46.176-7.488 69.408-11.872 2.848-0.512 4.896-4.64 7.232-6.976-3.2-1.28-6.208-2.592-9.28-3.616-0.768-0.256-1.792 0.256-2.848 0.512-28.8 4.896-57.792 9.792-86.4 14.464-60.8 10.048-121.792 19.872-182.656 29.92-56.768 9.28-113.536 18.848-170.272 28.128-58.304 9.6-116.608 19.2-174.944 28.64-6.432 1.056-9.792 2.848-7.456 8.288zM800 242.496a28.032 28.032 0 0 1-4.64-0.256 84.832 84.832 0 0 0-2.336 19.616c2.848 20.896 6.976 41.792 10.336 62.688l27.872 168.224c9.28 56 18.592 112.224 28.128 168.224 5.92 35.872 12.128 71.712 18.048 107.328 1.024 5.408 0 9.28-6.72 10.336l-148.608 23.232q-35.2 5.408-70.4 11.616c-2.08 0.256-3.872 3.616-5.664 5.664 2.592 1.28 4.896 3.616 7.232 3.616 7.488-0.512 14.72-1.792 21.92-2.848l164.608-26.304c16.512-2.592 32.768-5.408 50.56-8.256Q845.472 513.28 800 242.496z" fill="#235EE1" p-id="60815"></path><path d="M604.224 567.584a9.6 9.6 0 0 0 0.768-15.232c-16.256-19.2-32-38.688-48.256-58.048-45.152-54.4-90.56-109.152-135.712-163.84a37.024 37.024 0 0 1-7.744-16 24.288 24.288 0 0 1 16.512-25.6 26.048 26.048 0 0 1 31.488 10.336c44.384 53.152 89.024 106.304 133.376 159.456 10.592 12.8 21.408 25.28 32.512 38.4a9.6 9.6 0 0 0 0.768-15.232c-17.792-21.152-35.616-42.56-53.408-63.712-35.872-42.816-71.456-85.664-107.584-128a35.68 35.68 0 0 0-52.384-3.872 33.632 33.632 0 0 0-1.792 50.56q83.584 101.024 167.2 201.76c8 9.92 16 19.2 24.256 29.024zM426.208 458.944a36.928 36.928 0 0 0-6.208-4.128c-17.792-6.72-35.616-12.8-53.408-19.616-5.664-2.08-8.256 0-10.336 4.896Q307.52 560 258.752 679.808c-2.592 5.92-0.768 8.768 4.64 10.848 16.768 6.72 33.536 13.152 50.048 20.64 9.024 4.128 12.8 2.08 16-6.976 30.976-79.2 62.432-158.144 93.664-237.12 0.768-1.792 1.536-4.384 3.104-8.256zM596.224 569.6c-12.8-16.256-24.768-29.664-34.56-44.128-8.768-13.408-18.592-20.384-34.816-13.664a49.76 49.76 0 0 1-12.384 2.08l-103.456 17.792a13.504 13.504 0 0 0-12.384 8.768c-6.72 19.2-13.92 37.92-20.896 57.024a46.368 46.368 0 0 0-1.28 8.256c73.504-11.84 145.152-23.712 219.776-36.128zM306.24 546.688c-42.304 6.976-82.56 13.408-124.096 20.128 2.848 19.2 5.92 37.664 8 56.256 1.024 8 4.384 9.024 11.616 8 21.152-3.2 42.56-6.208 64-8.768a14.624 14.624 0 0 0 13.152-9.28c7.744-18.592 16-37.152 24-55.744 1.248-3.104 1.76-5.696 3.328-10.592zM759.808 707.68c-25.28-15.488-50.304-30.688-77.664-47.2 1.024 4.896 0.512 10.592 3.2 13.408a62.368 62.368 0 0 0 17.28 13.408c8.768 4.896 18.048 8.256 27.104 12.8a34.272 34.272 0 0 1 22.72 31.744 25.28 25.28 0 0 0 2.336 8l2.592-1.28a14.176 14.176 0 0 0 1.664-2.56 87.328 87.328 0 0 0 9.792-74.048 98.368 98.368 0 0 0-49.024-68.384c-7.744-3.872-12.8-0.512-18.304 3.2a16 16 0 0 0-7.744 17.792 59.488 59.488 0 0 0 10.24-6.72c6.4-6.72 12.384-5.152 19.616-0.512a102.816 102.816 0 0 1 36.192 100.352zM240.96 815.776a15.776 15.776 0 0 0 3.2 1.28l77.408-96.768c-3.872-2.08-6.208-3.616-8.768-4.64-16.512-6.72-33.024-12.8-49.28-19.872-7.744-3.2-10.048-1.024-10.592 6.976-2.08 21.664-4.64 43.36-6.976 65.28-1.888 15.968-3.456 31.968-4.992 47.744zM407.36 370.976a33.408 33.408 0 0 0-30.432 20.896c-3.872 9.6-7.488 19.2-11.872 28.384-2.592 5.408-1.792 8.768 4.384 10.848 17.28 5.92 34.56 12.384 51.616 19.2 6.208 2.336 8.768 0.256 11.104-5.152 3.872-9.792 8.256-19.616 12.384-29.408a23.648 23.648 0 0 0-8.768-32 201.6 201.6 0 0 0-28.416-12.768zM710.016 548.992a2445.984 2445.984 0 0 0 64.256-9.024c1.792-0.256 4.128-4.896 3.872-6.976a876.064 876.064 0 0 0-9.28-51.2 10.144 10.144 0 0 0-7.488-6.208 352.64 352.64 0 0 0-32.512 4.128c-5.408 0.768-9.28 3.2-6.208 11.104 9.792-1.28 19.872-2.848 29.92-3.616 2.336-0.256 6.72 1.792 6.976 3.2 2.848 12.8 4.896 26.304 7.488 40-16.768 2.336-32.512 4.384-48 6.4-5.664 1.12-10.848 2.4-9.024 12.192zM723.936 439.872c-17.28-5.152-33.792-9.792-50.048-14.464-5.92-1.792-4.896-5.408-3.616-9.792 9.6-33.792 18.848-67.584 28.64-101.152a263.968 263.968 0 0 0 12.8-97.024 119.392 119.392 0 0 0-21.152-67.2 80.224 80.224 0 0 0-56.96-29.024 458.016 458.016 0 0 0-99.584-1.024c3.2-2.848 6.208-6.208 9.792-8.768a191.712 191.712 0 0 1 83.584-30.432 369.888 369.888 0 0 1 180.352 19.616A135.904 135.904 0 0 1 860.16 134.4a40.608 40.608 0 0 0 47.744 9.792 38.944 38.944 0 0 1 30.432 0.512c24.768 8.768 24.768 8.512 17.28 34.048-6.72 22.4-13.408 44.8-19.872 67.584-2.08 6.976-4.896 9.792-12.384 7.232a76.512 76.512 0 0 0-16.768-4.384 39.776 39.776 0 0 1-28.128-18.048 44.8 44.8 0 0 0-45.92-12.8 58.592 58.592 0 0 0-51.2 40.768 1619.968 1619.968 0 0 0-52.64 165.376c-1.408 4.8-2.944 9.44-4.768 15.392zM565.28 947.2a56.16 56.16 0 0 1-60.64-59.872 61.6 61.6 0 0 1 4.128-17.792q73.152-208.608 146.816-416.672c5.664-16.512 2.08-17.024 21.92-11.36 10.848 3.2 21.664 6.4 32.512 9.024 8 1.792 10.048 5.152 8 13.408-10.336 42.56-19.872 85.152-29.92 127.712q-36.768 153.6-73.792 307.552a106.72 106.72 0 0 1-11.104 27.616 38.976 38.976 0 0 1-37.92 20.384z" fill="#235EE1" p-id="60816"></path><path d="M64.736 328.16c-2.336-5.408 1.024-7.232 7.744-8.256 58.304-9.28 116.608-19.2 174.944-28.64 56.768-9.28 113.536-18.848 170.272-28.128 60.8-10.048 121.792-19.872 182.656-29.92 28.8-4.64 57.792-9.6 86.4-14.464 1.024-0.256 2.08-0.768 2.848-0.512 3.2 1.024 6.208 2.336 9.28 3.616-2.336 2.336-4.384 6.4-7.232 6.976-22.976 4.384-46.176 8-69.408 11.872-49.536 8-98.816 16-148.352 24.256L314.24 291.2q-91.328 15.104-182.656 29.664c-14.976 2.336-29.664 5.152-44.64 6.976-8.512 1.024-11.36 4.896-10.048 13.408 11.872 77.408 23.232 155.072 34.816 232.736 10.592 71.2 21.664 142.432 32.256 213.376 4.896 32 9.6 64.256 13.92 96.224 1.024 7.488 3.2 9.28 11.36 8 73.792-11.872 147.84-23.232 221.888-34.816 36.64-5.664 73.024-11.36 109.664-16.512 2.592-0.256 5.92 2.592 8.768 4.128-2.336 2.08-4.384 5.152-6.976 5.664q-100.224 16-200.992 31.232-70.4 10.848-140.8 22.4c-8 1.28-10.336-1.792-11.36-8.512a14397.12 14397.12 0 0 0-14.176-95.456c-7.488-50.304-15.232-100.352-22.72-150.688-7.488-49.792-14.72-99.84-21.92-149.632l-22.4-148.608a262.944 262.944 0 0 1-3.488-22.624zM800 242.496l90.816 543.36c-17.792 2.848-34.048 5.664-50.56 8.256l-164.608 26.304c-7.232 1.024-14.72 2.336-21.92 2.848-2.336 0.256-4.896-2.336-7.232-3.616 1.792-2.08 3.616-5.152 5.664-5.664q35.2-6.208 70.4-11.616c49.536-7.744 99.2-15.744 148.608-23.232 6.72-1.024 7.488-4.896 6.72-10.336-5.92-35.872-12.128-71.456-18.048-107.328-9.28-56-18.592-112.224-28.128-168.224s-18.592-112.224-27.872-168.224c-3.52-21.024-7.392-41.76-10.24-62.624a88.224 88.224 0 0 1 2.336-19.616 20.832 20.832 0 0 1 4.064-0.288z" fill="#235EE1" p-id="60817"></path><path d="M604.224 567.584c-8.256-9.792-16.256-19.2-24.256-28.8q-83.584-101.024-167.2-201.76a33.632 33.632 0 0 1 1.792-50.56 35.2 35.2 0 0 1 52.384 3.872c36.128 42.304 71.712 85.408 107.584 128 17.792 21.152 35.2 42.56 53.408 63.712a9.6 9.6 0 0 1-0.768 15.232c-11.104-13.152-21.92-25.792-32.512-38.4-44.256-53.344-89.056-106.464-133.376-159.616a25.6 25.6 0 0 0-31.488-10.336 24 24 0 0 0-16.512 25.6 32 32 0 0 0 7.744 16 76526.08 76526.08 0 0 0 135.712 163.84c16 19.2 32 38.688 48.256 58.048a9.6 9.6 0 0 1-0.768 15.168zM426.208 458.944a96 96 0 0 1-3.2 8.768c-31.232 78.944-62.688 157.888-93.664 237.12-3.616 9.024-6.976 11.104-16 6.976-16.256-7.488-33.28-13.92-50.048-20.64-5.664-2.336-7.232-4.896-4.64-10.848q49.152-119.584 97.536-239.68c2.08-5.152 4.64-7.232 10.336-4.896 17.792 6.72 35.616 12.8 53.408 19.616a21.6 21.6 0 0 1 6.272 3.584z m-60.8-12.8c-4.384 11.104-8.512 20.896-12.384 30.688q-39.872 97.92-80 195.84c-3.2 7.744-1.536 10.848 5.664 13.408a313.216 313.216 0 0 1 30.432 12.384c7.744 3.872 10.848 2.336 13.92-5.664a19344 19344 0 0 1 61.152-154.56c9.792-24.512 19.2-49.024 29.408-74.56-16.288-5.76-31.52-11.424-48.288-17.632zM596.224 569.6c-74.56 12.384-146.304 24-219.552 36.128a50.72 50.72 0 0 1 1.28-8.256c6.976-19.2 14.464-37.92 20.896-57.024a13.152 13.152 0 0 1 12.384-8.768l103.456-17.792a65.344 65.344 0 0 0 12.384-1.888c16.256-6.4 25.792 0.512 34.816 13.664 9.568 14.56 21.44 27.712 34.336 43.936z m-205.376 23.488c62.944-10.336 124.096-20.64 186.528-30.976-11.104-13.92-20.64-26.304-30.688-38.4a11.936 11.936 0 0 0-9.024-2.848c-9.024 1.024-17.792 2.592-26.56 4.128-30.688 5.152-61.408 10.336-91.84 16-3.872 0.768-9.6 3.2-10.848 6.208-6.464 14.432-11.616 29.408-17.568 45.92zM306.24 546.688c-1.536 4.896-2.336 7.488-3.2 10.048-8 18.592-16.256 37.152-24 55.744a13.984 13.984 0 0 1-13.152 9.28 1838.72 1838.72 0 0 0-64 8.768c-7.232 1.024-10.592 0-11.616-8-2.336-18.304-5.152-36.64-8-56.256 41.408-6.272 81.632-12.672 123.968-19.584z m-16 13.152c-30.976 4.896-59.584 9.28-87.712 14.176-2.848 0.512-7.488 5.152-7.488 7.488a247.456 247.456 0 0 0 5.152 33.28 8.896 8.896 0 0 0 6.976 4.64c17.536-2.08 35.2-4.384 52.384-7.232a14.272 14.272 0 0 0 9.6-4.896c7.392-14.944 13.6-30.432 21.088-47.456zM759.808 707.68a101.6 101.6 0 0 0-36.128-99.84 13.216 13.216 0 0 0-19.616 0.512 78.752 78.752 0 0 1-10.336 6.976 16 16 0 0 1 7.744-17.792 15.584 15.584 0 0 1 18.304-3.2 98.368 98.368 0 0 1 49.056 68.064 87.328 87.328 0 0 1-9.792 74.048 14.176 14.176 0 0 1-1.792 2.336c-0.512 0.512-1.024 0.512-2.592 1.28a34.496 34.496 0 0 1-2.336-8 34.272 34.272 0 0 0-22.72-31.744c-9.024-4.384-18.592-7.744-27.104-12.8a63.456 63.456 0 0 1-17.28-13.408c-2.592-2.848-2.08-8.512-3.2-13.408 27.488 16.256 52.512 31.488 77.792 46.976zM240.96 815.776c1.536-16 2.848-31.744 4.64-47.744 2.336-21.664 5.152-43.36 6.976-65.28 0.768-8 2.848-10.336 10.592-6.976 16.256 6.976 32.768 13.152 49.28 19.872 2.592 1.024 4.896 2.592 8.768 4.64a42659.2 42659.2 0 0 0-77.408 96.768 25.152 25.152 0 0 1-2.848-1.28z m13.152-29.92c0.768 0.256 1.536 0.256 2.08 0.512 16.256-20.64 32.256-41.024 49.024-62.432-15.232-5.92-28.384-11.104-42.56-16.768-2.88 27.328-5.696 53.152-8.544 78.688zM407.36 370.976a176.768 176.768 0 0 1 28.384 12.8 23.648 23.648 0 0 1 8.768 32c-4.128 9.792-8.512 19.2-12.384 29.408-2.08 5.408-4.896 7.488-11.104 5.152-17.024-6.72-34.304-12.8-51.616-19.2-6.208-2.08-6.72-5.408-4.384-10.848 4.128-9.28 7.744-19.2 11.872-28.384a32.992 32.992 0 0 1 30.464-20.928z m-31.488 51.2c14.976 5.664 29.152 11.104 43.072 15.744 1.536 0.512 5.152-1.792 6.208-3.872 3.616-7.488 6.4-15.232 10.048-22.976a12.8 12.8 0 0 0-4.384-17.792 84.8 84.8 0 0 0-23.488-9.6 16.64 16.64 0 0 0-20.128 10.848c-3.84 8.96-7.168 17.472-11.296 27.872zM710.016 548.992c-2.08-9.792 3.2-11.104 9.024-11.872l48-6.4c-2.592-13.664-4.64-26.848-7.488-40-0.256-1.536-4.64-3.616-6.976-3.2-10.048 0.768-20.128 2.336-29.92 3.616-2.848-8 1.024-10.336 6.208-11.104 10.848-1.536 21.664-3.2 32.512-4.128a9.6 9.6 0 0 1 7.488 6.208q5.408 25.6 9.28 51.2c0.256 2.08-2.336 6.72-3.872 6.976-21.184 3.04-42.336 5.632-64.256 8.704z" fill="#235EE1" p-id="60818"></path><path d="M365.312 446.048c16.768 6.208 32 11.616 48.256 17.536-10.048 25.6-19.872 50.048-29.408 74.56-20.384 51.616-41.024 102.944-61.152 154.56-3.2 8-6.4 9.6-13.92 5.664a259.424 259.424 0 0 0-30.432-12.384c-7.232-2.592-8.768-5.664-5.664-13.408q40.256-97.92 80-195.84c3.808-9.792 7.68-19.584 12.32-30.688zM390.848 593.12c6.208-16.512 11.104-31.232 17.28-45.664 1.28-3.2 6.976-5.408 10.848-6.208 30.688-5.664 61.408-10.848 91.84-16 8.768-1.536 17.792-3.2 26.56-4.128a12.288 12.288 0 0 1 9.024 2.848c10.048 12.128 19.872 24.512 30.688 38.4-62.144 10.112-123.264 20.032-186.24 30.752zM290.24 559.84c-7.488 17.024-13.664 32.512-21.152 47.2a14.272 14.272 0 0 1-9.6 4.896c-17.28 2.848-34.816 5.152-52.384 7.232-2.336 0.256-6.72-2.592-6.976-4.64a235.328 235.328 0 0 1-5.152-33.28c-0.256-2.336 4.384-6.976 7.488-7.488 28.16-4.64 56.736-9.024 87.776-13.92zM254.112 785.856c2.848-25.792 5.664-51.2 8.768-78.688 13.92 5.408 27.36 10.848 42.56 16.768-16.768 21.408-33.024 41.792-49.024 62.432a7.52 7.52 0 0 1-2.304-0.512zM375.904 422.4c4.128-10.336 7.488-18.848 11.36-27.36A16.768 16.768 0 0 1 407.36 384a77.568 77.568 0 0 1 23.488 9.6 12.992 12.992 0 0 1 4.384 17.792c-3.2 7.488-6.4 15.488-10.048 22.976-1.024 1.792-4.64 4.384-6.208 3.872-14.176-4.832-28.128-10.24-43.072-15.84z" fill="#235EE1" p-id="60819"></path></svg>