<?xml version="1.0" standalone="no"?><!DOCTYPE svg PUBLIC "-//W3C//DTD SVG 1.1//EN" "http://www.w3.org/Graphics/SVG/1.1/DTD/svg11.dtd"><svg t="1579074243442" class="icon" viewBox="0 0 1024 1024" version="1.1" xmlns="http://www.w3.org/2000/svg" p-id="120169" width="32" height="32" xmlns:xlink="http://www.w3.org/1999/xlink"><defs><style type="text/css"></style></defs><path d="M512 0c282.76736 0 512 229.23264 512 512 0 69.08416-13.68064 134.97344-38.48704 195.10784C948.92032 651.27424 885.8112 614.4 814.08 614.4c-113.10592 0-204.8 91.69408-204.8 204.8 0 70.49728 35.61984 132.67456 89.84064 169.51808C641.16224 1011.49696 578.048 1024 512 1024 229.23264 1024 0 794.76736 0 512S229.23264 0 512 0z" fill="#FF4BA2" p-id="120170"></path><path d="M261.12 296.96m20.48 0l460.8 0q20.48 0 20.48 20.48l0 61.44q0 20.48-20.48 20.48l-460.8 0q-20.48 0-20.48-20.48l0-61.44q0-20.48 20.48-20.48Z" fill="#FDFDFF" p-id="120171"></path><path d="M742.4 419.84a20.48 20.48 0 0 1 20.48 20.48v266.24a20.48 20.48 0 0 1-20.48 20.48H281.6a20.48 20.48 0 0 1-20.48-20.48V440.32a20.48 20.48 0 0 1 20.48-20.48h460.8z m-20.48 20.48H302.08a20.48 20.48 0 0 0-20.48 20.48v225.28a20.48 20.48 0 0 0 20.48 20.48h419.84a20.48 20.48 0 0 0 20.48-20.48V460.8a20.48 20.48 0 0 0-20.48-20.48z" fill="#FDFDFF" p-id="120172"></path><path d="M312.32 348.16m-15.36 0a15.36 15.36 0 1 0 30.72 0 15.36 15.36 0 1 0-30.72 0Z" fill="#FF4BA2" p-id="120173"></path><path d="M368.64 348.16m-15.36 0a15.36 15.36 0 1 0 30.72 0 15.36 15.36 0 1 0-30.72 0Z" fill="#FF4BA2" p-id="120174"></path><path d="M527.4624 496.44032a13.4656 13.4656 0 1 1 24.69888 10.74688l-59.4944 136.8576a13.4656 13.4656 0 0 1-24.68864-10.752l59.48416-136.85248z m94.55104 123.12064a8.07936 8.07936 0 0 1-11.4176 0l-7.61856-7.61856a8.07936 8.07936 0 0 1 0-11.4176l26.65984-26.65984a8.07936 8.07936 0 0 0 0-11.4176l-26.65984-26.66496a8.07936 8.07936 0 0 1 0-11.4176l7.61856-7.61856a8.07936 8.07936 0 0 1 11.4176 0l45.70112 45.70112a8.07936 8.07936 0 0 1 0 11.4176l-45.70112 45.696z m-211.072 0l-45.70112-45.7216a8.07936 8.07936 0 0 1 0-11.4176l45.70112-45.70112a8.07936 8.07936 0 0 1 11.4176 0l7.61856 7.61856a8.07936 8.07936 0 0 1 0 11.4176l-26.65984 26.65984a8.07936 8.07936 0 0 0 0 11.4176l26.65984 26.66496a8.07936 8.07936 0 0 1 0 11.4176l-7.61856 7.61856a8.07936 8.07936 0 0 1-11.4176 0.0256z" fill="#F4F8FF" p-id="120175"></path><path d="M578.56 798.72c0 121.58976 98.57024 220.16 220.16 220.16s220.16-98.57024 220.16-220.16-98.57024-220.16-220.16-220.16-220.16 98.57024-220.16 220.16z" fill="#FFFFFF" p-id="120176"></path><path d="M772.00384 768.88064l-75.5712 73.8816 41.74848 5.66784-27.70432 51.05152 72.7552-72.7552-34.7136-7.10144 23.48544-50.74432z m28.90752-41.64608a7.68 7.68 0 0 0-7.69024 7.69024v61.45536a7.68 7.68 0 0 0 7.69024 7.69024h46.11072a7.68 7.68 0 0 0 7.69024-7.69024 7.68 7.68 0 0 0-7.69024-7.69024h-38.42048V734.9248a7.68 7.68 0 0 0-7.69024-7.69024z" fill="#FF4BA2" p-id="120177"></path><path d="M808.6016 696.50432c-50.88256 0-92.1856 41.33888-92.1856 92.1856h8.82176c0-46.04416 37.3248-83.36384 83.36384-83.36384s83.35872 37.3248 83.35872 83.36384-37.31968 83.35872-83.35872 83.35872c-14.55616 0-28.25728-3.7376-40.17152-10.29632l-5.69856 6.89664a91.91424 91.91424 0 0 0 45.87008 12.22656c50.88256 0 92.1856-41.30304 92.1856-92.1856 0-50.84672-41.30304-92.1856-92.1856-92.1856z" fill="#FF4BA2" p-id="120178"></path></svg>