<?xml version="1.0" standalone="no"?><!DOCTYPE svg PUBLIC "-//W3C//DTD SVG 1.1//EN" "http://www.w3.org/Graphics/SVG/1.1/DTD/svg11.dtd"><svg t="1579073200219" class="icon" viewBox="0 0 1024 1024" version="1.1" xmlns="http://www.w3.org/2000/svg" p-id="92257" width="32" height="32" xmlns:xlink="http://www.w3.org/1999/xlink"><defs><style type="text/css"></style></defs><path d="M512 90.125a42.1875 42.1875 0 0 1 0 84.375 337.5421875 337.5421875 0 0 0-335.0109375 296.325c2.9953125-0.759375 5.90625-1.18125 8.521875-1.3078125 29.4046875-1.6875 51.0046875 12.4875 64.8 42.4828125h50.11875c23.4140625-27.8859375 53.0296875-41.4703125 88.8890625-40.753125 31.9359375 0.675 59.23125 14.259375 81.928125 40.753125h67.753125c15.5671875-35.4375 35.9859375-53.15625 61.25625-53.15625 30.54375 0 53.8734375 17.71875 70.03125 53.15625h33.328125c30.0375-56.2359375 64.8-84.375 104.203125-84.375 39.403125 0 73.06875 28.1390625 101.0390625 84.375H933.875c0 233.0015625-188.8734375 421.875-421.875 421.875S90.125 745.0015625 90.125 512 278.9984375 90.125 512 90.125zM301.0625 427.625a42.1875 42.1875 0 1 1 0-84.375 42.1875 42.1875 0 0 1 0 84.375z m316.40625 0a21.09375 21.09375 0 1 1 0-42.1875 21.09375 21.09375 0 0 1 0 42.1875z m-126.5625 42.1875a21.09375 21.09375 0 1 1 0-42.1875 21.09375 21.09375 0 0 1 0 42.1875z m-42.1875-126.5625a63.28125 63.28125 0 1 1 0-126.5625 63.28125 63.28125 0 0 1 0 126.5625z" fill="#d81e06" p-id="92258"></path></svg>