<?xml version="1.0" standalone="no"?><!DOCTYPE svg PUBLIC "-//W3C//DTD SVG 1.1//EN" "http://www.w3.org/Graphics/SVG/1.1/DTD/svg11.dtd"><svg t="1579072539399" class="icon" viewBox="0 0 1024 1024" version="1.1" xmlns="http://www.w3.org/2000/svg" p-id="74573" width="32" height="32" xmlns:xlink="http://www.w3.org/1999/xlink"><defs><style type="text/css"></style></defs><path d="M518.12352 11.55072c-62.90432 7.9872-118.64064 30.74048-167.00416 68.64896-9.0112 7.168-19.67104 16.18944-23.35744 20.28544l-7.168 7.3728H142.52032l1.2288 21.92384c3.072 56.55552 29.10208 105.3184 73.35936 138.10688l14.14144 10.45504-9.0112 6.144c-4.9152 3.2768-11.47904 9.0112-14.55104 12.91264-5.3248 7.168-5.5296 7.168-20.89984 7.168-22.33344 0-30.33088 3.072-43.64288 16.39424-12.70784 12.50304-16.39424 21.51424-16.39424 39.34208v11.264l-8.6016 2.4576c-34.83648 10.24-64.74752 43.02848-71.31136 77.86496-1.2288 6.144-2.048 43.02848-2.048 84.00896 0 79.09376 0.8192 86.05696 11.47904 107.1616 6.5536 12.91264 25.20064 32.99328 37.29408 39.95648 18.03264 10.65984 28.69248 13.32224 57.98912 14.75584 22.94784 1.2288 29.30688 2.2528 37.70368 6.3488 12.70784 6.144 23.56224 17.00864 29.92128 29.92128 4.9152 9.8304 4.9152 11.0592 5.5296 73.56416l0.6144 63.72352-7.168 2.4576c-12.91264 4.7104-36.88448 22.12864-50.41152 36.47488-22.94784 24.79104-36.67968 53.89312-39.95648 85.248l-1.4336 13.93664h33.19808v-7.7824c0.2048-33.40288 25.20064-74.99776 54.91712-91.1872l10.65984-5.7344V1009.4592h32.78848V894.70976H400.3328l76.43136 59.62752L552.99072 1013.76l76.43136-59.42272 76.22656-59.62752h70.69696c79.50336 0 86.8864 1.024 111.06304 13.73184 33.19808 17.41824 58.80832 57.98912 59.01312 93.2352v7.7824h16.39424c19.05664 0 18.44224 1.024 13.52704-24.99584-6.144-31.54944-20.89984-58.19392-45.07648-80.93696-18.03264-17.00864-32.37888-25.61024-55.94112-34.22208l-18.03264-6.3488-70.08256-0.6144-70.28736-0.8192V805.9904l0.2048-55.73632 11.68384-6.9632c72.89856-43.85792 129.04448-124.18048 145.43872-208.60928 3.2768-16.18944 5.5296-22.33344 11.68384-31.35488 9.4208-13.73184 17.82784-31.76448 22.53824-48.15872 5.3248-18.23744 6.9632-109.83424 2.2528-127.86688-4.9152-19.67104-17.41824-37.49888-32.37888-46.51008-1.6384-1.024-5.3248-11.47904-8.3968-22.94784C837.98016 134.28736 737.57696 39.6288 612.98688 15.64672c-25.61024-4.9152-71.91552-6.9632-94.86336-4.096z m97.3312 36.88448c89.5488 19.26144 162.69312 76.84096 202.8544 160.03072 10.65984 22.33344 23.35744 60.03712 20.89984 62.49472-2.4576 2.6624-24.99584-3.2768-39.34208-10.24-29.50144-14.14144-39.95648-28.06784-64.74752-86.05696-9.43104-22.12864-17.62304-40.16128-18.23744-40.16128-0.6144 0-8.81664 18.03264-18.23744 40.16128-18.44224 43.02848-28.28288 59.83232-41.79968 71.72096-10.65984 9.216-33.40288 20.49024-47.54432 23.35744-7.168 1.4336-59.62752 2.048-163.10272 1.6384l-152.45312-0.6144-14.34624-4.9152c-26.01984-8.61184-41.79968-18.23744-60.44672-37.08928-23.15264-22.94784-36.27008-48.56832-41.79968-81.55136l-1.2288-6.5536h156.34432l15.98464-15.37024c46.91968-44.66688 103.0656-72.13056 165.96992-80.93696 22.34368-3.08224 78.08-0.82944 101.23264 4.08576z m105.3184 174.17216c3.2768 9.63584 15.57504 27.04384 27.24864 38.72768l10.45504 10.45504H675.49184l14.14144-15.16544c8.20224-8.81664 16.80384-20.69504 20.28544-27.65824 3.2768-6.7584 6.5536-12.50304 7.38304-12.50304 0.60416 0 2.24256 2.8672 3.47136 6.144z m148.76672 90.5728c3.6864 4.096 7.7824 10.8544 9.0112 15.37024 1.2288 4.5056 2.2528 28.27264 2.2528 56.14592 0 41.39008-0.6144 50.61632-4.096 64.13312-5.5296 21.51424-12.70784 34.01728-29.71648 51.23072-41.18528 41.59488-105.5232 45.48608-151.42912 9.216l-10.0352-7.9872H419.34848l-7.9872 6.9632c-18.64704 15.77984-45.69088 25.81504-70.69696 25.81504-16.18944 0-40.98048-6.3488-56.35072-14.55104-15.98464-8.61184-39.13728-32.99328-47.12448-49.59232-10.8544-22.94784-12.29824-35.65568-11.68384-94.0544 0.6144-49.37728 0.8192-52.86912 4.9152-58.39872 2.2528-3.072 7.3728-7.3728 11.27424-9.4208 6.5536-3.2768 24.79104-3.4816 313.91744-3.072l307.15904 0.6144 6.76864 7.58784z m-677.2224 73.35936v49.17248H180.0192c-20.49024 0-20.49024-0.2048-20.49024-49.18272s0-49.18272 20.49024-49.18272h12.29824v49.19296z m-65.57696 28.27264c0 14.34624 5.3248 27.65824 14.75584 37.29408 12.09344 12.70784 21.71904 16.39424 43.02848 16.39424h17.82784l4.9152 10.65984c2.6624 5.9392 8.3968 15.77984 12.50304 21.92384 6.144 9.0112 8.3968 15.16544 11.68384 32.37888 11.47904 59.21792 43.23328 119.25504 86.05696 162.28352 18.44224 18.85184 44.05248 39.13728 61.06112 48.77312l10.45504 5.7344v111.47264l-65.56672 0.6144-65.56672 0.6144V808.6528c0-59.01312-1.2288-68.22912-11.47904-88.5248-6.5536-12.91264-25.20064-32.99328-37.29408-39.95648-18.03264-10.6496-28.69248-13.32224-57.98912-14.75584-22.94784-1.2288-29.29664-2.2528-37.70368-6.3488-12.70784-6.144-23.56224-17.00864-29.92128-29.91104l-4.9152-10.04544V449.04448l4.9152-10.0352c6.144-12.50304 17.00864-23.56224 28.89728-29.51168 13.1072-6.57408 14.336-6.16448 14.336 5.31456z m556.94336 126.84288c41.39008 27.46368 98.9696 32.78848 141.17888 13.11744 6.9632-3.4816 12.91264-5.5296 12.91264-4.7104 0 5.12-12.29824 36.27008-20.49024 52.86912-19.46624 38.11328-51.42528 75.61216-85.23776 99.3792-27.87328 19.87584-106.14784 62.69952-127.86688 69.87776-18.23744 6.144-21.30944 6.5536-50.19648 6.5536-32.78848 0-45.48608-2.2528-67.62496-12.09344-18.44224-7.9872-95.2832-52.04992-112.49664-64.33792-34.22208-24.17664-68.03456-64.13312-86.4768-101.632-7.7824-16.18944-19.26144-46.10048-19.26144-50.40128 0-0.8192 5.7344 1.024 12.91264 4.3008 43.43808 19.67104 99.1744 14.75584 139.95008-12.29824l12.09344-7.9872 119.66464-0.2048h119.66464l11.27424 7.56736zM446.40256 782.41792c40.57088 21.92384 67.00032 29.29664 106.5472 29.29664 39.54688 0 65.98656-7.3728 106.5472-29.29664 11.88864-6.3488 22.12864-12.09344 23.15264-12.29824 0.8192-0.4096 1.4336 22.12864 1.2288 50.20672v50.82112l-65.56672 50.61632-65.37216 50.82112-65.36192-50.82112-65.56672-50.61632V820.3264c-0.2048-28.07808 0.4096-50.61632 1.4336-50.20672 0.82944 0.2048 11.06944 5.94944 22.95808 12.29824z" p-id="74574" fill="#17abe3"></path><path d="M290.67264 435.712v16.39424h442.59328v-32.78848H290.67264v16.39424zM766.06464 435.712v16.39424h49.17248v-32.78848h-49.17248v16.39424z" p-id="74575" fill="#17abe3"></path></svg>