<?xml version="1.0" standalone="no"?><!DOCTYPE svg PUBLIC "-//W3C//DTD SVG 1.1//EN" "http://www.w3.org/Graphics/SVG/1.1/DTD/svg11.dtd"><svg t="1579073242903" class="icon" viewBox="0 0 1378 1024" version="1.1" xmlns="http://www.w3.org/2000/svg" p-id="95367" width="43.0625" height="32" xmlns:xlink="http://www.w3.org/1999/xlink"><defs><style type="text/css"></style></defs><path d="M4.844308 0H1378.461538v1024H862.641231v-173.213538c0-20.204308-15.832615-36.548923-35.328-36.548924h-246.980923c-19.534769 0-35.328 16.344615-35.328 36.548924V1024H0L4.844308 0z m70.340923 73.137231l-4.174769 877.725538h403.298461v-100.036923c0-60.652308 47.458462-109.764923 106.023385-109.764923h246.941538c58.564923 0 106.062769 49.152 106.062769 109.725539v100.036923h374.429539V73.176615H75.224615z" fill="#E70D0D" p-id="95368"></path><path d="M157.538462 409.6V338.707692h354.461538v70.892308z" fill="#E70D0D" p-id="95369"></path><path d="M299.323077 214.646154h70.892308v319.015384H299.323077v-319.015384z m70.892308 0v319.015384H299.323077v-319.015384h70.892308z" fill="#E70D0D" p-id="95370"></path><path d="M1063.384615 288.807385m-52.499692 0a52.499692 52.499692 0 1 0 104.999385 0 52.499692 52.499692 0 1 0-104.999385 0Z" fill="#E70D0D" p-id="95371"></path><path d="M1168.423385 393.846154m-52.499693 0a52.499692 52.499692 0 1 0 104.999385 0 52.499692 52.499692 0 1 0-104.999385 0Z" fill="#E70D0D" p-id="95372"></path><path d="M958.345846 393.846154m-52.499692 0a52.499692 52.499692 0 1 0 104.999384 0 52.499692 52.499692 0 1 0-104.999384 0Z" fill="#E70D0D" p-id="95373"></path><path d="M1063.384615 498.884923m-52.499692 0a52.499692 52.499692 0 1 0 104.999385 0 52.499692 52.499692 0 1 0-104.999385 0Z" fill="#E70D0D" p-id="95374"></path></svg>