<?xml version="1.0" standalone="no"?><!DOCTYPE svg PUBLIC "-//W3C//DTD SVG 1.1//EN" "http://www.w3.org/Graphics/SVG/1.1/DTD/svg11.dtd"><svg t="1579073760617" class="icon" viewBox="0 0 1024 1024" version="1.1" xmlns="http://www.w3.org/2000/svg" p-id="110024" width="32" height="32" xmlns:xlink="http://www.w3.org/1999/xlink"><defs><style type="text/css"></style></defs><path d="M942.6 444.1v-222.5c0-50.2-43.1-86.1-86.1-86.1h-689c-43.1 0-86.1 35.9-86.1 86.1v445c0 50.2 43.1 86.1 86.1 86.1h330.1v43.1H368.4c-21.5 0-43.1 21.5-43.1 43.1 0 21.5 21.5 43.1 43.1 43.1h351.7c21.5 0 43.1-21.5 43.1-43.1 0-21.5-21.5-43.1-43.1-43.1h-129.2v-43.1h43.1V444.1h308.6z" fill="#52A8EA" p-id="110025"></path><path d="M820.5 566.1l78.9-78.9H677v222.5l78.9-78.9L870.8 738.3l57.4-64.6-107.7-107.6z" fill="#52A8EA" p-id="110026"></path></svg>