<?xml version="1.0" standalone="no"?><!DOCTYPE svg PUBLIC "-//W3C//DTD SVG 1.1//EN" "http://www.w3.org/Graphics/SVG/1.1/DTD/svg11.dtd"><svg t="1579073139572" class="icon" viewBox="0 0 1024 1024" version="1.1" xmlns="http://www.w3.org/2000/svg" p-id="88116" width="32" height="32" xmlns:xlink="http://www.w3.org/1999/xlink"><defs><style type="text/css"></style></defs><path d="M0 0m102.4 0l819.2 0q102.4 0 102.4 102.4l0 819.2q0 102.4-102.4 102.4l-819.2 0q-102.4 0-102.4-102.4l0-819.2q0-102.4 102.4-102.4Z" fill="#0061D5" p-id="88117"></path><path d="M768.4096 528.2816l-156.928-196.1984A44.8 44.8 0 1 1 681.3184 276.48l179.2 224a44.8 44.8 0 0 1 0 55.552l-179.2 224a44.8 44.8 0 0 1-34.9184 16.9984 44.8 44.8 0 0 1-34.9696-72.5504l156.9792-196.2496z m-614.6048 0c0-9.728 3.1744-19.5072 9.6768-27.7504l179.2-224a44.8 44.8 0 0 1 69.888 55.552l-156.9792 196.1984 156.9792 196.2496a44.8 44.8 0 0 1-34.9696 72.5504 44.8 44.8 0 0 1-34.9184-16.9984l-179.2-224a44.5952 44.5952 0 0 1-9.6768-27.8016z m178.9952 0a44.8 44.8 0 1 1 89.6 0 44.8 44.8 0 0 1-89.6 0z m134.4 0a44.8 44.8 0 1 1 89.6 0 44.8 44.8 0 0 1-89.6 0z m134.4 0a44.8 44.8 0 1 1 89.6 0 44.8 44.8 0 0 1-89.6 0z" fill="#FFFFFF" p-id="88118"></path></svg>