<?xml version="1.0" standalone="no"?><!DOCTYPE svg PUBLIC "-//W3C//DTD SVG 1.1//EN" "http://www.w3.org/Graphics/SVG/1.1/DTD/svg11.dtd"><svg t="1579072072444" class="icon" viewBox="0 0 1024 1024" version="1.1" xmlns="http://www.w3.org/2000/svg" p-id="62026" width="32" height="32" xmlns:xlink="http://www.w3.org/1999/xlink"><defs><style type="text/css"></style></defs><path d="M739.626667 262.826667H284.48a42.666667 42.666667 0 0 0-42.666667 42.666666v312.96a42.666667 42.666667 0 0 0 42.666667 42.666667h455.146667a42.666667 42.666667 0 0 0 42.666666-42.666667V305.493333a42.666667 42.666667 0 0 0-42.666666-42.666666zM369.813333 522.24a28.48 28.48 0 1 1-56.853333 0v-56.853333a28.48 28.48 0 0 1 56.853333 0z m170.666667 0a28.48 28.48 0 1 1-56.853333 0V408.533333a28.48 28.48 0 0 1 56.853333 0z m170.666667 0a28.48 28.48 0 1 1-56.853334 0V408.533333a28.48 28.48 0 0 1 56.853334 0z" fill="#80CAFF" p-id="62027"></path><path d="M512 0C229.226667 0 0 229.226667 0 512s229.226667 512 512 512 512-229.226667 512-512S794.773333 0 512 0z m298.666667 618.453333a71.146667 71.146667 0 0 1-71.146667 71.146667H625.813333v63.893333h170.666667a14.24 14.24 0 0 1 0 28.48H227.626667a14.24 14.24 0 0 1 0-28.48h170.666666v-64H284.48a71.146667 71.146667 0 0 1-71.146667-71.04V305.493333a71.146667 71.146667 0 0 1 71.146667-71.04h455.146667a71.146667 71.146667 0 0 1 71.146666 71.146667z" fill="#80CAFF" p-id="62028"></path></svg>