<?xml version="1.0" standalone="no"?><!DOCTYPE svg PUBLIC "-//W3C//DTD SVG 1.1//EN" "http://www.w3.org/Graphics/SVG/1.1/DTD/svg11.dtd"><svg t="1579072442868" class="icon" viewBox="0 0 1024 1024" version="1.1" xmlns="http://www.w3.org/2000/svg" p-id="69232" width="32" height="32" xmlns:xlink="http://www.w3.org/1999/xlink"><defs><style type="text/css"></style></defs><path d="M512 979.285333a466.992762 466.992762 0 0 1-251.904-72.801523 30.378667 30.378667 0 1 1 32.816762-51.151239c101.668571 65.048381 235.178667 80.65219 351.036952 41.691429a30.378667 30.378667 0 1 1 19.456 57.636571 476.257524 476.257524 0 0 1-151.405714 24.624762z m417.450667-390.095238a30.378667 30.378667 0 0 1-30.378667-30.427428c0-126.585905-69.680762-241.615238-186.172952-307.395048a30.378667 30.378667 0 1 1 29.988571-52.906667c133.948952 75.678476 217.088 213.869714 217.088 360.496762a30.573714 30.573714 0 0 1-30.524952 30.232381z m-832.121905-44.617143a30.329905 30.329905 0 0 1-30.183619-34.084571c14.287238-117.76 81.773714-225.03619 184.856381-294.13181a30.47619 30.47619 0 0 1 42.227809 8.289524 30.622476 30.622476 0 0 1-8.289523 42.22781c-88.502857 59.343238-146.18819 150.77181-158.476191 251.026285a30.329905 30.329905 0 0 1-30.134857 26.672762z" fill="#456889" p-id="69233"></path><path d="M824.905143 487.277714a174.08 174.08 0 1 1-0.097524 348.16 174.08 174.08 0 0 1 0.097524-348.16zM199.094857 626.151619a174.08 174.08 0 1 1-0.097524 348.16 174.08 174.08 0 0 1 0.097524-348.16zM408.380952 0.341333a174.08 174.08 0 1 1-0.097523 348.16 174.08 174.08 0 0 1 0.097523-348.16z" fill="#456889" p-id="69234"></path></svg>