<?xml version="1.0" standalone="no"?><!DOCTYPE svg PUBLIC "-//W3C//DTD SVG 1.1//EN" "http://www.w3.org/Graphics/SVG/1.1/DTD/svg11.dtd"><svg t="1579073657266" class="icon" viewBox="0 0 1024 1024" version="1.1" xmlns="http://www.w3.org/2000/svg" p-id="104269" width="32" height="32" xmlns:xlink="http://www.w3.org/1999/xlink"><defs><style type="text/css"></style></defs><path d="M448.274447 654.549686l-230.305307-131.548314V258.691825l114.550451-66.391256 12.056822 19.308791L240.878379 271.991355v237.731765l207.396068 119.50426 207.400324-119.50426V271.991355l-103.698034-60.369228 10.852417-19.30879 115.759112 66.391255v264.309547z m0 0V403.53967L222.791017 274.374631l12.056823-19.304534L448.274447 376.983168l213.430863-121.913071 10.852417 19.304534z m0 0l-12.056822-13.278251h22.909239v251.010016h-22.909239V390.261419z m11.490794-112.6949l-120.585246-69.987449v-137.591621L447.725442 0l120.576735 70.000216v138.800283z m-97.676007-82.057039l97.676007 56.726221 97.667495-56.726221V83.2657L459.765241 26.539479 362.089234 83.2657v112.24378z m0 0L459.765241 416.349778l-114.554707-66.391256 10.852417-19.30879 103.70229 59.156311 103.698034-59.156311 12.056823 19.30879z m0 0l-10.856672-13.278251h22.913495v125.505008H351.232562V138.783259z m-322.916853 392.814929L86.2208 515.894102l27.731117-15.704085 8.443606 15.704085z m32.557251-22.93903l-12.056823-20.513195 21.704834-12.086614 12.061078 19.321558z m42.205261-25.364864l-12.061078-19.278999 21.704834-12.086614 12.056822 19.321558z m560.703944 25.364864l-21.704833-12.086613 12.061078-19.278999 21.704834 12.044054z m-42.205261-25.364864l-21.704834-12.044055 12.056823-19.321558 21.704833 12.086614z m74.758256 48.303894l-8.43935-15.704085 8.43935-15.704086 27.735373 15.704086z m-296.632725 171.383068l-12.056822-19.321558 21.704833-12.044054 12.056822 19.278999z m42.201006-24.130668l-12.056823-19.321557 21.704834-12.086614 12.061078 19.321558z m42.205261-25.364864l-12.056822-19.321558 21.704834-12.044054 12.056822 19.321557z m42.205262-24.130668l-12.056822-19.321558 21.704833-12.044054 12.061078 19.278999z m43.409667-24.130668l-12.056822-19.321558 21.704833-12.086613 12.056822 19.321558z m42.201006-24.130668l-12.056823-19.321557 21.704834-12.086614 12.056822 19.321558z m42.205261-25.364864l-12.061078-19.321558 21.704834-12.044054 12.056822 19.278999zM447.968026 723.494452l-15.674295-8.426583 12.056823-20.555754h8.43935l10.852416 20.555754z m-37.383384-20.513196l-21.704834-12.086613 12.056823-19.278999 21.704833 12.044054z m-42.201006-24.130668l-21.704833-12.086613 12.061078-19.321558 21.704833 12.086613z m-42.201006-25.364864l-21.704833-12.044055 12.056822-19.321558 21.704834 12.044055z m-42.205261-24.130668l-21.704834-12.086613 12.056822-19.279 21.704834 12.044055z m-43.409667-24.130668l-21.704834-12.086613L230.91969 573.816217l21.704834 12.086613z m-42.201006-24.130668l-21.704834-12.086613 12.061078-19.321558 21.704834 12.086613z m-42.205262-25.364864l-21.704833-12.086613 12.056822-19.279 21.704833 12.044055z m0 0" fill="#0066EB" p-id="104270"></path><path d="M447.725442 277.566518L327.140197 207.57907v-137.591621L447.725442 0l120.576735 70.000216v138.800283zM350.049436 195.50948l97.676006 56.726221 97.667495-56.726221m0 0V83.2657L447.725442 26.539479 350.049436 83.2657v112.24378m0 0L447.725442 152.06151l-114.554706-66.391255 10.852416-19.30879 103.70229 59.156311 103.698035-59.156311 12.056822 19.30879-115.759112 66.391255m0 0l-10.856673-13.278251h22.913495V264.288267h-22.913495V138.783259z" fill="#00D929" p-id="104271"></path></svg>