<?xml version="1.0" standalone="no"?><!DOCTYPE svg PUBLIC "-//W3C//DTD SVG 1.1//EN" "http://www.w3.org/Graphics/SVG/1.1/DTD/svg11.dtd"><svg t="1579070287973" class="icon" viewBox="0 0 1024 1024" version="1.1" xmlns="http://www.w3.org/2000/svg" p-id="29528" width="32" height="32" xmlns:xlink="http://www.w3.org/1999/xlink"><defs><style type="text/css"></style></defs><path d="M923.136 688.128s-44.032 0-66.048 0.512c-6.144-6.656-4.096-15.36-4.096-23.04v-481.28c0-6.656 0.512-13.312-1.024-19.968-2.048-11.264-8.192-16.896-19.456-18.432-6.144-0.512-12.8-0.512-18.944-0.512h-685.056c-27.648 0-28.16 0-27.648-28.16 0-15.36-1.024-31.232 1.024-46.592l0.512-0.512c12.288-2.048 24.576-0.512 36.864-1.024 12.288-0.512 25.088 2.048 36.864-4.608 4.608-2.56 10.752-1.536 16.384-0.512 14.848 3.584 29.184 2.56 44.032 2.56h684.544c26.624 0 26.624 0 26.624 26.624V563.2c0 10.24 2.048 30.208 2.048 30.208l-3.072 25.6-1.536 18.432s-1.024 24.576 0 36.864c0.512 10.24-12.8 12.288-12.8 12.288l-9.216 1.536z" fill="#0D7D42" p-id="29529"></path><path d="M101.376 70.144c0 19.456 1.024 38.912 0 58.368-0.512 10.752 3.584 12.288 12.8 12.288 80.896-0.512 161.28 0 242.176 0h468.992c24.064 0 31.744 7.68 31.744 31.744v515.584c0 14.336 0 28.672-0.512 43.008-0.512 16.896-9.728 28.672-25.6 26.624-82.432-8.704-148.48 28.672-212.992 72.192-60.928 41.472-122.368 82.432-188.928 114.688-87.04 42.496-178.688 68.096-274.944 75.776-37.888 3.072-75.776 2.048-113.664 2.56-15.36 0-24.064-8.192-25.6-23.552-0.512-3.072 0-6.144 0-8.704V173.568c0-4.608 0-9.216 1.024-13.824 2.56-12.288 10.24-18.944 23.04-19.456 15.872-0.512 32.256-1.024 48.128 0 11.776 1.024 13.824-3.584 13.824-14.336-1.024-17.92-3.584-36.864 0.512-55.808z" fill="#808080" p-id="29530"></path><path d="M944.128 82.944c0-12.8-5.632-12.8-15.36-12.8-237.568 0-474.624 0.512-712.192-0.512-38.4 0-76.8 3.072-114.688 0 17.92-4.096 35.84-1.536 53.76-1.536 9.728 0 13.824-2.048 12.8-12.288-1.024-7.68 0-15.872 0-24.064 0-21.504 8.192-29.696 29.696-29.696h672.768c42.496 0 85.504 0.512 128 0 9.728 0 11.776 3.072 11.776 12.288-0.512 107.008 1.024 213.504-0.512 320.512-1.024 83.968 0 167.936-1.024 251.904 0 24.576-7.68 32.256-32.256 33.28-10.24 0.512-25.6-5.12-31.744 3.072-4.096 5.632-1.536-348.16-1.024-540.16z" fill="#808080" p-id="29531"></path><path d="M46.08 171.52c3.584 0 6.656-0.512 10.24-0.512h759.296c3.072 0 6.144 0 8.704 0.512 2.048 4.608 1.024 10.24 1.024 14.848v465.408c-2.048 9.216-9.728 6.656-15.36 6.656-24.064 0-48.128 0-71.68 5.632-41.472 10.24-78.336 30.208-114.176 53.248-52.224 33.28-102.4 68.608-155.648 99.84-91.648 53.248-189.44 87.552-295.936 97.792-37.376 3.584-74.752 5.632-112.64 4.608-5.632 0-13.312 2.56-15.36-6.656v-727.04c0.512-4.608-1.024-9.728 1.536-14.336z" fill="#FEFEFE" p-id="29532"></path><path d="M773.632 728.576c-35.328 2.56-67.072 14.848-98.304 31.232-50.176 26.624-96.256 60.416-143.872 91.648-78.336 50.688-160.256 93.184-250.88 117.248-76.8 20.48-155.136 26.624-234.496 24.064-2.56-11.264-0.512-22.528-1.024-33.28 2.048-6.656 8.192-5.12 12.8-5.12 13.312-0.512 26.112 0 39.424 0 105.984 0 207.36-22.016 304.64-64 62.976-27.136 120.32-64.512 177.664-101.376 32.768-20.992 64-44.032 98.304-62.464 28.16-14.848 56.32-28.672 89.088-30.72h45.056c9.728 0 14.336 2.56 13.824 13.824-1.024 22.528 2.048 18.432-18.432 18.944-11.264-0.512-22.528-2.048-33.792 0z" fill="#FEFEFE" p-id="29533"></path><path d="M46.08 956.928v35.328c-4.096-3.072-2.56-7.68-2.56-11.776V182.784c0-4.096-1.536-8.704 2.56-11.776v744.96c6.144 14.336 6.144 27.648 0 40.96z" fill="#AFBDB5" p-id="29534"></path><path d="M773.632 728.576c13.312-4.608 26.624-2.048 39.936-2.048 12.288 0.512 11.264-6.144 11.264-14.336 0-7.68 1.024-14.848-11.264-14.336-16.896 1.024-33.792 0-50.176 0 2.048-6.144 7.68-5.632 12.288-5.632 10.24-0.512 20.992-0.512 31.232 0 9.728 0.512 13.824-3.072 13.312-13.312 0-7.68-2.048-15.872 3.584-23.04 0-72.704 0.512-145.408 0.512-217.6v-267.264c4.608 3.072 2.56 7.68 2.56 11.776 0 177.664 0 354.816 0.512 532.48 0 10.24-2.56 14.336-13.312 13.824-13.824-1.024-27.136-0.512-40.448-0.512z" fill="#BBD4C5" p-id="29535"></path><path d="M590.336 31.744c124.928 0 249.856 0 374.784-0.512 11.776 0 14.848 3.072 14.848 14.848-0.512 176.128-0.512 352.256-0.512 528.384 0 11.264-3.072 14.336-14.336 13.824-19.456-1.024-19.456 0-19.456-19.456v-10.24c0-158.72 0-317.44 0.512-476.16 0-11.776-3.072-14.848-14.848-14.848-238.592 0.512-477.184 0.512-715.776 0.512-15.872 0-15.872 0-15.872-16.384 0-19.456 0-19.456 19.456-19.456h5.12c121.856-0.512 244.224-0.512 366.08-0.512z" fill="#FEFEFE" p-id="29536"></path><path d="M824.32 656.384c0 8.704-1.024 17.92 0.512 26.112 1.536 11.776-3.584 13.824-14.336 13.824-15.872 0-31.744-3.072-47.104 2.048-30.208 3.584-57.344 15.872-83.968 30.208-54.272 30.208-103.936 67.584-156.672 100.352-91.136 56.832-188.416 98.816-295.424 117.248-59.904 10.24-120.832 12.288-181.248 11.264v-40.448c76.288 1.536 151.552-3.072 225.792-21.504 93.696-23.04 177.664-67.072 258.048-119.296 38.912-25.6 77.312-51.712 116.736-75.776 54.784-34.304 113.152-50.176 177.664-44.032z" fill="#4EB678" p-id="29537"></path><path d="M293.376 589.824c-28.672 28.672-62.976 34.816-99.84 27.136-22.528-5.12-38.4-19.968-41.984-43.52-4.096-25.6 1.024-49.152 23.04-65.536 18.432-14.336 39.936-18.944 62.976-19.456 14.848-0.512 29.696-0.512 44.544 0 9.216 0.512 10.752-3.584 9.728-11.264-2.048-19.456-12.288-30.72-30.72-34.816-12.288-2.56-24.576-2.048-36.352 1.024-11.264 3.072-20.48 9.728-23.552 20.992-2.56 8.704-6.656 11.264-14.848 10.24-2.56-0.512-5.12 0-7.68 0-24.576 0-25.6-1.024-15.872-24.064 11.264-26.112 32.256-38.912 59.392-43.008 17.408-2.56 34.304-2.56 51.712 1.024 39.936 8.704 58.88 30.72 59.904 71.168 1.024 41.984 0 84.48 0.512 126.464 0 6.656-2.048 9.216-8.704 8.192h-2.56c-8.192 0-18.432 2.56-25.088-1.024-7.68-3.584-0.512-14.848-4.608-23.552zM649.216 447.488c-33.792 0-65.024-0.512-96.768 0.512-10.752 0.512-13.312-3.072-12.8-13.312 1.024-22.016 0-22.016 22.016-22.016 44.544 0 88.576 0.512 133.12 0 9.216 0 12.288 2.048 12.288 11.776 0 11.264-3.072 19.968-10.24 28.672-32.768 38.912-65.024 78.848-97.28 118.272l-6.144 7.68c4.608 3.584 9.216 2.048 12.8 2.048 31.744 0 63.488 0.512 95.232 0 8.704 0 11.776 2.048 11.776 11.264-0.512 24.064 0 24.064-24.064 24.064h-143.36c-8.192 0-10.24-2.048-10.752-10.24-0.512-12.288 2.56-22.016 10.752-31.744 32.256-37.888 63.488-76.8 94.72-115.2 2.56-4.096 4.608-7.168 8.704-11.776z" fill="#0D7D42" p-id="29538"></path><path d="M441.344 496.128h61.952c6.656 0 8.704 2.048 8.704 8.704 1.024 26.624 1.024 26.624-25.6 26.624h-105.984c-7.68 0-9.728-1.536-9.728-9.728 0-25.6-0.512-25.6 25.6-25.6h45.056z" fill="#0E7D42" p-id="29539"></path><path d="M229.376 586.752c-20.992 0-33.792-8.704-35.84-24.576-2.048-16.896 8.704-32.256 27.136-37.888 22.016-6.656 44.544-2.56 66.56-3.584 6.144 0 5.12 4.096 5.12 7.68 0.512 34.304-25.6 58.368-62.976 58.368z" fill="#FEFEFE" p-id="29540"></path></svg>