<?xml version="1.0" standalone="no"?><!DOCTYPE svg PUBLIC "-//W3C//DTD SVG 1.1//EN" "http://www.w3.org/Graphics/SVG/1.1/DTD/svg11.dtd"><svg t="1570533135624" class="icon" viewBox="0 0 1024 1024" version="1.1" xmlns="http://www.w3.org/2000/svg" p-id="3141" width="20" height="20" xmlns:xlink="http://www.w3.org/1999/xlink"><defs><style type="text/css"></style></defs><path d="M875.13 449.36A70.75 70.75 0 0 0 874 438.6a85.65 85.65 0 0 0-5.16-17.18q-1.76-4.25-3.9-8.32c-1.22-2.33-2.53-4.61-3.91-6.85a101.42 101.42 0 0 0-8.91-12.25 86.93 86.93 0 0 0-9.15-9.36 79.49 79.49 0 0 0-10.76-7.76q-2.16-1.33-4.38-2.61l-6.12-3.53-24.2-14-12.68-7.32-10.69-6.17-22.36-12.95-11.25-6.5-23.94-13.8-13.54-7.82-11.37-6.56C521 197 295.2 66.77 290.38 65.37c-5.77-1.68-12.13-2-17.79 0.28-32.88 13.23-103.93 60.15-109.93 63.64h0.08c-7.81 4.5-12.68 14.08-12.72 27.69l-1.18 415.77c-0.08 27.31 19.3 60.88 43.07 74.6l531.41 306.77c12.58 7.26 24 7.56 31.9 2.19-0.39 0.26-0.78 0.52-1.19 0.75 34.85-20.25 114.68-69.13 116.25-72.31C874 877.28 874 869.11 874 861q0-93.8 0.52-187.59l0.12-29.44 0.12-29.69q0.06-14.71 0.11-29.41 0.13-25.87 0.13-51.74 0.06-24.76 0.08-49.51v-20.66c0.06-4.54 0.18-9.08 0.05-13.6z" fill="#DEE8FF" p-id="3142"></path><path d="M290.38 65.37c-5.77-1.68-12.13-2-17.79 0.28-32.88 13.23-103.93 60.15-109.93 63.64 7.25-4.21 16-3.35 23.58-0.47 2.89 1.1 294.16 167.62 454.61 261.77l50.83-95C521 197 295.2 66.77 290.38 65.37z" fill="#C0D3F2" p-id="3143"></path><path d="M685.14 291.81l-48 96.62c3.85 2.26 12 6.88 15.68 9.05l50.27-95.33z" fill="#BFD2F2" p-id="3144"></path><path d="M698.14 299.32l-50.57 95.16c4.62 2.72 15.95 9.16 20.31 11.73L716.59 310z" fill="#BED2F2" p-id="3145"></path><path d="M710.56 306.49l-48.42 96.39c8.47 5 20.08 11.5 27.46 15.85l50.93-94.94z" fill="#BDD1F2" p-id="3146"></path><path d="M734.2 320.14l-48.56 96.31c3.89 2.3 9.7 5.55 13.25 7.65l52.89-93.8z" fill="#BCD1F1" p-id="3147"></path><path d="M746.47 327.23l-49.74 95.62c8.45 5 17.82 10.15 24.12 13.93l53.29-93.57z" fill="#BBD0F1" p-id="3148"></path><path d="M768.54 340L720 436.3c4 2.4 8.21 4.64 11.49 7.24l53.32-94.15z" fill="#BACFF1" p-id="3149"></path><path d="M778.76 345.88l-48.34 96.85c6.84 4.5 13.48 12.53 15 14.38l52-100.4z" fill="#B9CFF1" p-id="3150"></path><path d="M790.51 352.67l-48.38 100.69a2.55 2.55 0 0 1 0.28 0.24 103 103 0 0 1 14.9 21.33c0.75 1.44 3.65 7.93 4.33 9.4l60.06-113.64z" fill="#B8CEF1" p-id="3151"></path><path d="M827.82 374.22l-13-7.49-55.36 112.57a104.8 104.8 0 0 1 6.83 20.1l65.92-122.57q-2.21-1.33-4.39-2.61z" fill="#B7CEF1" p-id="3152"></path><path d="M843 384.59a123.09 123.09 0 0 0-16.22-11L765 494.11c0.59 2.11 1.1 4.25 1.52 6.4 1.85 9.46 1.31 19.13 1.28 28.71v28.26L852.12 394a86.93 86.93 0 0 0-9.12-9.41z" fill="#B6CDF1" p-id="3153"></path><path d="M846.25 387.62l-78.48 153.53c0 8.8-0.05 34.76-0.08 44.5L861 406.24c-2.67-4.3-10.11-14.51-14.75-18.62z" fill="#B4CCF0" p-id="3154"></path><path d="M864.89 413.09c-1.22-2.33-5.5-9.86-7.79-12.56L767.69 569c0 9.3-0.05 34.24-0.08 44.21l101.18-191.79q-1.79-4.26-3.9-8.33z" fill="#B3CCF0" p-id="3155"></path><path d="M865.94 415.16L767.61 598c0 8.58 0 32.15-0.07 41.09L874 438.6c-1.14-5.89-4.61-17.28-8.06-23.44z" fill="#B2CBF0" p-id="3156"></path><path d="M875.13 462.95c0-4.53 0.13-9.06 0-13.59-0.11-3.62-1-13.46-2.91-17.9L767.53 624.29c0 15.41-0.09 46.77-0.13 62.77l107.71-192.41c0-6.89 0.02-24.81 0.02-31.7z" fill="#B1CBF0" p-id="3157"></path><path d="M875.11 483.61l-107.71 188c0 16.49-0.09 48.28-0.14 64.75L875 548.65c0.07-16.5 0.09-48.53 0.11-65.04z" fill="#B0CAF0" p-id="3158"></path><path d="M875 533.13L767.26 721.18c0 17.57-0.1 49.88-0.15 66.64l107.76-188.25c0.06-17.24 0.13-49.21 0.13-66.44z" fill="#AFC9F0" p-id="3159"></path><path d="M874.87 584.84l-107.76 188c0 10-0.06 33.85-0.08 43.36l107.73-186.63c0.04-9.81 0.08-34.93 0.11-44.73z" fill="#AEC9EF" p-id="3160"></path><path d="M874.76 614.25L767 802.24c0 10.26-0.06 33.13-0.08 42.58l107.72-188.25c0.04-9.9 0.08-32.43 0.12-42.32z" fill="#ADC8EF" p-id="3161"></path><path d="M874.64 643.93l-107.7 187.93c0 10.4-0.06 34.33-0.08 43.46L874.52 690c0.04-9.83 0.08-36.25 0.12-46.07z" fill="#ACC8EF" p-id="3162"></path><path d="M870.28 884.75C874 877.28 874 869.11 874 861q0-93.8 0.52-187.59L766.86 861.23c-0.11 39.25-0.19 65.41-0.19 66.86a51.61 51.61 0 0 1-1.22 12.08c-1.64 6.78-5.24 13.3-11.42 16.89 34.85-20.25 114.68-69.13 116.25-72.31z" fill="#ABC7EF" p-id="3163"></path><path d="M724.78 439c23.77 13.72 43.15 47.29 43.07 74.6l-1.18 415.77c-0.08 27.31-19.58 38.43-43.35 24.7L191.91 647.31c-23.77-13.72-43.15-47.29-43.07-74.6L150 156.94c0.08-27.31 19.58-38.42 43.35-24.7z" fill="#F5F9FF" p-id="3164"></path><path d="M342.68 412.26c-0.44-14.76-4.17-29.47-9.83-43.06a162.88 162.88 0 0 0-20.5-35.83c-0.82-1.08-1.64-2.17-2.5-3.23-0.49-0.61-1-1.22-1.49-1.83q-1.79-2.16-3.66-4.26a132.58 132.58 0 0 0-10.91-10.91q-2-1.77-4.07-3.45-1.72-1.39-3.49-2.71-3.28-2.44-6.74-4.62c-1-0.65-2.07-1.28-3.12-1.89l-1-0.58a78.73 78.73 0 0 0-8.49-4.13c-1.2-0.49-2.42-0.94-3.66-1.37s-2.54-0.84-3.82-1.2-2.54-0.63-3.82-0.88a43.7 43.7 0 0 0-11.41-0.8c-0.75 0.05-1.49 0.13-2.24 0.23a34.78 34.78 0 0 0-4 0.75c-0.7 0.18-1.4 0.36-2.09 0.58a38 38 0 0 0-6.49 2.87c-1.25 0.68-2.49 1.4-3.74 2.12l-0.41 0.24-9.59 5.58-0.64 0.37 0.16-0.09c-12 6.89-19.47 21.66-19.53 42.7-0.12 42.16 29.52 93.5 66.21 114.68 18.68 10.78 35.57 11.66 47.68 4.37l-0.41 0.26 3.3-1.92 10.37-6c9.45-5.49 15.15-14.75 17.87-25.16a73.82 73.82 0 0 0 2.06-20.83z" fill="#FFC2B6" p-id="3165"></path><path d="M225.19 298.3l-9.59 5.58-0.64 0.37a33 33 0 0 1 11.78-4.07l0.16-2.87z" fill="#FFA58D" p-id="3166"></path><path d="M225.59 298.06v2.31a52.16 52.16 0 0 1 6-0.6l-0.48-4.78c-1.52 0.73-4.37 2.36-5.52 3.07z" fill="#FFA48B" p-id="3167"></path><path d="M235.82 293.08a38 38 0 0 0-6.49 2.87v4a57.74 57.74 0 0 1 9.93 0.4l0.5-8.22a40.55 40.55 0 0 0-3.94 0.95z" fill="#FFA28A" p-id="3168"></path><path d="M237.91 292.5v7.65c1.33 0.17 4.3 0.73 5.62 1l-0.24-9.56a41.64 41.64 0 0 0-5.38 0.91z" fill="#FFA088" p-id="3169"></path><path d="M241.9 291.75v9.06c0.75 0.16 4.24 1.07 5 1.26l-1.07-10.63a37.78 37.78 0 0 0-3.93 0.31z" fill="#FF9F86" p-id="3170"></path><path d="M244.14 291.52v9.8A84.32 84.32 0 0 1 259 307.1l-1.48-14.36a46 46 0 0 0-13.38-1.22z" fill="#FF9D84" p-id="3171"></path><path d="M255.54 292.33v13.08q1.36 0.63 2.68 1.32l3.61 1.94-0.61-14.9a46.94 46.94 0 0 0-5.68-1.44z" fill="#FF9B82" p-id="3172"></path><path d="M259.37 293.21v14.13c1.29 0.69 5.36 3.09 6.61 3.84l-1-16.11c-1.27-0.53-4.24-1.51-5.61-1.86z" fill="#FF9A80" p-id="3173"></path><path d="M263.19 294.41v15.08c1.24 0.73 5.55 3.58 6.75 4.36l-0.87-17.12c-1.24-0.65-4.65-1.9-5.88-2.32z" fill="#FF987F" p-id="3174"></path><path d="M266.84 295.77v16c2.92 1.91 8.4 6.18 11.13 8.37l-0.43-19a88.26 88.26 0 0 0-10.7-5.37z" fill="#FF967D" p-id="3175"></path><path d="M276.37 300.48l-1-0.58v18c1.41 1.13 4.92 4.26 6.28 5.46l0.1-19.59c-1.16-0.77-4.32-2.68-5.38-3.29z" fill="#FF957B" p-id="3176"></path><path d="M279.49 302.37v19.07c2.33 2.05 6.44 6.2 8.61 8.42l-0.37-21.73c-2.2-1.74-5.93-4.31-8.24-5.76z" fill="#FF9379" p-id="3177"></path><path d="M286.23 307v20.86c1.19 1.22 4 4.41 5.19 5.67l0.09-22.34c-1.33-1.19-4.16-3.4-5.28-4.19z" fill="#FF9177" p-id="3178"></path><path d="M289.72 309.7v21.88c1.4 1.55 4.66 5.45 6 7.06v-23.76c-1.38-1.3-4.62-4.06-6-5.18z" fill="#FF9075" p-id="3179"></path><path d="M293.79 313.15v23.15c3.92 4.77 9.42 12.76 12.76 17.93l-0.27-28.36a132.41 132.41 0 0 0-12.49-12.72z" fill="#FF8E74" p-id="3180"></path><path d="M304.7 324.06v27.19c1.26 2 3.76 6.13 4.94 8.13l-0.47-30.07c-1.17-1.5-3.22-3.86-4.47-5.25z" fill="#FF8C72" p-id="3181"></path><path d="M309.85 330.14c-0.49-0.61-1-1.22-1.49-1.83v28.87c1.39 2.35 4.26 7.63 5.53 10.06l-0.5-32.48c-0.83-1.16-2.69-3.56-3.54-4.62zM309 466.17l3.3-1.92v-0.31a31.29 31.29 0 0 1-3.3 2.23z" fill="#FF8B70" p-id="3182"></path><path d="M332.85 369.2a162.88 162.88 0 0 0-20.5-35.83v31c2 3.9 4 7.88 5.69 11.94 6 14 9.86 29.2 10.35 44.47 0.48 14.87-2.75 31.9-14.6 42-0.47 0.4-1 0.78-1.44 1.16v0.31l10.37-6c9.45-5.49 15.15-14.75 17.87-25.16a73.82 73.82 0 0 0 2.1-20.81c-0.45-14.78-4.18-29.49-9.84-43.08z" fill="#FF896E" p-id="3183"></path><path d="M262.22 308.88c36.68 21.18 66.33 72.53 66.21 114.68s-30 59.16-66.64 38-66.34-72.56-66.22-114.7 29.96-59.16 66.65-37.98z" fill="#FFC2B6" p-id="3184"></path><path d="M694 666.8a22.79 22.79 0 0 0-7.6-15.12 23.82 23.82 0 0 0-5.27-3.66l-0.2-0.1q-3.27-1.65-6.63-3.14-3.19-1.41-6.47-2.63c-2.11-0.79-4.23-1.51-6.38-2.16a87 87 0 0 0-11-2.59l-1-0.15q-3.18-0.48-6.38-0.69a73.68 73.68 0 0 0-24.82 2.53c-8.74 2.45-16.86 6.46-24.69 11L580 658l1-0.58c-5 2.86-9.85 6-14.68 9.14-1.95 1.27-3.9 2.55-5.86 3.82a53.17 53.17 0 0 1-16.82 5.48h-0.13a38.8 38.8 0 0 1-18.4-2.29 99.18 99.18 0 0 1-10.82-4.86 124 124 0 0 1-15.22-9.45q-4.34-3.13-8.46-6.55c-7.13-5.9-13.85-12.28-20.43-18.8-3.32-3.29-6.62-6.61-9.91-9.92-6.54-6.58-13.11-13.11-19.81-19.51-3.71-3.55-7.46-7.06-11.28-10.5q-3.27-2.93-6.61-5.79a335.74 335.74 0 0 0-26.77-20.83q-2.38-1.66-4.78-3.28a225.61 225.61 0 0 0-31.33-18.22 142.9 142.9 0 0 0-40.28-12 130.35 130.35 0 0 0-41.67 1 138 138 0 0 0-38.55 13.26c-5.92 3.08-11.63 6.6-17.4 10a89.77 89.77 0 0 0-8.78 5.48c-5.21 3.72-3.15 11.64-0.7 16.41a22.08 22.08 0 0 0 8.44 9.32 8.56 8.56 0 0 0 6.21 1.19 7.71 7.71 0 0 0 2.42-1.3l-0.57 0.41a5.37 5.37 0 0 1-0.53 0.35l14.31-8.32a5.33 5.33 0 0 0 0.53-0.35l0.31-0.22a128.64 128.64 0 0 1 25.68-9 118.61 118.61 0 0 1 55.78 0c18.79 4.63 35.59 14.14 51.46 25a341 341 0 0 1 43.15 35.47c14.48 13.83 28.09 28.57 42.92 42 14.17 12.88 29.69 24.45 47.39 32 8.54 3.65 17.48 6.07 26.84 5.61s18.44-3.75 26.75-8.15c1.61-0.85 3.2-1.75 4.78-2.67l-0.39 0.23 14.31-8.32c4-2.33 7.94-4.86 11.86-7.41 2.65-1.73 5.3-3.47 8-5.17a84.11 84.11 0 0 1 12.5-5.22 61.55 61.55 0 0 1 26.9-2.47 81.09 81.09 0 0 1 24.21 7.61c3.06 1.47 6.62 4.12 10.2 2.82a5.16 5.16 0 0 0 1-0.48l-0.13 0.08 4.35-2.53 3.06-1.78 2.4-1.4 2.54-1.48a19.36 19.36 0 0 0 2.6-1.59c2.13-1.76 2.58-4.81 2.41-7.44z" fill="#DEE8FF" p-id="3185"></path><path d="M359.71 545.81a142.9 142.9 0 0 0-40.28-12 130.35 130.35 0 0 0-41.67 1 138 138 0 0 0-38.55 13.26c-6 3.11-11.71 6.65-17.52 10l-1.83 1.06a136.07 136.07 0 0 1 37.75-14.82 132.48 132.48 0 0 1 41.82-2.87 138.55 138.55 0 0 1 41.34 10.59c13 5.54 25.17 13 36.9 20.9 4.55 3.07 13 9.24 17.42 12.67l0.25-18.67c-10.2-7.11-24.68-16.04-35.63-21.12z" fill="#C0D3F2" p-id="3186"></path><path d="M395.82 567.31q-2.38-1.66-4.78-3.28v18.51c7.13 5.39 14 11.07 20.75 17 3.66 3.22 11.25 10.32 14.8 13.65l-0.38-21.87a361.92 361.92 0 0 0-30.39-24.01z" fill="#BDD1F2" p-id="3187"></path><path d="M429.2 593.94q-3.27-2.93-6.61-5.79v21.21c6.07 5.69 14.88 14.37 20.76 20.26l1.2-21.26c-4.12-4.06-11.55-10.99-15.35-14.42z" fill="#BAD0F1" p-id="3188"></path><path d="M460.3 624c-6.54-6.58-13.11-13.11-19.81-19.51v22.32l2.8 2.79c8.82 8.87 20.06 20.54 30 28.86l1.41-20.14c-3.33-3.32-11.11-11.06-14.4-14.32z" fill="#B7CEF1" p-id="3189"></path><path d="M490.64 652.67c-7.13-5.9-13.85-12.28-20.43-18.8v21.84q2 1.74 3.95 3.44c7.73 6.6 18.59 14.41 28 18.87l2.39-15.02a163.73 163.73 0 0 1-13.91-10.33z" fill="#B4CCF0" p-id="3190"></path><path d="M499.1 659.22v17.24a105.55 105.55 0 0 0 9.72 4.57 51.59 51.59 0 0 0 9.8 2.87l0.5-12.88a124.58 124.58 0 0 1-20.02-11.8z" fill="#B1CAF0" p-id="3191"></path><path d="M525.15 673.53a99.18 99.18 0 0 1-10.82-4.86v14.25a36.79 36.79 0 0 0 12.81 1.42 53.76 53.76 0 0 0 18.53-5.44l0.8-3.55a39.86 39.86 0 0 1-21.32-1.82z" fill="#AEC9EF" p-id="3192"></path><path d="M543.69 675.81h-0.13v4.07q1.13-0.51 2.24-1c6.55-3.2 12.79-7.13 19.09-10.79l1.89-1.1q-2.21 1.29-4.48 2.47c-5.82 3-12.06 5.54-18.61 6.35z" fill="#ABC7EF" p-id="3193"></path><path d="M631.65 645.12a105.93 105.93 0 0 1 13.89 2.74l-0.35-11.12a75.24 75.24 0 0 0-27 2.36c-8.74 2.45-16.86 6.46-24.69 11L580 658a102.36 102.36 0 0 1 24.7-10.8 73.47 73.47 0 0 1 26.95-2.08z" fill="#C0D3F2" p-id="3194"></path><path d="M651.42 649.7l-0.08-12.13c-2.14-0.41-6.19-0.86-8.32-1v10.62c2.15 0.53 6.27 1.74 8.4 2.51z" fill="#BDD1F2" p-id="3195"></path><path d="M657.33 651.94c1.39 0.57 4.81 2.13 6.18 2.75l0.77-13.8a97.44 97.44 0 0 0-13.84-3.48l-1-0.15V649q3.98 1.33 7.89 2.94z" fill="#BAD0F1" p-id="3196"></path><path d="M663.77 654.82a56.18 56.18 0 0 1 5.44 2.81l0.62-14.71c-2.14-0.87-6.21-2.27-8.36-2.92v13.74c0.76 0.36 1.53 0.71 2.3 1.08z" fill="#B7CEF1" p-id="3197"></path><path d="M669.51 657.82a26.51 26.51 0 0 1 6.11 6.19l1.26-18.07c-2.24-1.08-6.85-3-9-3.79v14.67c0.53 0.32 1.12 0.64 1.63 1z" fill="#B4CCF0" p-id="3198"></path><path d="M675.79 664.28a23.15 23.15 0 0 1 3.83 9.94c0.36 3.09-0.05 7.08-3 8.81l7.05-4.1-1-30.07c-2.24-1.32-6.12-3.09-8.36-4.08v17.48c0.52 0.65 1.03 1.32 1.48 2.02z" fill="#B1CAF0" p-id="3199"></path><path d="M684 678.72l5-2.93-1-22.45a26.08 26.08 0 0 0-6.93-5.33l-0.2-0.1v32.59z" fill="#AEC9EF" p-id="3200"></path><path d="M688.94 675.85a19.36 19.36 0 0 0 2.6-1.59c2.17-1.78 2.62-4.82 2.46-7.46a22.79 22.79 0 0 0-7.6-15.12v25.65z" fill="#ABC7EF" p-id="3201"></path><path d="M668.5 657.2c6.37 3.66 11.29 11.54 11.24 19 0 2.88-1 6.19-4 7.27-3.58 1.29-7.14-1.35-10.2-2.82a81.09 81.09 0 0 0-24.21-7.65 61.55 61.55 0 0 0-26.9 2.47c-18.82 6-33.79 19.44-51 28.56-8.31 4.4-17.29 7.68-26.75 8.15s-18.3-2-26.84-5.61c-17.7-7.56-33.22-19.13-47.39-32-14.83-13.47-28.44-28.22-42.92-42A341 341 0 0 0 376.34 597c-15.87-10.82-32.67-20.33-51.46-25a118.61 118.61 0 0 0-55.78 0c-13.85 3.3-27.78 8.85-39.53 17a8.44 8.44 0 0 1-2.61 1.44 8.56 8.56 0 0 1-6.21-1.19 22.08 22.08 0 0 1-8.44-9.32c-2.44-4.77-4.5-12.69 0.7-16.41a106.8 106.8 0 0 1 16.35-9.35 139.11 139.11 0 0 1 21-7.94 132.9 132.9 0 0 1 52.64-4.38 145.41 145.41 0 0 1 53.62 18 316.51 316.51 0 0 1 46.28 32c14.75 12.18 28.39 25.57 41.87 39.12s26.88 27.55 42.69 38.4c7.75 5.32 16.28 10.13 25.25 13.06 9.35 3.05 19 2.14 28.08-1.44s17.37-9.21 25.57-14.56c7.86-5.13 15.78-10.21 24.32-14.16a80.56 80.56 0 0 1 25.78-7.27 77.87 77.87 0 0 1 27.19 2.3 115.45 115.45 0 0 1 24.85 9.9z" fill="#DEE8FF" p-id="3202"></path></svg>